G04*
G04 #@! TF.GenerationSoftware,Altium Limited,Altium Designer,21.2.2 (38)*
G04*
G04 Layer_Color=2752767*
%FSLAX25Y25*%
%MOIN*%
G70*
G04*
G04 #@! TF.SameCoordinates,98E345A6-E5E3-4E7C-82CD-A9440516B19A*
G04*
G04*
G04 #@! TF.FilePolarity,Positive*
G04*
G01*
G75*
%ADD69C,0.00200*%
%ADD70C,0.00267*%
%ADD71C,0.00133*%
D69*
X187995Y273342D02*
Y274942D01*
X189595D01*
Y273342D01*
X187995D01*
Y291058D02*
Y292658D01*
X189595D01*
Y291058D01*
X187995D01*
X162405D02*
Y292658D01*
X164005D01*
Y291058D01*
X162405D01*
Y273342D02*
Y274942D01*
X164005D01*
Y273342D01*
X162405D01*
X283992Y301472D02*
X283192Y303072D01*
X284792D01*
X283992Y301472D01*
X318008D02*
X317208Y303072D01*
X318808D01*
X318008Y301472D01*
X283992Y322574D02*
X284392Y322974D01*
X284792D01*
X284392Y323374D01*
X284792Y323774D01*
X284392D01*
X283992Y324174D01*
X283592Y323774D01*
X283192D01*
X283592Y323374D01*
X283192Y322974D01*
X283592D01*
X283992Y322574D01*
X318008D02*
X318408Y322974D01*
X318808D01*
X318408Y323374D01*
X318808Y323774D01*
X318408D01*
X318008Y324174D01*
X317608Y323774D01*
X317208D01*
X317608Y323374D01*
X317208Y322974D01*
X317608D01*
X318008Y322574D01*
X310200Y139483D02*
Y141083D01*
X311800D01*
Y139483D01*
X310200D01*
Y157200D02*
Y158800D01*
X311800D01*
Y157200D01*
X310200D01*
X335791D02*
Y158800D01*
X337391D01*
Y157200D01*
X335791D01*
Y139483D02*
Y141083D01*
X337391D01*
Y139483D01*
X335791D01*
X262905Y139342D02*
Y140942D01*
X264505D01*
Y139342D01*
X262905D01*
Y157058D02*
Y158658D01*
X264505D01*
Y157058D01*
X262905D01*
X288495D02*
Y158658D01*
X290095D01*
Y157058D01*
X288495D01*
Y139342D02*
Y140942D01*
X290095D01*
Y139342D01*
X288495D01*
X374905Y245842D02*
Y247442D01*
X376505D01*
Y245842D01*
X374905D01*
Y263558D02*
Y265158D01*
X376505D01*
Y263558D01*
X374905D01*
X400495D02*
Y265158D01*
X402095D01*
Y263558D01*
X400495D01*
Y245842D02*
Y247442D01*
X402095D01*
Y245842D01*
X400495D01*
X427405Y213342D02*
Y214942D01*
X429005D01*
Y213342D01*
X427405D01*
Y231058D02*
Y232658D01*
X429005D01*
Y231058D01*
X427405D01*
X452995D02*
Y232658D01*
X454595D01*
Y231058D01*
X452995D01*
Y213342D02*
Y214942D01*
X454595D01*
Y213342D01*
X452995D01*
X162700Y185483D02*
Y187083D01*
X164300D01*
Y185483D01*
X162700D01*
Y203200D02*
Y204800D01*
X164300D01*
Y203200D01*
X162700D01*
X188291D02*
Y204800D01*
X189891D01*
Y203200D01*
X188291D01*
Y185483D02*
Y187083D01*
X189891D01*
Y185483D01*
X188291D01*
X202700Y230483D02*
Y232083D01*
X204300D01*
Y230483D01*
X202700D01*
Y248200D02*
Y249800D01*
X204300D01*
Y248200D01*
X202700D01*
X228291D02*
Y249800D01*
X229891D01*
Y248200D01*
X228291D01*
Y230483D02*
Y232083D01*
X229891D01*
Y230483D01*
X228291D01*
X122700D02*
Y232083D01*
X124300D01*
Y230483D01*
X122700D01*
Y248200D02*
Y249800D01*
X124300D01*
Y248200D01*
X122700D01*
X148291D02*
Y249800D01*
X149891D01*
Y248200D01*
X148291D01*
Y230483D02*
Y232083D01*
X149891D01*
Y230483D01*
X148291D01*
X451792Y316085D02*
X452192Y316885D01*
X451792Y317685D01*
X452592Y317285D01*
X453392Y317685D01*
X452992Y316885D01*
X453392Y316085D01*
X452592Y316485D01*
X451792Y316085D01*
X405600Y185100D02*
Y184700D01*
X406400D01*
Y185100D01*
X406800D01*
Y185900D01*
X406400D01*
Y186300D01*
X405600D01*
Y185900D01*
X405200D01*
Y185100D01*
X405600D01*
X176600Y242100D02*
Y241700D01*
X177400D01*
Y242100D01*
X177800D01*
Y242900D01*
X177400D01*
Y243300D01*
X176600D01*
Y242900D01*
X176200D01*
Y242100D01*
X176600D01*
X280700Y170200D02*
X281100D01*
X281500Y170600D01*
X281900Y170200D01*
X282300D01*
Y170600D01*
X281900Y171000D01*
X282300Y171400D01*
Y171800D01*
X281900D01*
X281500Y171400D01*
X281100Y171800D01*
X280700D01*
Y171400D01*
X281100Y171000D01*
X280700Y170600D01*
Y170200D01*
X225700Y275200D02*
X226100D01*
X226500Y275600D01*
X226900Y275200D01*
X227300D01*
Y275600D01*
X226900Y276000D01*
X227300Y276400D01*
Y276800D01*
X226900D01*
X226500Y276400D01*
X226100Y276800D01*
X225700D01*
Y276400D01*
X226100Y276000D01*
X225700Y275600D01*
Y275200D01*
X148200Y304700D02*
X148600D01*
X149000Y305100D01*
X149400Y304700D01*
X149800D01*
Y305100D01*
X149400Y305500D01*
X149800Y305900D01*
Y306300D01*
X149400D01*
X149000Y305900D01*
X148600Y306300D01*
X148200D01*
Y305900D01*
X148600Y305500D01*
X148200Y305100D01*
Y304700D01*
X149700Y292700D02*
X150100Y293500D01*
X149700Y294300D01*
X150500Y293900D01*
X151300Y294300D01*
X150900Y293500D01*
X151300Y292700D01*
X150500Y293100D01*
X149700Y292700D01*
Y317200D02*
X150100D01*
X150500Y317600D01*
X150900Y317200D01*
X151300D01*
Y317600D01*
X150900Y318000D01*
X151300Y318400D01*
Y318800D01*
X150900D01*
X150500Y318400D01*
X150100Y318800D01*
X149700D01*
Y318400D01*
X150100Y318000D01*
X149700Y317600D01*
Y317200D01*
X161946Y160180D02*
X162346Y160980D01*
X161946Y161780D01*
X162746Y161380D01*
X163546Y161780D01*
X163146Y160980D01*
X163546Y160180D01*
X162746Y160580D01*
X161946Y160180D01*
X187700Y303200D02*
X188100Y304000D01*
X187700Y304800D01*
X188500Y304400D01*
X189300Y304800D01*
X188900Y304000D01*
X189300Y303200D01*
X188500Y303600D01*
X187700Y303200D01*
X383048Y306548D02*
X383448Y307348D01*
X383048Y308148D01*
X383848Y307748D01*
X384648Y308148D01*
X384248Y307348D01*
X384648Y306548D01*
X383848Y306948D01*
X383048Y306548D01*
X261446Y230180D02*
X261846Y230980D01*
X261446Y231780D01*
X262246Y231380D01*
X263046Y231780D01*
X262646Y230980D01*
X263046Y230180D01*
X262246Y230580D01*
X261446Y230180D01*
X238700Y227700D02*
X239100Y228500D01*
X238700Y229300D01*
X239500Y228900D01*
X240300Y229300D01*
X239900Y228500D01*
X240300Y227700D01*
X239500Y228100D01*
X238700Y227700D01*
X343446Y206680D02*
X343846Y207480D01*
X343446Y208280D01*
X344246Y207880D01*
X345046Y208280D01*
X344646Y207480D01*
X345046Y206680D01*
X344246Y207080D01*
X343446Y206680D01*
X333700Y206700D02*
X334100Y207500D01*
X333700Y208300D01*
X334500Y207900D01*
X335300Y208300D01*
X334900Y207500D01*
X335300Y206700D01*
X334500Y207100D01*
X333700Y206700D01*
X321446Y206680D02*
X321846Y207480D01*
X321446Y208280D01*
X322246Y207880D01*
X323046Y208280D01*
X322646Y207480D01*
X323046Y206680D01*
X322246Y207080D01*
X321446Y206680D01*
X310446D02*
X310846Y207480D01*
X310446Y208280D01*
X311246Y207880D01*
X312046Y208280D01*
X311646Y207480D01*
X312046Y206680D01*
X311246Y207080D01*
X310446Y206680D01*
X300200Y206700D02*
X300600Y207500D01*
X300200Y208300D01*
X301000Y207900D01*
X301800Y208300D01*
X301400Y207500D01*
X301800Y206700D01*
X301000Y207100D01*
X300200Y206700D01*
X285700D02*
X286100Y207500D01*
X285700Y208300D01*
X286500Y207900D01*
X287300Y208300D01*
X286900Y207500D01*
X287300Y206700D01*
X286500Y207100D01*
X285700Y206700D01*
X273446Y206680D02*
X273846Y207480D01*
X273446Y208280D01*
X274246Y207880D01*
X275046Y208280D01*
X274646Y207480D01*
X275046Y206680D01*
X274246Y207080D01*
X273446Y206680D01*
X264446D02*
X264846Y207480D01*
X264446Y208280D01*
X265246Y207880D01*
X266046Y208280D01*
X265646Y207480D01*
X266046Y206680D01*
X265246Y207080D01*
X264446Y206680D01*
X423200Y157200D02*
X423600Y158000D01*
X423200Y158800D01*
X424000Y158400D01*
X424800Y158800D01*
X424400Y158000D01*
X424800Y157200D01*
X424000Y157600D01*
X423200Y157200D01*
X457446Y174180D02*
X457846Y174980D01*
X457446Y175780D01*
X458246Y175380D01*
X459046Y175780D01*
X458646Y174980D01*
X459046Y174180D01*
X458246Y174580D01*
X457446Y174180D01*
X409446Y296680D02*
X409846Y297480D01*
X409446Y298280D01*
X410246Y297880D01*
X411046Y298280D01*
X410646Y297480D01*
X411046Y296680D01*
X410246Y297080D01*
X409446Y296680D01*
X257946Y273180D02*
X258346Y273980D01*
X257946Y274780D01*
X258746Y274380D01*
X259546Y274780D01*
X259146Y273980D01*
X259546Y273180D01*
X258746Y273580D01*
X257946Y273180D01*
X277446Y294680D02*
X277846Y295480D01*
X277446Y296280D01*
X278246Y295880D01*
X279046Y296280D01*
X278646Y295480D01*
X279046Y294680D01*
X278246Y295080D01*
X277446Y294680D01*
X217200Y306200D02*
X217600D01*
X218000Y306600D01*
X218400Y306200D01*
X218800D01*
Y306600D01*
X218400Y307000D01*
X218800Y307400D01*
Y307800D01*
X218400D01*
X218000Y307400D01*
X217600Y307800D01*
X217200D01*
Y307400D01*
X217600Y307000D01*
X217200Y306600D01*
Y306200D01*
X453946Y280180D02*
X454346Y280980D01*
X453946Y281780D01*
X454746Y281380D01*
X455546Y281780D01*
X455146Y280980D01*
X455546Y280180D01*
X454746Y280580D01*
X453946Y280180D01*
X252700Y261200D02*
X253100D01*
X253500Y261600D01*
X253900Y261200D01*
X254300D01*
Y261600D01*
X253900Y262000D01*
X254300Y262400D01*
Y262800D01*
X253900D01*
X253500Y262400D01*
X253100Y262800D01*
X252700D01*
Y262400D01*
X253100Y262000D01*
X252700Y261600D01*
Y261200D01*
X244700Y298200D02*
X245100D01*
X245500Y298600D01*
X245900Y298200D01*
X246300D01*
Y298600D01*
X245900Y299000D01*
X246300Y299400D01*
Y299800D01*
X245900D01*
X245500Y299400D01*
X245100Y299800D01*
X244700D01*
Y299400D01*
X245100Y299000D01*
X244700Y298600D01*
Y298200D01*
X252700Y219776D02*
X253100D01*
X253500Y220176D01*
X253900Y219776D01*
X254300D01*
Y220176D01*
X253900Y220576D01*
X254300Y220976D01*
Y221376D01*
X253900D01*
X253500Y220976D01*
X253100Y221376D01*
X252700D01*
Y220976D01*
X253100Y220576D01*
X252700Y220176D01*
Y219776D01*
X247700Y219700D02*
X248100D01*
X248500Y220100D01*
X248900Y219700D01*
X249300D01*
Y220100D01*
X248900Y220500D01*
X249300Y220900D01*
Y221300D01*
X248900D01*
X248500Y220900D01*
X248100Y221300D01*
X247700D01*
Y220900D01*
X248100Y220500D01*
X247700Y220100D01*
Y219700D01*
X228700Y161000D02*
X229500Y161800D01*
X230300Y161000D01*
X229500Y160200D01*
X228700Y161000D01*
X301700Y242700D02*
Y244300D01*
X303300D01*
Y242700D01*
X301700D01*
X302100Y243100D02*
Y243900D01*
X302900D01*
Y243100D01*
X302100D01*
X294439Y242939D02*
Y244539D01*
X296039D01*
Y242939D01*
X294439D01*
X294839Y243339D02*
Y244139D01*
X295639D01*
Y243339D01*
X294839D01*
X207700Y304700D02*
X208100D01*
X208500Y305100D01*
X208900Y304700D01*
X209300D01*
Y305100D01*
X208900Y305500D01*
X209300Y305900D01*
Y306300D01*
X208900D01*
X208500Y305900D01*
X208100Y306300D01*
X207700D01*
Y305900D01*
X208100Y305500D01*
X207700Y305100D01*
Y304700D01*
X203200D02*
X203600D01*
X204000Y305100D01*
X204400Y304700D01*
X204800D01*
Y305100D01*
X204400Y305500D01*
X204800Y305900D01*
Y306300D01*
X204400D01*
X204000Y305900D01*
X203600Y306300D01*
X203200D01*
Y305900D01*
X203600Y305500D01*
X203200Y305100D01*
Y304700D01*
X380026Y208514D02*
X380426Y209314D01*
X380026Y210115D01*
X380826Y209715D01*
X381626Y210115D01*
X381226Y209314D01*
X381626Y208514D01*
X380826Y208914D01*
X380026Y208514D01*
X254526Y159514D02*
X254926D01*
X255326Y159915D01*
X255726Y159514D01*
X256126D01*
Y159915D01*
X255726Y160315D01*
X256126Y160714D01*
Y161115D01*
X255726D01*
X255326Y160714D01*
X254926Y161115D01*
X254526D01*
Y160714D01*
X254926Y160315D01*
X254526Y159915D01*
Y159514D01*
X336200Y171200D02*
X336600D01*
X337000Y171600D01*
X337400Y171200D01*
X337800D01*
Y171600D01*
X337400Y172000D01*
X337800Y172400D01*
Y172800D01*
X337400D01*
X337000Y172400D01*
X336600Y172800D01*
X336200D01*
Y172400D01*
X336600Y172000D01*
X336200Y171600D01*
Y171200D01*
X327700D02*
X328100D01*
X328500Y171600D01*
X328900Y171200D01*
X329300D01*
Y171600D01*
X328900Y172000D01*
X329300Y172400D01*
Y172800D01*
X328900D01*
X328500Y172400D01*
X328100Y172800D01*
X327700D01*
Y172400D01*
X328100Y172000D01*
X327700Y171600D01*
Y171200D01*
X297700Y168700D02*
X298100D01*
X298500Y169100D01*
X298900Y168700D01*
X299300D01*
Y169100D01*
X298900Y169500D01*
X299300Y169900D01*
Y170300D01*
X298900D01*
X298500Y169900D01*
X298100Y170300D01*
X297700D01*
Y169900D01*
X298100Y169500D01*
X297700Y169100D01*
Y168700D01*
X290200D02*
X290600D01*
X291000Y169100D01*
X291400Y168700D01*
X291800D01*
Y169100D01*
X291400Y169500D01*
X291800Y169900D01*
Y170300D01*
X291400D01*
X291000Y169900D01*
X290600Y170300D01*
X290200D01*
Y169900D01*
X290600Y169500D01*
X290200Y169100D01*
Y168700D01*
X279700Y259200D02*
Y260800D01*
X281300D01*
Y259200D01*
X279700D01*
X280100Y259600D02*
Y260400D01*
X280900D01*
Y259600D01*
X280100D01*
X287700Y259700D02*
Y261300D01*
X289300D01*
Y259700D01*
X287700D01*
X288100Y260100D02*
Y260900D01*
X288900D01*
Y260100D01*
X288100D01*
X329200Y243200D02*
Y244800D01*
X330800D01*
Y243200D01*
X329200D01*
X329600Y243600D02*
Y244400D01*
X330400D01*
Y243600D01*
X329600D01*
X321200Y259700D02*
Y261300D01*
X322800D01*
Y259700D01*
X321200D01*
X321600Y260100D02*
Y260900D01*
X322400D01*
Y260100D01*
X321600D01*
X313200Y243200D02*
Y244800D01*
X314800D01*
Y243200D01*
X313200D01*
X313600Y243600D02*
Y244400D01*
X314400D01*
Y243600D01*
X313600D01*
X279200Y243200D02*
Y244800D01*
X280800D01*
Y243200D01*
X279200D01*
X279600Y243600D02*
Y244400D01*
X280400D01*
Y243600D01*
X279600D01*
X313200Y259700D02*
Y261300D01*
X314800D01*
Y259700D01*
X313200D01*
X313600Y260100D02*
Y260900D01*
X314400D01*
Y260100D01*
X313600D01*
X269700Y243200D02*
Y244800D01*
X271300D01*
Y243200D01*
X269700D01*
X270100Y243600D02*
Y244400D01*
X270900D01*
Y243600D01*
X270100D01*
X329200Y259700D02*
Y261300D01*
X330800D01*
Y259700D01*
X329200D01*
X329600Y260100D02*
Y260900D01*
X330400D01*
Y260100D01*
X329600D01*
X287700Y243200D02*
Y244800D01*
X289300D01*
Y243200D01*
X287700D01*
X288100Y243600D02*
Y244400D01*
X288900D01*
Y243600D01*
X288100D01*
X321200Y243200D02*
Y244800D01*
X322800D01*
Y243200D01*
X321200D01*
X321600Y243600D02*
Y244400D01*
X322400D01*
Y243600D01*
X321600D01*
X304200Y259700D02*
Y261300D01*
X305800D01*
Y259700D01*
X304200D01*
X304600Y260100D02*
Y260900D01*
X305400D01*
Y260100D01*
X304600D01*
X296200Y259700D02*
Y261300D01*
X297800D01*
Y259700D01*
X296200D01*
X296600Y260100D02*
Y260900D01*
X297400D01*
Y260100D01*
X296600D01*
X270700Y259700D02*
Y261300D01*
X272300D01*
Y259700D01*
X270700D01*
X271100Y260100D02*
Y260900D01*
X271900D01*
Y260100D01*
X271100D01*
X353700Y205000D02*
X354500Y205800D01*
X355300Y205000D01*
X354500Y204200D01*
X353700Y205000D01*
D70*
X172800Y324500D02*
X172247Y325261D01*
X171353Y324970D01*
Y324030D01*
X172247Y323739D01*
X172800Y324500D01*
X162800D02*
X162247Y325261D01*
X161353Y324970D01*
Y324030D01*
X162247Y323739D01*
X162800Y324500D01*
X182800D02*
X182247Y325261D01*
X181353Y324970D01*
Y324030D01*
X182247Y323739D01*
X182800Y324500D01*
X192800D02*
X192247Y325261D01*
X191353Y324970D01*
Y324030D01*
X192247Y323739D01*
X192800Y324500D01*
X259800D02*
X259247Y325261D01*
X258353Y324970D01*
Y324030D01*
X259247Y323739D01*
X259800Y324500D01*
X249800D02*
X249247Y325261D01*
X248353Y324970D01*
Y324030D01*
X249247Y323739D01*
X249800Y324500D01*
X239800D02*
X239247Y325261D01*
X238353Y324970D01*
Y324030D01*
X239247Y323739D01*
X239800Y324500D01*
X229800D02*
X229247Y325261D01*
X228353Y324970D01*
Y324030D01*
X229247Y323739D01*
X229800Y324500D01*
X219800D02*
X219247Y325261D01*
X218353Y324970D01*
Y324030D01*
X219247Y323739D01*
X219800Y324500D01*
X233131Y295331D02*
X232578Y296092D01*
X231683Y295801D01*
Y294861D01*
X232578Y294570D01*
X233131Y295331D01*
X228800D02*
X228247Y296092D01*
X227353Y295801D01*
Y294861D01*
X228247Y294570D01*
X228800Y295331D01*
X224469D02*
X223916Y296092D01*
X223022Y295801D01*
Y294861D01*
X223916Y294570D01*
X224469Y295331D01*
X233131Y291000D02*
X232578Y291761D01*
X231683Y291470D01*
Y290530D01*
X232578Y290239D01*
X233131Y291000D01*
X228800D02*
X228247Y291761D01*
X227353Y291470D01*
Y290530D01*
X228247Y290239D01*
X228800Y291000D01*
X224469D02*
X223916Y291761D01*
X223022Y291470D01*
Y290530D01*
X223916Y290239D01*
X224469Y291000D01*
X233131Y286669D02*
X232578Y287430D01*
X231683Y287139D01*
Y286199D01*
X232578Y285908D01*
X233131Y286669D01*
X228800D02*
X228247Y287430D01*
X227353Y287139D01*
Y286199D01*
X228247Y285908D01*
X228800Y286669D01*
X224469D02*
X223916Y287430D01*
X223022Y287139D01*
Y286199D01*
X223916Y285908D01*
X224469Y286669D01*
D71*
X232731Y295331D02*
X232131Y295677D01*
Y294984D01*
X232731Y295331D01*
X228400D02*
X227800Y295677D01*
Y294984D01*
X228400Y295331D01*
X224069D02*
X223469Y295677D01*
Y294984D01*
X224069Y295331D01*
X232731Y291000D02*
X232131Y291346D01*
Y290654D01*
X232731Y291000D01*
X228400D02*
X227800Y291346D01*
Y290654D01*
X228400Y291000D01*
X224069D02*
X223469Y291346D01*
Y290654D01*
X224069Y291000D01*
X232731Y286669D02*
X232131Y287016D01*
Y286323D01*
X232731Y286669D01*
X228400D02*
X227800Y287016D01*
Y286323D01*
X228400Y286669D01*
X224069D02*
X223469Y287016D01*
Y286323D01*
X224069Y286669D01*
M02*
