G04*
G04 #@! TF.GenerationSoftware,Altium Limited,Altium Designer,21.2.2 (38)*
G04*
G04 Layer_Color=16711935*
%FSLAX25Y25*%
%MOIN*%
G70*
G04*
G04 #@! TF.SameCoordinates,98E345A6-E5E3-4E7C-82CD-A9440516B19A*
G04*
G04*
G04 #@! TF.FilePolarity,Positive*
G04*
G01*
G75*
%ADD12C,0.00787*%
%ADD13C,0.00394*%
D12*
X140842Y147158D02*
Y166842D01*
X121158Y147158D02*
X140842D01*
X121158D02*
Y166842D01*
X140842D01*
X121658Y147158D02*
Y166842D01*
Y147158D02*
X141342D01*
Y166842D01*
X121658D02*
X141342D01*
X458343Y149657D02*
Y169343D01*
X438658Y149657D02*
X458343D01*
X438658D02*
Y169343D01*
X458343D01*
X438658Y149657D02*
Y169343D01*
Y149657D02*
X458343D01*
Y169343D01*
X438658D02*
X458343D01*
X122158Y294657D02*
Y314342D01*
Y294657D02*
X141842D01*
Y314342D01*
X122158D02*
X141842D01*
X442303Y308346D02*
X461988D01*
Y288661D02*
Y308346D01*
X442303Y288661D02*
X461988D01*
X442303D02*
Y308346D01*
X122512Y314543D02*
X142197D01*
X122512Y294858D02*
Y314543D01*
Y294858D02*
X142197D01*
Y314543D01*
X441657Y308842D02*
X461342D01*
X441657Y289158D02*
Y308842D01*
Y289158D02*
X461342D01*
Y308842D01*
D13*
X243110Y176799D02*
X242846Y177784D01*
X242126Y178504D01*
X241142Y178768D01*
X240158Y178504D01*
X239437Y177784D01*
X239173Y176799D01*
X239437Y175815D01*
X240158Y175094D01*
X241142Y174831D01*
X242126Y175094D01*
X242846Y175815D01*
X243110Y176799D01*
X236268Y297299D02*
X236004Y298284D01*
X235283Y299004D01*
X234299Y299268D01*
X233315Y299004D01*
X232594Y298284D01*
X232331Y297299D01*
X232594Y296315D01*
X233315Y295594D01*
X234299Y295331D01*
X235283Y295594D01*
X236004Y296315D01*
X236268Y297299D01*
X164189Y271189D02*
X187811D01*
X164189D02*
Y294811D01*
X187811Y271189D02*
Y294811D01*
X164189D02*
X187811D01*
X276303Y243736D02*
X281303Y238736D01*
X276303D02*
X326697D01*
Y268264D01*
X276303D02*
X326697D01*
X276303Y238736D02*
Y268264D01*
X205315Y173256D02*
X244685D01*
X205315Y212626D02*
X244685D01*
Y173256D02*
Y212626D01*
X205315Y173256D02*
Y212626D01*
X433354Y153413D02*
Y162075D01*
X427646Y153413D02*
Y162075D01*
Y153413D02*
X433354D01*
X427646Y162075D02*
X433354D01*
X431146Y292913D02*
Y301575D01*
X436854Y292913D02*
Y301575D01*
X431146D02*
X436854D01*
X431146Y292913D02*
X436854D01*
X146146Y298413D02*
X151854D01*
X146146Y307075D02*
X151854D01*
X146146Y298413D02*
Y307075D01*
X151854Y298413D02*
Y307075D01*
X146146Y298413D02*
Y307075D01*
X151854Y298413D02*
Y307075D01*
X146146D02*
X151854D01*
X146146Y298413D02*
X151854D01*
X145146Y149913D02*
X150854D01*
X145146Y158575D02*
X150854D01*
X145146Y149913D02*
Y158575D01*
X150854Y149913D02*
Y158575D01*
X145146Y149913D02*
Y158575D01*
X150854Y149913D02*
Y158575D01*
X145146D02*
X150854D01*
X145146Y149913D02*
X150854D01*
X427646Y153413D02*
X433354D01*
X427646Y162075D02*
X433354D01*
X427646Y153413D02*
Y162075D01*
X433354Y153413D02*
Y162075D01*
X431146Y292913D02*
X436854D01*
X431146Y301575D02*
X436854D01*
X431146Y292913D02*
Y301575D01*
X436854Y292913D02*
Y301575D01*
X157000Y329500D02*
X197000D01*
Y319500D02*
Y329500D01*
X157000Y319500D02*
X197000D01*
X157000D02*
Y329500D01*
X214000Y319618D02*
X264000D01*
X214000D02*
Y329382D01*
X264000D01*
Y319618D02*
Y329382D01*
X258921Y187354D02*
X267583D01*
X258921Y181646D02*
X267583D01*
Y187354D01*
X258921Y181646D02*
Y187354D01*
X243169Y282646D02*
Y288354D01*
X251831Y282646D02*
Y288354D01*
X243169Y282646D02*
X251831D01*
X243169Y288354D02*
X251831D01*
X237146Y267413D02*
X242854D01*
X237146Y276075D02*
X242854D01*
Y267413D02*
Y276075D01*
X237146Y267413D02*
Y276075D01*
X237843Y281157D02*
Y300843D01*
X218157Y281157D02*
Y300843D01*
X237843D01*
X218157Y281157D02*
X237843D01*
X230146Y267413D02*
X235854D01*
X230146Y276075D02*
X235854D01*
Y267413D02*
Y276075D01*
X230146Y267413D02*
Y276075D01*
X271646Y175417D02*
Y184079D01*
X277354Y175417D02*
Y184079D01*
X271646Y175417D02*
X277354D01*
X271646Y184079D02*
X277354D01*
X264854Y211669D02*
Y220331D01*
X259146Y211669D02*
Y220331D01*
X264854D01*
X259146Y211669D02*
X264854D01*
X340146Y184083D02*
X345854D01*
X340146Y175421D02*
X345854D01*
Y184083D01*
X340146Y175421D02*
Y184083D01*
X328146Y184079D02*
X333854D01*
X328146Y175417D02*
X333854D01*
Y184079D01*
X328146Y175417D02*
Y184079D01*
X316646Y184079D02*
X322354D01*
X316646Y175417D02*
X322354D01*
Y184079D01*
X316646Y175417D02*
Y184079D01*
X305146D02*
X310854D01*
X305146Y175417D02*
X310854D01*
Y184079D01*
X305146Y175417D02*
Y184079D01*
X293646Y184079D02*
X299354D01*
X293646Y175417D02*
X299354D01*
Y184079D01*
X293646Y175417D02*
Y184079D01*
X283146D02*
X288854D01*
X283146Y175417D02*
X288854D01*
Y184079D01*
X283146Y175417D02*
Y184079D01*
X259646Y184079D02*
X265354D01*
X259646Y175417D02*
X265354D01*
Y184079D01*
X259646Y175417D02*
Y184079D01*
Y191917D02*
X265354D01*
X259646Y200579D02*
X265354D01*
X259646Y191917D02*
Y200579D01*
X265354Y191917D02*
Y200579D01*
X271646Y191917D02*
X277354D01*
X271646Y200579D02*
X277354D01*
X271646Y191917D02*
Y200579D01*
X277354Y191917D02*
Y200579D01*
X282646Y191917D02*
X288354D01*
X282646Y200579D02*
X288354D01*
X282646Y191917D02*
Y200579D01*
X288354Y191917D02*
Y200579D01*
X293646Y191917D02*
X299354D01*
X293646Y200579D02*
X299354D01*
X293646Y191917D02*
Y200579D01*
X299354Y191917D02*
Y200579D01*
X305146Y191917D02*
X310854D01*
X305146Y200579D02*
X310854D01*
X305146Y191917D02*
Y200579D01*
X310854Y191917D02*
Y200579D01*
X316646Y191917D02*
X322354D01*
X316646Y200579D02*
X322354D01*
X316646Y191917D02*
Y200579D01*
X322354Y191917D02*
Y200579D01*
X328146Y191917D02*
X333854D01*
X328146Y200579D02*
X333854D01*
X328146Y191917D02*
Y200579D01*
X333854Y191917D02*
Y200579D01*
X340146Y191917D02*
X345854D01*
X340146Y200579D02*
X345854D01*
X340146Y191917D02*
Y200579D01*
X345854Y191917D02*
Y200579D01*
X311984Y160953D02*
X335606D01*
Y137331D02*
Y160953D01*
X311984Y137331D02*
Y160953D01*
Y137331D02*
X335606D01*
X264689Y160811D02*
X288311D01*
Y137189D02*
Y160811D01*
X264689Y137189D02*
Y160811D01*
Y137189D02*
X288311D01*
X376689Y267311D02*
X400311D01*
Y243689D02*
Y267311D01*
X376689Y243689D02*
Y267311D01*
Y243689D02*
X400311D01*
X429189Y234811D02*
X452811D01*
Y211189D02*
Y234811D01*
X429189Y211189D02*
Y234811D01*
Y211189D02*
X452811D01*
X164484Y206953D02*
X188106D01*
Y183331D02*
Y206953D01*
X164484Y183331D02*
Y206953D01*
Y183331D02*
X188106D01*
X204484Y251953D02*
X228106D01*
Y228331D02*
Y251953D01*
X204484Y228331D02*
Y251953D01*
Y228331D02*
X228106D01*
X124484Y251953D02*
X148106D01*
Y228331D02*
Y251953D01*
X124484Y228331D02*
Y251953D01*
Y228331D02*
X148106D01*
X345354Y211925D02*
Y220587D01*
X339646Y211925D02*
Y220587D01*
X345354D01*
X339646Y211925D02*
X345354D01*
X333854D02*
Y220587D01*
X328146Y211925D02*
Y220587D01*
X333854D01*
X328146Y211925D02*
X333854D01*
X321854D02*
Y220587D01*
X316146Y211925D02*
Y220587D01*
X321854D01*
X316146Y211925D02*
X321854D01*
X310854D02*
Y220587D01*
X305146Y211925D02*
Y220587D01*
X310854D01*
X305146Y211925D02*
X310854D01*
X299354D02*
Y220587D01*
X293646Y211925D02*
Y220587D01*
X299354D01*
X293646Y211925D02*
X299354D01*
X287854D02*
Y220587D01*
X282146Y211925D02*
Y220587D01*
X287854D01*
X282146Y211925D02*
X287854D01*
X276354D02*
Y220587D01*
X270646Y211925D02*
Y220587D01*
X276354D01*
X270646Y211925D02*
X276354D01*
M02*
