G04*
G04 #@! TF.GenerationSoftware,Altium Limited,Altium Designer,21.2.2 (38)*
G04*
G04 Layer_Physical_Order=2*
G04 Layer_Color=16711680*
%FSLAX25Y25*%
%MOIN*%
G70*
G04*
G04 #@! TF.SameCoordinates,98E345A6-E5E3-4E7C-82CD-A9440516B19A*
G04*
G04*
G04 #@! TF.FilePolarity,Positive*
G04*
G01*
G75*
%ADD16R,0.05906X0.04724*%
%ADD18R,0.05315X0.04331*%
G04:AMPARAMS|DCode=29|XSize=43.31mil|YSize=82.68mil|CornerRadius=21.65mil|HoleSize=0mil|Usage=FLASHONLY|Rotation=0.000|XOffset=0mil|YOffset=0mil|HoleType=Round|Shape=RoundedRectangle|*
%AMROUNDEDRECTD29*
21,1,0.04331,0.03937,0,0,0.0*
21,1,0.00000,0.08268,0,0,0.0*
1,1,0.04331,0.00000,-0.01968*
1,1,0.04331,0.00000,-0.01968*
1,1,0.04331,0.00000,0.01968*
1,1,0.04331,0.00000,0.01968*
%
%ADD29ROUNDEDRECTD29*%
G04:AMPARAMS|DCode=30|XSize=43.31mil|YSize=102.36mil|CornerRadius=21.65mil|HoleSize=0mil|Usage=FLASHONLY|Rotation=0.000|XOffset=0mil|YOffset=0mil|HoleType=Round|Shape=RoundedRectangle|*
%AMROUNDEDRECTD30*
21,1,0.04331,0.05906,0,0,0.0*
21,1,0.00000,0.10236,0,0,0.0*
1,1,0.04331,0.00000,-0.02953*
1,1,0.04331,0.00000,-0.02953*
1,1,0.04331,0.00000,0.02953*
1,1,0.04331,0.00000,0.02953*
%
%ADD30ROUNDEDRECTD30*%
%ADD37C,0.00500*%
%ADD38C,0.05906*%
%ADD39C,0.06299*%
%ADD40R,0.06299X0.06299*%
%ADD41R,0.06496X0.06496*%
%ADD42C,0.06496*%
%ADD43C,0.03150*%
%ADD44C,0.15748*%
%ADD45C,0.02362*%
%ADD46C,0.05000*%
%ADD47C,0.02756*%
%ADD48C,0.01968*%
%ADD49O,0.02362X0.08071*%
%ADD50O,0.08071X0.02362*%
%ADD51R,0.03347X0.05315*%
%ADD52R,0.04331X0.05315*%
%ADD53O,0.03740X0.00787*%
%ADD54O,0.00787X0.03740*%
%ADD55R,0.12323X0.12323*%
%ADD56R,0.01181X0.02756*%
%ADD57R,0.03937X0.02756*%
%ADD58R,0.03543X0.02559*%
G36*
X443796Y332826D02*
X447512Y332086D01*
X451138Y330986D01*
X454639Y329536D01*
X457981Y327750D01*
X461132Y325645D01*
X464061Y323241D01*
X466741Y320561D01*
X469145Y317632D01*
X471250Y314481D01*
X473036Y311139D01*
X474486Y307639D01*
X475587Y304012D01*
X476326Y300296D01*
X476697Y296525D01*
Y294630D01*
Y168870D01*
Y166975D01*
X476326Y163204D01*
X475587Y159488D01*
X474486Y155861D01*
X473036Y152360D01*
X471250Y149019D01*
X469145Y145868D01*
X466741Y142939D01*
X464061Y140259D01*
X461132Y137855D01*
X457981Y135750D01*
X454639Y133964D01*
X451138Y132513D01*
X447512Y131413D01*
X443796Y130674D01*
X440025Y130303D01*
X137975D01*
X134204Y130674D01*
X130488Y131413D01*
X126862Y132513D01*
X123361Y133964D01*
X120019Y135750D01*
X116868Y137855D01*
X113939Y140259D01*
X111259Y142939D01*
X108855Y145868D01*
X106750Y149019D01*
X104964Y152360D01*
X103514Y155861D01*
X102413Y159488D01*
X101674Y163204D01*
X101303Y166975D01*
Y168870D01*
Y294630D01*
Y296525D01*
X101674Y300296D01*
X102413Y304012D01*
X103514Y307639D01*
X104964Y311139D01*
X106750Y314481D01*
X108855Y317632D01*
X111259Y320561D01*
X113939Y323241D01*
X116868Y325645D01*
X120019Y327750D01*
X123361Y329536D01*
X126862Y330986D01*
X130488Y332086D01*
X134204Y332826D01*
X137975Y333197D01*
X440025D01*
X443796Y332826D01*
D02*
G37*
%LPC*%
G36*
X314780Y330884D02*
X287220D01*
X286838Y330725D01*
X286679Y330343D01*
Y328025D01*
X286179Y327855D01*
X285893Y328228D01*
X285336Y328655D01*
X284688Y328924D01*
X283992Y329015D01*
X283296Y328924D01*
X282648Y328655D01*
X282091Y328228D01*
X281664Y327671D01*
X281395Y327023D01*
X281304Y326327D01*
Y320421D01*
X281395Y319725D01*
X281664Y319077D01*
X282091Y318520D01*
X282648Y318093D01*
X283296Y317825D01*
X283992Y317733D01*
X284688Y317825D01*
X285336Y318093D01*
X285893Y318520D01*
X286179Y318893D01*
X286679Y318723D01*
Y308098D01*
X286327Y307653D01*
X286327D01*
Y306397D01*
X286087Y306256D01*
X285827Y306192D01*
X285336Y306568D01*
X284688Y306837D01*
X283992Y306928D01*
X283296Y306837D01*
X282648Y306568D01*
X282091Y306141D01*
X281664Y305584D01*
X281395Y304936D01*
X281304Y304240D01*
Y300303D01*
X281395Y299607D01*
X281664Y298959D01*
X282091Y298402D01*
X282648Y297975D01*
X283296Y297706D01*
X283992Y297615D01*
X284688Y297706D01*
X285336Y297975D01*
X285893Y298402D01*
X286320Y298959D01*
X286589Y299607D01*
X286681Y300303D01*
Y303898D01*
X295577D01*
X295728Y303398D01*
X295621Y303326D01*
X295182Y302887D01*
X295016Y302639D01*
X294995Y302535D01*
X289439D01*
Y300657D01*
Y298779D01*
X292543D01*
X292734Y298318D01*
X290181Y295765D01*
X280305D01*
X280201Y296290D01*
X279742Y296976D01*
X279056Y297435D01*
X278246Y297596D01*
X277437Y297435D01*
X277263Y297319D01*
X252143Y322439D01*
X252274Y322610D01*
X252652Y323522D01*
X252780Y324500D01*
X252652Y325478D01*
X252274Y326390D01*
X251673Y327173D01*
X250890Y327774D01*
X249978Y328152D01*
X249000Y328280D01*
X248022Y328152D01*
X247110Y327774D01*
X246327Y327173D01*
X245726Y326390D01*
X245348Y325478D01*
X245220Y324500D01*
X245348Y323522D01*
X245726Y322610D01*
X246327Y321827D01*
X247110Y321226D01*
X248022Y320848D01*
X249000Y320720D01*
X249978Y320848D01*
X250890Y321226D01*
X251061Y321357D01*
X276265Y296154D01*
X276131Y295480D01*
X276292Y294671D01*
X276750Y293985D01*
X277437Y293526D01*
X278246Y293365D01*
X279056Y293526D01*
X279742Y293985D01*
X279910Y294235D01*
X290498D01*
X290790Y294293D01*
X291038Y294459D01*
X295007Y298428D01*
X295173Y298676D01*
X295194Y298779D01*
X298669D01*
X298876Y298279D01*
X291877Y291280D01*
X240076D01*
X240062Y291349D01*
X239865Y291644D01*
X239784Y291699D01*
Y292270D01*
X239865Y292324D01*
X240062Y292620D01*
X240082Y292719D01*
X237744D01*
X235406D01*
X235426Y292620D01*
X235623Y292324D01*
X235704Y292270D01*
Y291699D01*
X235623Y291644D01*
X235426Y291349D01*
X235356Y291000D01*
X235426Y290651D01*
X235623Y290356D01*
X235704Y290301D01*
Y289730D01*
X235623Y289676D01*
X235426Y289380D01*
X235356Y289031D01*
X235426Y288683D01*
X235623Y288387D01*
X235704Y288333D01*
Y287761D01*
X235623Y287707D01*
X235426Y287412D01*
X235356Y287063D01*
X235426Y286714D01*
X235623Y286419D01*
X235704Y286365D01*
Y285793D01*
X235623Y285739D01*
X235426Y285443D01*
X235416Y285392D01*
X235161Y285223D01*
X234661Y285465D01*
Y290750D01*
X228250D01*
Y284339D01*
X233535D01*
X233777Y283839D01*
X233608Y283584D01*
X233557Y283574D01*
X233261Y283377D01*
X233207Y283296D01*
X232635D01*
X232581Y283377D01*
X232286Y283574D01*
X231937Y283644D01*
X231588Y283574D01*
X231293Y283377D01*
X231239Y283296D01*
X230667D01*
X230613Y283377D01*
X230317Y283574D01*
X229968Y283644D01*
X229620Y283574D01*
X229324Y283377D01*
X229270Y283296D01*
X228698D01*
X228644Y283377D01*
X228349Y283574D01*
X228000Y283644D01*
X227651Y283574D01*
X227356Y283377D01*
X227302Y283296D01*
X226730D01*
X226676Y283377D01*
X226380Y283574D01*
X226031Y283644D01*
X225683Y283574D01*
X225387Y283377D01*
X225333Y283296D01*
X224761D01*
X224707Y283377D01*
X224412Y283574D01*
X224063Y283644D01*
X223714Y283574D01*
X223419Y283377D01*
X223365Y283296D01*
X222793D01*
X222739Y283377D01*
X222443Y283574D01*
X222094Y283644D01*
X221746Y283574D01*
X221450Y283377D01*
X221253Y283081D01*
X221183Y282732D01*
Y279780D01*
X221253Y279431D01*
X221450Y279135D01*
X221746Y278938D01*
X222094Y278868D01*
X222443Y278938D01*
X222739Y279135D01*
X222793Y279216D01*
X223365D01*
X223419Y279135D01*
X223714Y278938D01*
X224063Y278868D01*
X224412Y278938D01*
X224707Y279135D01*
X224761Y279216D01*
X225333D01*
X225387Y279135D01*
X225683Y278938D01*
X226031Y278868D01*
X226380Y278938D01*
X226676Y279135D01*
X226730Y279216D01*
X227302D01*
X227356Y279135D01*
X227651Y278938D01*
X228000Y278868D01*
X228349Y278938D01*
X228644Y279135D01*
X228698Y279216D01*
X229270D01*
X229324Y279135D01*
X229620Y278938D01*
X229968Y278868D01*
X230317Y278938D01*
X230613Y279135D01*
X230667Y279216D01*
X231239D01*
X231293Y279135D01*
X231588Y278938D01*
X231725Y278911D01*
X232235Y278400D01*
Y277165D01*
X229842D01*
Y271835D01*
X229842D01*
Y271653D01*
X229842D01*
Y269238D01*
X236157D01*
Y271653D01*
X236157D01*
Y271835D01*
X236157D01*
Y275428D01*
X236658Y275686D01*
X236842Y275554D01*
Y272154D01*
X236842Y271835D01*
X236842Y271335D01*
Y269238D01*
X243158D01*
Y271335D01*
X243158Y271654D01*
X243158Y272154D01*
Y273216D01*
X256783D01*
X256792Y273171D01*
X257250Y272484D01*
X257937Y272026D01*
X258746Y271865D01*
X259556Y272026D01*
X260242Y272484D01*
X260701Y273171D01*
X260862Y273980D01*
X260701Y274790D01*
X260242Y275476D01*
X259556Y275935D01*
X258746Y276096D01*
X257937Y275935D01*
X257250Y275476D01*
X256792Y274790D01*
X256783Y274745D01*
X243158D01*
Y277165D01*
X238158D01*
X238085Y277180D01*
X237587D01*
X234817Y279950D01*
Y282562D01*
X236438Y284183D01*
X239220D01*
X239569Y284253D01*
X239865Y284450D01*
X239951Y284580D01*
X240079Y284747D01*
X240578Y284776D01*
X240783Y284735D01*
X240783Y284735D01*
X242079D01*
Y283440D01*
X242064Y283366D01*
X242079Y283292D01*
Y282343D01*
X247091D01*
X247410Y282343D01*
X247909Y282343D01*
X250006D01*
Y285500D01*
X250256D01*
Y285750D01*
X252921D01*
X252921Y288657D01*
X253382Y288751D01*
X292608D01*
X292900Y288809D01*
X293148Y288975D01*
X302041Y297867D01*
X302041Y297867D01*
X302207Y298115D01*
X302265Y298408D01*
X302582Y298765D01*
X302628D01*
X302702Y298779D01*
X312561D01*
Y300657D01*
X313061D01*
Y298779D01*
X313901D01*
Y298779D01*
X314297Y298799D01*
X314402Y298780D01*
X314552Y298555D01*
X316260Y296847D01*
X316260Y296847D01*
X316508Y296681D01*
X316800Y296623D01*
X316800Y296623D01*
X408324D01*
X408750Y295985D01*
X409437Y295526D01*
X410246Y295365D01*
X411056Y295526D01*
X411742Y295985D01*
X412169Y296623D01*
X430842D01*
Y294738D01*
X434000D01*
Y294488D01*
X434250D01*
Y291823D01*
X436887D01*
X437157Y291823D01*
X437387Y291418D01*
Y275468D01*
X380285Y218367D01*
X380120Y218119D01*
X380061Y217826D01*
Y211278D01*
X380016Y211269D01*
X379330Y210810D01*
X378872Y210124D01*
X378711Y209314D01*
X378872Y208505D01*
X379330Y207819D01*
X380016Y207360D01*
X380826Y207199D01*
X381636Y207360D01*
X382322Y207819D01*
X382781Y208505D01*
X382942Y209314D01*
X382781Y210124D01*
X382322Y210810D01*
X381636Y211269D01*
X381591Y211278D01*
Y217509D01*
X438692Y274611D01*
X438858Y274859D01*
X438916Y275152D01*
Y289839D01*
X441604D01*
Y292701D01*
Y295563D01*
X440076D01*
X439884Y296025D01*
X442395Y298536D01*
X442561Y298784D01*
X442619Y299076D01*
Y302437D01*
X445307D01*
Y307647D01*
X447272D01*
X457678Y297240D01*
Y294813D01*
X457693Y294739D01*
Y289839D01*
X464084D01*
Y181899D01*
X459094Y176909D01*
X459056Y176935D01*
X458246Y177096D01*
X457437Y176935D01*
X456750Y176476D01*
X456292Y175790D01*
X456131Y174980D01*
X456292Y174171D01*
X456750Y173485D01*
X457437Y173026D01*
X457481Y173017D01*
Y168661D01*
X454693D01*
Y163596D01*
X454193Y163389D01*
X439619Y177962D01*
Y264772D01*
X453899Y279051D01*
X453937Y279026D01*
X454746Y278865D01*
X455556Y279026D01*
X456242Y279485D01*
X456701Y280171D01*
X456862Y280980D01*
X456701Y281790D01*
X456242Y282476D01*
X455556Y282935D01*
X454746Y283096D01*
X453937Y282935D01*
X453250Y282476D01*
X452792Y281790D01*
X452631Y280980D01*
X452792Y280171D01*
X452817Y280133D01*
X438314Y265629D01*
X438148Y265381D01*
X438090Y265089D01*
Y177646D01*
X438148Y177353D01*
X438314Y177105D01*
X454678Y160740D01*
Y155313D01*
X454693Y155239D01*
Y150339D01*
X461598D01*
Y156063D01*
X456208D01*
Y161057D01*
X456149Y161350D01*
X455984Y161598D01*
X455984Y161598D01*
X455144Y162437D01*
X455351Y162937D01*
X461598D01*
Y168661D01*
X459011D01*
Y173017D01*
X459056Y173026D01*
X459742Y173485D01*
X460201Y174171D01*
X460362Y174980D01*
X460201Y175790D01*
X460175Y175828D01*
X465389Y181042D01*
X465555Y181290D01*
X465613Y181583D01*
Y296108D01*
X465555Y296400D01*
X465389Y296648D01*
X465389Y296648D01*
X464613Y297424D01*
Y303187D01*
X464613Y303187D01*
X464598Y303261D01*
Y308161D01*
X461910D01*
Y311854D01*
X461910Y311854D01*
X461852Y312147D01*
X461686Y312395D01*
X456656Y317426D01*
X456407Y317592D01*
X456115Y317650D01*
X454555D01*
X454546Y317695D01*
X454088Y318381D01*
X453402Y318840D01*
X452592Y319001D01*
X451782Y318840D01*
X451096Y318381D01*
X450637Y317695D01*
X450477Y316885D01*
X450637Y316076D01*
X451096Y315389D01*
X451782Y314931D01*
X452592Y314770D01*
X453402Y314931D01*
X454088Y315389D01*
X454546Y316076D01*
X454555Y316120D01*
X455798D01*
X460381Y311538D01*
Y308161D01*
X457693D01*
Y302437D01*
X463084D01*
Y297108D01*
X463142Y296815D01*
X463308Y296567D01*
X463811Y296063D01*
X463604Y295563D01*
X459208D01*
Y297557D01*
X459149Y297850D01*
X458984Y298098D01*
X448129Y308952D01*
X447881Y309118D01*
X447589Y309176D01*
X438112D01*
X437820Y309118D01*
X437571Y308952D01*
X434683Y306064D01*
X386214D01*
X385777Y306501D01*
X385803Y306539D01*
X385964Y307348D01*
X385803Y308158D01*
X385344Y308844D01*
X384658Y309303D01*
X383848Y309464D01*
X383039Y309303D01*
X382353Y308844D01*
X381894Y308158D01*
X381733Y307348D01*
X381894Y306539D01*
X382353Y305853D01*
X383039Y305394D01*
X383848Y305233D01*
X384658Y305394D01*
X384696Y305419D01*
X385357Y304759D01*
X385605Y304593D01*
X385898Y304535D01*
X435000D01*
X435293Y304593D01*
X435541Y304759D01*
X437940Y307157D01*
X438402Y306966D01*
Y302437D01*
X441090D01*
Y299393D01*
X437657Y295961D01*
X437463Y295987D01*
X437157Y296136D01*
Y297153D01*
X437157Y297153D01*
Y297335D01*
X437157D01*
X437157Y297654D01*
Y302665D01*
X430842D01*
Y298416D01*
X430579Y298152D01*
X412228D01*
X412201Y298290D01*
X411742Y298976D01*
X411056Y299435D01*
X410246Y299596D01*
X409437Y299435D01*
X408750Y298976D01*
X408292Y298290D01*
X408264Y298152D01*
X320347D01*
X320101Y298652D01*
X320336Y298959D01*
X320605Y299607D01*
X320696Y300303D01*
Y304240D01*
X320605Y304936D01*
X320336Y305584D01*
X319909Y306141D01*
X319352Y306568D01*
X318704Y306837D01*
X318008Y306928D01*
X317312Y306837D01*
X316664Y306568D01*
X316173Y306192D01*
X315913Y306256D01*
X315673Y306397D01*
Y307653D01*
X315673D01*
X315321Y308098D01*
Y318723D01*
X315821Y318893D01*
X316107Y318520D01*
X316664Y318093D01*
X317312Y317825D01*
X318008Y317733D01*
X318704Y317825D01*
X319352Y318093D01*
X319909Y318520D01*
X320336Y319077D01*
X320605Y319725D01*
X320696Y320421D01*
Y326327D01*
X320605Y327023D01*
X320336Y327671D01*
X319909Y328228D01*
X319352Y328655D01*
X318704Y328924D01*
X318008Y329015D01*
X317312Y328924D01*
X316664Y328655D01*
X316107Y328228D01*
X315821Y327855D01*
X315321Y328025D01*
Y330343D01*
X315162Y330725D01*
X314780Y330884D01*
D02*
G37*
G36*
X162250Y328148D02*
Y324750D01*
X165648D01*
X165556Y325453D01*
X165188Y326341D01*
X164603Y327103D01*
X163840Y327688D01*
X162953Y328056D01*
X162250Y328148D01*
D02*
G37*
G36*
X239250Y328247D02*
Y324750D01*
X242747D01*
X242652Y325478D01*
X242274Y326390D01*
X241673Y327173D01*
X240890Y327774D01*
X239978Y328152D01*
X239250Y328247D01*
D02*
G37*
G36*
X238750D02*
X238022Y328152D01*
X237110Y327774D01*
X236327Y327173D01*
X235726Y326390D01*
X235348Y325478D01*
X235252Y324750D01*
X238750D01*
Y328247D01*
D02*
G37*
G36*
X161750Y328148D02*
X161047Y328056D01*
X160160Y327688D01*
X159397Y327103D01*
X158812Y326341D01*
X158444Y325453D01*
X158352Y324750D01*
X161750D01*
Y328148D01*
D02*
G37*
G36*
X165648Y324250D02*
X162250D01*
Y320852D01*
X162953Y320944D01*
X163840Y321312D01*
X164603Y321897D01*
X165188Y322659D01*
X165556Y323547D01*
X165648Y324250D01*
D02*
G37*
G36*
X161750D02*
X158352D01*
X158444Y323547D01*
X158812Y322659D01*
X159397Y321897D01*
X160160Y321312D01*
X161047Y320944D01*
X161750Y320852D01*
Y324250D01*
D02*
G37*
G36*
X195650Y328150D02*
X188350D01*
Y320850D01*
X195650D01*
Y328150D01*
D02*
G37*
G36*
X242747Y324250D02*
X239250D01*
Y320753D01*
X239978Y320848D01*
X240890Y321226D01*
X241673Y321827D01*
X242274Y322610D01*
X242652Y323522D01*
X242747Y324250D01*
D02*
G37*
G36*
X238750D02*
X235252D01*
X235348Y323522D01*
X235726Y322610D01*
X236327Y321827D01*
X237110Y321226D01*
X238022Y320848D01*
X238750Y320753D01*
Y324250D01*
D02*
G37*
G36*
X262748Y328248D02*
X255252D01*
Y320752D01*
X262748D01*
Y328248D01*
D02*
G37*
G36*
X229000Y328280D02*
X228022Y328152D01*
X227110Y327774D01*
X226327Y327173D01*
X225726Y326390D01*
X225348Y325478D01*
X225220Y324500D01*
X225348Y323522D01*
X225726Y322610D01*
X226327Y321827D01*
X227110Y321226D01*
X228022Y320848D01*
X229000Y320720D01*
X229978Y320848D01*
X230890Y321226D01*
X231673Y321827D01*
X232274Y322610D01*
X232652Y323522D01*
X232780Y324500D01*
X232652Y325478D01*
X232274Y326390D01*
X231673Y327173D01*
X230890Y327774D01*
X229978Y328152D01*
X229000Y328280D01*
D02*
G37*
G36*
X219000D02*
X218022Y328152D01*
X217110Y327774D01*
X216327Y327173D01*
X215726Y326390D01*
X215348Y325478D01*
X215220Y324500D01*
X215348Y323522D01*
X215726Y322610D01*
X216327Y321827D01*
X217110Y321226D01*
X218022Y320848D01*
X219000Y320720D01*
X219978Y320848D01*
X220890Y321226D01*
X221673Y321827D01*
X222274Y322610D01*
X222652Y323522D01*
X222780Y324500D01*
X222652Y325478D01*
X222274Y326390D01*
X221673Y327173D01*
X220890Y327774D01*
X219978Y328152D01*
X219000Y328280D01*
D02*
G37*
G36*
X150500Y319714D02*
X149844Y319584D01*
X149288Y319212D01*
X148916Y318656D01*
X148842Y318284D01*
X148694Y318184D01*
X144371Y313862D01*
X138547D01*
Y308652D01*
X126728D01*
X126161Y309219D01*
Y313862D01*
X119256D01*
Y308138D01*
X125080D01*
X125871Y307347D01*
X126119Y307181D01*
X126411Y307123D01*
X145504D01*
X145843Y306681D01*
Y303153D01*
X145843Y302835D01*
X145843D01*
Y302654D01*
X145843D01*
Y301530D01*
X145453Y301264D01*
X145343Y301264D01*
X138547D01*
Y296621D01*
X136402Y294476D01*
X136236Y294228D01*
X136178Y293935D01*
X136178Y175817D01*
X126538Y166176D01*
X123467D01*
X123467Y166176D01*
X123393Y166161D01*
X117902D01*
Y160437D01*
X124807D01*
Y164647D01*
X126854D01*
X127147Y164705D01*
X127395Y164871D01*
X137484Y174959D01*
X137649Y175207D01*
X137708Y175500D01*
X137708Y175500D01*
X137708Y293618D01*
X139629Y295539D01*
X145453D01*
Y297057D01*
X145843Y297323D01*
X145953Y297323D01*
X148750D01*
Y299988D01*
X149000D01*
Y300238D01*
X152157D01*
Y301100D01*
X152619Y301291D01*
X156235Y297675D01*
Y262463D01*
X142808Y249035D01*
X142642Y248787D01*
X142584Y248494D01*
Y166161D01*
X137193D01*
Y160437D01*
X143017D01*
X144843Y158612D01*
Y154653D01*
X144843Y154335D01*
X144843Y153835D01*
Y151738D01*
X151157D01*
Y153835D01*
X151157Y154153D01*
X151157Y154653D01*
Y158584D01*
X152789Y160216D01*
X160783D01*
X160792Y160171D01*
X161250Y159485D01*
X161937Y159026D01*
X162746Y158865D01*
X163556Y159026D01*
X164242Y159485D01*
X164700Y160171D01*
X164862Y160980D01*
X164700Y161790D01*
X164242Y162476D01*
X163556Y162935D01*
X162746Y163096D01*
X161937Y162935D01*
X161250Y162476D01*
X160792Y161790D01*
X160783Y161745D01*
X152472D01*
X152472Y161745D01*
X152180Y161687D01*
X151932Y161521D01*
X150076Y159665D01*
X145951D01*
X144098Y161519D01*
Y164944D01*
X144113Y165018D01*
Y248178D01*
X145160Y249224D01*
X145470Y249072D01*
X145612Y248969D01*
X145727Y248099D01*
X146075Y247259D01*
X146628Y246537D01*
X147349Y245984D01*
X148189Y245636D01*
X149091Y245517D01*
X149992Y245636D01*
X150832Y245984D01*
X151553Y246537D01*
X152107Y247259D01*
X152454Y248099D01*
X152573Y249000D01*
X152454Y249901D01*
X152107Y250741D01*
X151553Y251463D01*
X150832Y252016D01*
X149992Y252364D01*
X149121Y252479D01*
X149019Y252621D01*
X148866Y252930D01*
X157541Y261605D01*
X157541Y261605D01*
X157706Y261853D01*
X157765Y262146D01*
Y297992D01*
X157765Y297992D01*
X157706Y298285D01*
X157541Y298533D01*
X157541Y298533D01*
X152157Y303916D01*
Y307910D01*
X183508D01*
X186571Y304848D01*
X186546Y304809D01*
X186384Y304000D01*
X186546Y303190D01*
X187004Y302504D01*
X187690Y302046D01*
X188500Y301885D01*
X189310Y302046D01*
X189996Y302504D01*
X190454Y303190D01*
X190615Y304000D01*
X190454Y304809D01*
X189996Y305496D01*
X189310Y305954D01*
X188500Y306116D01*
X187690Y305954D01*
X187652Y305929D01*
X184365Y309216D01*
X184117Y309382D01*
X183825Y309440D01*
X146292D01*
X145999Y309382D01*
X145953Y309351D01*
X145453Y309601D01*
Y312781D01*
X149391Y316719D01*
X149844Y316416D01*
X150500Y316286D01*
X151156Y316416D01*
X151712Y316788D01*
X152084Y317344D01*
X152214Y318000D01*
X152084Y318656D01*
X151712Y319212D01*
X151156Y319584D01*
X150500Y319714D01*
D02*
G37*
G36*
X182000Y328181D02*
X181047Y328056D01*
X180159Y327688D01*
X179397Y327103D01*
X178812Y326341D01*
X178444Y325453D01*
X178319Y324500D01*
X178444Y323547D01*
X178812Y322659D01*
X179397Y321897D01*
X180159Y321312D01*
X181047Y320944D01*
X182000Y320819D01*
X182953Y320944D01*
X183841Y321312D01*
X183991Y321427D01*
X191359Y314059D01*
X191168Y313598D01*
X183984D01*
X175073Y322509D01*
X175188Y322659D01*
X175556Y323547D01*
X175681Y324500D01*
X175556Y325453D01*
X175188Y326341D01*
X174603Y327103D01*
X173840Y327688D01*
X172953Y328056D01*
X172000Y328181D01*
X171047Y328056D01*
X170159Y327688D01*
X169397Y327103D01*
X168812Y326341D01*
X168444Y325453D01*
X168319Y324500D01*
X168444Y323547D01*
X168812Y322659D01*
X169397Y321897D01*
X170159Y321312D01*
X171047Y320944D01*
X172000Y320819D01*
X172953Y320944D01*
X173840Y321312D01*
X173991Y321427D01*
X183126Y312292D01*
X183375Y312126D01*
X183667Y312068D01*
X217071D01*
X225619Y303520D01*
X225495Y302937D01*
X225387Y302865D01*
X225333Y302784D01*
X224761D01*
X224707Y302865D01*
X224412Y303062D01*
X224063Y303132D01*
X223714Y303062D01*
X223419Y302865D01*
X223365Y302784D01*
X222793D01*
X222739Y302865D01*
X222443Y303062D01*
X222094Y303132D01*
X221746Y303062D01*
X221450Y302865D01*
X221253Y302569D01*
X221183Y302220D01*
Y299268D01*
X220749Y298889D01*
X216380D01*
X216088Y298830D01*
X215840Y298665D01*
X212959Y295784D01*
X212793Y295536D01*
X212765Y295391D01*
X212265Y295441D01*
Y300683D01*
X217137Y305555D01*
X217344Y305416D01*
X218000Y305286D01*
X218656Y305416D01*
X219212Y305788D01*
X219584Y306344D01*
X219714Y307000D01*
X219584Y307656D01*
X219212Y308212D01*
X218656Y308584D01*
X218000Y308714D01*
X217344Y308584D01*
X216788Y308212D01*
X216416Y307656D01*
X216286Y307000D01*
X216308Y306889D01*
X210959Y301541D01*
X210793Y301293D01*
X210735Y301000D01*
Y272817D01*
X209765Y271846D01*
X209265Y272053D01*
Y303989D01*
X209712Y304288D01*
X210084Y304844D01*
X210214Y305500D01*
X210084Y306156D01*
X209712Y306712D01*
X209156Y307084D01*
X208500Y307214D01*
X207844Y307084D01*
X207288Y306712D01*
X206916Y306156D01*
X206786Y305500D01*
X206916Y304844D01*
X207288Y304288D01*
X207735Y303989D01*
Y271817D01*
X205239Y269320D01*
X204889Y269453D01*
X204765Y269553D01*
Y303989D01*
X205212Y304288D01*
X205584Y304844D01*
X205714Y305500D01*
X205584Y306156D01*
X205212Y306712D01*
X204656Y307084D01*
X204000Y307214D01*
X203344Y307084D01*
X202788Y306712D01*
X202416Y306156D01*
X202286Y305500D01*
X202416Y304844D01*
X202788Y304288D01*
X203235Y303989D01*
Y269817D01*
X194959Y261541D01*
X194793Y261293D01*
X194735Y261000D01*
Y193996D01*
X194793Y193703D01*
X194959Y193455D01*
X198096Y190319D01*
X197991Y189791D01*
X198121Y189136D01*
X198493Y188579D01*
X198661Y188467D01*
Y187967D01*
X198493Y187854D01*
X198121Y187298D01*
X197991Y186642D01*
X198096Y186114D01*
X197233Y185251D01*
X197067Y185003D01*
X197009Y184711D01*
Y176393D01*
X197067Y176101D01*
X197233Y175852D01*
X198364Y174721D01*
X198612Y174555D01*
X198905Y174497D01*
X198905Y174497D01*
X205896D01*
X206556Y173837D01*
Y166846D01*
X206580Y166727D01*
Y164156D01*
X206638Y163863D01*
X206804Y163615D01*
X219455Y150963D01*
X219455Y150963D01*
X219703Y150797D01*
X219996Y150739D01*
X268004D01*
X268297Y150797D01*
X268545Y150963D01*
X307041Y189459D01*
X307041Y189459D01*
X307207Y189707D01*
X307265Y190000D01*
X307265Y190000D01*
Y245351D01*
X307997D01*
X308289Y245410D01*
X308537Y245575D01*
X309562Y246601D01*
X309728Y246849D01*
X309786Y247141D01*
Y247962D01*
X311266Y249442D01*
X311728Y249251D01*
Y247366D01*
X313235D01*
Y245748D01*
X312646Y245354D01*
X312231Y244733D01*
X312085Y244000D01*
X312231Y243267D01*
X312646Y242646D01*
X313267Y242231D01*
X314000Y242085D01*
X314733Y242231D01*
X315354Y242646D01*
X315769Y243267D01*
X315915Y244000D01*
X315769Y244733D01*
X315354Y245354D01*
X314765Y245748D01*
Y247366D01*
X316272D01*
Y250925D01*
X313402D01*
X313211Y251387D01*
X313884Y252060D01*
X316082D01*
X316375Y252118D01*
X316623Y252284D01*
X319151Y254812D01*
X319151Y254813D01*
X319228Y254928D01*
X319728Y254776D01*
Y253075D01*
X324272D01*
Y256634D01*
X322765D01*
Y258752D01*
X323354Y259146D01*
X323769Y259767D01*
X323915Y260500D01*
X323769Y261233D01*
X323354Y261854D01*
X322733Y262269D01*
X322000Y262415D01*
X321267Y262269D01*
X320646Y261854D01*
X320231Y261233D01*
X320085Y260500D01*
X320223Y259805D01*
X318070Y257651D01*
X317904Y257403D01*
X317846Y257111D01*
Y255670D01*
X316734Y254558D01*
X316272Y254749D01*
Y256634D01*
X314765D01*
Y258752D01*
X315354Y259146D01*
X315769Y259767D01*
X315915Y260500D01*
X315769Y261233D01*
X315354Y261854D01*
X314733Y262269D01*
X314000Y262415D01*
X313267Y262269D01*
X312646Y261854D01*
X312231Y261233D01*
X312085Y260500D01*
X312231Y259767D01*
X312646Y259146D01*
X313235Y258752D01*
Y256634D01*
X311728D01*
Y253899D01*
X311714Y253825D01*
Y253649D01*
X308234Y250169D01*
X307772Y250361D01*
Y250925D01*
X303228D01*
Y248190D01*
X303214Y248116D01*
Y247941D01*
X301959Y246686D01*
X301794Y246438D01*
X301735Y246146D01*
Y245248D01*
X301146Y244854D01*
X300731Y244233D01*
X300585Y243500D01*
X300731Y242767D01*
X301146Y242146D01*
X301767Y241731D01*
X302500Y241585D01*
X303233Y241731D01*
X303854Y242146D01*
X303970Y242319D01*
X304648Y242435D01*
X304735Y242369D01*
Y239817D01*
X276959Y212041D01*
X276794Y211793D01*
X276735Y211500D01*
Y162731D01*
X267476Y153472D01*
X227610D01*
X215861Y165220D01*
X216018Y165770D01*
X216283Y165832D01*
X224906Y157209D01*
X225154Y157044D01*
X225447Y156985D01*
X225447Y156985D01*
X242750D01*
X243043Y157044D01*
X243291Y157209D01*
X260545Y174463D01*
X260711Y174711D01*
X260769Y175004D01*
Y181342D01*
X262177D01*
Y187657D01*
X257831D01*
Y181342D01*
X259239D01*
Y175321D01*
X242433Y158515D01*
X231965D01*
X231758Y159015D01*
X232120Y159487D01*
X232423Y160217D01*
X232526Y161000D01*
X232423Y161783D01*
X232120Y162513D01*
X231640Y163140D01*
X231013Y163620D01*
X230283Y163923D01*
X229500Y164026D01*
X228717Y163923D01*
X227987Y163620D01*
X227360Y163140D01*
X226880Y162513D01*
X226868Y162485D01*
X226278Y162368D01*
X222914Y165733D01*
X222977Y166377D01*
X223062Y166434D01*
X223175Y166603D01*
X223675D01*
X223788Y166434D01*
X224344Y166062D01*
X224750Y165981D01*
Y170500D01*
X225250D01*
Y165981D01*
X225656Y166062D01*
X226212Y166434D01*
X226325Y166603D01*
X226825D01*
X226938Y166434D01*
X227494Y166062D01*
X228150Y165932D01*
X228805Y166062D01*
X229362Y166434D01*
X229474Y166603D01*
X229974D01*
X230087Y166434D01*
X230643Y166062D01*
X231299Y165932D01*
X231955Y166062D01*
X232511Y166434D01*
X232624Y166603D01*
X233124D01*
X233237Y166434D01*
X233793Y166062D01*
X234449Y165932D01*
X235105Y166062D01*
X235661Y166434D01*
X235774Y166603D01*
X236274D01*
X236386Y166434D01*
X236943Y166062D01*
X237598Y165932D01*
X238254Y166062D01*
X238810Y166434D01*
X238923Y166603D01*
X239423D01*
X239536Y166434D01*
X240092Y166062D01*
X240748Y165932D01*
X241404Y166062D01*
X241960Y166434D01*
X242332Y166990D01*
X242462Y167646D01*
Y173354D01*
X242332Y174010D01*
X241960Y174566D01*
X241513Y174865D01*
Y178653D01*
X241530Y178660D01*
X242013Y178736D01*
X242115Y178583D01*
X242978Y177721D01*
X242873Y177193D01*
X243003Y176537D01*
X243375Y175981D01*
X243931Y175609D01*
X244587Y175479D01*
X250295D01*
X250951Y175609D01*
X251507Y175981D01*
X251879Y176537D01*
X252009Y177193D01*
X251879Y177849D01*
X251507Y178405D01*
X251339Y178518D01*
Y179018D01*
X251507Y179131D01*
X251879Y179687D01*
X252009Y180343D01*
X251879Y180999D01*
X251507Y181555D01*
X251339Y181667D01*
Y182167D01*
X251507Y182280D01*
X251879Y182836D01*
X252009Y183492D01*
X251879Y184148D01*
X251507Y184704D01*
X251339Y184817D01*
Y185317D01*
X251507Y185430D01*
X251879Y185986D01*
X252009Y186642D01*
X251879Y187298D01*
X251507Y187854D01*
X251339Y187967D01*
Y188467D01*
X251507Y188579D01*
X251879Y189136D01*
X252009Y189791D01*
X251879Y190447D01*
X251507Y191003D01*
X251339Y191116D01*
Y191616D01*
X251507Y191729D01*
X251879Y192285D01*
X252009Y192941D01*
X251879Y193597D01*
X251507Y194153D01*
X251339Y194266D01*
Y194766D01*
X251507Y194879D01*
X251879Y195435D01*
X252009Y196091D01*
X251879Y196747D01*
X251507Y197303D01*
X251339Y197415D01*
Y197915D01*
X251507Y198028D01*
X251879Y198584D01*
X252009Y199240D01*
X251879Y199896D01*
X251507Y200452D01*
X251339Y200565D01*
Y201065D01*
X251507Y201178D01*
X251879Y201734D01*
X252009Y202390D01*
X251904Y202917D01*
X283791Y234804D01*
X283957Y235052D01*
X284015Y235345D01*
X284015Y235345D01*
Y248933D01*
X285728Y250647D01*
X286228Y250440D01*
Y247366D01*
X287735D01*
Y245748D01*
X287146Y245354D01*
X286731Y244733D01*
X286585Y244000D01*
X286731Y243267D01*
X287146Y242646D01*
X287767Y242231D01*
X288500Y242085D01*
X289233Y242231D01*
X289854Y242646D01*
X290269Y243267D01*
X290415Y244000D01*
X290269Y244733D01*
X289854Y245354D01*
X289265Y245748D01*
Y247366D01*
X290772D01*
Y250818D01*
X290777Y250943D01*
X290906Y251369D01*
X291041Y251459D01*
X293817Y254235D01*
X294728D01*
Y253221D01*
X299272D01*
Y256780D01*
X297765D01*
Y258752D01*
X298354Y259146D01*
X298769Y259767D01*
X298915Y260500D01*
X298769Y261233D01*
X298354Y261854D01*
X297733Y262269D01*
X297000Y262415D01*
X296267Y262269D01*
X295646Y261854D01*
X295231Y261233D01*
X295085Y260500D01*
X295231Y259767D01*
X295646Y259146D01*
X296235Y258752D01*
Y256780D01*
X294728D01*
Y255765D01*
X293500D01*
X293207Y255707D01*
X292959Y255541D01*
X291234Y253815D01*
X290772Y254006D01*
Y256634D01*
X289265D01*
Y258752D01*
X289854Y259146D01*
X290269Y259767D01*
X290415Y260500D01*
X290269Y261233D01*
X289854Y261854D01*
X289233Y262269D01*
X288500Y262415D01*
X287767Y262269D01*
X287146Y261854D01*
X286731Y261233D01*
X286619Y260670D01*
X286122Y260459D01*
X282846Y263735D01*
X283053Y264235D01*
X296779D01*
X301056Y259959D01*
X301304Y259793D01*
X301596Y259735D01*
X303252D01*
X303646Y259146D01*
X304235Y258752D01*
Y256634D01*
X303228D01*
Y253075D01*
X307772D01*
Y256634D01*
X305765D01*
Y258752D01*
X306354Y259146D01*
X306769Y259767D01*
X306915Y260500D01*
X306769Y261233D01*
X306354Y261854D01*
X305733Y262269D01*
X305000Y262415D01*
X304267Y262269D01*
X303646Y261854D01*
X303252Y261265D01*
X301913D01*
X298404Y264773D01*
X298596Y265235D01*
X320779D01*
X326056Y259959D01*
X326056Y259959D01*
X326304Y259793D01*
X326596Y259735D01*
X328252D01*
X328646Y259146D01*
X329235Y258752D01*
Y256634D01*
X327728D01*
Y253075D01*
X332272D01*
Y256634D01*
X330765D01*
Y258752D01*
X331354Y259146D01*
X331769Y259767D01*
X331915Y260500D01*
X331769Y261233D01*
X331354Y261854D01*
X330733Y262269D01*
X330000Y262415D01*
X329267Y262269D01*
X328646Y261854D01*
X328252Y261265D01*
X326913D01*
X321637Y266541D01*
X321389Y266706D01*
X321096Y266765D01*
X270000D01*
X269707Y266706D01*
X269459Y266541D01*
X269459Y266541D01*
X232780Y229861D01*
X232356Y230145D01*
X232454Y230382D01*
X232540Y231033D01*
X229341D01*
Y227834D01*
X229992Y227920D01*
X230229Y228018D01*
X230512Y227594D01*
X224851Y221932D01*
X208038D01*
X207745Y221874D01*
X207497Y221708D01*
X205780Y219991D01*
X205614Y219743D01*
X205556Y219450D01*
Y210884D01*
X205438Y210486D01*
X205068Y210403D01*
X199705D01*
X199049Y210273D01*
X198979Y210226D01*
X198538Y210462D01*
Y258457D01*
X212041Y271959D01*
X212207Y272207D01*
X212265Y272500D01*
X212265Y272500D01*
Y282407D01*
X212765Y282457D01*
X212793Y282312D01*
X212959Y282064D01*
X233563Y261460D01*
X233811Y261294D01*
X234104Y261236D01*
X251990D01*
X252288Y260788D01*
X252844Y260417D01*
X253500Y260286D01*
X254156Y260417D01*
X254712Y260788D01*
X255084Y261344D01*
X255214Y262000D01*
X255084Y262656D01*
X254712Y263212D01*
X254156Y263584D01*
X253500Y263714D01*
X252844Y263584D01*
X252288Y263212D01*
X251990Y262765D01*
X234421D01*
X231325Y265861D01*
X231517Y266323D01*
X232750D01*
Y268738D01*
X229842D01*
Y267997D01*
X229381Y267805D01*
X214265Y282921D01*
Y294927D01*
X215560Y296222D01*
X215727Y296234D01*
X215931Y296046D01*
X216135Y295581D01*
X215938Y295286D01*
X215868Y294937D01*
X215938Y294588D01*
X216135Y294293D01*
X216216Y294239D01*
Y293667D01*
X216135Y293613D01*
X215938Y293317D01*
X215868Y292969D01*
X215938Y292620D01*
X216135Y292324D01*
X216216Y292270D01*
Y291699D01*
X216135Y291644D01*
X215938Y291349D01*
X215868Y291000D01*
X215938Y290651D01*
X216135Y290356D01*
X216216Y290301D01*
Y289730D01*
X216135Y289676D01*
X215938Y289380D01*
X215868Y289031D01*
X215938Y288683D01*
X216135Y288387D01*
X216216Y288333D01*
Y287761D01*
X216135Y287707D01*
X215938Y287412D01*
X215868Y287063D01*
X215938Y286714D01*
X216135Y286419D01*
X216216Y286365D01*
Y285793D01*
X216135Y285739D01*
X215938Y285443D01*
X215868Y285094D01*
X215938Y284746D01*
X216135Y284450D01*
X216431Y284253D01*
X216779Y284183D01*
X219732D01*
X220081Y284253D01*
X220376Y284450D01*
X220574Y284746D01*
X220643Y285094D01*
X220574Y285443D01*
X220376Y285739D01*
X220296Y285793D01*
Y286365D01*
X220376Y286419D01*
X220574Y286714D01*
X220643Y287063D01*
X220574Y287412D01*
X220376Y287707D01*
X220296Y287761D01*
Y288333D01*
X220376Y288387D01*
X220574Y288683D01*
X220643Y289031D01*
X220574Y289380D01*
X220376Y289676D01*
X220296Y289730D01*
Y290301D01*
X220376Y290356D01*
X220574Y290651D01*
X220643Y291000D01*
X220574Y291349D01*
X220376Y291644D01*
X220296Y291699D01*
Y292270D01*
X220376Y292324D01*
X220574Y292620D01*
X220643Y292969D01*
X220574Y293317D01*
X220376Y293613D01*
X220296Y293667D01*
Y294239D01*
X220376Y294293D01*
X220574Y294588D01*
X220643Y294937D01*
X220574Y295286D01*
X220376Y295581D01*
X220296Y295635D01*
Y296207D01*
X220376Y296261D01*
X220574Y296557D01*
X220603Y296704D01*
X221092Y297020D01*
X221339Y296924D01*
Y291250D01*
X228000D01*
X234661D01*
Y297661D01*
X228370D01*
X228129Y298161D01*
X228298Y298416D01*
X228349Y298426D01*
X228644Y298623D01*
X228698Y298704D01*
X229270D01*
X229324Y298623D01*
X229620Y298426D01*
X229968Y298356D01*
X230317Y298426D01*
X230613Y298623D01*
X230667Y298704D01*
X231239D01*
X231293Y298623D01*
X231588Y298426D01*
X231937Y298356D01*
X232286Y298426D01*
X232581Y298623D01*
X232635Y298704D01*
X233207D01*
X233261Y298623D01*
X233557Y298426D01*
X233906Y298356D01*
X234254Y298426D01*
X234550Y298623D01*
X234747Y298919D01*
X234817Y299268D01*
Y302220D01*
X235251Y302599D01*
X240819D01*
X243891Y299528D01*
X243786Y299000D01*
X243916Y298344D01*
X244288Y297788D01*
X244844Y297416D01*
X245500Y297286D01*
X246156Y297416D01*
X246712Y297788D01*
X247084Y298344D01*
X247214Y299000D01*
X247084Y299656D01*
X246712Y300212D01*
X246156Y300584D01*
X245500Y300714D01*
X244972Y300609D01*
X241677Y303905D01*
X241429Y304071D01*
X241136Y304129D01*
X231112D01*
X231112Y304129D01*
X230820Y304071D01*
X230571Y303905D01*
X230571Y303905D01*
X229874Y303207D01*
X218541Y314541D01*
X218293Y314706D01*
X218000Y314765D01*
X192817D01*
X185073Y322509D01*
X185188Y322659D01*
X185556Y323547D01*
X185681Y324500D01*
X185556Y325453D01*
X185188Y326341D01*
X184603Y327103D01*
X183841Y327688D01*
X182953Y328056D01*
X182000Y328181D01*
D02*
G37*
G36*
X288939Y302535D02*
X288099D01*
Y300907D01*
X288939D01*
Y302535D01*
D02*
G37*
G36*
Y300407D02*
X288099D01*
Y298779D01*
X288939D01*
Y300407D01*
D02*
G37*
G36*
X126161Y301264D02*
X122959D01*
Y298652D01*
X126161D01*
Y301264D01*
D02*
G37*
G36*
X122459D02*
X119256D01*
Y298652D01*
X122459D01*
Y301264D01*
D02*
G37*
G36*
X152157Y299738D02*
X149250D01*
Y297323D01*
X152157D01*
Y299738D01*
D02*
G37*
G36*
X126161Y298152D02*
X122959D01*
Y295539D01*
X126161D01*
Y298152D01*
D02*
G37*
G36*
X122459D02*
X119256D01*
Y295539D01*
X122459D01*
Y298152D01*
D02*
G37*
G36*
X239220Y297817D02*
X236268D01*
X235919Y297747D01*
X235623Y297550D01*
X235426Y297254D01*
X235356Y296906D01*
X235426Y296557D01*
X235623Y296261D01*
X235704Y296207D01*
Y295635D01*
X235623Y295581D01*
X235426Y295286D01*
X235356Y294937D01*
X235426Y294588D01*
X235623Y294293D01*
X235704Y294239D01*
Y293667D01*
X235623Y293613D01*
X235426Y293317D01*
X235406Y293219D01*
X237744D01*
X240082D01*
X240062Y293317D01*
X239865Y293613D01*
X239784Y293667D01*
Y294239D01*
X239865Y294293D01*
X240062Y294588D01*
X240132Y294937D01*
X240062Y295286D01*
X239865Y295581D01*
X239784Y295635D01*
Y296207D01*
X239865Y296261D01*
X240062Y296557D01*
X240132Y296906D01*
X240062Y297254D01*
X239865Y297550D01*
X239569Y297747D01*
X239220Y297817D01*
D02*
G37*
G36*
X445307Y295563D02*
X442104D01*
Y292951D01*
X445307D01*
Y295563D01*
D02*
G37*
G36*
X433750Y294238D02*
X430842D01*
Y291823D01*
X433750D01*
Y294238D01*
D02*
G37*
G36*
X445307Y292451D02*
X442104D01*
Y289839D01*
X445307D01*
Y292451D01*
D02*
G37*
G36*
X188795Y295341D02*
X187894Y295222D01*
X187054Y294874D01*
X186333Y294321D01*
X185779Y293600D01*
X185431Y292759D01*
X185313Y291858D01*
X185431Y290957D01*
X185779Y290117D01*
X186333Y289396D01*
X187054Y288842D01*
X187894Y288494D01*
X188795Y288376D01*
X189697Y288494D01*
X190536Y288842D01*
X191258Y289396D01*
X191811Y290117D01*
X192159Y290957D01*
X192278Y291858D01*
X192159Y292759D01*
X191811Y293600D01*
X191258Y294321D01*
X190536Y294874D01*
X189697Y295222D01*
X188795Y295341D01*
D02*
G37*
G36*
X163205D02*
X162303Y295222D01*
X161463Y294874D01*
X160742Y294321D01*
X160189Y293600D01*
X159841Y292759D01*
X159722Y291858D01*
X159841Y290957D01*
X160189Y290117D01*
X160742Y289396D01*
X161463Y288842D01*
X162303Y288494D01*
X163205Y288376D01*
X164106Y288494D01*
X164946Y288842D01*
X165667Y289396D01*
X166221Y290117D01*
X166569Y290957D01*
X166687Y291858D01*
X166569Y292759D01*
X166221Y293600D01*
X165667Y294321D01*
X164946Y294874D01*
X164106Y295222D01*
X163205Y295341D01*
D02*
G37*
G36*
X227750Y290750D02*
X221339D01*
Y284339D01*
X227750D01*
Y290750D01*
D02*
G37*
G36*
X252921Y285250D02*
X250506D01*
Y282343D01*
X252921D01*
Y285250D01*
D02*
G37*
G36*
X189045Y277591D02*
Y274392D01*
X192245D01*
X192159Y275043D01*
X191811Y275883D01*
X191258Y276604D01*
X190536Y277158D01*
X189697Y277506D01*
X189045Y277591D01*
D02*
G37*
G36*
X163455D02*
Y274392D01*
X166654D01*
X166569Y275043D01*
X166221Y275883D01*
X165667Y276604D01*
X164946Y277158D01*
X164106Y277506D01*
X163455Y277591D01*
D02*
G37*
G36*
X188545D02*
X187894Y277506D01*
X187054Y277158D01*
X186333Y276604D01*
X185779Y275883D01*
X185431Y275043D01*
X185346Y274392D01*
X188545D01*
Y277591D01*
D02*
G37*
G36*
X162955D02*
X162303Y277506D01*
X161463Y277158D01*
X160742Y276604D01*
X160189Y275883D01*
X159841Y275043D01*
X159755Y274392D01*
X162955D01*
Y277591D01*
D02*
G37*
G36*
X192245Y273892D02*
X189045D01*
Y270692D01*
X189697Y270778D01*
X190536Y271126D01*
X191258Y271679D01*
X191811Y272400D01*
X192159Y273240D01*
X192245Y273892D01*
D02*
G37*
G36*
X166654D02*
X163455D01*
Y270692D01*
X164106Y270778D01*
X164946Y271126D01*
X165667Y271679D01*
X166221Y272400D01*
X166569Y273240D01*
X166654Y273892D01*
D02*
G37*
G36*
X188545D02*
X185346D01*
X185431Y273240D01*
X185779Y272400D01*
X186333Y271679D01*
X187054Y271126D01*
X187894Y270778D01*
X188545Y270692D01*
Y273892D01*
D02*
G37*
G36*
X162955D02*
X159755D01*
X159841Y273240D01*
X160189Y272400D01*
X160742Y271679D01*
X161463Y271126D01*
X162303Y270778D01*
X162955Y270692D01*
Y273892D01*
D02*
G37*
G36*
X243158Y268738D02*
X240250D01*
Y266323D01*
X243158D01*
Y268738D01*
D02*
G37*
G36*
X239750D02*
X236842D01*
Y266323D01*
X239750D01*
Y268738D01*
D02*
G37*
G36*
X236157Y268738D02*
X233250D01*
Y266323D01*
X236157D01*
Y268738D01*
D02*
G37*
G36*
X401295Y267841D02*
X400394Y267722D01*
X399554Y267374D01*
X398833Y266821D01*
X398279Y266100D01*
X397931Y265260D01*
X397813Y264358D01*
X397931Y263457D01*
X398279Y262617D01*
X398833Y261896D01*
X399554Y261342D01*
X400394Y260994D01*
X401295Y260876D01*
X402197Y260994D01*
X403036Y261342D01*
X403758Y261896D01*
X404311Y262617D01*
X404659Y263457D01*
X404778Y264358D01*
X404659Y265260D01*
X404311Y266100D01*
X403758Y266821D01*
X403036Y267374D01*
X402197Y267722D01*
X401295Y267841D01*
D02*
G37*
G36*
X375705D02*
X374803Y267722D01*
X373963Y267374D01*
X373242Y266821D01*
X372689Y266100D01*
X372341Y265260D01*
X372222Y264358D01*
X372341Y263457D01*
X372689Y262617D01*
X373242Y261896D01*
X373963Y261342D01*
X374803Y260994D01*
X375705Y260876D01*
X376606Y260994D01*
X377446Y261342D01*
X378167Y261896D01*
X378721Y262617D01*
X379069Y263457D01*
X379187Y264358D01*
X379069Y265260D01*
X378721Y266100D01*
X378167Y266821D01*
X377446Y267374D01*
X376606Y267722D01*
X375705Y267841D01*
D02*
G37*
G36*
X401545Y250091D02*
Y246892D01*
X404745D01*
X404659Y247543D01*
X404311Y248383D01*
X403758Y249104D01*
X403036Y249658D01*
X402197Y250006D01*
X401545Y250091D01*
D02*
G37*
G36*
X375955D02*
Y246892D01*
X379154D01*
X379069Y247543D01*
X378721Y248383D01*
X378167Y249104D01*
X377446Y249658D01*
X376606Y250006D01*
X375955Y250091D01*
D02*
G37*
G36*
X401045D02*
X400394Y250006D01*
X399554Y249658D01*
X398833Y249104D01*
X398279Y248383D01*
X397931Y247543D01*
X397846Y246892D01*
X401045D01*
Y250091D01*
D02*
G37*
G36*
X375455D02*
X374803Y250006D01*
X373963Y249658D01*
X373242Y249104D01*
X372689Y248383D01*
X372341Y247543D01*
X372255Y246892D01*
X375455D01*
Y250091D01*
D02*
G37*
G36*
X229091Y252483D02*
X228189Y252364D01*
X227349Y252016D01*
X226628Y251463D01*
X226075Y250741D01*
X225727Y249901D01*
X225608Y249000D01*
X225727Y248099D01*
X226075Y247259D01*
X226628Y246537D01*
X227349Y245984D01*
X228189Y245636D01*
X229091Y245517D01*
X229992Y245636D01*
X230832Y245984D01*
X231553Y246537D01*
X232107Y247259D01*
X232454Y248099D01*
X232573Y249000D01*
X232454Y249901D01*
X232107Y250741D01*
X231553Y251463D01*
X230832Y252016D01*
X229992Y252364D01*
X229091Y252483D01*
D02*
G37*
G36*
X203500D02*
X202599Y252364D01*
X201759Y252016D01*
X201038Y251463D01*
X200484Y250741D01*
X200136Y249901D01*
X200017Y249000D01*
X200136Y248099D01*
X200484Y247259D01*
X201038Y246537D01*
X201759Y245984D01*
X202599Y245636D01*
X203500Y245517D01*
X204401Y245636D01*
X205241Y245984D01*
X205962Y246537D01*
X206516Y247259D01*
X206864Y248099D01*
X206982Y249000D01*
X206864Y249901D01*
X206516Y250741D01*
X205962Y251463D01*
X205241Y252016D01*
X204401Y252364D01*
X203500Y252483D01*
D02*
G37*
G36*
X123500D02*
X122599Y252364D01*
X121759Y252016D01*
X121037Y251463D01*
X120484Y250741D01*
X120136Y249901D01*
X120018Y249000D01*
X120136Y248099D01*
X120484Y247259D01*
X121037Y246537D01*
X121759Y245984D01*
X122599Y245636D01*
X123500Y245517D01*
X124401Y245636D01*
X125241Y245984D01*
X125962Y246537D01*
X126516Y247259D01*
X126864Y248099D01*
X126982Y249000D01*
X126864Y249901D01*
X126516Y250741D01*
X125962Y251463D01*
X125241Y252016D01*
X124401Y252364D01*
X123500Y252483D01*
D02*
G37*
G36*
X404745Y246392D02*
X401545D01*
Y243192D01*
X402197Y243278D01*
X403036Y243626D01*
X403758Y244179D01*
X404311Y244900D01*
X404659Y245741D01*
X404745Y246392D01*
D02*
G37*
G36*
X379154D02*
X375955D01*
Y243192D01*
X376606Y243278D01*
X377446Y243626D01*
X378167Y244179D01*
X378721Y244900D01*
X379069Y245741D01*
X379154Y246392D01*
D02*
G37*
G36*
X401045D02*
X397846D01*
X397931Y245741D01*
X398279Y244900D01*
X398833Y244179D01*
X399554Y243626D01*
X400394Y243278D01*
X401045Y243192D01*
Y246392D01*
D02*
G37*
G36*
X375455D02*
X372255D01*
X372341Y245741D01*
X372689Y244900D01*
X373242Y244179D01*
X373963Y243626D01*
X374803Y243278D01*
X375455Y243192D01*
Y246392D01*
D02*
G37*
G36*
X332272Y250925D02*
X327728D01*
Y247366D01*
X329235D01*
Y245748D01*
X328646Y245354D01*
X328231Y244733D01*
X328085Y244000D01*
X328231Y243267D01*
X328646Y242646D01*
X329267Y242231D01*
X330000Y242085D01*
X330733Y242231D01*
X331354Y242646D01*
X331769Y243267D01*
X331915Y244000D01*
X331769Y244733D01*
X331354Y245354D01*
X330765Y245748D01*
Y247366D01*
X332272D01*
Y250925D01*
D02*
G37*
G36*
X324272D02*
X319728D01*
Y247366D01*
X321235D01*
Y245748D01*
X320646Y245354D01*
X320231Y244733D01*
X320085Y244000D01*
X320231Y243267D01*
X320646Y242646D01*
X321267Y242231D01*
X322000Y242085D01*
X322733Y242231D01*
X323354Y242646D01*
X323769Y243267D01*
X323915Y244000D01*
X323769Y244733D01*
X323354Y245354D01*
X322765Y245748D01*
Y247366D01*
X324272D01*
Y250925D01*
D02*
G37*
G36*
X299272Y251071D02*
X294728D01*
Y248336D01*
X294714Y248262D01*
Y245549D01*
X294506Y245508D01*
X293885Y245093D01*
X293470Y244472D01*
X293324Y243739D01*
X293470Y243006D01*
X293885Y242385D01*
X294506Y241970D01*
X295239Y241824D01*
X295972Y241970D01*
X296593Y242385D01*
X297008Y243006D01*
X297154Y243739D01*
X297008Y244472D01*
X296593Y245093D01*
X296243Y245327D01*
Y247512D01*
X299272D01*
Y251071D01*
D02*
G37*
G36*
X149341Y234733D02*
Y231533D01*
X152540D01*
X152454Y232185D01*
X152107Y233025D01*
X151553Y233746D01*
X150832Y234299D01*
X149992Y234647D01*
X149341Y234733D01*
D02*
G37*
G36*
X123750D02*
Y231533D01*
X126950D01*
X126864Y232185D01*
X126516Y233025D01*
X125962Y233746D01*
X125241Y234299D01*
X124401Y234647D01*
X123750Y234733D01*
D02*
G37*
G36*
X229341D02*
Y231533D01*
X232540D01*
X232454Y232185D01*
X232107Y233025D01*
X231553Y233746D01*
X230832Y234299D01*
X229992Y234647D01*
X229341Y234733D01*
D02*
G37*
G36*
X203750D02*
Y231533D01*
X206950D01*
X206864Y232185D01*
X206516Y233025D01*
X205962Y233746D01*
X205241Y234299D01*
X204401Y234647D01*
X203750Y234733D01*
D02*
G37*
G36*
X148841D02*
X148189Y234647D01*
X147349Y234299D01*
X146628Y233746D01*
X146075Y233025D01*
X145727Y232185D01*
X145641Y231533D01*
X148841D01*
Y234733D01*
D02*
G37*
G36*
X228841D02*
X228189Y234647D01*
X227349Y234299D01*
X226628Y233746D01*
X226075Y233025D01*
X225727Y232185D01*
X225641Y231533D01*
X228841D01*
Y234733D01*
D02*
G37*
G36*
X123250D02*
X122599Y234647D01*
X121759Y234299D01*
X121037Y233746D01*
X120484Y233025D01*
X120136Y232185D01*
X120050Y231533D01*
X123250D01*
Y234733D01*
D02*
G37*
G36*
X203250D02*
X202599Y234647D01*
X201759Y234299D01*
X201038Y233746D01*
X200484Y233025D01*
X200136Y232185D01*
X200050Y231533D01*
X203250D01*
Y234733D01*
D02*
G37*
G36*
X453795Y235341D02*
X452894Y235222D01*
X452054Y234874D01*
X451333Y234321D01*
X450779Y233599D01*
X450431Y232759D01*
X450313Y231858D01*
X450431Y230957D01*
X450779Y230117D01*
X451333Y229396D01*
X452054Y228842D01*
X452894Y228494D01*
X453795Y228376D01*
X454697Y228494D01*
X455537Y228842D01*
X456258Y229396D01*
X456811Y230117D01*
X457159Y230957D01*
X457278Y231858D01*
X457159Y232759D01*
X456811Y233599D01*
X456258Y234321D01*
X455537Y234874D01*
X454697Y235222D01*
X453795Y235341D01*
D02*
G37*
G36*
X428205D02*
X427303Y235222D01*
X426464Y234874D01*
X425742Y234321D01*
X425189Y233599D01*
X424841Y232759D01*
X424722Y231858D01*
X424841Y230957D01*
X425189Y230117D01*
X425273Y230008D01*
X401030Y205765D01*
X357425D01*
X357423Y205783D01*
X357120Y206513D01*
X356640Y207140D01*
X356013Y207621D01*
X355283Y207923D01*
X354500Y208026D01*
X353717Y207923D01*
X352987Y207621D01*
X352360Y207140D01*
X351880Y206513D01*
X351577Y205783D01*
X351474Y205000D01*
X351577Y204217D01*
X351880Y203487D01*
X352360Y202860D01*
X352987Y202379D01*
X353717Y202077D01*
X354500Y201974D01*
X355283Y202077D01*
X356013Y202379D01*
X356640Y202860D01*
X357120Y203487D01*
X357423Y204217D01*
X357425Y204235D01*
X401347D01*
X401639Y204293D01*
X401887Y204459D01*
X426354Y228926D01*
X426464Y228842D01*
X427303Y228494D01*
X428205Y228376D01*
X429106Y228494D01*
X429946Y228842D01*
X430667Y229396D01*
X431221Y230117D01*
X431569Y230957D01*
X431687Y231858D01*
X431569Y232759D01*
X431221Y233599D01*
X430667Y234321D01*
X429946Y234874D01*
X429106Y235222D01*
X428205Y235341D01*
D02*
G37*
G36*
X206950Y231033D02*
X203750D01*
Y227834D01*
X204401Y227920D01*
X205241Y228267D01*
X205962Y228821D01*
X206516Y229542D01*
X206864Y230382D01*
X206950Y231033D01*
D02*
G37*
G36*
X152540D02*
X149341D01*
Y227834D01*
X149992Y227920D01*
X150832Y228267D01*
X151553Y228821D01*
X152107Y229542D01*
X152454Y230382D01*
X152540Y231033D01*
D02*
G37*
G36*
X126950D02*
X123750D01*
Y227834D01*
X124401Y227920D01*
X125241Y228267D01*
X125962Y228821D01*
X126516Y229542D01*
X126864Y230382D01*
X126950Y231033D01*
D02*
G37*
G36*
X228841D02*
X225641D01*
X225727Y230382D01*
X226075Y229542D01*
X226628Y228821D01*
X227349Y228267D01*
X228189Y227920D01*
X228841Y227834D01*
Y231033D01*
D02*
G37*
G36*
X203250D02*
X200050D01*
X200136Y230382D01*
X200484Y229542D01*
X201038Y228821D01*
X201759Y228267D01*
X202599Y227920D01*
X203250Y227834D01*
Y231033D01*
D02*
G37*
G36*
X148841D02*
X145641D01*
X145727Y230382D01*
X146075Y229542D01*
X146628Y228821D01*
X147349Y228267D01*
X148189Y227920D01*
X148841Y227834D01*
Y231033D01*
D02*
G37*
G36*
X123250D02*
X120050D01*
X120136Y230382D01*
X120484Y229542D01*
X121037Y228821D01*
X121759Y228267D01*
X122599Y227920D01*
X123250Y227834D01*
Y231033D01*
D02*
G37*
G36*
X454045Y217591D02*
Y214392D01*
X457245D01*
X457159Y215043D01*
X456811Y215883D01*
X456258Y216604D01*
X455537Y217158D01*
X454697Y217506D01*
X454045Y217591D01*
D02*
G37*
G36*
X428455D02*
Y214392D01*
X431654D01*
X431569Y215043D01*
X431221Y215883D01*
X430667Y216604D01*
X429946Y217158D01*
X429106Y217506D01*
X428455Y217591D01*
D02*
G37*
G36*
X453545D02*
X452894Y217506D01*
X452054Y217158D01*
X451333Y216604D01*
X450779Y215883D01*
X450431Y215043D01*
X450346Y214392D01*
X453545D01*
Y217591D01*
D02*
G37*
G36*
X427955D02*
X427303Y217506D01*
X426464Y217158D01*
X425742Y216604D01*
X425189Y215883D01*
X424841Y215043D01*
X424755Y214392D01*
X427955D01*
Y217591D01*
D02*
G37*
G36*
X457245Y213892D02*
X454045D01*
Y210692D01*
X454697Y210778D01*
X455537Y211126D01*
X456258Y211679D01*
X456811Y212401D01*
X457159Y213241D01*
X457245Y213892D01*
D02*
G37*
G36*
X431654D02*
X428455D01*
Y210692D01*
X429106Y210778D01*
X429946Y211126D01*
X430667Y211679D01*
X431221Y212401D01*
X431569Y213241D01*
X431654Y213892D01*
D02*
G37*
G36*
X453545D02*
X450346D01*
X450431Y213241D01*
X450779Y212401D01*
X451333Y211679D01*
X452054Y211126D01*
X452894Y210778D01*
X453545Y210692D01*
Y213892D01*
D02*
G37*
G36*
X427955D02*
X424755D01*
X424841Y213241D01*
X425189Y212401D01*
X425742Y211679D01*
X426464Y211126D01*
X427303Y210778D01*
X427955Y210692D01*
Y213892D01*
D02*
G37*
G36*
X189091Y207483D02*
X188189Y207364D01*
X187349Y207016D01*
X186628Y206463D01*
X186075Y205741D01*
X185727Y204901D01*
X185709Y204765D01*
X166882D01*
X166864Y204901D01*
X166516Y205741D01*
X165963Y206463D01*
X165241Y207016D01*
X164401Y207364D01*
X163500Y207483D01*
X162599Y207364D01*
X161759Y207016D01*
X161038Y206463D01*
X160484Y205741D01*
X160136Y204901D01*
X160018Y204000D01*
X160136Y203099D01*
X160484Y202259D01*
X161038Y201537D01*
X161759Y200984D01*
X162599Y200636D01*
X163500Y200518D01*
X164401Y200636D01*
X165241Y200984D01*
X165963Y201537D01*
X166516Y202259D01*
X166864Y203099D01*
X166882Y203235D01*
X185709D01*
X185727Y203099D01*
X186075Y202259D01*
X186628Y201537D01*
X187349Y200984D01*
X188189Y200636D01*
X189091Y200518D01*
X189992Y200636D01*
X190832Y200984D01*
X191553Y201537D01*
X192107Y202259D01*
X192455Y203099D01*
X192573Y204000D01*
X192455Y204901D01*
X192107Y205741D01*
X191553Y206463D01*
X190832Y207016D01*
X189992Y207364D01*
X189091Y207483D01*
D02*
G37*
G36*
X163750Y189733D02*
Y186533D01*
X166950D01*
X166864Y187185D01*
X166516Y188025D01*
X165963Y188746D01*
X165241Y189299D01*
X164401Y189647D01*
X163750Y189733D01*
D02*
G37*
G36*
X189341D02*
Y186533D01*
X192540D01*
X192455Y187185D01*
X192107Y188025D01*
X191553Y188746D01*
X190832Y189299D01*
X189992Y189647D01*
X189341Y189733D01*
D02*
G37*
G36*
X163250D02*
X162599Y189647D01*
X161759Y189299D01*
X161038Y188746D01*
X160484Y188025D01*
X160136Y187185D01*
X160050Y186533D01*
X163250D01*
Y189733D01*
D02*
G37*
G36*
X188841D02*
X188189Y189647D01*
X187349Y189299D01*
X186628Y188746D01*
X186075Y188025D01*
X185727Y187185D01*
X185641Y186533D01*
X188841D01*
Y189733D01*
D02*
G37*
G36*
X192540Y186033D02*
X189341D01*
Y182834D01*
X189992Y182920D01*
X190832Y183267D01*
X191553Y183821D01*
X192107Y184542D01*
X192455Y185382D01*
X192540Y186033D01*
D02*
G37*
G36*
X166950D02*
X163750D01*
Y182834D01*
X164401Y182920D01*
X165241Y183267D01*
X165963Y183821D01*
X166516Y184542D01*
X166864Y185382D01*
X166950Y186033D01*
D02*
G37*
G36*
X188841D02*
X185641D01*
X185727Y185382D01*
X186075Y184542D01*
X186628Y183821D01*
X187349Y183267D01*
X188189Y182920D01*
X188841Y182834D01*
Y186033D01*
D02*
G37*
G36*
X163250D02*
X160050D01*
X160136Y185382D01*
X160484Y184542D01*
X161038Y183821D01*
X161759Y183267D01*
X162599Y182920D01*
X163250Y182834D01*
Y186033D01*
D02*
G37*
G36*
X337000Y173714D02*
X336344Y173584D01*
X335788Y173212D01*
X335489Y172765D01*
X330011D01*
X329712Y173212D01*
X329156Y173584D01*
X328500Y173714D01*
X327844Y173584D01*
X327288Y173212D01*
X326916Y172656D01*
X326786Y172000D01*
X326916Y171344D01*
X327288Y170788D01*
X327844Y170416D01*
X328500Y170286D01*
X329156Y170416D01*
X329712Y170788D01*
X330011Y171235D01*
X335489D01*
X335788Y170788D01*
X336344Y170416D01*
X337000Y170286D01*
X337656Y170416D01*
X338212Y170788D01*
X338584Y171344D01*
X338714Y172000D01*
X338584Y172656D01*
X338212Y173212D01*
X337656Y173584D01*
X337000Y173714D01*
D02*
G37*
G36*
X298500Y171214D02*
X297844Y171084D01*
X297288Y170712D01*
X296989Y170265D01*
X292511D01*
X292212Y170712D01*
X291656Y171084D01*
X291000Y171214D01*
X290344Y171084D01*
X289788Y170712D01*
X289416Y170156D01*
X289286Y169500D01*
X289416Y168844D01*
X289788Y168288D01*
X290344Y167916D01*
X291000Y167786D01*
X291656Y167916D01*
X292212Y168288D01*
X292511Y168735D01*
X296989D01*
X297288Y168288D01*
X297844Y167916D01*
X298500Y167786D01*
X299156Y167916D01*
X299712Y168288D01*
X300084Y168844D01*
X300214Y169500D01*
X300084Y170156D01*
X299712Y170712D01*
X299156Y171084D01*
X298500Y171214D01*
D02*
G37*
G36*
X268673Y187657D02*
X264327D01*
Y181342D01*
X265735D01*
Y171317D01*
X256183Y161764D01*
X255982Y161898D01*
X255326Y162029D01*
X254670Y161898D01*
X254114Y161527D01*
X253743Y160970D01*
X253612Y160315D01*
X253743Y159659D01*
X254114Y159102D01*
X254670Y158731D01*
X255326Y158600D01*
X255982Y158731D01*
X256538Y159102D01*
X256910Y159659D01*
X257040Y160315D01*
X257016Y160435D01*
X267041Y170459D01*
X267207Y170707D01*
X267265Y171000D01*
Y181342D01*
X268673D01*
Y187657D01*
D02*
G37*
G36*
X433658Y163165D02*
X430750D01*
Y160750D01*
X433658D01*
Y163165D01*
D02*
G37*
G36*
X430250D02*
X427343D01*
Y160750D01*
X430250D01*
Y163165D01*
D02*
G37*
G36*
X336591Y161483D02*
X335689Y161364D01*
X334849Y161016D01*
X334128Y160462D01*
X333575Y159741D01*
X333227Y158901D01*
X333209Y158765D01*
X314382D01*
X314364Y158901D01*
X314016Y159741D01*
X313462Y160462D01*
X312741Y161016D01*
X311901Y161364D01*
X311000Y161483D01*
X310099Y161364D01*
X309259Y161016D01*
X308538Y160462D01*
X307984Y159741D01*
X307636Y158901D01*
X307518Y158000D01*
X307636Y157099D01*
X307984Y156259D01*
X308538Y155537D01*
X309259Y154984D01*
X310099Y154636D01*
X311000Y154517D01*
X311901Y154636D01*
X312741Y154984D01*
X313462Y155537D01*
X314016Y156259D01*
X314364Y157099D01*
X314382Y157235D01*
X333209D01*
X333227Y157099D01*
X333575Y156259D01*
X334128Y155537D01*
X334849Y154984D01*
X335689Y154636D01*
X336591Y154517D01*
X337492Y154636D01*
X338332Y154984D01*
X339053Y155537D01*
X339607Y156259D01*
X339954Y157099D01*
X340073Y158000D01*
X339954Y158901D01*
X339607Y159741D01*
X339053Y160462D01*
X338332Y161016D01*
X337492Y161364D01*
X336591Y161483D01*
D02*
G37*
G36*
X442307Y168661D02*
X435402D01*
Y163761D01*
X435387Y163687D01*
Y158555D01*
X434158Y157325D01*
X433658Y157533D01*
X433658Y158153D01*
Y160250D01*
X430500D01*
X427343D01*
X427343Y157618D01*
X426989Y157265D01*
X426389D01*
X426046Y157653D01*
X426115Y158000D01*
X425954Y158809D01*
X425496Y159496D01*
X424810Y159954D01*
X424000Y160116D01*
X423190Y159954D01*
X422504Y159496D01*
X422046Y158809D01*
X421885Y158000D01*
X422046Y157191D01*
X422504Y156504D01*
X423190Y156046D01*
X424000Y155885D01*
X424810Y156046D01*
X425147Y156271D01*
X425459Y155959D01*
X425707Y155793D01*
X426000Y155735D01*
X427343D01*
Y152323D01*
X433598D01*
Y151317D01*
X431618Y149337D01*
X151157D01*
Y151238D01*
X144843D01*
Y149353D01*
X144098D01*
Y153563D01*
X137193D01*
Y147839D01*
X142684D01*
X142758Y147824D01*
X142758Y147824D01*
X144952D01*
X145032Y147808D01*
X431935D01*
X432228Y147866D01*
X432476Y148032D01*
X434902Y150458D01*
X434909Y150458D01*
X435402Y150339D01*
X435424Y150339D01*
X438604D01*
Y153201D01*
X438854D01*
D01*
X438604D01*
Y156063D01*
X435765D01*
X435558Y156563D01*
X436692Y157697D01*
X436692Y157697D01*
X436858Y157946D01*
X436916Y158238D01*
Y162937D01*
X442307D01*
Y168661D01*
D02*
G37*
G36*
X289295Y161341D02*
X288394Y161222D01*
X287554Y160874D01*
X286833Y160321D01*
X286279Y159599D01*
X285931Y158759D01*
X285813Y157858D01*
X285931Y156957D01*
X286279Y156117D01*
X286833Y155396D01*
X287554Y154842D01*
X288394Y154494D01*
X289295Y154376D01*
X290196Y154494D01*
X291037Y154842D01*
X291758Y155396D01*
X292311Y156117D01*
X292659Y156957D01*
X292778Y157858D01*
X292659Y158759D01*
X292311Y159599D01*
X291758Y160321D01*
X291037Y160874D01*
X290196Y161222D01*
X289295Y161341D01*
D02*
G37*
G36*
X263705D02*
X262804Y161222D01*
X261964Y160874D01*
X261242Y160321D01*
X260689Y159599D01*
X260341Y158759D01*
X260222Y157858D01*
X260341Y156957D01*
X260689Y156117D01*
X261242Y155396D01*
X261964Y154842D01*
X262804Y154494D01*
X263705Y154376D01*
X264606Y154494D01*
X265446Y154842D01*
X266167Y155396D01*
X266721Y156117D01*
X267069Y156957D01*
X267187Y157858D01*
X267069Y158759D01*
X266721Y159599D01*
X266167Y160321D01*
X265446Y160874D01*
X264606Y161222D01*
X263705Y161341D01*
D02*
G37*
G36*
X442307Y156063D02*
X439104D01*
Y153451D01*
X442307D01*
Y156063D01*
D02*
G37*
G36*
X124807Y153563D02*
X121604D01*
Y150951D01*
X124807D01*
Y153563D01*
D02*
G37*
G36*
X121104D02*
X117902D01*
Y150951D01*
X121104D01*
Y153563D01*
D02*
G37*
G36*
X442307Y152951D02*
X439104D01*
Y150339D01*
X442307D01*
Y152951D01*
D02*
G37*
G36*
X124807Y150451D02*
X121604D01*
Y147839D01*
X124807D01*
Y150451D01*
D02*
G37*
G36*
X121104D02*
X117902D01*
Y147839D01*
X121104D01*
Y150451D01*
D02*
G37*
G36*
X311250Y143733D02*
Y140533D01*
X314450D01*
X314364Y141185D01*
X314016Y142025D01*
X313462Y142746D01*
X312741Y143299D01*
X311901Y143647D01*
X311250Y143733D01*
D02*
G37*
G36*
X336841D02*
Y140533D01*
X340040D01*
X339954Y141185D01*
X339607Y142025D01*
X339053Y142746D01*
X338332Y143299D01*
X337492Y143647D01*
X336841Y143733D01*
D02*
G37*
G36*
X336341D02*
X335689Y143647D01*
X334849Y143299D01*
X334128Y142746D01*
X333575Y142025D01*
X333227Y141185D01*
X333141Y140533D01*
X336341D01*
Y143733D01*
D02*
G37*
G36*
X310750D02*
X310099Y143647D01*
X309259Y143299D01*
X308538Y142746D01*
X307984Y142025D01*
X307636Y141185D01*
X307550Y140533D01*
X310750D01*
Y143733D01*
D02*
G37*
G36*
X289545Y143591D02*
Y140392D01*
X292745D01*
X292659Y141043D01*
X292311Y141883D01*
X291758Y142604D01*
X291037Y143158D01*
X290196Y143506D01*
X289545Y143591D01*
D02*
G37*
G36*
X263955D02*
Y140392D01*
X267154D01*
X267069Y141043D01*
X266721Y141883D01*
X266167Y142604D01*
X265446Y143158D01*
X264606Y143506D01*
X263955Y143591D01*
D02*
G37*
G36*
X289045D02*
X288394Y143506D01*
X287554Y143158D01*
X286833Y142604D01*
X286279Y141883D01*
X285931Y141043D01*
X285846Y140392D01*
X289045D01*
Y143591D01*
D02*
G37*
G36*
X263455D02*
X262804Y143506D01*
X261964Y143158D01*
X261242Y142604D01*
X260689Y141883D01*
X260341Y141043D01*
X260255Y140392D01*
X263455D01*
Y143591D01*
D02*
G37*
G36*
X340040Y140033D02*
X336841D01*
Y136834D01*
X337492Y136919D01*
X338332Y137267D01*
X339053Y137821D01*
X339607Y138542D01*
X339954Y139382D01*
X340040Y140033D01*
D02*
G37*
G36*
X314450D02*
X311250D01*
Y136834D01*
X311901Y136919D01*
X312741Y137267D01*
X313462Y137821D01*
X314016Y138542D01*
X314364Y139382D01*
X314450Y140033D01*
D02*
G37*
G36*
X336341D02*
X333141D01*
X333227Y139382D01*
X333575Y138542D01*
X334128Y137821D01*
X334849Y137267D01*
X335689Y136919D01*
X336341Y136834D01*
Y140033D01*
D02*
G37*
G36*
X310750D02*
X307550D01*
X307636Y139382D01*
X307984Y138542D01*
X308538Y137821D01*
X309259Y137267D01*
X310099Y136919D01*
X310750Y136834D01*
Y140033D01*
D02*
G37*
G36*
X292745Y139892D02*
X289545D01*
Y136692D01*
X290196Y136778D01*
X291037Y137126D01*
X291758Y137679D01*
X292311Y138400D01*
X292659Y139241D01*
X292745Y139892D01*
D02*
G37*
G36*
X267154D02*
X263955D01*
Y136692D01*
X264606Y136778D01*
X265446Y137126D01*
X266167Y137679D01*
X266721Y138400D01*
X267069Y139241D01*
X267154Y139892D01*
D02*
G37*
G36*
X289045D02*
X285846D01*
X285931Y139241D01*
X286279Y138400D01*
X286833Y137679D01*
X287554Y137126D01*
X288394Y136778D01*
X289045Y136692D01*
Y139892D01*
D02*
G37*
G36*
X263455D02*
X260255D01*
X260341Y139241D01*
X260689Y138400D01*
X261242Y137679D01*
X261964Y137126D01*
X262804Y136778D01*
X263455Y136692D01*
Y139892D01*
D02*
G37*
%LPD*%
G36*
X276654Y263735D02*
X274209Y261291D01*
X274043Y261043D01*
X273985Y260750D01*
Y254959D01*
X273772Y254794D01*
X273272Y255039D01*
Y256634D01*
X272265D01*
Y258752D01*
X272854Y259146D01*
X273269Y259767D01*
X273415Y260500D01*
X273269Y261233D01*
X272854Y261854D01*
X272233Y262269D01*
X271500Y262415D01*
X270767Y262269D01*
X270146Y261854D01*
X269731Y261233D01*
X269585Y260500D01*
X269731Y259767D01*
X270146Y259146D01*
X270735Y258752D01*
Y256634D01*
X268728D01*
Y253899D01*
X268714Y253825D01*
Y253583D01*
X234976Y219845D01*
X234449Y219950D01*
X233793Y219820D01*
X233237Y219448D01*
X233124Y219280D01*
X232624D01*
X232511Y219448D01*
X231955Y219820D01*
X231594Y219892D01*
X231429Y220434D01*
X233365Y222370D01*
X234135D01*
X234428Y222428D01*
X234676Y222594D01*
X240041Y227959D01*
X240207Y228207D01*
X240265Y228500D01*
X240207Y228793D01*
X240041Y229041D01*
X239793Y229206D01*
X239500Y229265D01*
X239207Y229206D01*
X238959Y229041D01*
X233818Y223900D01*
X233048D01*
X232755Y223841D01*
X232507Y223676D01*
X228677Y219845D01*
X228400Y219901D01*
Y215382D01*
Y210863D01*
X228805Y210944D01*
X229362Y211316D01*
X229474Y211485D01*
X229974D01*
X230087Y211316D01*
X230643Y210944D01*
X231299Y210814D01*
X231955Y210944D01*
X232511Y211316D01*
X232624Y211485D01*
X233124D01*
X233237Y211316D01*
X233793Y210944D01*
X234449Y210814D01*
X235105Y210944D01*
X235661Y211316D01*
X235774Y211485D01*
X236274D01*
X236386Y211316D01*
X236943Y210944D01*
X237598Y210814D01*
X238254Y210944D01*
X238810Y211316D01*
X238923Y211485D01*
X239423D01*
X239536Y211316D01*
X240092Y210944D01*
X240174Y210928D01*
X240319Y210449D01*
X240207Y210337D01*
X240041Y210089D01*
X239983Y209797D01*
Y174865D01*
X239536Y174566D01*
X239423Y174398D01*
X238923D01*
X238810Y174566D01*
X238254Y174938D01*
X237598Y175068D01*
X236943Y174938D01*
X236386Y174566D01*
X236274Y174398D01*
X235774D01*
X235661Y174566D01*
X235105Y174938D01*
X234449Y175068D01*
X233793Y174938D01*
X233237Y174566D01*
X233124Y174398D01*
X232624D01*
X232511Y174566D01*
X231955Y174938D01*
X231299Y175068D01*
X230643Y174938D01*
X230087Y174566D01*
X229974Y174398D01*
X229474D01*
X229362Y174566D01*
X228805Y174938D01*
X228150Y175068D01*
X227494Y174938D01*
X226938Y174566D01*
X226825Y174398D01*
X226325D01*
X226212Y174566D01*
X225656Y174938D01*
X225294Y175010D01*
X225130Y175552D01*
X225541Y175963D01*
X225707Y176211D01*
X225765Y176504D01*
X225765Y176504D01*
Y211017D01*
X226212Y211316D01*
X226325Y211485D01*
X226825D01*
X226938Y211316D01*
X227494Y210944D01*
X227900Y210863D01*
Y215382D01*
Y219901D01*
X227494Y219820D01*
X227107Y219561D01*
X226573Y219612D01*
X226475Y219656D01*
X226404Y219779D01*
X226463Y219882D01*
X270817Y264235D01*
X276447D01*
X276654Y263735D01*
D02*
G37*
G36*
X286214Y258205D02*
Y255884D01*
X286228Y255810D01*
Y253168D01*
X286117Y252971D01*
X285868Y252738D01*
X285707Y252707D01*
X285459Y252541D01*
X282772Y249853D01*
X282518Y249898D01*
X282272Y250036D01*
Y251071D01*
X279835D01*
X279644Y251533D01*
X280541Y252430D01*
X280707Y252678D01*
X280765Y252971D01*
Y253221D01*
X282272D01*
Y256780D01*
X281265D01*
Y258252D01*
X281854Y258646D01*
X282269Y259267D01*
X282415Y260000D01*
X282269Y260733D01*
X281854Y261354D01*
X281233Y261769D01*
X280500Y261915D01*
X279767Y261769D01*
X279146Y261354D01*
X278731Y260733D01*
X278585Y260000D01*
X278731Y259267D01*
X279146Y258646D01*
X279735Y258252D01*
Y256780D01*
X277728D01*
Y253221D01*
X278515D01*
X278707Y252759D01*
X278034Y252086D01*
X277918D01*
X277625Y252027D01*
X277377Y251862D01*
X273734Y248218D01*
X273272Y248410D01*
Y250925D01*
X272917D01*
X272726Y251387D01*
X275291Y253952D01*
X275457Y254200D01*
X275515Y254492D01*
Y260433D01*
X277817Y262735D01*
X281683D01*
X286214Y258205D01*
D02*
G37*
G36*
X223788Y211316D02*
X224235Y211017D01*
Y176821D01*
X222378Y174963D01*
X221850Y175068D01*
X221195Y174938D01*
X220638Y174566D01*
X220526Y174398D01*
X220026D01*
X219913Y174566D01*
X219357Y174938D01*
X218701Y175068D01*
X218045Y174938D01*
X217489Y174566D01*
X217376Y174398D01*
X216876D01*
X216763Y174566D01*
X216207Y174938D01*
X215551Y175068D01*
X214895Y174938D01*
X214339Y174566D01*
X214226Y174398D01*
X213726D01*
X213614Y174566D01*
X213057Y174938D01*
X212402Y175068D01*
X211746Y174938D01*
X211190Y174566D01*
X211077Y174398D01*
X210577D01*
X210464Y174566D01*
X210017Y174865D01*
Y208996D01*
X210017Y208996D01*
X209959Y209288D01*
X209793Y209536D01*
X208969Y210360D01*
X209215Y210821D01*
X209252Y210814D01*
X209908Y210944D01*
X210464Y211316D01*
X210577Y211485D01*
X211077D01*
X211190Y211316D01*
X211746Y210944D01*
X212402Y210814D01*
X213057Y210944D01*
X213614Y211316D01*
X213726Y211485D01*
X214226D01*
X214339Y211316D01*
X214895Y210944D01*
X215551Y210814D01*
X216207Y210944D01*
X216763Y211316D01*
X216876Y211485D01*
X217376D01*
X217489Y211316D01*
X218045Y210944D01*
X218701Y210814D01*
X219357Y210944D01*
X219913Y211316D01*
X220026Y211485D01*
X220526D01*
X220638Y211316D01*
X221195Y210944D01*
X221850Y210814D01*
X222506Y210944D01*
X223062Y211316D01*
X223175Y211485D01*
X223675D01*
X223788Y211316D01*
D02*
G37*
G36*
X268728Y249251D02*
Y247366D01*
X269735D01*
Y245748D01*
X269146Y245354D01*
X268731Y244733D01*
X268585Y244000D01*
X268731Y243267D01*
X269146Y242646D01*
X269767Y242231D01*
X270500Y242085D01*
X271233Y242231D01*
X271854Y242646D01*
X272269Y243267D01*
X272415Y244000D01*
X272269Y244733D01*
X271854Y245354D01*
X271265Y245748D01*
Y247366D01*
X272811D01*
X272985Y247153D01*
Y229311D01*
X252493Y208819D01*
X251951Y208983D01*
X251879Y209345D01*
X251507Y209901D01*
X250951Y210273D01*
X250295Y210403D01*
X248138D01*
X247946Y210865D01*
X254041Y216959D01*
X254206Y217207D01*
X254265Y217500D01*
X254265Y217500D01*
Y219065D01*
X254712Y219364D01*
X255084Y219920D01*
X255214Y220576D01*
X255084Y221232D01*
X254712Y221788D01*
X254156Y222160D01*
X253500Y222290D01*
X252844Y222160D01*
X252288Y221788D01*
X251916Y221232D01*
X251786Y220576D01*
X251916Y219920D01*
X252288Y219364D01*
X252735Y219065D01*
Y217817D01*
X246303Y211385D01*
X244125D01*
X243917Y211885D01*
X249041Y217008D01*
X249041Y217008D01*
X249206Y217256D01*
X249265Y217549D01*
Y218989D01*
X249712Y219288D01*
X250084Y219844D01*
X250214Y220500D01*
X250084Y221156D01*
X249712Y221712D01*
X249156Y222084D01*
X248500Y222214D01*
X247844Y222084D01*
X247288Y221712D01*
X246916Y221156D01*
X246786Y220500D01*
X246916Y219844D01*
X247288Y219288D01*
X247735Y218989D01*
Y217865D01*
X242924Y213054D01*
X242462Y213245D01*
Y218236D01*
X242332Y218892D01*
X241960Y219448D01*
X241404Y219820D01*
X241042Y219892D01*
X240878Y220434D01*
X253977Y233533D01*
X254143Y233782D01*
X254201Y234074D01*
Y235377D01*
X268266Y249442D01*
X268728Y249251D01*
D02*
G37*
G36*
X277728Y249397D02*
Y247512D01*
X279235D01*
Y245748D01*
X278646Y245354D01*
X278231Y244733D01*
X278085Y244000D01*
X278231Y243267D01*
X278646Y242646D01*
X279267Y242231D01*
X280000Y242085D01*
X280733Y242231D01*
X281354Y242646D01*
X281769Y243267D01*
X281915Y244000D01*
X281769Y244733D01*
X281354Y245354D01*
X280765Y245748D01*
Y247512D01*
X282272D01*
X282485Y247100D01*
Y235661D01*
X252747Y205923D01*
X252193Y206076D01*
X252137Y206300D01*
X274291Y228453D01*
X274457Y228701D01*
X274515Y228994D01*
Y246836D01*
X277266Y249588D01*
X277728Y249397D01*
D02*
G37*
G36*
X211190Y166434D02*
X211746Y166062D01*
X212402Y165932D01*
X212890Y166029D01*
X226188Y152731D01*
X225997Y152269D01*
X220313D01*
X208109Y164472D01*
Y165787D01*
X208519Y166074D01*
X208609Y166060D01*
X209252Y165932D01*
X209908Y166062D01*
X210464Y166434D01*
X210577Y166603D01*
X211077D01*
X211190Y166434D01*
D02*
G37*
G36*
X305735Y238001D02*
Y190317D01*
X278727Y163308D01*
X278265Y163499D01*
Y211183D01*
X305273Y238192D01*
X305735Y238001D01*
D02*
G37*
D16*
X140646Y150701D02*
D03*
X121354D02*
D03*
Y163299D02*
D03*
X140646D02*
D03*
X458146Y153201D02*
D03*
X438854D02*
D03*
Y165799D02*
D03*
X458146D02*
D03*
X142000Y311000D02*
D03*
X122709D02*
D03*
Y298402D02*
D03*
X142000D02*
D03*
X461146Y305299D02*
D03*
X441854D02*
D03*
Y292701D02*
D03*
X461146D02*
D03*
D18*
X430500Y154988D02*
D03*
Y160500D02*
D03*
X434000Y300000D02*
D03*
Y294488D02*
D03*
X149000Y305500D02*
D03*
Y299988D02*
D03*
X148000Y157000D02*
D03*
Y151488D02*
D03*
X240000Y268988D02*
D03*
Y274500D02*
D03*
X233000Y268988D02*
D03*
Y274500D02*
D03*
D29*
X283992Y302272D02*
D03*
X318008D02*
D03*
D30*
X283992Y323374D02*
D03*
X318008D02*
D03*
D37*
X311000Y158000D02*
X336591D01*
X163500Y204000D02*
X189091D01*
X123467Y165411D02*
X126854D01*
X136943Y175500D01*
X121354Y163299D02*
X123467Y165411D01*
X142758Y148589D02*
X145016D01*
X140646Y150701D02*
X142758Y148589D01*
X145016D02*
X145032Y148573D01*
X438854Y177646D02*
Y265089D01*
X455443Y155313D02*
Y161057D01*
X438854Y177646D02*
X455443Y161057D01*
Y155313D02*
X457555Y153201D01*
X458146D01*
X436152Y163687D02*
X438264Y165799D01*
X434362Y151000D02*
Y156449D01*
X438264Y165799D02*
X438854D01*
X436152Y158238D02*
Y163687D01*
X434362Y156449D02*
X436152Y158238D01*
X145032Y148573D02*
X431935D01*
X434362Y151000D01*
X461146Y305299D02*
Y311854D01*
X452592Y316885D02*
X456115D01*
X461146Y311854D01*
X441854Y299076D02*
Y305299D01*
X438152Y295374D02*
X441854Y299076D01*
X438152Y275152D02*
Y295374D01*
X380826Y217826D02*
X438152Y275152D01*
X380826Y209314D02*
Y217826D01*
X458443Y294813D02*
X460555Y292701D01*
X458443Y294813D02*
Y297557D01*
X460555Y292701D02*
X461146D01*
X438112Y308411D02*
X447589D01*
X458443Y297557D01*
X435000Y305299D02*
X438112Y308411D01*
X385898Y305299D02*
X435000D01*
X136943Y175500D02*
X136943Y293935D01*
X141409Y298402D02*
X142000D01*
X136943Y293935D02*
X141409Y298402D01*
X123299Y311000D02*
X126411Y307888D01*
X122709Y311000D02*
X123299D01*
X126411Y307888D02*
X145504D01*
X146292Y308675D01*
X157000Y262146D02*
Y297992D01*
X149492Y305500D02*
X157000Y297992D01*
X143348Y248494D02*
X157000Y262146D01*
X458246Y174980D02*
X464848Y181583D01*
Y296108D01*
X463848Y297108D02*
X464848Y296108D01*
X463848Y297108D02*
Y303187D01*
X461736Y305299D02*
X463848Y303187D01*
X461146Y305299D02*
X461736D01*
X145592Y158915D02*
X147508Y157000D01*
X148000D01*
X141236Y163299D02*
X145592Y158943D01*
Y158915D02*
Y158943D01*
X149234Y317644D02*
X150144D01*
X142591Y311000D02*
X149234Y317644D01*
X150144D02*
X150500Y318000D01*
X188352Y304000D02*
X188500D01*
X458146Y165799D02*
X458246Y165900D01*
Y174980D01*
X316800Y297388D02*
X430896D01*
X433508Y300000D01*
X434000D01*
X152472Y160980D02*
X162746D01*
X438854Y265089D02*
X454746Y280980D01*
X183825Y308675D02*
X188500Y304000D01*
X146292Y308675D02*
X183825D01*
X383848Y307348D02*
X385898Y305299D01*
X315092Y299096D02*
X316800Y297388D01*
X315092Y299096D02*
Y301405D01*
X313712Y302785D02*
X315092Y301405D01*
X307000Y302785D02*
X313712D01*
X208452Y220167D02*
X225667D01*
X270500Y265000D02*
X297096D01*
X225667Y220167D02*
X270500Y265000D01*
X208038Y221167D02*
X225167D01*
X270000Y266000D01*
X206321Y219450D02*
X208038Y221167D01*
X270000Y266000D02*
X321096D01*
X234135Y223135D02*
X239500Y228500D01*
X228150Y215382D02*
Y218236D01*
X233048Y223135D01*
X234135D01*
X424500Y158000D02*
X426000Y156500D01*
X428988D01*
X424000Y158000D02*
X424500D01*
X428988Y156500D02*
X430500Y154988D01*
X240520Y273980D02*
X258746D01*
X240000Y274500D02*
X240520Y273980D01*
X249000Y324500D02*
X278500Y295000D01*
X296162Y302785D02*
X307000D01*
X306906Y302691D02*
X307000Y302785D01*
X306906Y300657D02*
Y302691D01*
X294467Y299242D02*
X295094Y299870D01*
Y300657D01*
X294467Y298969D02*
Y299242D01*
X290498Y295000D02*
X294467Y298969D01*
X295094Y301445D02*
X295722Y302073D01*
Y302346D01*
X295094Y300657D02*
Y301445D01*
X295722Y302346D02*
X296162Y302785D01*
X278500Y295000D02*
X290498D01*
X292194Y290516D02*
X300500Y298822D01*
X301500Y298408D02*
Y299236D01*
X239657Y289516D02*
X292608D01*
X301500Y298408D01*
X300500Y298822D02*
Y299236D01*
X239657Y290516D02*
X292194D01*
X211500Y301000D02*
X217500Y307000D01*
X211500Y272500D02*
Y301000D01*
X197774Y258774D02*
X211500Y272500D01*
X217500Y307000D02*
X218000D01*
X143348Y165018D02*
Y248494D01*
X148492Y157000D02*
X152472Y160980D01*
X148000Y157000D02*
X148492D01*
X225000Y176504D02*
Y215382D01*
X221850Y165715D02*
Y170500D01*
Y173354D02*
X225000Y176504D01*
X221850Y170500D02*
Y173354D01*
X216380Y298124D02*
X226856D01*
X228000Y299268D01*
X213500Y295244D02*
X216380Y298124D01*
X228000Y299268D02*
Y300744D01*
X213500Y282605D02*
Y295244D01*
Y282605D02*
X234104Y262000D01*
X253500D01*
X229968Y302143D02*
Y302220D01*
Y301443D02*
Y302143D01*
X241136Y303364D02*
X245500Y299000D01*
X231112Y303364D02*
X241136D01*
X229968Y302220D02*
X231112Y303364D01*
X242656Y207889D02*
X243065Y207479D01*
Y207065D02*
Y207479D01*
X253500Y217500D02*
Y220576D01*
X242656Y206656D02*
X243065Y207065D01*
X246620Y210620D02*
X253500Y217500D01*
X242656Y207889D02*
Y209489D01*
X243787Y210620D01*
X246620D01*
X242656Y179124D02*
Y206656D01*
X240748Y170500D02*
Y209797D01*
X242656Y179124D02*
X244587Y177193D01*
X247441D01*
X240748Y209797D02*
X248500Y217549D01*
Y220500D01*
X260004Y175004D02*
Y184500D01*
X242750Y157750D02*
X260004Y175004D01*
X225447Y157750D02*
X242750D01*
X215551Y167646D02*
X225447Y157750D01*
X215551Y167646D02*
Y170500D01*
X229185Y161315D02*
X229500Y161000D01*
X221850Y165715D02*
X226250Y161315D01*
X229185D01*
X268004Y151504D02*
X306500Y190000D01*
X219996Y151504D02*
X268004D01*
X207344Y164156D02*
X219996Y151504D01*
X303978Y248116D02*
X305008Y249146D01*
X303978Y247624D02*
Y248116D01*
X302500Y246146D02*
X303978Y247624D01*
X302500Y243500D02*
Y246146D01*
X305008Y249146D02*
X305500D01*
X302068Y243932D02*
X302500Y243500D01*
X305500Y246172D02*
X306444Y247116D01*
X277500Y211500D02*
X305500Y239500D01*
Y246172D01*
X306500Y245758D02*
X306859Y246116D01*
X306500Y190000D02*
Y245758D01*
X307997Y246116D02*
X309022Y247141D01*
X306859Y246116D02*
X307997D01*
X306444Y247116D02*
X307582D01*
X295239Y243739D02*
X295478Y243978D01*
Y248262D01*
X296508Y249291D02*
X297000D01*
X295478Y248262D02*
X296508Y249291D01*
X208500Y271500D02*
Y305500D01*
X192500Y314000D02*
X218000D01*
X229747Y302364D02*
X229968Y302143D01*
X229636Y302364D02*
X229747D01*
X218000Y314000D02*
X229636Y302364D01*
X196774Y259774D02*
X208500Y271500D01*
X204000Y269500D02*
Y305500D01*
X195500Y261000D02*
X204000Y269500D01*
X255500Y160000D02*
X266500Y171000D01*
Y184500D01*
X197774Y198022D02*
Y258774D01*
X196774Y195872D02*
Y259774D01*
X195500Y193996D02*
Y261000D01*
X196774Y195872D02*
X199705Y192941D01*
X202559D01*
X199705Y189791D02*
X202559D01*
X195500Y193996D02*
X199705Y189791D01*
X197774Y198022D02*
X199705Y196091D01*
X202559D01*
X328500Y172000D02*
X337000D01*
X291000Y169500D02*
X298500D01*
X309022Y247141D02*
Y248279D01*
X308022Y248876D02*
X312478Y253333D01*
X307582Y247116D02*
X308022Y247555D01*
X309022Y248279D02*
X313567Y252825D01*
X308022Y247555D02*
Y248876D01*
X277500Y162414D02*
Y211500D01*
X227293Y152707D02*
X267793D01*
X277500Y162414D01*
X212402Y167598D02*
X227293Y152707D01*
X212402Y167598D02*
Y170500D01*
X280500Y255500D02*
Y260000D01*
X280000Y255000D02*
X280500Y255500D01*
X280000Y252971D02*
Y255000D01*
X282000Y263500D02*
X286978Y258522D01*
X277500Y263500D02*
X282000D01*
X274750Y260750D02*
X277500Y263500D01*
X274750Y254492D02*
Y260750D01*
X286978Y255884D02*
Y258522D01*
X297096Y265000D02*
X301596Y260500D01*
X321096Y266000D02*
X326596Y260500D01*
X206321Y210512D02*
X207344Y209489D01*
X207321Y210927D02*
X209252Y208996D01*
X207344Y185423D02*
Y209489D01*
X197774Y176393D02*
Y184711D01*
X205413Y183492D02*
X207344Y185423D01*
X198905Y175262D02*
X206213D01*
X207321Y210927D02*
Y219036D01*
X202559Y183492D02*
X205413D01*
X206321Y210512D02*
Y219450D01*
X197774Y176393D02*
X198905Y175262D01*
X199705Y186642D02*
X202559D01*
X207321Y219036D02*
X208452Y220167D01*
X209252Y170500D02*
Y208996D01*
X206213Y175262D02*
X207321Y174154D01*
X197774Y184711D02*
X199705Y186642D01*
X326596Y260500D02*
X330000D01*
X301596D02*
X305000D01*
X207344Y164156D02*
Y166822D01*
X207321Y166846D02*
Y174154D01*
Y166846D02*
X207344Y166822D01*
X313567Y252825D02*
X316082D01*
X318611Y255353D01*
Y257111D01*
X322000Y260500D01*
X312478Y253825D02*
X313508Y254854D01*
X312478Y253333D02*
Y253825D01*
X314000Y254854D02*
Y260500D01*
X288500Y254854D02*
Y260500D01*
X271500Y255354D02*
Y260500D01*
X297000Y255000D02*
Y260500D01*
X278350Y251321D02*
X280000Y252971D01*
X271000Y254854D02*
X271500Y255354D01*
X313508Y254854D02*
X314000D01*
X286978Y255884D02*
X288008Y254854D01*
X273750Y228994D02*
Y247153D01*
X283250Y235345D02*
Y249250D01*
X250295Y205539D02*
X273750Y228994D01*
X250295Y202390D02*
X283250Y235345D01*
X270500Y244000D02*
Y248646D01*
X273750Y247153D02*
X277918Y251321D01*
X283250Y249250D02*
X286000Y252000D01*
X290500D01*
X293500Y255000D01*
X277918Y251321D02*
X278350D01*
X293500Y255000D02*
X297000D01*
X270500Y248646D02*
X271000Y249146D01*
X247441Y205539D02*
X250295D01*
X247441Y202390D02*
X250295D01*
X288500Y244000D02*
Y249146D01*
X280000Y244000D02*
Y249291D01*
X288008Y254854D02*
X288500D01*
X271433Y251175D02*
X274750Y254492D01*
X268918Y251175D02*
X271433D01*
X253436Y235694D02*
X268918Y251175D01*
X253436Y234074D02*
Y235694D01*
X237598Y218236D02*
X253436Y234074D01*
X237598Y215382D02*
Y218236D01*
X234449D02*
X269478Y253266D01*
Y253825D02*
X270508Y254854D01*
X234449Y215382D02*
Y218236D01*
X269478Y253266D02*
Y253825D01*
X270508Y254854D02*
X271000D01*
X236268Y285094D02*
X237744D01*
X233906Y281256D02*
Y282732D01*
X236268Y285094D01*
X233906Y279780D02*
Y281256D01*
X237270Y276415D02*
X238085D01*
X233906Y279780D02*
X237270Y276415D01*
X238085D02*
X240000Y274500D01*
X231937Y281256D02*
X233906D01*
X231937Y279780D02*
X233000Y278717D01*
Y274500D02*
Y278717D01*
X231937Y279780D02*
Y281256D01*
X182000Y324500D02*
X192500Y314000D01*
X183667Y312833D02*
X217388D01*
X228000Y302220D01*
Y300744D02*
Y302220D01*
X172000Y324500D02*
X183667Y312833D01*
X237744Y287063D02*
X239220D01*
X240783Y285500D02*
X244744D01*
X239220Y287063D02*
X240783Y285500D01*
X302628Y299529D02*
X302969Y299870D01*
X301793Y299529D02*
X302628D01*
X300207D02*
X300500Y299236D01*
X302969Y299870D02*
Y300657D01*
X237744Y291000D02*
X239173D01*
X239657Y290516D01*
X239173Y289031D02*
X239657Y289516D01*
X301500Y299236D02*
X301793Y299529D01*
X299372D02*
X300207D01*
X299032Y299870D02*
X299372Y299529D01*
X299032Y299870D02*
Y300657D01*
X237744Y289031D02*
X239173D01*
X244744Y285281D02*
Y285500D01*
X242829Y283366D02*
X244744Y285281D01*
X354500Y205000D02*
X401347D01*
X428205Y231858D01*
X330000Y254854D02*
Y260500D01*
X322000Y254854D02*
Y260500D01*
X305000Y255354D02*
X305500Y254854D01*
X305000Y255354D02*
Y260500D01*
X330000Y244000D02*
Y249146D01*
X322000Y244000D02*
Y249146D01*
X314000Y244000D02*
Y249146D01*
D38*
X188795Y274142D02*
D03*
Y291858D02*
D03*
X163205D02*
D03*
Y274142D02*
D03*
X311000Y140283D02*
D03*
Y158000D02*
D03*
X336591D02*
D03*
Y140283D02*
D03*
X263705Y140142D02*
D03*
Y157858D02*
D03*
X289295D02*
D03*
Y140142D02*
D03*
X375705Y246642D02*
D03*
Y264358D02*
D03*
X401295D02*
D03*
Y246642D02*
D03*
X428205Y214142D02*
D03*
Y231858D02*
D03*
X453795D02*
D03*
Y214142D02*
D03*
X163500Y186283D02*
D03*
Y204000D02*
D03*
X189091D02*
D03*
Y186283D02*
D03*
X203500Y231283D02*
D03*
Y249000D02*
D03*
X229091D02*
D03*
Y231283D02*
D03*
X123500D02*
D03*
Y249000D02*
D03*
X149091D02*
D03*
Y231283D02*
D03*
D39*
X172000Y324500D02*
D03*
X162000D02*
D03*
X182000D02*
D03*
D40*
X192000D02*
D03*
D41*
X259000D02*
D03*
D42*
X249000D02*
D03*
X239000D02*
D03*
X229000D02*
D03*
X219000D02*
D03*
D43*
X452592Y316885D02*
D03*
X150500Y293500D02*
D03*
X162746Y160980D02*
D03*
X188500Y304000D02*
D03*
X383848Y307348D02*
D03*
X262246Y230980D02*
D03*
X239500Y228500D02*
D03*
X344246Y207480D02*
D03*
X334500Y207500D02*
D03*
X322246Y207480D02*
D03*
X311246D02*
D03*
X301000Y207500D02*
D03*
X286500D02*
D03*
X274246Y207480D02*
D03*
X265246D02*
D03*
X424000Y158000D02*
D03*
X458246Y174980D02*
D03*
X410246Y297480D02*
D03*
X258746Y273980D02*
D03*
X278246Y295480D02*
D03*
X454746Y280980D02*
D03*
X380826Y209314D02*
D03*
D44*
X406000Y185500D02*
D03*
X177000Y242500D02*
D03*
D45*
X281500Y171000D02*
D03*
X226500Y276000D02*
D03*
X149000Y305500D02*
D03*
X150500Y318000D02*
D03*
X218000Y307000D02*
D03*
X253500Y262000D02*
D03*
X245500Y299000D02*
D03*
X253500Y220576D02*
D03*
X248500Y220500D02*
D03*
X208500Y305500D02*
D03*
X204000D02*
D03*
X255326Y160315D02*
D03*
X337000Y172000D02*
D03*
X328500D02*
D03*
X298500Y169500D02*
D03*
X291000D02*
D03*
D46*
X229500Y161000D02*
D03*
X354500Y205000D02*
D03*
D47*
X302500Y243500D02*
D03*
X295239Y243739D02*
D03*
X280500Y260000D02*
D03*
X288500Y260500D02*
D03*
X330000Y244000D02*
D03*
X322000Y260500D02*
D03*
X314000Y244000D02*
D03*
X280000D02*
D03*
X314000Y260500D02*
D03*
X270500Y244000D02*
D03*
X330000Y260500D02*
D03*
X288500Y244000D02*
D03*
X322000D02*
D03*
X305000Y260500D02*
D03*
X297000D02*
D03*
X271500D02*
D03*
D48*
X232331Y295331D02*
D03*
X228000D02*
D03*
X223669D02*
D03*
X232331Y291000D02*
D03*
X228000D02*
D03*
X223669D02*
D03*
X232331Y286669D02*
D03*
X228000D02*
D03*
X223669D02*
D03*
D49*
X240748Y170500D02*
D03*
X237598D02*
D03*
X234449D02*
D03*
X231299D02*
D03*
X228150D02*
D03*
X225000D02*
D03*
X221850D02*
D03*
X218701D02*
D03*
X215551D02*
D03*
X212402D02*
D03*
X209252D02*
D03*
Y215382D02*
D03*
X212402D02*
D03*
X215551D02*
D03*
X218701D02*
D03*
X221850D02*
D03*
X225000D02*
D03*
X228150D02*
D03*
X231299D02*
D03*
X234449D02*
D03*
X237598D02*
D03*
X240748D02*
D03*
D50*
X202559Y177193D02*
D03*
Y180343D02*
D03*
Y183492D02*
D03*
Y186642D02*
D03*
Y189791D02*
D03*
Y192941D02*
D03*
Y196091D02*
D03*
Y199240D02*
D03*
Y202390D02*
D03*
Y205539D02*
D03*
Y208689D02*
D03*
X247441D02*
D03*
Y205539D02*
D03*
Y202390D02*
D03*
Y199240D02*
D03*
Y196091D02*
D03*
Y192941D02*
D03*
Y189791D02*
D03*
Y186642D02*
D03*
Y183492D02*
D03*
Y180343D02*
D03*
Y177193D02*
D03*
D51*
X266500Y184500D02*
D03*
X260004D02*
D03*
D52*
X244744Y285500D02*
D03*
X250256D02*
D03*
D53*
X237744Y296906D02*
D03*
Y294937D02*
D03*
Y292969D02*
D03*
Y291000D02*
D03*
Y289031D02*
D03*
Y287063D02*
D03*
Y285094D02*
D03*
X218256D02*
D03*
Y287063D02*
D03*
Y289031D02*
D03*
Y291000D02*
D03*
Y292969D02*
D03*
Y294937D02*
D03*
Y296906D02*
D03*
D54*
X233906Y281256D02*
D03*
X231937D02*
D03*
X229968D02*
D03*
X228000D02*
D03*
X226031D02*
D03*
X224063D02*
D03*
X222094D02*
D03*
Y300744D02*
D03*
X224063D02*
D03*
X226031D02*
D03*
X228000D02*
D03*
X229968D02*
D03*
X231937D02*
D03*
X233906D02*
D03*
D55*
X228000Y291000D02*
D03*
D56*
X289189Y300657D02*
D03*
X291157D02*
D03*
X293126D02*
D03*
X295094D02*
D03*
X297063D02*
D03*
X299032D02*
D03*
X302969D02*
D03*
X304937D02*
D03*
X306906D02*
D03*
X308874D02*
D03*
X310843D02*
D03*
X312811D02*
D03*
X309858Y305776D02*
D03*
X307890D02*
D03*
X305921D02*
D03*
X303953D02*
D03*
X301984D02*
D03*
X300016D02*
D03*
X298047D02*
D03*
X296079D02*
D03*
X294110D02*
D03*
X292142D02*
D03*
D57*
X288795D02*
D03*
X313205D02*
D03*
D58*
X271000Y249146D02*
D03*
Y254854D02*
D03*
X280000Y249291D02*
D03*
Y255000D02*
D03*
X288500Y249146D02*
D03*
Y254854D02*
D03*
X297000Y249291D02*
D03*
Y255000D02*
D03*
X305500Y249146D02*
D03*
Y254854D02*
D03*
X314000Y249146D02*
D03*
Y254854D02*
D03*
X322000Y249146D02*
D03*
Y254854D02*
D03*
X330000Y249146D02*
D03*
Y254854D02*
D03*
M02*
