G04*
G04 #@! TF.GenerationSoftware,Altium Limited,Altium Designer,21.2.2 (38)*
G04*
G04 Layer_Color=32896*
%FSLAX25Y25*%
%MOIN*%
G70*
G04*
G04 #@! TF.SameCoordinates,98E345A6-E5E3-4E7C-82CD-A9440516B19A*
G04*
G04*
G04 #@! TF.FilePolarity,Positive*
G04*
G01*
G75*
%ADD12C,0.00787*%
G36*
X310457Y313628D02*
Y313590D01*
Y313555D01*
X310454Y313519D01*
Y313489D01*
X310451Y313462D01*
Y313437D01*
X310449Y313396D01*
X310443Y313366D01*
X310440Y313345D01*
X310437Y313331D01*
Y313328D01*
X310427Y313279D01*
X310410Y313235D01*
X310397Y313197D01*
X310380Y313164D01*
X310364Y313137D01*
X310353Y313115D01*
X310345Y313104D01*
X310342Y313099D01*
X310315Y313063D01*
X310282Y313033D01*
X310246Y313009D01*
X310214Y312984D01*
X310181Y312968D01*
X310156Y312954D01*
X310140Y312946D01*
X310137Y312943D01*
X310135D01*
X310083Y312924D01*
X310031Y312908D01*
X309979Y312897D01*
X309932Y312891D01*
X309892Y312886D01*
X309875D01*
X309859Y312883D01*
X309832D01*
X309763Y312886D01*
X309698Y312897D01*
X309638Y312910D01*
X309580Y312930D01*
X309528Y312954D01*
X309482Y312979D01*
X309438Y313006D01*
X309400Y313033D01*
X309365Y313063D01*
X309335Y313091D01*
X309310Y313115D01*
X309291Y313140D01*
X309275Y313159D01*
X309261Y313173D01*
X309256Y313183D01*
X309253Y313186D01*
Y312924D01*
X308974D01*
Y314750D01*
X309283D01*
Y313754D01*
X309285Y313691D01*
X309288Y313631D01*
X309296Y313579D01*
X309305Y313530D01*
X309315Y313486D01*
X309326Y313448D01*
X309340Y313413D01*
X309354Y313383D01*
X309367Y313355D01*
X309381Y313334D01*
X309392Y313317D01*
X309403Y313301D01*
X309411Y313290D01*
X309419Y313282D01*
X309422Y313279D01*
X309425Y313276D01*
X309452Y313254D01*
X309482Y313235D01*
X309539Y313203D01*
X309597Y313181D01*
X309649Y313167D01*
X309695Y313156D01*
X309717Y313153D01*
X309733D01*
X309747Y313151D01*
X309766D01*
X309812Y313153D01*
X309853Y313159D01*
X309889Y313170D01*
X309922Y313178D01*
X309946Y313189D01*
X309965Y313200D01*
X309979Y313205D01*
X309982Y313208D01*
X310014Y313230D01*
X310042Y313254D01*
X310064Y313279D01*
X310080Y313303D01*
X310094Y313325D01*
X310102Y313342D01*
X310107Y313353D01*
X310110Y313358D01*
X310124Y313396D01*
X310132Y313440D01*
X310140Y313486D01*
X310143Y313533D01*
X310145Y313574D01*
X310148Y313593D01*
Y313609D01*
Y313620D01*
Y313631D01*
Y313637D01*
Y313639D01*
Y314750D01*
X310457D01*
Y313628D01*
D02*
G37*
G36*
X308505Y312924D02*
X308196D01*
Y314750D01*
X308505D01*
Y312924D01*
D02*
G37*
G36*
Y312231D02*
X308196D01*
Y312583D01*
X308505D01*
Y312231D01*
D02*
G37*
G36*
X306916Y314748D02*
X306995Y314745D01*
X307063Y314737D01*
X307096Y314734D01*
X307123Y314729D01*
X307148Y314726D01*
X307170Y314723D01*
X307189Y314718D01*
X307205Y314715D01*
X307219Y314712D01*
X307227D01*
X307232Y314709D01*
X307235D01*
X307295Y314693D01*
X307350Y314674D01*
X307396Y314652D01*
X307435Y314633D01*
X307467Y314614D01*
X307492Y314600D01*
X307505Y314589D01*
X307511Y314587D01*
X307552Y314551D01*
X307587Y314513D01*
X307620Y314475D01*
X307645Y314437D01*
X307667Y314404D01*
X307683Y314376D01*
X307688Y314366D01*
X307694Y314357D01*
X307697Y314355D01*
Y314352D01*
X307721Y314295D01*
X307740Y314234D01*
X307754Y314180D01*
X307765Y314128D01*
X307770Y314084D01*
Y314068D01*
X307773Y314052D01*
Y314038D01*
Y314030D01*
Y314024D01*
Y314021D01*
Y313981D01*
X307768Y313942D01*
X307754Y313869D01*
X307732Y313803D01*
X307710Y313749D01*
X307699Y313724D01*
X307688Y313702D01*
X307678Y313683D01*
X307667Y313667D01*
X307658Y313656D01*
X307653Y313648D01*
X307650Y313642D01*
X307647Y313639D01*
X307598Y313582D01*
X307541Y313536D01*
X307484Y313495D01*
X307426Y313465D01*
X307377Y313440D01*
X307355Y313432D01*
X307336Y313424D01*
X307320Y313418D01*
X307309Y313413D01*
X307301Y313410D01*
X307298D01*
X307361Y313374D01*
X307413Y313336D01*
X307459Y313298D01*
X307495Y313263D01*
X307525Y313230D01*
X307544Y313205D01*
X307552Y313194D01*
X307557Y313186D01*
X307560Y313183D01*
Y313181D01*
X307590Y313126D01*
X307612Y313074D01*
X307628Y313022D01*
X307639Y312976D01*
X307645Y312935D01*
X307650Y312905D01*
Y312894D01*
Y312886D01*
Y312880D01*
Y312878D01*
X307645Y312812D01*
X307634Y312752D01*
X307617Y312695D01*
X307601Y312646D01*
X307582Y312605D01*
X307574Y312585D01*
X307566Y312572D01*
X307557Y312561D01*
X307555Y312553D01*
X307549Y312547D01*
Y312545D01*
X307508Y312490D01*
X307465Y312441D01*
X307421Y312400D01*
X307377Y312367D01*
X307336Y312343D01*
X307306Y312323D01*
X307293Y312318D01*
X307284Y312313D01*
X307279Y312310D01*
X307276D01*
X307205Y312282D01*
X307132Y312263D01*
X307052Y312250D01*
X306981Y312242D01*
X306946Y312236D01*
X306916Y312233D01*
X306886D01*
X306861Y312231D01*
X305870D01*
Y314750D01*
X306828D01*
X306916Y314748D01*
D02*
G37*
G36*
X302062Y314789D02*
X302125Y314786D01*
X302185Y314778D01*
X302242Y314770D01*
X302294Y314759D01*
X302343Y314748D01*
X302387Y314734D01*
X302425Y314720D01*
X302463Y314709D01*
X302493Y314696D01*
X302520Y314685D01*
X302542Y314674D01*
X302561Y314666D01*
X302572Y314658D01*
X302581Y314655D01*
X302583Y314652D01*
X302624Y314625D01*
X302662Y314598D01*
X302695Y314567D01*
X302728Y314538D01*
X302755Y314508D01*
X302783Y314475D01*
X302804Y314447D01*
X302824Y314417D01*
X302856Y314368D01*
X302867Y314346D01*
X302878Y314327D01*
X302886Y314311D01*
X302892Y314300D01*
X302894Y314292D01*
Y314289D01*
X302911Y314245D01*
X302925Y314199D01*
X302946Y314101D01*
X302960Y314000D01*
X302971Y313904D01*
X302974Y313858D01*
X302976Y313817D01*
X302979Y313781D01*
X302982Y313749D01*
Y313721D01*
Y313702D01*
Y313691D01*
Y313686D01*
Y312231D01*
X302649D01*
Y313686D01*
X302646Y313770D01*
X302643Y313849D01*
X302635Y313920D01*
X302624Y313986D01*
X302613Y314043D01*
X302600Y314095D01*
X302583Y314142D01*
X302570Y314183D01*
X302556Y314218D01*
X302540Y314248D01*
X302526Y314273D01*
X302515Y314292D01*
X302504Y314305D01*
X302499Y314316D01*
X302493Y314322D01*
X302490Y314324D01*
X302458Y314355D01*
X302422Y314379D01*
X302384Y314401D01*
X302343Y314420D01*
X302299Y314437D01*
X302256Y314450D01*
X302171Y314469D01*
X302130Y314477D01*
X302092Y314483D01*
X302056Y314486D01*
X302026Y314488D01*
X302002Y314491D01*
X301966D01*
X301890Y314488D01*
X301819Y314477D01*
X301756Y314464D01*
X301701Y314450D01*
X301680Y314442D01*
X301661Y314434D01*
X301642Y314428D01*
X301628Y314423D01*
X301617Y314417D01*
X301609Y314412D01*
X301603Y314409D01*
X301601D01*
X301549Y314374D01*
X301505Y314335D01*
X301469Y314297D01*
X301442Y314256D01*
X301420Y314224D01*
X301404Y314194D01*
X301398Y314183D01*
X301396Y314174D01*
X301393Y314172D01*
Y314169D01*
X301382Y314139D01*
X301374Y314103D01*
X301358Y314027D01*
X301347Y313948D01*
X301341Y313869D01*
X301339Y313833D01*
X301336Y313798D01*
Y313768D01*
X301333Y313740D01*
Y313716D01*
Y313699D01*
Y313688D01*
Y313686D01*
Y312231D01*
X301000D01*
Y313686D01*
Y313759D01*
X301005Y313828D01*
X301008Y313893D01*
X301016Y313953D01*
X301022Y314011D01*
X301030Y314062D01*
X301038Y314109D01*
X301049Y314153D01*
X301057Y314191D01*
X301065Y314224D01*
X301074Y314254D01*
X301082Y314275D01*
X301087Y314295D01*
X301093Y314308D01*
X301096Y314316D01*
Y314319D01*
X301115Y314360D01*
X301136Y314401D01*
X301186Y314472D01*
X301237Y314532D01*
X301292Y314581D01*
X301317Y314603D01*
X301339Y314619D01*
X301360Y314636D01*
X301379Y314649D01*
X301393Y314658D01*
X301404Y314666D01*
X301412Y314668D01*
X301415Y314671D01*
X301459Y314693D01*
X301505Y314709D01*
X301601Y314739D01*
X301699Y314761D01*
X301792Y314775D01*
X301833Y314780D01*
X301873Y314786D01*
X301906Y314789D01*
X301936D01*
X301961Y314791D01*
X301996D01*
X302062Y314789D01*
D02*
G37*
G36*
X304598Y314786D02*
X304688Y314775D01*
X304770Y314761D01*
X304808Y314750D01*
X304841Y314742D01*
X304874Y314734D01*
X304901Y314723D01*
X304926Y314715D01*
X304945Y314709D01*
X304961Y314701D01*
X304972Y314699D01*
X304980Y314693D01*
X304983D01*
X305059Y314652D01*
X305125Y314609D01*
X305182Y314562D01*
X305229Y314518D01*
X305267Y314477D01*
X305292Y314447D01*
X305302Y314434D01*
X305308Y314426D01*
X305313Y314420D01*
Y314417D01*
X305335Y314385D01*
X305351Y314349D01*
X305382Y314284D01*
X305403Y314221D01*
X305417Y314163D01*
X305425Y314112D01*
X305428Y314092D01*
Y314073D01*
X305431Y314060D01*
Y314049D01*
Y314043D01*
Y314041D01*
X305425Y313967D01*
X305414Y313899D01*
X305398Y313839D01*
X305379Y313787D01*
X305357Y313743D01*
X305349Y313724D01*
X305341Y313710D01*
X305335Y313699D01*
X305330Y313691D01*
X305324Y313686D01*
Y313683D01*
X305302Y313656D01*
X305281Y313628D01*
X305229Y313577D01*
X305177Y313533D01*
X305122Y313497D01*
X305076Y313467D01*
X305054Y313454D01*
X305035Y313445D01*
X305021Y313437D01*
X305010Y313432D01*
X305002Y313426D01*
X304999D01*
X304969Y313413D01*
X304931Y313399D01*
X304893Y313385D01*
X304849Y313372D01*
X304756Y313347D01*
X304664Y313323D01*
X304620Y313309D01*
X304579Y313301D01*
X304541Y313290D01*
X304508Y313284D01*
X304481Y313276D01*
X304462Y313271D01*
X304448Y313268D01*
X304443D01*
X304369Y313252D01*
X304303Y313232D01*
X304246Y313216D01*
X304191Y313200D01*
X304145Y313183D01*
X304104Y313170D01*
X304068Y313156D01*
X304038Y313142D01*
X304014Y313129D01*
X303992Y313118D01*
X303976Y313110D01*
X303962Y313102D01*
X303951Y313093D01*
X303946Y313088D01*
X303940Y313085D01*
X303907Y313050D01*
X303886Y313014D01*
X303869Y312976D01*
X303855Y312940D01*
X303850Y312910D01*
X303847Y312886D01*
X303845Y312870D01*
Y312867D01*
Y312864D01*
X303847Y312834D01*
X303850Y312807D01*
X303866Y312757D01*
X303888Y312711D01*
X303913Y312673D01*
X303937Y312640D01*
X303959Y312616D01*
X303976Y312602D01*
X303978Y312597D01*
X303981D01*
X304008Y312577D01*
X304041Y312558D01*
X304109Y312531D01*
X304180Y312512D01*
X304254Y312498D01*
X304287Y312493D01*
X304320Y312490D01*
X304347Y312487D01*
X304372D01*
X304393Y312485D01*
X304472D01*
X304522Y312490D01*
X304568Y312495D01*
X304612Y312504D01*
X304650Y312512D01*
X304685Y312523D01*
X304718Y312534D01*
X304748Y312545D01*
X304773Y312558D01*
X304795Y312569D01*
X304814Y312580D01*
X304830Y312588D01*
X304841Y312597D01*
X304852Y312602D01*
X304855Y312605D01*
X304857Y312607D01*
X304885Y312632D01*
X304909Y312656D01*
X304947Y312714D01*
X304980Y312774D01*
X305002Y312831D01*
X305018Y312883D01*
X305024Y312905D01*
X305029Y312927D01*
X305032Y312943D01*
Y312954D01*
X305035Y312962D01*
Y312965D01*
X305354Y312940D01*
X305346Y312859D01*
X305330Y312785D01*
X305311Y312717D01*
X305289Y312659D01*
X305275Y312635D01*
X305267Y312610D01*
X305256Y312591D01*
X305248Y312575D01*
X305240Y312561D01*
X305234Y312553D01*
X305231Y312547D01*
X305229Y312545D01*
X305182Y312482D01*
X305130Y312430D01*
X305076Y312384D01*
X305021Y312345D01*
X304975Y312318D01*
X304953Y312307D01*
X304937Y312296D01*
X304923Y312288D01*
X304909Y312285D01*
X304904Y312280D01*
X304901D01*
X304819Y312250D01*
X304735Y312225D01*
X304650Y312209D01*
X304573Y312198D01*
X304538Y312195D01*
X304508Y312192D01*
X304478Y312190D01*
X304453Y312187D01*
X304407D01*
X304314Y312190D01*
X304227Y312201D01*
X304150Y312214D01*
X304115Y312222D01*
X304082Y312231D01*
X304052Y312239D01*
X304025Y312247D01*
X304000Y312255D01*
X303981Y312261D01*
X303967Y312266D01*
X303954Y312272D01*
X303948Y312274D01*
X303946D01*
X303872Y312310D01*
X303809Y312351D01*
X303754Y312392D01*
X303711Y312433D01*
X303675Y312471D01*
X303648Y312501D01*
X303640Y312512D01*
X303634Y312520D01*
X303629Y312526D01*
Y312528D01*
X303593Y312591D01*
X303566Y312654D01*
X303550Y312711D01*
X303536Y312766D01*
X303528Y312815D01*
X303525Y312834D01*
Y312850D01*
X303522Y312864D01*
Y312875D01*
Y312880D01*
Y312883D01*
X303525Y312946D01*
X303536Y313006D01*
X303550Y313061D01*
X303566Y313107D01*
X303583Y313145D01*
X303596Y313175D01*
X303602Y313186D01*
X303607Y313194D01*
X303610Y313197D01*
Y313200D01*
X303645Y313249D01*
X303689Y313295D01*
X303733Y313334D01*
X303779Y313369D01*
X303817Y313396D01*
X303850Y313416D01*
X303864Y313421D01*
X303872Y313426D01*
X303877Y313432D01*
X303880D01*
X303907Y313445D01*
X303940Y313459D01*
X303976Y313473D01*
X304014Y313486D01*
X304093Y313514D01*
X304175Y313538D01*
X304213Y313549D01*
X304246Y313560D01*
X304279Y313568D01*
X304309Y313577D01*
X304330Y313582D01*
X304350Y313587D01*
X304361Y313590D01*
X304363D01*
X304426Y313604D01*
X304483Y313620D01*
X304533Y313631D01*
X304579Y313645D01*
X304620Y313656D01*
X304658Y313664D01*
X304688Y313675D01*
X304718Y313683D01*
X304740Y313688D01*
X304762Y313697D01*
X304778Y313702D01*
X304789Y313705D01*
X304800Y313708D01*
X304805Y313710D01*
X304811Y313713D01*
X304866Y313738D01*
X304912Y313762D01*
X304953Y313787D01*
X304983Y313809D01*
X305008Y313830D01*
X305024Y313847D01*
X305035Y313858D01*
X305038Y313860D01*
X305062Y313893D01*
X305079Y313929D01*
X305092Y313964D01*
X305100Y313997D01*
X305106Y314024D01*
X305109Y314049D01*
Y314062D01*
Y314065D01*
Y314068D01*
X305106Y314109D01*
X305098Y314150D01*
X305084Y314185D01*
X305073Y314218D01*
X305059Y314245D01*
X305046Y314267D01*
X305038Y314278D01*
X305035Y314284D01*
X305005Y314319D01*
X304972Y314349D01*
X304934Y314376D01*
X304898Y314398D01*
X304866Y314415D01*
X304841Y314428D01*
X304830Y314434D01*
X304822Y314437D01*
X304819Y314439D01*
X304817D01*
X304762Y314458D01*
X304704Y314472D01*
X304647Y314480D01*
X304595Y314486D01*
X304552Y314491D01*
X304533D01*
X304516Y314494D01*
X304483D01*
X304404Y314491D01*
X304333Y314483D01*
X304265Y314469D01*
X304208Y314456D01*
X304183Y314450D01*
X304161Y314445D01*
X304142Y314437D01*
X304126Y314431D01*
X304112Y314426D01*
X304104Y314423D01*
X304099Y314420D01*
X304096D01*
X304036Y314390D01*
X303984Y314357D01*
X303940Y314327D01*
X303905Y314295D01*
X303877Y314267D01*
X303858Y314245D01*
X303845Y314232D01*
X303842Y314226D01*
X303815Y314177D01*
X303793Y314125D01*
X303776Y314073D01*
X303763Y314024D01*
X303752Y313978D01*
X303749Y313962D01*
X303746Y313945D01*
X303744Y313931D01*
X303741Y313920D01*
Y313915D01*
Y313912D01*
X303427Y313940D01*
X303430Y313986D01*
X303435Y314032D01*
X303451Y314117D01*
X303473Y314196D01*
X303484Y314232D01*
X303498Y314262D01*
X303509Y314292D01*
X303522Y314319D01*
X303533Y314341D01*
X303544Y314360D01*
X303553Y314376D01*
X303558Y314387D01*
X303561Y314393D01*
X303563Y314395D01*
X303615Y314467D01*
X303675Y314527D01*
X303735Y314578D01*
X303793Y314619D01*
X303845Y314652D01*
X303866Y314663D01*
X303886Y314674D01*
X303902Y314682D01*
X303913Y314688D01*
X303921Y314693D01*
X303924D01*
X304017Y314726D01*
X304112Y314750D01*
X304208Y314767D01*
X304298Y314778D01*
X304341Y314783D01*
X304380Y314786D01*
X304412Y314789D01*
X304443D01*
X304467Y314791D01*
X304500D01*
X304598Y314786D01*
D02*
G37*
G36*
X271119Y251994D02*
X271179Y251986D01*
X271233Y251978D01*
X271285Y251964D01*
X271332Y251951D01*
X271373Y251935D01*
X271411Y251921D01*
X271444Y251904D01*
X271474Y251888D01*
X271498Y251874D01*
X271517Y251861D01*
X271534Y251850D01*
X271545Y251842D01*
X271550Y251836D01*
X271553Y251834D01*
X271585Y251798D01*
X271616Y251760D01*
X271640Y251722D01*
X271662Y251678D01*
X271681Y251637D01*
X271695Y251593D01*
X271708Y251552D01*
X271717Y251511D01*
X271725Y251473D01*
X271730Y251438D01*
X271736Y251405D01*
X271738Y251378D01*
X271741Y251356D01*
Y251323D01*
X271738Y251241D01*
X271727Y251167D01*
X271714Y251102D01*
X271695Y251045D01*
X271687Y251020D01*
X271678Y250998D01*
X271673Y250979D01*
X271665Y250965D01*
X271659Y250952D01*
X271654Y250943D01*
X271651Y250938D01*
Y250935D01*
X271613Y250878D01*
X271572Y250826D01*
X271528Y250785D01*
X271487Y250752D01*
X271449Y250725D01*
X271416Y250706D01*
X271405Y250700D01*
X271397Y250695D01*
X271392Y250692D01*
X271389D01*
X271354Y250679D01*
X271318Y250665D01*
X271239Y250646D01*
X271157Y250632D01*
X271078Y250624D01*
X271042Y250619D01*
X271007Y250616D01*
X270977D01*
X270949Y250613D01*
X270928D01*
X270911D01*
X270900D01*
X270898D01*
X269180D01*
Y250946D01*
X270917D01*
X270955D01*
X270993Y250949D01*
X271056Y250952D01*
X271111Y250957D01*
X271154Y250963D01*
X271187Y250971D01*
X271212Y250976D01*
X271225Y250979D01*
X271231Y250982D01*
X271266Y250998D01*
X271296Y251017D01*
X271323Y251039D01*
X271345Y251058D01*
X271362Y251080D01*
X271375Y251094D01*
X271384Y251105D01*
X271386Y251110D01*
X271405Y251146D01*
X271419Y251181D01*
X271430Y251217D01*
X271435Y251252D01*
X271441Y251282D01*
X271444Y251304D01*
Y251326D01*
X271438Y251386D01*
X271427Y251438D01*
X271411Y251484D01*
X271392Y251522D01*
X271373Y251552D01*
X271356Y251574D01*
X271345Y251588D01*
X271340Y251593D01*
X271318Y251610D01*
X271293Y251626D01*
X271263Y251640D01*
X271233Y251651D01*
X271168Y251670D01*
X271102Y251683D01*
X271042Y251692D01*
X271015Y251694D01*
X270990Y251697D01*
X270971D01*
X270958Y251700D01*
X270947D01*
X270944D01*
X270988Y252000D01*
X271056D01*
X271119Y251994D01*
D02*
G37*
G36*
X270081Y249903D02*
X270057Y249846D01*
X270029Y249791D01*
X270005Y249742D01*
X269980Y249699D01*
X269972Y249679D01*
X269961Y249663D01*
X269956Y249650D01*
X269950Y249641D01*
X269945Y249636D01*
Y249633D01*
X269904Y249568D01*
X269866Y249510D01*
X269830Y249458D01*
X269797Y249417D01*
X269770Y249382D01*
X269751Y249357D01*
X269737Y249344D01*
X269732Y249338D01*
X271700D01*
Y249030D01*
X269172D01*
Y249229D01*
X269235Y249265D01*
X269295Y249306D01*
X269352Y249352D01*
X269402Y249398D01*
X269448Y249439D01*
X269464Y249458D01*
X269481Y249472D01*
X269494Y249486D01*
X269502Y249497D01*
X269508Y249502D01*
X269511Y249505D01*
X269573Y249578D01*
X269628Y249658D01*
X269680Y249734D01*
X269724Y249805D01*
X269740Y249835D01*
X269756Y249865D01*
X269773Y249892D01*
X269784Y249914D01*
X269792Y249933D01*
X269800Y249947D01*
X269803Y249955D01*
X269806Y249958D01*
X270103D01*
X270081Y249903D01*
D02*
G37*
G36*
X280119Y252140D02*
X280179Y252132D01*
X280233Y252124D01*
X280285Y252110D01*
X280332Y252097D01*
X280373Y252080D01*
X280411Y252066D01*
X280444Y252050D01*
X280474Y252034D01*
X280498Y252020D01*
X280517Y252006D01*
X280534Y251995D01*
X280545Y251987D01*
X280550Y251982D01*
X280553Y251979D01*
X280586Y251944D01*
X280615Y251905D01*
X280640Y251867D01*
X280662Y251823D01*
X280681Y251783D01*
X280695Y251739D01*
X280708Y251698D01*
X280717Y251657D01*
X280725Y251619D01*
X280730Y251583D01*
X280736Y251551D01*
X280738Y251523D01*
X280741Y251501D01*
Y251469D01*
X280738Y251387D01*
X280728Y251313D01*
X280714Y251248D01*
X280695Y251190D01*
X280686Y251166D01*
X280678Y251144D01*
X280673Y251125D01*
X280665Y251111D01*
X280659Y251097D01*
X280654Y251089D01*
X280651Y251084D01*
Y251081D01*
X280613Y251024D01*
X280572Y250972D01*
X280528Y250931D01*
X280487Y250898D01*
X280449Y250871D01*
X280416Y250852D01*
X280405Y250846D01*
X280397Y250841D01*
X280392Y250838D01*
X280389D01*
X280353Y250824D01*
X280318Y250811D01*
X280239Y250792D01*
X280157Y250778D01*
X280078Y250770D01*
X280042Y250764D01*
X280007Y250762D01*
X279977D01*
X279949Y250759D01*
X279928D01*
X279911D01*
X279900D01*
X279898D01*
X278180D01*
Y251092D01*
X279917D01*
X279955D01*
X279993Y251095D01*
X280056Y251097D01*
X280111Y251103D01*
X280154Y251108D01*
X280187Y251116D01*
X280211Y251122D01*
X280225Y251125D01*
X280231Y251127D01*
X280266Y251144D01*
X280296Y251163D01*
X280323Y251185D01*
X280345Y251204D01*
X280362Y251226D01*
X280375Y251239D01*
X280383Y251250D01*
X280386Y251256D01*
X280405Y251291D01*
X280419Y251327D01*
X280430Y251362D01*
X280435Y251398D01*
X280441Y251428D01*
X280444Y251449D01*
Y251471D01*
X280438Y251531D01*
X280427Y251583D01*
X280411Y251630D01*
X280392Y251668D01*
X280373Y251698D01*
X280356Y251720D01*
X280345Y251733D01*
X280340Y251739D01*
X280318Y251755D01*
X280293Y251772D01*
X280263Y251785D01*
X280233Y251796D01*
X280168Y251815D01*
X280102Y251829D01*
X280042Y251837D01*
X280015Y251840D01*
X279990Y251843D01*
X279971D01*
X279958Y251845D01*
X279947D01*
X279944D01*
X279988Y252146D01*
X280056D01*
X280119Y252140D01*
D02*
G37*
G36*
X280700Y248714D02*
X280403D01*
Y249956D01*
X280343Y249913D01*
X280315Y249891D01*
X280291Y249869D01*
X280269Y249850D01*
X280252Y249836D01*
X280241Y249825D01*
X280239Y249822D01*
X280222Y249806D01*
X280201Y249784D01*
X280179Y249760D01*
X280154Y249732D01*
X280100Y249675D01*
X280048Y249615D01*
X279999Y249558D01*
X279977Y249533D01*
X279958Y249509D01*
X279941Y249492D01*
X279930Y249476D01*
X279922Y249467D01*
X279919Y249465D01*
X279868Y249405D01*
X279818Y249347D01*
X279775Y249296D01*
X279731Y249249D01*
X279693Y249205D01*
X279655Y249167D01*
X279622Y249132D01*
X279592Y249099D01*
X279567Y249072D01*
X279543Y249050D01*
X279523Y249031D01*
X279507Y249014D01*
X279493Y249003D01*
X279485Y248992D01*
X279480Y248990D01*
X279477Y248987D01*
X279417Y248935D01*
X279363Y248894D01*
X279311Y248859D01*
X279264Y248829D01*
X279226Y248807D01*
X279196Y248791D01*
X279185Y248785D01*
X279177Y248782D01*
X279174Y248780D01*
X279171D01*
X279117Y248758D01*
X279062Y248744D01*
X279013Y248733D01*
X278967Y248725D01*
X278928Y248720D01*
X278898Y248717D01*
X278887D01*
X278879D01*
X278876D01*
X278874D01*
X278819Y248720D01*
X278767Y248725D01*
X278718Y248736D01*
X278669Y248749D01*
X278625Y248766D01*
X278584Y248785D01*
X278546Y248804D01*
X278513Y248823D01*
X278481Y248842D01*
X278453Y248862D01*
X278429Y248881D01*
X278410Y248897D01*
X278396Y248911D01*
X278382Y248921D01*
X278377Y248927D01*
X278374Y248930D01*
X278339Y248971D01*
X278309Y249014D01*
X278281Y249061D01*
X278257Y249110D01*
X278238Y249156D01*
X278221Y249205D01*
X278208Y249252D01*
X278197Y249298D01*
X278189Y249339D01*
X278183Y249380D01*
X278178Y249416D01*
X278175Y249446D01*
X278172Y249470D01*
Y249506D01*
X278175Y249571D01*
X278180Y249634D01*
X278189Y249691D01*
X278202Y249746D01*
X278216Y249798D01*
X278232Y249844D01*
X278249Y249888D01*
X278265Y249926D01*
X278284Y249962D01*
X278300Y249992D01*
X278317Y250019D01*
X278330Y250041D01*
X278344Y250057D01*
X278352Y250068D01*
X278358Y250076D01*
X278361Y250079D01*
X278396Y250117D01*
X278437Y250150D01*
X278478Y250180D01*
X278524Y250207D01*
X278568Y250229D01*
X278612Y250251D01*
X278658Y250267D01*
X278699Y250281D01*
X278740Y250295D01*
X278778Y250303D01*
X278814Y250311D01*
X278844Y250317D01*
X278868Y250319D01*
X278885Y250322D01*
X278896Y250325D01*
X278901D01*
X278934Y250008D01*
X278890Y250005D01*
X278849Y250003D01*
X278778Y249986D01*
X278713Y249964D01*
X278685Y249954D01*
X278661Y249940D01*
X278639Y249929D01*
X278620Y249915D01*
X278604Y249904D01*
X278590Y249896D01*
X278579Y249885D01*
X278571Y249880D01*
X278568Y249877D01*
X278565Y249874D01*
X278541Y249847D01*
X278519Y249820D01*
X278502Y249790D01*
X278486Y249760D01*
X278462Y249700D01*
X278445Y249642D01*
X278437Y249593D01*
X278432Y249571D01*
Y249552D01*
X278429Y249536D01*
Y249476D01*
X278434Y249437D01*
X278448Y249369D01*
X278470Y249312D01*
X278492Y249260D01*
X278516Y249222D01*
X278527Y249205D01*
X278538Y249192D01*
X278546Y249181D01*
X278552Y249173D01*
X278554Y249170D01*
X278557Y249167D01*
X278582Y249143D01*
X278606Y249124D01*
X278631Y249104D01*
X278658Y249091D01*
X278710Y249066D01*
X278759Y249050D01*
X278800Y249042D01*
X278819Y249036D01*
X278836D01*
X278847Y249033D01*
X278857D01*
X278863D01*
X278866D01*
X278898Y249036D01*
X278931Y249039D01*
X278997Y249055D01*
X279059Y249080D01*
X279117Y249107D01*
X279166Y249134D01*
X279185Y249145D01*
X279204Y249159D01*
X279218Y249167D01*
X279229Y249175D01*
X279234Y249178D01*
X279237Y249181D01*
X279275Y249211D01*
X279316Y249246D01*
X279360Y249287D01*
X279403Y249331D01*
X279493Y249421D01*
X279578Y249514D01*
X279619Y249558D01*
X279655Y249601D01*
X279687Y249640D01*
X279715Y249672D01*
X279739Y249700D01*
X279756Y249719D01*
X279769Y249732D01*
X279772Y249738D01*
X279813Y249787D01*
X279851Y249831D01*
X279887Y249874D01*
X279922Y249913D01*
X279955Y249951D01*
X279988Y249984D01*
X280015Y250013D01*
X280042Y250041D01*
X280067Y250065D01*
X280089Y250084D01*
X280108Y250104D01*
X280121Y250117D01*
X280135Y250131D01*
X280143Y250139D01*
X280149Y250142D01*
X280151Y250145D01*
X280211Y250194D01*
X280272Y250235D01*
X280329Y250270D01*
X280381Y250297D01*
X280424Y250319D01*
X280444Y250327D01*
X280457Y250336D01*
X280471Y250341D01*
X280479Y250344D01*
X280485Y250347D01*
X280487D01*
X280525Y250360D01*
X280564Y250368D01*
X280599Y250377D01*
X280632Y250379D01*
X280659Y250382D01*
X280681D01*
X280695D01*
X280700D01*
Y248714D01*
D02*
G37*
G36*
X288616Y251994D02*
X288676Y251986D01*
X288731Y251978D01*
X288783Y251964D01*
X288829Y251951D01*
X288870Y251935D01*
X288908Y251921D01*
X288941Y251904D01*
X288971Y251888D01*
X288995Y251874D01*
X289015Y251861D01*
X289031Y251850D01*
X289042Y251842D01*
X289047Y251836D01*
X289050Y251834D01*
X289083Y251798D01*
X289113Y251760D01*
X289137Y251722D01*
X289159Y251678D01*
X289178Y251637D01*
X289192Y251593D01*
X289206Y251552D01*
X289214Y251511D01*
X289222Y251473D01*
X289227Y251438D01*
X289233Y251405D01*
X289236Y251378D01*
X289238Y251356D01*
Y251323D01*
X289236Y251241D01*
X289225Y251167D01*
X289211Y251102D01*
X289192Y251045D01*
X289184Y251020D01*
X289176Y250998D01*
X289170Y250979D01*
X289162Y250965D01*
X289157Y250952D01*
X289151Y250943D01*
X289148Y250938D01*
Y250935D01*
X289110Y250878D01*
X289069Y250826D01*
X289025Y250785D01*
X288984Y250752D01*
X288946Y250725D01*
X288913Y250706D01*
X288903Y250700D01*
X288894Y250695D01*
X288889Y250692D01*
X288886D01*
X288851Y250679D01*
X288815Y250665D01*
X288736Y250646D01*
X288654Y250632D01*
X288575Y250624D01*
X288540Y250619D01*
X288504Y250616D01*
X288474D01*
X288447Y250613D01*
X288425D01*
X288408D01*
X288398D01*
X288395D01*
X286678D01*
Y250946D01*
X288414D01*
X288452D01*
X288490Y250949D01*
X288553Y250952D01*
X288608Y250957D01*
X288651Y250963D01*
X288684Y250971D01*
X288709Y250976D01*
X288722Y250979D01*
X288728Y250982D01*
X288763Y250998D01*
X288793Y251017D01*
X288821Y251039D01*
X288843Y251058D01*
X288859Y251080D01*
X288873Y251094D01*
X288881Y251105D01*
X288883Y251110D01*
X288903Y251146D01*
X288916Y251181D01*
X288927Y251217D01*
X288933Y251252D01*
X288938Y251282D01*
X288941Y251304D01*
Y251326D01*
X288935Y251386D01*
X288924Y251438D01*
X288908Y251484D01*
X288889Y251522D01*
X288870Y251552D01*
X288853Y251574D01*
X288843Y251588D01*
X288837Y251593D01*
X288815Y251610D01*
X288791Y251626D01*
X288761Y251640D01*
X288731Y251651D01*
X288665Y251670D01*
X288599Y251683D01*
X288540Y251692D01*
X288512Y251694D01*
X288488Y251697D01*
X288469D01*
X288455Y251700D01*
X288444D01*
X288441D01*
X288485Y252000D01*
X288553D01*
X288616Y251994D01*
D02*
G37*
G36*
X288589Y250184D02*
X288643Y250174D01*
X288695Y250157D01*
X288744Y250141D01*
X288791Y250122D01*
X288832Y250100D01*
X288873Y250078D01*
X288905Y250056D01*
X288938Y250034D01*
X288965Y250015D01*
X288990Y249996D01*
X289009Y249980D01*
X289025Y249963D01*
X289036Y249953D01*
X289042Y249947D01*
X289044Y249944D01*
X289080Y249903D01*
X289110Y249857D01*
X289135Y249813D01*
X289159Y249767D01*
X289178Y249720D01*
X289192Y249674D01*
X289206Y249630D01*
X289216Y249587D01*
X289225Y249546D01*
X289230Y249510D01*
X289236Y249478D01*
X289238Y249447D01*
Y249426D01*
X289241Y249407D01*
Y249393D01*
X289238Y249325D01*
X289230Y249262D01*
X289219Y249202D01*
X289206Y249144D01*
X289189Y249090D01*
X289170Y249041D01*
X289148Y248994D01*
X289126Y248953D01*
X289107Y248915D01*
X289086Y248882D01*
X289066Y248852D01*
X289050Y248831D01*
X289036Y248811D01*
X289025Y248798D01*
X289017Y248790D01*
X289015Y248787D01*
X288971Y248743D01*
X288924Y248708D01*
X288878Y248675D01*
X288829Y248648D01*
X288783Y248623D01*
X288736Y248604D01*
X288692Y248587D01*
X288649Y248574D01*
X288608Y248563D01*
X288572Y248557D01*
X288540Y248552D01*
X288509Y248547D01*
X288488D01*
X288469Y248544D01*
X288458D01*
X288455D01*
X288411D01*
X288368Y248549D01*
X288288Y248563D01*
X288220Y248585D01*
X288190Y248596D01*
X288163Y248607D01*
X288135Y248618D01*
X288114Y248628D01*
X288094Y248639D01*
X288081Y248650D01*
X288067Y248658D01*
X288059Y248664D01*
X288053Y248667D01*
X288051Y248669D01*
X287994Y248719D01*
X287947Y248776D01*
X287912Y248833D01*
X287882Y248888D01*
X287860Y248940D01*
X287852Y248961D01*
X287846Y248978D01*
X287841Y248994D01*
X287838Y249005D01*
X287835Y249013D01*
Y249016D01*
X287802Y248956D01*
X287770Y248904D01*
X287734Y248858D01*
X287699Y248822D01*
X287669Y248792D01*
X287644Y248773D01*
X287628Y248760D01*
X287625Y248757D01*
X287622D01*
X287570Y248727D01*
X287519Y248705D01*
X287469Y248689D01*
X287423Y248678D01*
X287385Y248672D01*
X287352Y248667D01*
X287341D01*
X287333D01*
X287327D01*
X287325D01*
X287262Y248669D01*
X287202Y248680D01*
X287147Y248697D01*
X287098Y248713D01*
X287057Y248729D01*
X287041Y248738D01*
X287027Y248746D01*
X287016Y248751D01*
X287005Y248757D01*
X287002Y248760D01*
X287000D01*
X286945Y248798D01*
X286899Y248841D01*
X286858Y248885D01*
X286822Y248929D01*
X286795Y248967D01*
X286776Y248997D01*
X286768Y249011D01*
X286762Y249019D01*
X286759Y249024D01*
Y249027D01*
X286730Y249093D01*
X286708Y249158D01*
X286691Y249224D01*
X286680Y249281D01*
X286675Y249333D01*
X286672Y249352D01*
X286669Y249371D01*
Y249407D01*
X286672Y249461D01*
X286678Y249513D01*
X286686Y249562D01*
X286697Y249611D01*
X286710Y249655D01*
X286724Y249696D01*
X286740Y249734D01*
X286754Y249767D01*
X286770Y249800D01*
X286787Y249827D01*
X286801Y249849D01*
X286814Y249871D01*
X286825Y249884D01*
X286833Y249898D01*
X286839Y249903D01*
X286841Y249906D01*
X286874Y249942D01*
X286912Y249974D01*
X286951Y250004D01*
X286989Y250032D01*
X287030Y250056D01*
X287068Y250075D01*
X287147Y250111D01*
X287183Y250125D01*
X287215Y250135D01*
X287245Y250144D01*
X287270Y250152D01*
X287292Y250157D01*
X287308Y250160D01*
X287319Y250163D01*
X287322D01*
X287376Y249854D01*
X287297Y249838D01*
X287229Y249816D01*
X287169Y249791D01*
X287123Y249764D01*
X287084Y249742D01*
X287060Y249720D01*
X287043Y249707D01*
X287038Y249701D01*
X287000Y249652D01*
X286972Y249603D01*
X286951Y249551D01*
X286937Y249505D01*
X286929Y249461D01*
X286926Y249445D01*
Y249428D01*
X286923Y249415D01*
Y249398D01*
X286929Y249333D01*
X286940Y249275D01*
X286959Y249224D01*
X286978Y249180D01*
X287000Y249147D01*
X287019Y249123D01*
X287030Y249106D01*
X287035Y249101D01*
X287057Y249079D01*
X287079Y249062D01*
X287128Y249032D01*
X287175Y249011D01*
X287218Y248997D01*
X287259Y248989D01*
X287289Y248986D01*
X287303Y248983D01*
X287311D01*
X287316D01*
X287319D01*
X287357Y248986D01*
X287393Y248991D01*
X287428Y248997D01*
X287458Y249008D01*
X287513Y249035D01*
X287557Y249062D01*
X287592Y249093D01*
X287617Y249120D01*
X287625Y249131D01*
X287630Y249136D01*
X287636Y249142D01*
Y249144D01*
X287671Y249204D01*
X287696Y249267D01*
X287715Y249327D01*
X287726Y249382D01*
X287734Y249428D01*
X287737Y249447D01*
Y249467D01*
X287740Y249480D01*
Y249516D01*
X287737Y249532D01*
X287734Y249546D01*
Y249551D01*
X288004Y249584D01*
X287994Y249537D01*
X287985Y249494D01*
X287980Y249458D01*
X287974Y249426D01*
Y249401D01*
X287972Y249382D01*
Y249365D01*
X287974Y249327D01*
X287977Y249289D01*
X287994Y249221D01*
X288015Y249161D01*
X288040Y249109D01*
X288067Y249068D01*
X288078Y249052D01*
X288089Y249038D01*
X288097Y249027D01*
X288105Y249019D01*
X288108Y249016D01*
X288111Y249013D01*
X288138Y248989D01*
X288165Y248967D01*
X288193Y248948D01*
X288223Y248932D01*
X288280Y248907D01*
X288337Y248888D01*
X288387Y248880D01*
X288406Y248877D01*
X288425Y248874D01*
X288439Y248871D01*
X288452D01*
X288458D01*
X288460D01*
X288501Y248874D01*
X288540Y248877D01*
X288613Y248896D01*
X288676Y248918D01*
X288731Y248945D01*
X288755Y248961D01*
X288774Y248975D01*
X288793Y248986D01*
X288807Y248997D01*
X288818Y249008D01*
X288826Y249016D01*
X288832Y249019D01*
X288834Y249022D01*
X288862Y249052D01*
X288883Y249082D01*
X288903Y249112D01*
X288922Y249142D01*
X288949Y249204D01*
X288965Y249265D01*
X288976Y249314D01*
X288979Y249338D01*
X288982Y249355D01*
X288984Y249371D01*
Y249393D01*
X288979Y249458D01*
X288965Y249521D01*
X288949Y249573D01*
X288927Y249619D01*
X288905Y249658D01*
X288889Y249685D01*
X288881Y249693D01*
X288875Y249701D01*
X288870Y249704D01*
Y249707D01*
X288845Y249729D01*
X288821Y249750D01*
X288763Y249789D01*
X288701Y249819D01*
X288638Y249843D01*
X288580Y249862D01*
X288556Y249868D01*
X288534Y249873D01*
X288515Y249879D01*
X288501Y249882D01*
X288493Y249884D01*
X288490D01*
X288531Y250193D01*
X288589Y250184D01*
D02*
G37*
G36*
X297119Y252140D02*
X297179Y252132D01*
X297233Y252124D01*
X297285Y252110D01*
X297332Y252097D01*
X297373Y252080D01*
X297411Y252066D01*
X297444Y252050D01*
X297474Y252034D01*
X297498Y252020D01*
X297517Y252006D01*
X297534Y251995D01*
X297545Y251987D01*
X297550Y251982D01*
X297553Y251979D01*
X297586Y251944D01*
X297616Y251905D01*
X297640Y251867D01*
X297662Y251823D01*
X297681Y251783D01*
X297695Y251739D01*
X297708Y251698D01*
X297716Y251657D01*
X297725Y251619D01*
X297730Y251583D01*
X297736Y251551D01*
X297738Y251523D01*
X297741Y251501D01*
Y251469D01*
X297738Y251387D01*
X297727Y251313D01*
X297714Y251248D01*
X297695Y251190D01*
X297687Y251166D01*
X297678Y251144D01*
X297673Y251125D01*
X297665Y251111D01*
X297659Y251097D01*
X297654Y251089D01*
X297651Y251084D01*
Y251081D01*
X297613Y251024D01*
X297572Y250972D01*
X297528Y250931D01*
X297487Y250898D01*
X297449Y250871D01*
X297416Y250852D01*
X297405Y250846D01*
X297397Y250841D01*
X297392Y250838D01*
X297389D01*
X297354Y250824D01*
X297318Y250811D01*
X297239Y250792D01*
X297157Y250778D01*
X297078Y250770D01*
X297042Y250764D01*
X297007Y250762D01*
X296977D01*
X296949Y250759D01*
X296928D01*
X296911D01*
X296900D01*
X296898D01*
X295180D01*
Y251092D01*
X296917D01*
X296955D01*
X296993Y251095D01*
X297056Y251097D01*
X297111Y251103D01*
X297154Y251108D01*
X297187Y251116D01*
X297212Y251122D01*
X297225Y251125D01*
X297231Y251127D01*
X297266Y251144D01*
X297296Y251163D01*
X297323Y251185D01*
X297345Y251204D01*
X297362Y251226D01*
X297375Y251239D01*
X297383Y251250D01*
X297386Y251256D01*
X297405Y251291D01*
X297419Y251327D01*
X297430Y251362D01*
X297435Y251398D01*
X297441Y251428D01*
X297444Y251449D01*
Y251471D01*
X297438Y251531D01*
X297427Y251583D01*
X297411Y251630D01*
X297392Y251668D01*
X297373Y251698D01*
X297356Y251720D01*
X297345Y251733D01*
X297340Y251739D01*
X297318Y251755D01*
X297293Y251772D01*
X297263Y251785D01*
X297233Y251796D01*
X297168Y251815D01*
X297102Y251829D01*
X297042Y251837D01*
X297015Y251840D01*
X296990Y251843D01*
X296971D01*
X296958Y251845D01*
X296947D01*
X296944D01*
X296988Y252146D01*
X297056D01*
X297119Y252140D01*
D02*
G37*
G36*
X297097Y249347D02*
X297700D01*
Y249039D01*
X297097D01*
Y248698D01*
X296813D01*
Y249039D01*
X295180D01*
Y249293D01*
X296813Y250445D01*
X297097D01*
Y249347D01*
D02*
G37*
G36*
X305619Y251994D02*
X305679Y251986D01*
X305733Y251978D01*
X305785Y251964D01*
X305832Y251951D01*
X305873Y251935D01*
X305911Y251921D01*
X305944Y251904D01*
X305974Y251888D01*
X305998Y251874D01*
X306017Y251861D01*
X306034Y251850D01*
X306045Y251842D01*
X306050Y251836D01*
X306053Y251834D01*
X306085Y251798D01*
X306116Y251760D01*
X306140Y251722D01*
X306162Y251678D01*
X306181Y251637D01*
X306195Y251593D01*
X306208Y251552D01*
X306217Y251511D01*
X306225Y251473D01*
X306230Y251438D01*
X306236Y251405D01*
X306238Y251378D01*
X306241Y251356D01*
Y251323D01*
X306238Y251241D01*
X306227Y251167D01*
X306214Y251102D01*
X306195Y251045D01*
X306187Y251020D01*
X306178Y250998D01*
X306173Y250979D01*
X306165Y250965D01*
X306159Y250952D01*
X306154Y250943D01*
X306151Y250938D01*
Y250935D01*
X306113Y250878D01*
X306072Y250826D01*
X306028Y250785D01*
X305987Y250752D01*
X305949Y250725D01*
X305916Y250706D01*
X305905Y250700D01*
X305897Y250695D01*
X305892Y250692D01*
X305889D01*
X305854Y250679D01*
X305818Y250665D01*
X305739Y250646D01*
X305657Y250632D01*
X305578Y250624D01*
X305542Y250619D01*
X305507Y250616D01*
X305477D01*
X305449Y250613D01*
X305428D01*
X305411D01*
X305400D01*
X305398D01*
X303680D01*
Y250946D01*
X305417D01*
X305455D01*
X305493Y250949D01*
X305556Y250952D01*
X305610Y250957D01*
X305654Y250963D01*
X305687Y250971D01*
X305712Y250976D01*
X305725Y250979D01*
X305731Y250982D01*
X305766Y250998D01*
X305796Y251017D01*
X305823Y251039D01*
X305845Y251058D01*
X305862Y251080D01*
X305875Y251094D01*
X305884Y251105D01*
X305886Y251110D01*
X305905Y251146D01*
X305919Y251181D01*
X305930Y251217D01*
X305935Y251252D01*
X305941Y251282D01*
X305944Y251304D01*
Y251326D01*
X305938Y251386D01*
X305927Y251438D01*
X305911Y251484D01*
X305892Y251522D01*
X305873Y251552D01*
X305856Y251574D01*
X305845Y251588D01*
X305840Y251593D01*
X305818Y251610D01*
X305793Y251626D01*
X305763Y251640D01*
X305733Y251651D01*
X305668Y251670D01*
X305602Y251683D01*
X305542Y251692D01*
X305515Y251694D01*
X305490Y251697D01*
X305471D01*
X305458Y251700D01*
X305447D01*
X305444D01*
X305488Y252000D01*
X305556D01*
X305619Y251994D01*
D02*
G37*
G36*
X305597Y250184D02*
X305654Y250174D01*
X305706Y250160D01*
X305755Y250141D01*
X305799Y250122D01*
X305842Y250103D01*
X305881Y250081D01*
X305913Y250059D01*
X305946Y250037D01*
X305974Y250018D01*
X305995Y249999D01*
X306014Y249980D01*
X306031Y249966D01*
X306042Y249955D01*
X306047Y249950D01*
X306050Y249947D01*
X306083Y249903D01*
X306113Y249860D01*
X306137Y249813D01*
X306159Y249767D01*
X306178Y249720D01*
X306195Y249674D01*
X306208Y249628D01*
X306217Y249584D01*
X306225Y249543D01*
X306230Y249505D01*
X306236Y249472D01*
X306238Y249442D01*
X306241Y249417D01*
Y249385D01*
X306238Y249308D01*
X306227Y249237D01*
X306214Y249169D01*
X306192Y249106D01*
X306170Y249046D01*
X306146Y248991D01*
X306116Y248942D01*
X306088Y248899D01*
X306061Y248858D01*
X306031Y248822D01*
X306006Y248792D01*
X305982Y248768D01*
X305963Y248749D01*
X305949Y248735D01*
X305938Y248727D01*
X305935Y248724D01*
X305889Y248689D01*
X305840Y248658D01*
X305788Y248631D01*
X305739Y248609D01*
X305690Y248590D01*
X305641Y248574D01*
X305591Y248560D01*
X305548Y248549D01*
X305504Y248541D01*
X305466Y248536D01*
X305433Y248530D01*
X305403Y248527D01*
X305378Y248525D01*
X305362D01*
X305348D01*
X305346D01*
X305280Y248527D01*
X305217Y248536D01*
X305157Y248547D01*
X305103Y248560D01*
X305048Y248577D01*
X305002Y248598D01*
X304955Y248618D01*
X304914Y248639D01*
X304879Y248661D01*
X304849Y248680D01*
X304819Y248699D01*
X304797Y248719D01*
X304781Y248732D01*
X304767Y248743D01*
X304759Y248751D01*
X304756Y248754D01*
X304715Y248798D01*
X304680Y248844D01*
X304649Y248890D01*
X304622Y248937D01*
X304600Y248983D01*
X304581Y249030D01*
X304568Y249073D01*
X304554Y249117D01*
X304546Y249155D01*
X304538Y249194D01*
X304535Y249226D01*
X304529Y249254D01*
Y249275D01*
X304527Y249295D01*
Y249308D01*
X304529Y249355D01*
X304532Y249401D01*
X304540Y249445D01*
X304551Y249488D01*
X304576Y249568D01*
X304592Y249606D01*
X304606Y249639D01*
X304620Y249671D01*
X304636Y249699D01*
X304649Y249723D01*
X304660Y249745D01*
X304671Y249761D01*
X304677Y249772D01*
X304682Y249781D01*
X304685Y249783D01*
X304008Y249650D01*
Y248642D01*
X303713D01*
Y249895D01*
X305007Y250138D01*
X305048Y249849D01*
X305010Y249821D01*
X304974Y249791D01*
X304944Y249759D01*
X304917Y249731D01*
X304898Y249704D01*
X304882Y249682D01*
X304873Y249669D01*
X304871Y249663D01*
X304846Y249617D01*
X304830Y249570D01*
X304816Y249524D01*
X304808Y249480D01*
X304802Y249445D01*
X304800Y249415D01*
Y249390D01*
X304802Y249346D01*
X304805Y249306D01*
X304813Y249265D01*
X304824Y249229D01*
X304849Y249161D01*
X304862Y249133D01*
X304876Y249106D01*
X304892Y249082D01*
X304906Y249062D01*
X304920Y249043D01*
X304931Y249030D01*
X304942Y249019D01*
X304950Y249008D01*
X304953Y249005D01*
X304955Y249003D01*
X304985Y248975D01*
X305018Y248953D01*
X305051Y248932D01*
X305084Y248915D01*
X305155Y248888D01*
X305220Y248871D01*
X305253Y248866D01*
X305280Y248861D01*
X305308Y248858D01*
X305329Y248855D01*
X305348Y248852D01*
X305362D01*
X305370D01*
X305373D01*
X305425Y248855D01*
X305471Y248858D01*
X305518Y248866D01*
X305561Y248877D01*
X305600Y248888D01*
X305638Y248902D01*
X305671Y248915D01*
X305701Y248929D01*
X305728Y248945D01*
X305752Y248959D01*
X305772Y248972D01*
X305791Y248983D01*
X305804Y248994D01*
X305813Y249003D01*
X305818Y249005D01*
X305821Y249008D01*
X305851Y249038D01*
X305875Y249068D01*
X305897Y249098D01*
X305916Y249131D01*
X305933Y249164D01*
X305946Y249194D01*
X305965Y249254D01*
X305979Y249306D01*
X305982Y249327D01*
X305984Y249346D01*
X305987Y249363D01*
Y249385D01*
X305984Y249420D01*
X305982Y249453D01*
X305968Y249513D01*
X305949Y249568D01*
X305927Y249614D01*
X305908Y249652D01*
X305889Y249679D01*
X305881Y249690D01*
X305875Y249699D01*
X305870Y249701D01*
Y249704D01*
X305845Y249726D01*
X305821Y249748D01*
X305766Y249783D01*
X305706Y249813D01*
X305649Y249835D01*
X305597Y249849D01*
X305572Y249857D01*
X305553Y249860D01*
X305537Y249862D01*
X305526Y249865D01*
X305518Y249868D01*
X305515D01*
X305539Y250193D01*
X305597Y250184D01*
D02*
G37*
G36*
X314119Y251994D02*
X314179Y251986D01*
X314233Y251978D01*
X314285Y251964D01*
X314332Y251951D01*
X314373Y251935D01*
X314411Y251921D01*
X314444Y251904D01*
X314474Y251888D01*
X314498Y251874D01*
X314517Y251861D01*
X314534Y251850D01*
X314545Y251842D01*
X314550Y251836D01*
X314553Y251834D01*
X314585Y251798D01*
X314616Y251760D01*
X314640Y251722D01*
X314662Y251678D01*
X314681Y251637D01*
X314695Y251593D01*
X314708Y251552D01*
X314717Y251511D01*
X314725Y251473D01*
X314730Y251438D01*
X314736Y251405D01*
X314738Y251378D01*
X314741Y251356D01*
Y251323D01*
X314738Y251241D01*
X314727Y251167D01*
X314714Y251102D01*
X314695Y251045D01*
X314686Y251020D01*
X314678Y250998D01*
X314673Y250979D01*
X314665Y250965D01*
X314659Y250952D01*
X314654Y250943D01*
X314651Y250938D01*
Y250935D01*
X314613Y250878D01*
X314572Y250826D01*
X314528Y250785D01*
X314487Y250752D01*
X314449Y250725D01*
X314416Y250706D01*
X314405Y250700D01*
X314397Y250695D01*
X314392Y250692D01*
X314389D01*
X314353Y250679D01*
X314318Y250665D01*
X314239Y250646D01*
X314157Y250632D01*
X314078Y250624D01*
X314042Y250619D01*
X314007Y250616D01*
X313977D01*
X313949Y250613D01*
X313928D01*
X313911D01*
X313900D01*
X313898D01*
X312180D01*
Y250946D01*
X313917D01*
X313955D01*
X313993Y250949D01*
X314056Y250952D01*
X314110Y250957D01*
X314154Y250963D01*
X314187Y250971D01*
X314212Y250976D01*
X314225Y250979D01*
X314231Y250982D01*
X314266Y250998D01*
X314296Y251017D01*
X314323Y251039D01*
X314345Y251058D01*
X314362Y251080D01*
X314375Y251094D01*
X314384Y251105D01*
X314386Y251110D01*
X314405Y251146D01*
X314419Y251181D01*
X314430Y251217D01*
X314435Y251252D01*
X314441Y251282D01*
X314444Y251304D01*
Y251326D01*
X314438Y251386D01*
X314427Y251438D01*
X314411Y251484D01*
X314392Y251522D01*
X314373Y251552D01*
X314356Y251574D01*
X314345Y251588D01*
X314340Y251593D01*
X314318Y251610D01*
X314293Y251626D01*
X314263Y251640D01*
X314233Y251651D01*
X314168Y251670D01*
X314102Y251683D01*
X314042Y251692D01*
X314015Y251694D01*
X313990Y251697D01*
X313971D01*
X313958Y251700D01*
X313947D01*
X313944D01*
X313988Y252000D01*
X314056D01*
X314119Y251994D01*
D02*
G37*
G36*
X313641Y250206D02*
X313750Y250198D01*
X313851Y250187D01*
X313944Y250171D01*
X314029Y250152D01*
X314105Y250133D01*
X314173Y250111D01*
X314233Y250086D01*
X314288Y250064D01*
X314334Y250043D01*
X314373Y250024D01*
X314403Y250004D01*
X314427Y249988D01*
X314444Y249977D01*
X314455Y249969D01*
X314457Y249966D01*
X314506Y249920D01*
X314550Y249868D01*
X314588Y249819D01*
X314621Y249764D01*
X314648Y249712D01*
X314673Y249660D01*
X314689Y249608D01*
X314706Y249559D01*
X314717Y249513D01*
X314725Y249472D01*
X314733Y249434D01*
X314736Y249401D01*
X314738Y249374D01*
X314741Y249352D01*
Y249336D01*
X314736Y249254D01*
X314725Y249177D01*
X314708Y249106D01*
X314686Y249046D01*
X314678Y249022D01*
X314667Y248997D01*
X314659Y248978D01*
X314651Y248961D01*
X314646Y248948D01*
X314640Y248937D01*
X314635Y248932D01*
Y248929D01*
X314591Y248866D01*
X314539Y248809D01*
X314487Y248760D01*
X314438Y248721D01*
X314392Y248689D01*
X314373Y248678D01*
X314356Y248667D01*
X314342Y248658D01*
X314332Y248653D01*
X314326Y248648D01*
X314323D01*
X314244Y248612D01*
X314168Y248587D01*
X314094Y248568D01*
X314026Y248557D01*
X313996Y248552D01*
X313966Y248549D01*
X313941Y248547D01*
X313922D01*
X313903Y248544D01*
X313892D01*
X313884D01*
X313881D01*
X313816Y248547D01*
X313753Y248552D01*
X313693Y248563D01*
X313638Y248577D01*
X313586Y248596D01*
X313537Y248612D01*
X313493Y248634D01*
X313453Y248653D01*
X313417Y248672D01*
X313384Y248694D01*
X313357Y248710D01*
X313335Y248727D01*
X313316Y248743D01*
X313305Y248754D01*
X313297Y248760D01*
X313294Y248762D01*
X313253Y248803D01*
X313218Y248847D01*
X313188Y248890D01*
X313160Y248937D01*
X313139Y248981D01*
X313120Y249024D01*
X313106Y249068D01*
X313092Y249106D01*
X313084Y249144D01*
X313076Y249180D01*
X313073Y249210D01*
X313068Y249237D01*
Y249259D01*
X313065Y249275D01*
Y249289D01*
X313068Y249355D01*
X313078Y249417D01*
X313092Y249475D01*
X313106Y249527D01*
X313122Y249570D01*
X313130Y249587D01*
X313136Y249603D01*
X313141Y249614D01*
X313147Y249622D01*
X313149Y249628D01*
Y249630D01*
X313185Y249688D01*
X313223Y249740D01*
X313264Y249786D01*
X313305Y249827D01*
X313343Y249857D01*
X313373Y249882D01*
X313384Y249890D01*
X313392Y249895D01*
X313398Y249901D01*
X313332Y249898D01*
X313267Y249895D01*
X313207Y249892D01*
X313152Y249887D01*
X313100Y249879D01*
X313051Y249871D01*
X313008Y249865D01*
X312969Y249857D01*
X312937Y249849D01*
X312907Y249841D01*
X312879Y249832D01*
X312860Y249827D01*
X312844Y249821D01*
X312830Y249816D01*
X312825Y249813D01*
X312822D01*
X312751Y249778D01*
X312688Y249742D01*
X312634Y249704D01*
X312590Y249666D01*
X312554Y249633D01*
X312530Y249608D01*
X312522Y249598D01*
X312516Y249589D01*
X312511Y249587D01*
Y249584D01*
X312483Y249540D01*
X312462Y249497D01*
X312448Y249453D01*
X312437Y249412D01*
X312432Y249377D01*
X312426Y249346D01*
Y249322D01*
X312429Y249289D01*
X312432Y249256D01*
X312448Y249196D01*
X312467Y249142D01*
X312492Y249098D01*
X312516Y249060D01*
X312538Y249032D01*
X312546Y249024D01*
X312554Y249016D01*
X312557Y249013D01*
X312560Y249011D01*
X312595Y248983D01*
X312636Y248961D01*
X312680Y248940D01*
X312724Y248923D01*
X312762Y248910D01*
X312795Y248902D01*
X312808Y248899D01*
X312817Y248896D01*
X312822Y248893D01*
X312825D01*
X312800Y248585D01*
X312745Y248593D01*
X312696Y248607D01*
X312650Y248620D01*
X312606Y248637D01*
X312565Y248656D01*
X312527Y248675D01*
X312492Y248694D01*
X312462Y248713D01*
X312434Y248732D01*
X312410Y248751D01*
X312388Y248768D01*
X312371Y248784D01*
X312358Y248795D01*
X312350Y248806D01*
X312344Y248811D01*
X312341Y248814D01*
X312311Y248852D01*
X312287Y248890D01*
X312262Y248929D01*
X312243Y248970D01*
X312227Y249013D01*
X312213Y249052D01*
X312194Y249131D01*
X312186Y249166D01*
X312180Y249199D01*
X312178Y249229D01*
X312175Y249254D01*
X312172Y249273D01*
Y249303D01*
X312175Y249377D01*
X312186Y249445D01*
X312199Y249510D01*
X312219Y249570D01*
X312240Y249628D01*
X312265Y249679D01*
X312290Y249729D01*
X312317Y249772D01*
X312344Y249811D01*
X312369Y249843D01*
X312393Y249873D01*
X312415Y249895D01*
X312434Y249914D01*
X312448Y249928D01*
X312459Y249936D01*
X312462Y249939D01*
X312527Y249985D01*
X312601Y250029D01*
X312683Y250064D01*
X312767Y250095D01*
X312855Y250122D01*
X312942Y250144D01*
X313029Y250160D01*
X313117Y250176D01*
X313199Y250187D01*
X313275Y250196D01*
X313343Y250201D01*
X313403Y250204D01*
X313431Y250206D01*
X313453D01*
X313474Y250209D01*
X313491D01*
X313504D01*
X313515D01*
X313521D01*
X313524D01*
X313641Y250206D01*
D02*
G37*
G36*
X322119Y251994D02*
X322179Y251986D01*
X322233Y251978D01*
X322285Y251964D01*
X322332Y251951D01*
X322373Y251935D01*
X322411Y251921D01*
X322444Y251904D01*
X322474Y251888D01*
X322498Y251874D01*
X322517Y251861D01*
X322534Y251850D01*
X322545Y251842D01*
X322550Y251836D01*
X322553Y251834D01*
X322586Y251798D01*
X322616Y251760D01*
X322640Y251722D01*
X322662Y251678D01*
X322681Y251637D01*
X322695Y251593D01*
X322708Y251552D01*
X322717Y251511D01*
X322725Y251473D01*
X322730Y251438D01*
X322736Y251405D01*
X322738Y251378D01*
X322741Y251356D01*
Y251323D01*
X322738Y251241D01*
X322727Y251167D01*
X322714Y251102D01*
X322695Y251045D01*
X322687Y251020D01*
X322678Y250998D01*
X322673Y250979D01*
X322665Y250965D01*
X322659Y250952D01*
X322654Y250943D01*
X322651Y250938D01*
Y250935D01*
X322613Y250878D01*
X322572Y250826D01*
X322528Y250785D01*
X322487Y250752D01*
X322449Y250725D01*
X322416Y250706D01*
X322405Y250700D01*
X322397Y250695D01*
X322392Y250692D01*
X322389D01*
X322354Y250679D01*
X322318Y250665D01*
X322239Y250646D01*
X322157Y250632D01*
X322078Y250624D01*
X322042Y250619D01*
X322007Y250616D01*
X321977D01*
X321949Y250613D01*
X321928D01*
X321911D01*
X321900D01*
X321898D01*
X320180D01*
Y250946D01*
X321917D01*
X321955D01*
X321993Y250949D01*
X322056Y250952D01*
X322111Y250957D01*
X322154Y250963D01*
X322187Y250971D01*
X322212Y250976D01*
X322225Y250979D01*
X322231Y250982D01*
X322266Y250998D01*
X322296Y251017D01*
X322323Y251039D01*
X322345Y251058D01*
X322362Y251080D01*
X322375Y251094D01*
X322383Y251105D01*
X322386Y251110D01*
X322405Y251146D01*
X322419Y251181D01*
X322430Y251217D01*
X322435Y251252D01*
X322441Y251282D01*
X322444Y251304D01*
Y251326D01*
X322438Y251386D01*
X322427Y251438D01*
X322411Y251484D01*
X322392Y251522D01*
X322373Y251552D01*
X322356Y251574D01*
X322345Y251588D01*
X322340Y251593D01*
X322318Y251610D01*
X322293Y251626D01*
X322263Y251640D01*
X322233Y251651D01*
X322168Y251670D01*
X322102Y251683D01*
X322042Y251692D01*
X322015Y251694D01*
X321990Y251697D01*
X321971D01*
X321958Y251700D01*
X321947D01*
X321944D01*
X321988Y252000D01*
X322056D01*
X322119Y251994D01*
D02*
G37*
G36*
X320511Y248940D02*
X320563Y248983D01*
X320617Y249027D01*
X320729Y249109D01*
X320838Y249185D01*
X320893Y249221D01*
X320942Y249254D01*
X320991Y249281D01*
X321035Y249308D01*
X321073Y249330D01*
X321106Y249352D01*
X321133Y249365D01*
X321155Y249377D01*
X321166Y249385D01*
X321171Y249387D01*
X321319Y249461D01*
X321463Y249524D01*
X321532Y249554D01*
X321600Y249578D01*
X321666Y249603D01*
X321726Y249625D01*
X321780Y249644D01*
X321829Y249660D01*
X321876Y249674D01*
X321914Y249685D01*
X321944Y249696D01*
X321966Y249701D01*
X321979Y249704D01*
X321985Y249707D01*
X322061Y249726D01*
X322135Y249745D01*
X322206Y249759D01*
X322274Y249772D01*
X322337Y249783D01*
X322397Y249791D01*
X322449Y249800D01*
X322501Y249805D01*
X322545Y249811D01*
X322586Y249813D01*
X322618Y249816D01*
X322648Y249819D01*
X322670Y249821D01*
X322687D01*
X322697D01*
X322700D01*
Y249505D01*
X322564Y249494D01*
X322498Y249486D01*
X322435Y249475D01*
X322375Y249467D01*
X322318Y249456D01*
X322263Y249447D01*
X322214Y249436D01*
X322171Y249428D01*
X322130Y249417D01*
X322094Y249409D01*
X322064Y249401D01*
X322042Y249396D01*
X322023Y249390D01*
X322012Y249387D01*
X322009D01*
X321843Y249336D01*
X321761Y249306D01*
X321682Y249275D01*
X321608Y249245D01*
X321534Y249215D01*
X321466Y249185D01*
X321403Y249158D01*
X321346Y249131D01*
X321294Y249106D01*
X321248Y249082D01*
X321210Y249062D01*
X321177Y249046D01*
X321155Y249035D01*
X321141Y249027D01*
X321136Y249024D01*
X321059Y248981D01*
X320986Y248934D01*
X320915Y248890D01*
X320852Y248850D01*
X320792Y248809D01*
X320735Y248768D01*
X320683Y248729D01*
X320636Y248694D01*
X320595Y248661D01*
X320560Y248634D01*
X320530Y248607D01*
X320502Y248585D01*
X320483Y248568D01*
X320467Y248555D01*
X320459Y248547D01*
X320456Y248544D01*
X320213D01*
Y250174D01*
X320511D01*
Y248940D01*
D02*
G37*
G36*
X330119Y251994D02*
X330179Y251986D01*
X330233Y251978D01*
X330285Y251964D01*
X330332Y251951D01*
X330373Y251935D01*
X330411Y251921D01*
X330444Y251904D01*
X330474Y251888D01*
X330498Y251874D01*
X330517Y251861D01*
X330534Y251850D01*
X330545Y251842D01*
X330550Y251836D01*
X330553Y251834D01*
X330586Y251798D01*
X330615Y251760D01*
X330640Y251722D01*
X330662Y251678D01*
X330681Y251637D01*
X330695Y251593D01*
X330708Y251552D01*
X330717Y251511D01*
X330725Y251473D01*
X330730Y251438D01*
X330736Y251405D01*
X330738Y251378D01*
X330741Y251356D01*
Y251323D01*
X330738Y251241D01*
X330728Y251167D01*
X330714Y251102D01*
X330695Y251045D01*
X330686Y251020D01*
X330678Y250998D01*
X330673Y250979D01*
X330665Y250965D01*
X330659Y250952D01*
X330654Y250943D01*
X330651Y250938D01*
Y250935D01*
X330613Y250878D01*
X330572Y250826D01*
X330528Y250785D01*
X330487Y250752D01*
X330449Y250725D01*
X330416Y250706D01*
X330405Y250700D01*
X330397Y250695D01*
X330392Y250692D01*
X330389D01*
X330353Y250679D01*
X330318Y250665D01*
X330239Y250646D01*
X330157Y250632D01*
X330078Y250624D01*
X330042Y250619D01*
X330007Y250616D01*
X329977D01*
X329949Y250613D01*
X329928D01*
X329911D01*
X329900D01*
X329898D01*
X328180D01*
Y250946D01*
X329917D01*
X329955D01*
X329993Y250949D01*
X330056Y250952D01*
X330111Y250957D01*
X330154Y250963D01*
X330187Y250971D01*
X330211Y250976D01*
X330225Y250979D01*
X330231Y250982D01*
X330266Y250998D01*
X330296Y251017D01*
X330323Y251039D01*
X330345Y251058D01*
X330362Y251080D01*
X330375Y251094D01*
X330383Y251105D01*
X330386Y251110D01*
X330405Y251146D01*
X330419Y251181D01*
X330430Y251217D01*
X330435Y251252D01*
X330441Y251282D01*
X330444Y251304D01*
Y251326D01*
X330438Y251386D01*
X330427Y251438D01*
X330411Y251484D01*
X330392Y251522D01*
X330373Y251552D01*
X330356Y251574D01*
X330345Y251588D01*
X330340Y251593D01*
X330318Y251610D01*
X330293Y251626D01*
X330263Y251640D01*
X330233Y251651D01*
X330168Y251670D01*
X330102Y251683D01*
X330042Y251692D01*
X330015Y251694D01*
X329990Y251697D01*
X329971D01*
X329958Y251700D01*
X329947D01*
X329944D01*
X329988Y252000D01*
X330056D01*
X330119Y251994D01*
D02*
G37*
G36*
X330031Y250196D02*
X330089Y250187D01*
X330146Y250176D01*
X330198Y250163D01*
X330244Y250146D01*
X330291Y250127D01*
X330332Y250105D01*
X330370Y250083D01*
X330405Y250064D01*
X330435Y250043D01*
X330460Y250024D01*
X330482Y250007D01*
X330501Y249993D01*
X330512Y249983D01*
X330520Y249974D01*
X330523Y249972D01*
X330561Y249928D01*
X330594Y249879D01*
X330624Y249830D01*
X330648Y249781D01*
X330670Y249729D01*
X330686Y249679D01*
X330703Y249630D01*
X330714Y249584D01*
X330722Y249540D01*
X330730Y249499D01*
X330736Y249461D01*
X330738Y249431D01*
Y249404D01*
X330741Y249385D01*
Y249368D01*
X330738Y249300D01*
X330733Y249235D01*
X330722Y249174D01*
X330706Y249117D01*
X330689Y249065D01*
X330673Y249016D01*
X330651Y248970D01*
X330632Y248929D01*
X330613Y248893D01*
X330591Y248861D01*
X330575Y248833D01*
X330556Y248809D01*
X330542Y248792D01*
X330531Y248779D01*
X330525Y248770D01*
X330523Y248768D01*
X330482Y248727D01*
X330435Y248691D01*
X330392Y248661D01*
X330345Y248634D01*
X330299Y248612D01*
X330255Y248593D01*
X330211Y248579D01*
X330168Y248566D01*
X330130Y248557D01*
X330094Y248549D01*
X330061Y248547D01*
X330034Y248541D01*
X330010D01*
X329993Y248538D01*
X329982D01*
X329979D01*
X329936D01*
X329895Y248544D01*
X329818Y248557D01*
X329750Y248577D01*
X329693Y248598D01*
X329668Y248612D01*
X329646Y248623D01*
X329627Y248634D01*
X329611Y248642D01*
X329597Y248650D01*
X329589Y248656D01*
X329584Y248658D01*
X329581Y248661D01*
X329521Y248710D01*
X329472Y248768D01*
X329428Y248825D01*
X329395Y248882D01*
X329368Y248934D01*
X329357Y248956D01*
X329349Y248975D01*
X329343Y248991D01*
X329338Y249002D01*
X329335Y249011D01*
Y249013D01*
X329305Y248948D01*
X329275Y248890D01*
X329240Y248844D01*
X329210Y248803D01*
X329180Y248773D01*
X329158Y248751D01*
X329141Y248740D01*
X329139Y248735D01*
X329136D01*
X329084Y248705D01*
X329032Y248680D01*
X328980Y248664D01*
X328934Y248653D01*
X328893Y248648D01*
X328874Y248645D01*
X328860Y248642D01*
X328847D01*
X328838D01*
X328833D01*
X328830D01*
X328781Y248645D01*
X328732Y248650D01*
X328685Y248661D01*
X328642Y248675D01*
X328601Y248689D01*
X328563Y248705D01*
X328527Y248724D01*
X328494Y248743D01*
X328467Y248762D01*
X328440Y248781D01*
X328418Y248798D01*
X328399Y248811D01*
X328385Y248825D01*
X328374Y248836D01*
X328369Y248841D01*
X328366Y248844D01*
X328330Y248882D01*
X328303Y248926D01*
X328276Y248967D01*
X328254Y249013D01*
X328235Y249057D01*
X328219Y249101D01*
X328208Y249144D01*
X328197Y249185D01*
X328189Y249226D01*
X328183Y249262D01*
X328178Y249295D01*
X328175Y249322D01*
X328172Y249344D01*
Y249377D01*
X328175Y249436D01*
X328180Y249494D01*
X328189Y249546D01*
X328202Y249598D01*
X328216Y249644D01*
X328232Y249685D01*
X328249Y249726D01*
X328265Y249761D01*
X328284Y249794D01*
X328300Y249821D01*
X328317Y249846D01*
X328330Y249865D01*
X328344Y249882D01*
X328352Y249892D01*
X328358Y249898D01*
X328361Y249901D01*
X328396Y249936D01*
X328434Y249966D01*
X328472Y249991D01*
X328511Y250015D01*
X328552Y250034D01*
X328590Y250048D01*
X328625Y250062D01*
X328661Y250073D01*
X328696Y250081D01*
X328726Y250086D01*
X328754Y250092D01*
X328776Y250095D01*
X328795D01*
X328811Y250097D01*
X328819D01*
X328822D01*
X328888Y250095D01*
X328947Y250083D01*
X329002Y250067D01*
X329048Y250051D01*
X329084Y250034D01*
X329111Y250018D01*
X329122Y250013D01*
X329130Y250007D01*
X329133Y250004D01*
X329136D01*
X329182Y249966D01*
X329221Y249920D01*
X329256Y249873D01*
X329283Y249827D01*
X329305Y249786D01*
X329316Y249767D01*
X329322Y249750D01*
X329327Y249740D01*
X329332Y249729D01*
X329335Y249723D01*
Y249720D01*
X329363Y249802D01*
X329395Y249873D01*
X329433Y249933D01*
X329472Y249983D01*
X329488Y250004D01*
X329507Y250024D01*
X329521Y250040D01*
X329535Y250051D01*
X329545Y250062D01*
X329554Y250070D01*
X329559Y250073D01*
X329562Y250075D01*
X329594Y250097D01*
X329627Y250116D01*
X329696Y250146D01*
X329764Y250168D01*
X329827Y250182D01*
X329857Y250187D01*
X329884Y250193D01*
X329908Y250196D01*
X329930D01*
X329947Y250198D01*
X329960D01*
X329969D01*
X329971D01*
X330031Y250196D01*
D02*
G37*
%LPC*%
G36*
X306886Y314453D02*
X306203D01*
Y313587D01*
X306785D01*
X306869Y313590D01*
X306943Y313593D01*
X306976Y313598D01*
X307006Y313601D01*
X307033Y313604D01*
X307061Y313609D01*
X307082Y313612D01*
X307101Y313617D01*
X307115Y313620D01*
X307129Y313623D01*
X307140Y313626D01*
X307148Y313628D01*
X307151Y313631D01*
X307153D01*
X307200Y313650D01*
X307238Y313672D01*
X307274Y313694D01*
X307304Y313719D01*
X307325Y313740D01*
X307342Y313759D01*
X307353Y313770D01*
X307355Y313776D01*
X307380Y313817D01*
X307399Y313858D01*
X307410Y313899D01*
X307421Y313937D01*
X307426Y313972D01*
X307429Y313997D01*
Y314008D01*
Y314016D01*
Y314019D01*
Y314021D01*
X307426Y314065D01*
X307421Y314106D01*
X307413Y314142D01*
X307404Y314172D01*
X307394Y314199D01*
X307385Y314218D01*
X307380Y314229D01*
X307377Y314234D01*
X307358Y314267D01*
X307336Y314295D01*
X307314Y314319D01*
X307295Y314338D01*
X307276Y314355D01*
X307263Y314366D01*
X307252Y314371D01*
X307249Y314374D01*
X307219Y314390D01*
X307186Y314404D01*
X307156Y314417D01*
X307126Y314426D01*
X307099Y314434D01*
X307077Y314439D01*
X307063Y314442D01*
X307058D01*
X307031Y314445D01*
X306995Y314447D01*
X306957Y314450D01*
X306921D01*
X306886Y314453D01*
D02*
G37*
G36*
X306801Y313290D02*
X306203D01*
Y312528D01*
X306755D01*
X306801Y312531D01*
X306842D01*
X306880Y312534D01*
X306916Y312536D01*
X306946Y312539D01*
X306976Y312542D01*
X307000Y312545D01*
X307020Y312550D01*
X307039Y312553D01*
X307055Y312556D01*
X307066Y312558D01*
X307077Y312561D01*
X307082D01*
X307088Y312564D01*
X307129Y312580D01*
X307161Y312599D01*
X307192Y312621D01*
X307216Y312643D01*
X307235Y312662D01*
X307249Y312678D01*
X307257Y312689D01*
X307260Y312695D01*
X307282Y312730D01*
X307295Y312768D01*
X307306Y312807D01*
X307314Y312842D01*
X307320Y312872D01*
X307323Y312894D01*
Y312910D01*
Y312913D01*
Y312916D01*
X307320Y312965D01*
X307312Y313006D01*
X307301Y313044D01*
X307290Y313077D01*
X307279Y313102D01*
X307268Y313121D01*
X307260Y313131D01*
X307257Y313137D01*
X307230Y313167D01*
X307200Y313194D01*
X307167Y313216D01*
X307137Y313232D01*
X307110Y313246D01*
X307088Y313254D01*
X307071Y313260D01*
X307069Y313263D01*
X307066D01*
X307047Y313268D01*
X307025Y313271D01*
X306976Y313279D01*
X306921Y313284D01*
X306869Y313287D01*
X306823D01*
X306801Y313290D01*
D02*
G37*
G36*
X296813Y250142D02*
X295677Y249347D01*
X296813D01*
Y250142D01*
D02*
G37*
G36*
X313401Y249901D02*
X313398D01*
X313398Y249901D01*
X313401Y249901D01*
D02*
G37*
G36*
X313911Y249854D02*
X313900D01*
X313892D01*
X313887D01*
X313884D01*
X313840Y249851D01*
X313796Y249849D01*
X313720Y249832D01*
X313652Y249808D01*
X313622Y249794D01*
X313597Y249781D01*
X313573Y249770D01*
X313551Y249756D01*
X313532Y249742D01*
X313518Y249731D01*
X313507Y249723D01*
X313499Y249715D01*
X313493Y249712D01*
X313491Y249710D01*
X313463Y249682D01*
X313439Y249652D01*
X313420Y249622D01*
X313403Y249592D01*
X313376Y249532D01*
X313357Y249475D01*
X313346Y249426D01*
X313343Y249404D01*
X313341Y249387D01*
X313338Y249371D01*
Y249352D01*
X313341Y249314D01*
X313343Y249275D01*
X313363Y249207D01*
X313387Y249147D01*
X313414Y249095D01*
X313442Y249054D01*
X313455Y249038D01*
X313466Y249024D01*
X313477Y249013D01*
X313485Y249005D01*
X313488Y249003D01*
X313491Y249000D01*
X313521Y248975D01*
X313551Y248953D01*
X313584Y248934D01*
X313619Y248918D01*
X313687Y248893D01*
X313753Y248877D01*
X313783Y248871D01*
X313810Y248869D01*
X313835Y248866D01*
X313857Y248863D01*
X313876Y248861D01*
X313889D01*
X313898D01*
X313900D01*
X313949Y248863D01*
X313996Y248866D01*
X314042Y248874D01*
X314083Y248882D01*
X314121Y248893D01*
X314157Y248904D01*
X314190Y248918D01*
X314217Y248932D01*
X314244Y248945D01*
X314266Y248959D01*
X314285Y248970D01*
X314302Y248981D01*
X314315Y248989D01*
X314323Y248997D01*
X314329Y249000D01*
X314332Y249003D01*
X314359Y249030D01*
X314384Y249057D01*
X314403Y249084D01*
X314422Y249114D01*
X314435Y249142D01*
X314449Y249172D01*
X314468Y249224D01*
X314479Y249270D01*
X314482Y249289D01*
X314485Y249308D01*
X314487Y249322D01*
Y249341D01*
X314485Y249390D01*
X314476Y249439D01*
X314463Y249483D01*
X314449Y249521D01*
X314435Y249554D01*
X314422Y249578D01*
X314413Y249595D01*
X314411Y249598D01*
Y249600D01*
X314378Y249644D01*
X314342Y249679D01*
X314307Y249712D01*
X314272Y249740D01*
X314239Y249761D01*
X314214Y249775D01*
X314203Y249781D01*
X314195Y249786D01*
X314192Y249789D01*
X314190D01*
X314135Y249811D01*
X314081Y249827D01*
X314029Y249838D01*
X313982Y249846D01*
X313941Y249851D01*
X313925D01*
X313911Y249854D01*
D02*
G37*
G36*
X328827Y249781D02*
X328819D01*
X328814D01*
X328811D01*
X328754Y249775D01*
X328702Y249761D01*
X328655Y249745D01*
X328617Y249723D01*
X328584Y249701D01*
X328560Y249685D01*
X328546Y249671D01*
X328541Y249666D01*
X328502Y249619D01*
X328475Y249570D01*
X328453Y249521D01*
X328440Y249475D01*
X328432Y249434D01*
X328429Y249415D01*
Y249401D01*
X328426Y249387D01*
Y249338D01*
X328432Y249308D01*
X328445Y249251D01*
X328464Y249199D01*
X328483Y249158D01*
X328505Y249123D01*
X328524Y249098D01*
X328538Y249082D01*
X328541Y249076D01*
X328543D01*
X328565Y249054D01*
X328590Y249038D01*
X328636Y249008D01*
X328685Y248986D01*
X328729Y248972D01*
X328770Y248964D01*
X328800Y248961D01*
X328814Y248959D01*
X328822D01*
X328827D01*
X328830D01*
X328888Y248964D01*
X328939Y248978D01*
X328989Y248994D01*
X329027Y249016D01*
X329060Y249038D01*
X329084Y249054D01*
X329098Y249068D01*
X329103Y249073D01*
X329141Y249120D01*
X329169Y249169D01*
X329188Y249218D01*
X329201Y249265D01*
X329210Y249306D01*
X329212Y249322D01*
Y249338D01*
X329215Y249352D01*
Y249368D01*
X329210Y249434D01*
X329199Y249494D01*
X329180Y249546D01*
X329158Y249587D01*
X329139Y249622D01*
X329119Y249647D01*
X329109Y249663D01*
X329103Y249669D01*
X329060Y249707D01*
X329010Y249734D01*
X328961Y249753D01*
X328915Y249767D01*
X328874Y249775D01*
X328857Y249778D01*
X328841D01*
X328827Y249781D01*
D02*
G37*
G36*
X329996Y249882D02*
X329979D01*
X329977D01*
X329974D01*
X329933Y249879D01*
X329898Y249876D01*
X329827Y249860D01*
X329764Y249838D01*
X329712Y249811D01*
X329690Y249797D01*
X329671Y249783D01*
X329655Y249772D01*
X329638Y249761D01*
X329627Y249753D01*
X329619Y249745D01*
X329616Y249742D01*
X329614Y249740D01*
X329589Y249712D01*
X329564Y249682D01*
X329545Y249652D01*
X329529Y249622D01*
X329504Y249562D01*
X329488Y249505D01*
X329477Y249453D01*
X329474Y249431D01*
X329472Y249412D01*
X329469Y249398D01*
Y249377D01*
X329472Y249336D01*
X329474Y249297D01*
X329491Y249224D01*
X329515Y249161D01*
X329543Y249106D01*
X329556Y249084D01*
X329570Y249062D01*
X329581Y249046D01*
X329594Y249032D01*
X329603Y249019D01*
X329611Y249011D01*
X329614Y249008D01*
X329616Y249005D01*
X329644Y248978D01*
X329674Y248956D01*
X329704Y248934D01*
X329734Y248918D01*
X329797Y248890D01*
X329854Y248874D01*
X329906Y248863D01*
X329928Y248861D01*
X329947Y248858D01*
X329963Y248855D01*
X329974D01*
X329982D01*
X329985D01*
X330026Y248858D01*
X330064Y248861D01*
X330132Y248877D01*
X330195Y248901D01*
X330247Y248926D01*
X330269Y248940D01*
X330288Y248953D01*
X330304Y248967D01*
X330321Y248978D01*
X330332Y248986D01*
X330340Y248994D01*
X330343Y248997D01*
X330345Y249000D01*
X330370Y249027D01*
X330392Y249057D01*
X330411Y249087D01*
X330427Y249117D01*
X330452Y249180D01*
X330468Y249237D01*
X330479Y249289D01*
X330482Y249311D01*
X330485Y249330D01*
X330487Y249346D01*
Y249368D01*
X330485Y249420D01*
X330476Y249469D01*
X330465Y249516D01*
X330454Y249554D01*
X330444Y249589D01*
X330433Y249614D01*
X330424Y249630D01*
X330422Y249633D01*
Y249636D01*
X330394Y249679D01*
X330362Y249718D01*
X330332Y249748D01*
X330302Y249775D01*
X330274Y249794D01*
X330250Y249811D01*
X330236Y249819D01*
X330231Y249821D01*
X330184Y249841D01*
X330138Y249857D01*
X330094Y249868D01*
X330056Y249873D01*
X330023Y249879D01*
X329996Y249882D01*
D02*
G37*
%LPD*%
D12*
X281433Y297744D02*
X320567D01*
Y331839D01*
X281433D02*
X320567D01*
X281433Y297744D02*
Y331839D01*
X268736Y256528D02*
X273264D01*
Y247472D02*
Y256528D01*
X268736Y247472D02*
X273264D01*
X268736D02*
Y256528D01*
X277736Y256673D02*
X282264D01*
Y247618D02*
Y256673D01*
X277736Y247618D02*
X282264D01*
X277736D02*
Y256673D01*
X286236Y256528D02*
X290764D01*
Y247472D02*
Y256528D01*
X286236Y247472D02*
X290764D01*
X286236D02*
Y256528D01*
X294736Y256673D02*
X299264D01*
Y247618D02*
Y256673D01*
X294736Y247618D02*
X299264D01*
X294736D02*
Y256673D01*
X303236Y256528D02*
X307764D01*
Y247472D02*
Y256528D01*
X303236Y247472D02*
X307764D01*
X303236D02*
Y256528D01*
X311736D02*
X316264D01*
Y247472D02*
Y256528D01*
X311736Y247472D02*
X316264D01*
X311736D02*
Y256528D01*
X319736D02*
X324264D01*
Y247472D02*
Y256528D01*
X319736Y247472D02*
X324264D01*
X319736D02*
Y256528D01*
X327736D02*
X332264D01*
Y247472D02*
Y256528D01*
X327736Y247472D02*
X332264D01*
X327736D02*
Y256528D01*
M02*
