G04*
G04 #@! TF.GenerationSoftware,Altium Limited,Altium Designer,21.2.2 (38)*
G04*
G04 Layer_Color=32896*
%FSLAX25Y25*%
%MOIN*%
G70*
G04*
G04 #@! TF.SameCoordinates,98E345A6-E5E3-4E7C-82CD-A9440516B19A*
G04*
G04*
G04 #@! TF.FilePolarity,Positive*
G04*
G01*
G75*
%ADD11C,0.00984*%
%ADD12C,0.00787*%
%ADD13C,0.00394*%
%ADD14C,0.00709*%
%ADD66C,0.02362*%
D11*
X244587Y170500D02*
X243848Y170926D01*
Y170074D01*
X244587Y170500D01*
X241484Y300842D02*
X240746Y301269D01*
Y300416D01*
X241484Y300842D01*
X289602Y296169D02*
X288864Y296596D01*
Y295743D01*
X289602Y296169D01*
D12*
X146748Y162906D02*
X145961D01*
X146748D01*
X464248Y165405D02*
X463461D01*
X464248D01*
X147315Y310606D02*
X148102D01*
X147315D01*
X466461Y304906D02*
X467248D01*
X466461D01*
X208268Y176209D02*
X241732D01*
X208268Y209673D02*
X241732D01*
Y176209D02*
Y209673D01*
X208268Y176209D02*
Y209673D01*
X262858Y186764D02*
X263646D01*
X262858Y182236D02*
X263646D01*
X238433Y298874D02*
Y301433D01*
X235874D02*
X238433D01*
X217567D02*
X220126D01*
X217567Y298874D02*
Y301433D01*
Y280567D02*
Y283126D01*
Y280567D02*
X220126D01*
X238433D02*
Y283126D01*
X235874Y280567D02*
X238433D01*
X283008Y308020D02*
Y316681D01*
X318992Y308020D02*
Y316681D01*
X267555Y247948D02*
Y256052D01*
X274445Y247948D02*
Y256052D01*
X276555Y248094D02*
Y256197D01*
X283445Y248094D02*
Y256197D01*
X285055Y247948D02*
Y256052D01*
X291945Y247948D02*
Y256052D01*
X293555Y248094D02*
Y256197D01*
X300445Y248094D02*
Y256197D01*
X302055Y247948D02*
Y256052D01*
X308945Y247948D02*
Y256052D01*
X310555Y247948D02*
Y256052D01*
X317445Y247948D02*
Y256052D01*
X318555Y247948D02*
Y256052D01*
X325445Y247948D02*
Y256052D01*
X326555Y247948D02*
Y256052D01*
X333445Y247948D02*
Y256052D01*
D13*
X121158Y155032D02*
Y158968D01*
X140842Y155032D02*
Y158968D01*
X127063Y147158D02*
X134937D01*
X127063Y166842D02*
X134937D01*
X438658Y157531D02*
Y161469D01*
X458343Y157531D02*
Y161469D01*
X444563Y149657D02*
X452437D01*
X444563Y169343D02*
X452437D01*
X128417Y314543D02*
X136291D01*
X128417Y294858D02*
X136291D01*
X142197Y302732D02*
Y306669D01*
X122512Y302732D02*
Y306669D01*
X447563Y308842D02*
X455437D01*
X447563Y289158D02*
X455437D01*
X461342Y297031D02*
Y300969D01*
X441657Y297031D02*
Y300969D01*
D14*
X353168Y253144D02*
X354479D01*
X353823D01*
Y249865D01*
X354479Y249209D01*
X355135D01*
X355791Y249865D01*
X351856Y249209D02*
X350544D01*
X351200D01*
Y253144D01*
X351856Y252488D01*
X348576Y251177D02*
X345952D01*
X342016Y253144D02*
X343328D01*
X342672D01*
Y249865D01*
X343328Y249209D01*
X343984D01*
X344640Y249865D01*
X340704Y252488D02*
X340048Y253144D01*
X338737D01*
X338081Y252488D01*
Y251833D01*
X338737Y251177D01*
X338081Y250521D01*
Y249865D01*
X338737Y249209D01*
X340048D01*
X340704Y249865D01*
Y250521D01*
X340048Y251177D01*
X340704Y251833D01*
Y252488D01*
X340048Y251177D02*
X338737D01*
X327968Y305645D02*
X324688D01*
X324032Y306300D01*
Y307612D01*
X324688Y308268D01*
X327968D01*
X327312Y312204D02*
X327968Y311548D01*
Y310236D01*
X327312Y309580D01*
X326656D01*
X326000Y310236D01*
Y311548D01*
X325344Y312204D01*
X324688D01*
X324032Y311548D01*
Y310236D01*
X324688Y309580D01*
X327968Y313516D02*
X324032D01*
Y315484D01*
X324688Y316140D01*
X325344D01*
X326000Y315484D01*
Y313516D01*
Y315484D01*
X326656Y316140D01*
X327312D01*
X327968Y315484D01*
Y313516D01*
X324032Y317452D02*
Y318764D01*
Y318108D01*
X326656D01*
Y317452D01*
X324032Y320732D02*
X326656D01*
Y322699D01*
X326000Y323355D01*
X324032D01*
X241300Y311336D02*
Y308056D01*
X240644Y307400D01*
X239332D01*
X238676Y308056D01*
Y311336D01*
X234740Y310680D02*
X235396Y311336D01*
X236708D01*
X237364Y310680D01*
Y310024D01*
X236708Y309368D01*
X235396D01*
X234740Y308712D01*
Y308056D01*
X235396Y307400D01*
X236708D01*
X237364Y308056D01*
X233429Y311336D02*
Y307400D01*
X231461D01*
X230805Y308056D01*
Y308712D01*
X231461Y309368D01*
X233429D01*
X231461D01*
X230805Y310024D01*
Y310680D01*
X231461Y311336D01*
X233429D01*
X229493Y309368D02*
X226869D01*
X225557Y311336D02*
Y308056D01*
X224901Y307400D01*
X223589D01*
X222933Y308056D01*
Y311336D01*
X221621Y307400D02*
Y310024D01*
X220309Y311336D01*
X218998Y310024D01*
Y307400D01*
Y309368D01*
X221621D01*
X217686Y307400D02*
Y311336D01*
X215718D01*
X215062Y310680D01*
Y309368D01*
X215718Y308712D01*
X217686D01*
X216374D02*
X215062Y307400D01*
X213750Y311336D02*
X211126D01*
X212438D01*
Y307400D01*
X252624Y217968D02*
Y214688D01*
X251968Y214032D01*
X250656D01*
X250000Y214688D01*
Y217968D01*
X248688Y214032D02*
X247376D01*
X248032D01*
Y217968D01*
X248688Y217312D01*
X268000Y190700D02*
Y194636D01*
X266032D01*
X265376Y193980D01*
Y192668D01*
X266032Y192012D01*
X268000D01*
X266688D02*
X265376Y190700D01*
X264064D02*
X262752D01*
X263408D01*
Y193324D01*
X264064D01*
X260785Y190700D02*
Y193324D01*
X258817D01*
X258161Y192668D01*
Y190700D01*
X455716Y175968D02*
Y172032D01*
X453092D01*
X449156Y175968D02*
X451780D01*
Y172032D01*
X449156D01*
X451780Y174000D02*
X450468D01*
X447844Y175968D02*
Y172032D01*
X445876D01*
X445220Y172688D01*
Y175312D01*
X445876Y175968D01*
X447844D01*
X441940Y172032D02*
Y175968D01*
X443908Y174000D01*
X441285D01*
X146215Y173468D02*
Y169532D01*
X143592D01*
X139656Y173468D02*
X142280D01*
Y169532D01*
X139656D01*
X142280Y171500D02*
X140968D01*
X138344Y173468D02*
Y169532D01*
X136376D01*
X135720Y170188D01*
Y172812D01*
X136376Y173468D01*
X138344D01*
X134408Y172812D02*
X133752Y173468D01*
X132440D01*
X131784Y172812D01*
Y172156D01*
X132440Y171500D01*
X133096D01*
X132440D01*
X131784Y170844D01*
Y170188D01*
X132440Y169532D01*
X133752D01*
X134408Y170188D01*
X146715Y320468D02*
Y316532D01*
X144092D01*
X140156Y320468D02*
X142780D01*
Y316532D01*
X140156D01*
X142780Y318500D02*
X141468D01*
X138844Y320468D02*
Y316532D01*
X136876D01*
X136220Y317188D01*
Y319812D01*
X136876Y320468D01*
X138844D01*
X132284Y316532D02*
X134908D01*
X132284Y319156D01*
Y319812D01*
X132940Y320468D01*
X134252D01*
X134908Y319812D01*
X464060Y313968D02*
Y310032D01*
X461436D01*
X457500Y313968D02*
X460124D01*
Y310032D01*
X457500D01*
X460124Y312000D02*
X458812D01*
X456188Y313968D02*
Y310032D01*
X454220D01*
X453564Y310688D01*
Y313312D01*
X454220Y313968D01*
X456188D01*
X452252Y310032D02*
X450940D01*
X451596D01*
Y313968D01*
X452252Y313312D01*
X263796Y286312D02*
X264452Y286968D01*
X265764D01*
X266420Y286312D01*
Y283688D01*
X265764Y283032D01*
X264452D01*
X263796Y283688D01*
X262484Y283032D02*
X261172D01*
X261828D01*
Y286968D01*
X262484Y286312D01*
X256580Y286968D02*
X257892Y286312D01*
X259204Y285000D01*
Y283688D01*
X258548Y283032D01*
X257236D01*
X256580Y283688D01*
Y284344D01*
X257236Y285000D01*
X259204D01*
X223296Y273056D02*
X223952Y273712D01*
X225264D01*
X225920Y273056D01*
Y270432D01*
X225264Y269776D01*
X223952D01*
X223296Y270432D01*
X221984Y269776D02*
X220672D01*
X221328D01*
Y273712D01*
X221984Y273056D01*
X216080Y273712D02*
X218704D01*
Y271744D01*
X217392Y272400D01*
X216736D01*
X216080Y271744D01*
Y270432D01*
X216736Y269776D01*
X218048D01*
X218704Y270432D01*
X254296Y273312D02*
X254952Y273968D01*
X256264D01*
X256920Y273312D01*
Y270688D01*
X256264Y270032D01*
X254952D01*
X254296Y270688D01*
X252984Y270032D02*
X251672D01*
X252328D01*
Y273968D01*
X252984Y273312D01*
X247736Y270032D02*
Y273968D01*
X249704Y272000D01*
X247080D01*
X163796Y156056D02*
X164452Y156712D01*
X165764D01*
X166420Y156056D01*
Y153432D01*
X165764Y152776D01*
X164452D01*
X163796Y153432D01*
X162484Y152776D02*
X161172D01*
X161828D01*
Y156712D01*
X162484Y156056D01*
X156580Y152776D02*
X159204D01*
X156580Y155400D01*
Y156056D01*
X157236Y156712D01*
X158548D01*
X159204Y156056D01*
X420640Y165812D02*
X421296Y166468D01*
X422608D01*
X423264Y165812D01*
Y163188D01*
X422608Y162532D01*
X421296D01*
X420640Y163188D01*
X419328Y162532D02*
X418016D01*
X418672D01*
Y166468D01*
X419328Y165812D01*
X416048Y162532D02*
X414736D01*
X415392D01*
Y166468D01*
X416048Y165812D01*
X161296Y308312D02*
X161952Y308968D01*
X163264D01*
X163920Y308312D01*
Y305688D01*
X163264Y305032D01*
X161952D01*
X161296Y305688D01*
X159984Y305032D02*
X158672D01*
X159328D01*
Y308968D01*
X159984Y308312D01*
X156704D02*
X156048Y308968D01*
X154736D01*
X154080Y308312D01*
Y305688D01*
X154736Y305032D01*
X156048D01*
X156704Y305688D01*
Y308312D01*
X423656Y298556D02*
X424312Y299212D01*
X425624D01*
X426280Y298556D01*
Y295932D01*
X425624Y295276D01*
X424312D01*
X423656Y295932D01*
X422344D02*
X421688Y295276D01*
X420376D01*
X419720Y295932D01*
Y298556D01*
X420376Y299212D01*
X421688D01*
X422344Y298556D01*
Y297900D01*
X421688Y297244D01*
X419720D01*
D66*
X238976Y180146D02*
X238532Y181069D01*
X237532Y181297D01*
X236731Y180658D01*
Y179633D01*
X237532Y178994D01*
X238532Y179222D01*
X238976Y180146D01*
M02*
