M48
;Layer_Color=9474304
;FILE_FORMAT=2:4
INCH,TZ
;TYPE=PLATED
T1F00S00C0.0079
T2F00S00C0.0118
T3F00S00C0.0157
T4F00S00C0.0197
T6F00S00C0.0280
T7F00S00C0.0394
T8F00S00C0.0433
T9F00S00C0.1181
%
T01
X22367Y28667
Y29100
Y29533
X22800
X23233
Y29100
X22800
Y28667
X23233
T02
X32850Y17200
X33700
X29850Y16950
X29100
X28150Y17100
X25533Y16031
X25350Y22058
X24850Y22050
X25350Y26200
X22650Y27600
X21800Y30700
X20850Y30550
X20400
X24550Y29900
X14900Y30550
X15050Y31800
T03
X31400Y24400
X32200
X33000
Y26050
X32200
X31400
X30500
X29700
X28850
X28050Y26000
X27150Y26050
X27050Y24400
X28000
X28850
X29524Y24374
X30250Y24350
T04
X32225Y20748
X33450Y20750
X34425Y20748
X38083Y20931
X42400Y15800
X45825Y17498
X45475Y28098
X41025Y29748
X38385Y30735
X27825Y29548
X25875Y27398
X26225Y23098
X23950Y22850
X26525Y20748
X27425
X28650Y20750
X30100
X31125Y20748
X16275Y16098
X18850Y30400
X15050Y29350
X45259Y31689
T06
X35450Y20500
X22950Y16100
T07
X26370Y14014
X28930
X31100Y14028
X33659
Y15800
X37570Y24664
Y26436
X40130
Y24664
X42820Y23186
Y21414
X45380
Y23186
X31100Y15800
X28930Y15786
X26370
X18909Y18628
Y20400
X16350
Y18628
X20350Y23128
Y24900
X22909
Y23128
X18880Y27414
Y29186
X16320
Y27414
X14909Y24900
Y23128
X12350
Y24900
T08
X16200Y32450
X17200
X18200
X19200
X21900
X22900
X23900
X24900
X25900
T09
X40600Y18550
X17700Y24250
M30
