G04*
G04 #@! TF.GenerationSoftware,Altium Limited,Altium Designer,21.2.2 (38)*
G04*
G04 Layer_Color=32768*
%FSLAX25Y25*%
%MOIN*%
G70*
G04*
G04 #@! TF.SameCoordinates,98E345A6-E5E3-4E7C-82CD-A9440516B19A*
G04*
G04*
G04 #@! TF.FilePolarity,Positive*
G04*
G01*
G75*
%ADD13C,0.00394*%
%ADD67C,0.00197*%
D13*
X174032Y283000D02*
X177969D01*
X176000Y281032D02*
Y284969D01*
X150685Y143220D02*
Y170780D01*
X114465Y143220D02*
X150685D01*
X114465D02*
Y170780D01*
X150685D01*
X111815Y143220D02*
Y170780D01*
Y143220D02*
X148035D01*
Y170780D01*
X111815D02*
X148035D01*
X468185Y145721D02*
Y173280D01*
X431965Y145721D02*
X468185D01*
X431965D02*
Y173280D01*
X468185D01*
X428815Y145721D02*
Y173280D01*
Y145721D02*
X465035D01*
Y173280D01*
X428815D02*
X465035D01*
X112315Y290721D02*
Y318280D01*
Y290721D02*
X148535D01*
Y318280D01*
X112315D02*
X148535D01*
X432461Y312283D02*
X468681D01*
Y284724D02*
Y312283D01*
X432461Y284724D02*
X468681D01*
X432461D02*
Y312283D01*
X115819Y318480D02*
X152039D01*
X115819Y290921D02*
Y318480D01*
Y290921D02*
X152039D01*
Y318480D01*
X434965Y312779D02*
X471185D01*
X434965Y285221D02*
Y312779D01*
Y285221D02*
X471185D01*
Y312779D01*
X225000Y190972D02*
Y194910D01*
X223032Y192941D02*
X226969D01*
X428532Y157744D02*
X432469D01*
X430500Y155775D02*
Y159713D01*
X432031Y297244D02*
X435968D01*
X434000Y295276D02*
Y299213D01*
X149000Y300776D02*
Y304713D01*
X147032Y302744D02*
X150969D01*
X147032D02*
X150969D01*
X149000Y300776D02*
Y304713D01*
X148000Y152276D02*
Y156213D01*
X146032Y154244D02*
X149969D01*
X146032D02*
X149969D01*
X148000Y152275D02*
Y156213D01*
X430500Y155776D02*
Y159713D01*
X428532Y157744D02*
X432469D01*
X434000Y295275D02*
Y299213D01*
X432032Y297244D02*
X435969D01*
X263252Y182532D02*
Y186469D01*
X261283Y184500D02*
X265220D01*
X245532Y285500D02*
X249468D01*
X247500Y283532D02*
Y287469D01*
X240000Y269776D02*
Y273713D01*
X238032Y271744D02*
X241969D01*
X226031Y291000D02*
X229968D01*
X228000Y289031D02*
Y292969D01*
X233000Y269775D02*
Y273713D01*
X231032Y271744D02*
X234969D01*
X272532Y179748D02*
X276469D01*
X274500Y177779D02*
Y181716D01*
X260032Y216000D02*
X263969D01*
X262000Y214031D02*
Y217969D01*
X343000Y177783D02*
Y181720D01*
X341032Y179752D02*
X344969D01*
X331000Y177779D02*
Y181716D01*
X329032Y179748D02*
X332969D01*
X319500Y177779D02*
Y181717D01*
X317532Y179748D02*
X321469D01*
X308000Y177779D02*
Y181717D01*
X306032Y179748D02*
X309969D01*
X296500Y177779D02*
Y181716D01*
X294532Y179748D02*
X298469D01*
X286000Y177779D02*
Y181716D01*
X284032Y179748D02*
X287969D01*
X262500Y177779D02*
Y181717D01*
X260532Y179748D02*
X264469D01*
X262500Y194280D02*
Y198217D01*
X260532Y196248D02*
X264469D01*
X274500Y194280D02*
Y198217D01*
X272532Y196248D02*
X276469D01*
X285500Y194280D02*
Y198217D01*
X283532Y196248D02*
X287469D01*
X296500Y194279D02*
Y198216D01*
X294532Y196248D02*
X298469D01*
X308000Y194279D02*
Y198216D01*
X306032Y196248D02*
X309969D01*
X319500Y194280D02*
Y198217D01*
X317532Y196248D02*
X321469D01*
X331000Y194279D02*
Y198216D01*
X329032Y196248D02*
X332969D01*
X343000Y194280D02*
Y198217D01*
X341032Y196248D02*
X344969D01*
X323795Y147173D02*
Y151110D01*
X321827Y149142D02*
X325764D01*
X276500Y147032D02*
Y150969D01*
X274532Y149000D02*
X278469D01*
X388500Y253532D02*
Y257469D01*
X386532Y255500D02*
X390469D01*
X441000Y221032D02*
Y224969D01*
X439032Y223000D02*
X442969D01*
X176295Y193173D02*
Y197110D01*
X174327Y195142D02*
X178264D01*
X216295Y238173D02*
Y242110D01*
X214327Y240142D02*
X218264D01*
X136295Y238173D02*
Y242110D01*
X134327Y240142D02*
X138264D01*
X340532Y216256D02*
X344469D01*
X342500Y214287D02*
Y218224D01*
X329032Y216256D02*
X332969D01*
X331000Y214287D02*
Y218224D01*
X317032Y216256D02*
X320969D01*
X319000Y214287D02*
Y218224D01*
X306032Y216256D02*
X309969D01*
X308000Y214287D02*
Y218224D01*
X294532Y216256D02*
X298469D01*
X296500Y214287D02*
Y218224D01*
X283032Y216256D02*
X286969D01*
X285000Y214287D02*
Y218224D01*
X271532Y216256D02*
X275469D01*
X273500Y214287D02*
Y218224D01*
D67*
X192142Y270795D02*
Y295205D01*
X159858D02*
X192142D01*
X159858Y270795D02*
X192142D01*
X159858D02*
Y295205D01*
X274925Y230075D02*
X328075D01*
Y276925D01*
X274925D02*
X328075D01*
X274925Y230075D02*
Y276925D01*
X196654Y164595D02*
X253346D01*
X196654Y221287D02*
X253346D01*
Y164595D02*
Y221287D01*
X196654Y164595D02*
Y221287D01*
X433846Y152429D02*
Y163059D01*
X427154Y152429D02*
Y163059D01*
Y152429D02*
X433846D01*
X427154Y163059D02*
X433846D01*
X430654Y291929D02*
Y302559D01*
X437346Y291929D02*
Y302559D01*
X430654D02*
X437346D01*
X430654Y291929D02*
X437346D01*
X145654Y297429D02*
X152346D01*
X145654Y308059D02*
X152346D01*
X145654Y297429D02*
Y308059D01*
X152346Y297429D02*
Y308059D01*
X145654Y297429D02*
Y308059D01*
X152346Y297429D02*
Y308059D01*
X145654D02*
X152346D01*
X145654Y297429D02*
X152346D01*
X144654Y148929D02*
X151346D01*
X144654Y159559D02*
X151346D01*
X144654Y148929D02*
Y159559D01*
X151346Y148929D02*
Y159559D01*
X144654Y148929D02*
Y159559D01*
X151346Y148929D02*
Y159559D01*
X144654D02*
X151346D01*
X144654Y148929D02*
X151346D01*
X427154Y152429D02*
X433846D01*
X427154Y163059D02*
X433846D01*
X427154Y152429D02*
Y163059D01*
X433846Y152429D02*
Y163059D01*
X430654Y291929D02*
X437346D01*
X430654Y302559D02*
X437346D01*
X430654Y291929D02*
Y302559D01*
X437346Y291929D02*
Y302559D01*
X175032Y324500D02*
X178969D01*
X177000Y322532D02*
Y326469D01*
X155622Y330583D02*
X198378D01*
X155622Y318417D02*
Y330583D01*
X198378Y318417D02*
Y330583D01*
X155622Y318417D02*
X198378D01*
X213016Y318634D02*
X264984D01*
X213016D02*
Y330366D01*
X264984D01*
Y318634D02*
Y330366D01*
X257937Y187846D02*
X268567D01*
X257937Y181154D02*
X268567D01*
Y187846D01*
X257937Y181154D02*
Y187846D01*
X242185Y282154D02*
Y288846D01*
X252815Y282154D02*
Y288846D01*
X242185Y282154D02*
X252815D01*
X242185Y288846D02*
X252815D01*
X236654Y266429D02*
X243346D01*
X236654Y277059D02*
X243346D01*
Y266429D02*
Y277059D01*
X236654Y266429D02*
Y277059D01*
X241583Y277417D02*
Y304583D01*
X214417Y277417D02*
Y304583D01*
X241583D01*
X214417Y277417D02*
X241583D01*
X229654Y266429D02*
X236346D01*
X229654Y277059D02*
X236346D01*
Y266429D02*
Y277059D01*
X229654Y266429D02*
Y277059D01*
X271154Y174433D02*
Y185063D01*
X277846Y174433D02*
Y185063D01*
X271154Y174433D02*
X277846D01*
X271154Y185063D02*
X277846D01*
X265346Y210685D02*
Y221315D01*
X258654Y210685D02*
Y221315D01*
X265346D01*
X258654Y210685D02*
X265346D01*
X339654Y185067D02*
X346346D01*
X339654Y174437D02*
X346346D01*
Y185067D01*
X339654Y174437D02*
Y185067D01*
X327654Y185063D02*
X334346D01*
X327654Y174433D02*
X334346D01*
Y185063D01*
X327654Y174433D02*
Y185063D01*
X316154D02*
X322846D01*
X316154Y174433D02*
X322846D01*
Y185063D01*
X316154Y174433D02*
Y185063D01*
X304654D02*
X311346D01*
X304654Y174433D02*
X311346D01*
Y185063D01*
X304654Y174433D02*
Y185063D01*
X293154D02*
X299846D01*
X293154Y174433D02*
X299846D01*
Y185063D01*
X293154Y174433D02*
Y185063D01*
X282654D02*
X289346D01*
X282654Y174433D02*
X289346D01*
Y185063D01*
X282654Y174433D02*
Y185063D01*
X259154D02*
X265846D01*
X259154Y174433D02*
X265846D01*
Y185063D01*
X259154Y174433D02*
Y185063D01*
Y190933D02*
X265846D01*
X259154Y201563D02*
X265846D01*
X259154Y190933D02*
Y201563D01*
X265846Y190933D02*
Y201563D01*
X271154Y190933D02*
X277846D01*
X271154Y201563D02*
X277846D01*
X271154Y190933D02*
Y201563D01*
X277846Y190933D02*
Y201563D01*
X282154Y190933D02*
X288846D01*
X282154Y201563D02*
X288846D01*
X282154Y190933D02*
Y201563D01*
X288846Y190933D02*
Y201563D01*
X293154Y190933D02*
X299846D01*
X293154Y201563D02*
X299846D01*
X293154Y190933D02*
Y201563D01*
X299846Y190933D02*
Y201563D01*
X304654Y190933D02*
X311346D01*
X304654Y201563D02*
X311346D01*
X304654Y190933D02*
Y201563D01*
X311346Y190933D02*
Y201563D01*
X316154Y190933D02*
X322846D01*
X316154Y201563D02*
X322846D01*
X316154Y190933D02*
Y201563D01*
X322846Y190933D02*
Y201563D01*
X327654Y190933D02*
X334346D01*
X327654Y201563D02*
X334346D01*
X327654Y190933D02*
Y201563D01*
X334346Y190933D02*
Y201563D01*
X339654Y190933D02*
X346346D01*
X339654Y201563D02*
X346346D01*
X339654Y190933D02*
Y201563D01*
X346346Y190933D02*
Y201563D01*
X307654Y136937D02*
Y161346D01*
Y136937D02*
X339937D01*
X307654Y161346D02*
X339937D01*
Y136937D02*
Y161346D01*
X260358Y136795D02*
Y161205D01*
Y136795D02*
X292642D01*
X260358Y161205D02*
X292642D01*
Y136795D02*
Y161205D01*
X372358Y243295D02*
Y267705D01*
Y243295D02*
X404642D01*
X372358Y267705D02*
X404642D01*
Y243295D02*
Y267705D01*
X424858Y210795D02*
Y235205D01*
Y210795D02*
X457142D01*
X424858Y235205D02*
X457142D01*
Y210795D02*
Y235205D01*
X160154Y182937D02*
Y207346D01*
Y182937D02*
X192437D01*
X160154Y207346D02*
X192437D01*
Y182937D02*
Y207346D01*
X200154Y227937D02*
Y252346D01*
Y227937D02*
X232437D01*
X200154Y252346D02*
X232437D01*
Y227937D02*
Y252346D01*
X120154Y227937D02*
Y252346D01*
Y227937D02*
X152437D01*
X120154Y252346D02*
X152437D01*
Y227937D02*
Y252346D01*
X345846Y210941D02*
Y221571D01*
X339154Y210941D02*
Y221571D01*
X345846D01*
X339154Y210941D02*
X345846D01*
X334346D02*
Y221571D01*
X327654Y210941D02*
Y221571D01*
X334346D01*
X327654Y210941D02*
X334346D01*
X322346D02*
Y221571D01*
X315654Y210941D02*
Y221571D01*
X322346D01*
X315654Y210941D02*
X322346D01*
X311346D02*
Y221571D01*
X304654Y210941D02*
Y221571D01*
X311346D01*
X304654Y210941D02*
X311346D01*
X299846D02*
Y221571D01*
X293154Y210941D02*
Y221571D01*
X299846D01*
X293154Y210941D02*
X299846D01*
X288346D02*
Y221571D01*
X281654Y210941D02*
Y221571D01*
X288346D01*
X281654Y210941D02*
X288346D01*
X276846D02*
Y221571D01*
X270154Y210941D02*
Y221571D01*
X276846D01*
X270154Y210941D02*
X276846D01*
M02*
