G04*
G04 #@! TF.GenerationSoftware,Altium Limited,Altium Designer,21.2.2 (38)*
G04*
G04 Layer_Color=32768*
%FSLAX25Y25*%
%MOIN*%
G70*
G04*
G04 #@! TF.SameCoordinates,98E345A6-E5E3-4E7C-82CD-A9440516B19A*
G04*
G04*
G04 #@! TF.FilePolarity,Positive*
G04*
G01*
G75*
%ADD12C,0.00787*%
D12*
X283008Y299555D02*
X318992D01*
Y331445D01*
X283008D02*
X318992D01*
X283008Y299555D02*
Y331445D01*
X281433Y330343D02*
X320567D01*
X269130Y255445D02*
X272870D01*
Y248555D02*
Y255445D01*
X269130Y248555D02*
X272870D01*
X269130D02*
Y255445D01*
X278130Y255591D02*
X281870D01*
Y248701D02*
Y255591D01*
X278130Y248701D02*
X281870D01*
X278130D02*
Y255591D01*
X286630Y255445D02*
X290370D01*
Y248555D02*
Y255445D01*
X286630Y248555D02*
X290370D01*
X286630D02*
Y255445D01*
X295130Y255591D02*
X298870D01*
Y248701D02*
Y255591D01*
X295130Y248701D02*
X298870D01*
X295130D02*
Y255591D01*
X303630Y255445D02*
X307370D01*
Y248555D02*
Y255445D01*
X303630Y248555D02*
X307370D01*
X303630D02*
Y255445D01*
X312130D02*
X315870D01*
Y248555D02*
Y255445D01*
X312130Y248555D02*
X315870D01*
X312130D02*
Y255445D01*
X320130D02*
X323870D01*
Y248555D02*
Y255445D01*
X320130Y248555D02*
X323870D01*
X320130D02*
Y255445D01*
X328130D02*
X331870D01*
Y248555D02*
Y255445D01*
X328130Y248555D02*
X331870D01*
X328130D02*
Y255445D01*
M02*
