G04*
G04 #@! TF.GenerationSoftware,Altium Limited,Altium Designer,21.2.2 (38)*
G04*
G04 Layer_Color=128*
%FSLAX25Y25*%
%MOIN*%
G70*
G04*
G04 #@! TF.SameCoordinates,98E345A6-E5E3-4E7C-82CD-A9440516B19A*
G04*
G04*
G04 #@! TF.FilePolarity,Positive*
G04*
G01*
G75*
%ADD69C,0.00200*%
D69*
X186827Y274142D02*
X190764D01*
X188795Y272173D02*
Y276110D01*
X186827Y291858D02*
X190764D01*
X188795Y289890D02*
Y293827D01*
X161236Y291858D02*
X165173D01*
X163205Y289890D02*
Y293827D01*
X161236Y274142D02*
X165173D01*
X163205Y272173D02*
Y276110D01*
X169835Y324500D02*
X174165D01*
X172000Y322335D02*
Y326665D01*
X159835Y324500D02*
X164165D01*
X162000Y322335D02*
Y326665D01*
X179835Y324500D02*
X184165D01*
X182000Y322335D02*
Y326665D01*
X189835Y324500D02*
X194165D01*
X192000Y322335D02*
Y326665D01*
X256835Y324500D02*
X261165D01*
X259000Y322335D02*
Y326665D01*
X246835Y324500D02*
X251165D01*
X249000Y322335D02*
Y326665D01*
X236835Y324500D02*
X241165D01*
X239000Y322335D02*
Y326665D01*
X226835Y324500D02*
X231165D01*
X229000Y322335D02*
Y326665D01*
X216835Y324500D02*
X221165D01*
X219000Y322335D02*
Y326665D01*
X280843Y302272D02*
X287142D01*
X283992Y299122D02*
Y305421D01*
X314858Y302272D02*
X321157D01*
X318008Y299122D02*
Y305421D01*
X279858Y323374D02*
X288126D01*
X283992Y319240D02*
Y327508D01*
X313874Y323374D02*
X322142D01*
X318008Y319240D02*
Y327508D01*
X309032Y140283D02*
X312968D01*
X311000Y138315D02*
Y142252D01*
X309032Y158000D02*
X312968D01*
X311000Y156032D02*
Y159968D01*
X334622Y158000D02*
X338559D01*
X336591Y156032D02*
Y159968D01*
X334622Y140283D02*
X338559D01*
X336591Y138315D02*
Y142252D01*
X261736Y140142D02*
X265673D01*
X263705Y138173D02*
Y142110D01*
X261736Y157858D02*
X265673D01*
X263705Y155890D02*
Y159827D01*
X287327Y157858D02*
X291264D01*
X289295Y155890D02*
Y159827D01*
X287327Y140142D02*
X291264D01*
X289295Y138173D02*
Y142110D01*
X373736Y246642D02*
X377673D01*
X375705Y244673D02*
Y248610D01*
X373736Y264358D02*
X377673D01*
X375705Y262390D02*
Y266327D01*
X399327Y264358D02*
X403264D01*
X401295Y262390D02*
Y266327D01*
X399327Y246642D02*
X403264D01*
X401295Y244673D02*
Y248610D01*
X426236Y214142D02*
X430173D01*
X428205Y212173D02*
Y216110D01*
X426236Y231858D02*
X430173D01*
X428205Y229890D02*
Y233827D01*
X451827Y231858D02*
X455764D01*
X453795Y229890D02*
Y233827D01*
X451827Y214142D02*
X455764D01*
X453795Y212173D02*
Y216110D01*
X161531Y186283D02*
X165469D01*
X163500Y184315D02*
Y188252D01*
X161531Y204000D02*
X165469D01*
X163500Y202031D02*
Y205968D01*
X187122Y204000D02*
X191059D01*
X189091Y202031D02*
Y205968D01*
X187122Y186283D02*
X191059D01*
X189091Y184315D02*
Y188252D01*
X201532Y231283D02*
X205469D01*
X203500Y229315D02*
Y233252D01*
X201532Y249000D02*
X205469D01*
X203500Y247031D02*
Y250969D01*
X227122Y249000D02*
X231059D01*
X229091Y247031D02*
Y250969D01*
X227122Y231283D02*
X231059D01*
X229091Y229315D02*
Y233252D01*
X121531Y231283D02*
X125469D01*
X123500Y229315D02*
Y233252D01*
X121531Y249000D02*
X125469D01*
X123500Y247031D02*
Y250969D01*
X147122Y249000D02*
X151059D01*
X149091Y247031D02*
Y250969D01*
X147122Y231283D02*
X151059D01*
X149091Y229315D02*
Y233252D01*
X451608Y316885D02*
X453576D01*
X452592Y315901D02*
Y317869D01*
X400095Y185500D02*
X411905D01*
X406000Y179595D02*
Y191405D01*
X171095Y242500D02*
X182905D01*
X177000Y236595D02*
Y248406D01*
X280909Y171000D02*
X282090D01*
X281500Y170409D02*
Y171591D01*
X225909Y276000D02*
X227091D01*
X226500Y275410D02*
Y276590D01*
X148409Y305500D02*
X149591D01*
X149000Y304909D02*
Y306090D01*
X149516Y293500D02*
X151484D01*
X150500Y292516D02*
Y294484D01*
X149909Y318000D02*
X151091D01*
X150500Y317409D02*
Y318590D01*
X161762Y160980D02*
X163730D01*
X162746Y159996D02*
Y161965D01*
X187516Y304000D02*
X189484D01*
X188500Y303016D02*
Y304984D01*
X382864Y307348D02*
X384833D01*
X383848Y306364D02*
Y308333D01*
X261262Y230980D02*
X263230D01*
X262246Y229996D02*
Y231965D01*
X238516Y228500D02*
X240484D01*
X239500Y227516D02*
Y229484D01*
X343262Y207480D02*
X345230D01*
X344246Y206496D02*
Y208465D01*
X333516Y207500D02*
X335484D01*
X334500Y206516D02*
Y208484D01*
X321262Y207480D02*
X323230D01*
X322246Y206496D02*
Y208465D01*
X310262Y207480D02*
X312230D01*
X311246Y206496D02*
Y208465D01*
X300016Y207500D02*
X301984D01*
X301000Y206516D02*
Y208484D01*
X285516Y207500D02*
X287484D01*
X286500Y206516D02*
Y208484D01*
X273262Y207480D02*
X275230D01*
X274246Y206496D02*
Y208465D01*
X264262Y207480D02*
X266230D01*
X265246Y206496D02*
Y208465D01*
X423016Y158000D02*
X424984D01*
X424000Y157016D02*
Y158984D01*
X457262Y174980D02*
X459230D01*
X458246Y173996D02*
Y175965D01*
X409262Y297480D02*
X411230D01*
X410246Y296496D02*
Y298465D01*
X257762Y273980D02*
X259730D01*
X258746Y272996D02*
Y274965D01*
X277262Y295480D02*
X279230D01*
X278246Y294496D02*
Y296465D01*
X217409Y307000D02*
X218590D01*
X218000Y306410D02*
Y307591D01*
X453762Y280980D02*
X455730D01*
X454746Y279996D02*
Y281965D01*
X252910Y262000D02*
X254091D01*
X253500Y261410D02*
Y262591D01*
X244910Y299000D02*
X246091D01*
X245500Y298410D02*
Y299590D01*
X252909Y220576D02*
X254090D01*
X253500Y219986D02*
Y221167D01*
X247909Y220500D02*
X249091D01*
X248500Y219910D02*
Y221091D01*
X228100Y161000D02*
X230900D01*
X229500Y159600D02*
Y162400D01*
X301713Y243500D02*
X303287D01*
X302500Y242713D02*
Y244287D01*
X294452Y243739D02*
X296027D01*
X295239Y242952D02*
Y244527D01*
X207909Y305500D02*
X209090D01*
X208500Y304909D02*
Y306090D01*
X203409Y305500D02*
X204591D01*
X204000Y304909D02*
Y306090D01*
X379842Y209314D02*
X381810D01*
X380826Y208330D02*
Y210299D01*
X254735Y160315D02*
X255917D01*
X255326Y159724D02*
Y160905D01*
X336409Y172000D02*
X337591D01*
X337000Y171409D02*
Y172591D01*
X327909Y172000D02*
X329090D01*
X328500Y171409D02*
Y172591D01*
X297909Y169500D02*
X299091D01*
X298500Y168909D02*
Y170091D01*
X290409Y169500D02*
X291590D01*
X291000Y168909D02*
Y170091D01*
X279713Y260000D02*
X281287D01*
X280500Y259213D02*
Y260787D01*
X287713Y260500D02*
X289287D01*
X288500Y259713D02*
Y261287D01*
X329213Y244000D02*
X330787D01*
X330000Y243213D02*
Y244787D01*
X321213Y260500D02*
X322787D01*
X322000Y259713D02*
Y261287D01*
X313213Y244000D02*
X314787D01*
X314000Y243213D02*
Y244787D01*
X279213Y244000D02*
X280787D01*
X280000Y243213D02*
Y244787D01*
X313213Y260500D02*
X314787D01*
X314000Y259713D02*
Y261287D01*
X269713Y244000D02*
X271287D01*
X270500Y243213D02*
Y244787D01*
X329213Y260500D02*
X330787D01*
X330000Y259713D02*
Y261287D01*
X287713Y244000D02*
X289287D01*
X288500Y243213D02*
Y244787D01*
X321213Y244000D02*
X322787D01*
X322000Y243213D02*
Y244787D01*
X304213Y260500D02*
X305787D01*
X305000Y259713D02*
Y261287D01*
X296213Y260500D02*
X297787D01*
X297000Y259713D02*
Y261287D01*
X270713Y260500D02*
X272287D01*
X271500Y259713D02*
Y261287D01*
X353100Y205000D02*
X355900D01*
X354500Y203600D02*
Y206400D01*
X231937Y295331D02*
X232724D01*
X232331Y294937D02*
Y295725D01*
X227606Y295331D02*
X228394D01*
X228000Y294937D02*
Y295725D01*
X223275Y295331D02*
X224063D01*
X223669Y294937D02*
Y295725D01*
X231937Y291000D02*
X232724D01*
X232331Y290606D02*
Y291394D01*
X227606Y291000D02*
X228394D01*
X228000Y290606D02*
Y291394D01*
X223275Y291000D02*
X224063D01*
X223669Y290606D02*
Y291394D01*
X231937Y286669D02*
X232724D01*
X232331Y286276D02*
Y287063D01*
X227606Y286669D02*
X228394D01*
X228000Y286276D02*
Y287063D01*
X223275Y286669D02*
X224063D01*
X223669Y286276D02*
Y287063D01*
M02*
