G04*
G04 #@! TF.GenerationSoftware,Altium Limited,Altium Designer,21.2.2 (38)*
G04*
G04 Layer_Color=8388736*
%FSLAX25Y25*%
%MOIN*%
G70*
G04*
G04 #@! TF.SameCoordinates,98E345A6-E5E3-4E7C-82CD-A9440516B19A*
G04*
G04*
G04 #@! TF.FilePolarity,Negative*
G04*
G01*
G75*
%ADD20R,0.06496X0.05315*%
%ADD21R,0.03347X0.08268*%
%ADD22R,0.05906X0.04921*%
%ADD23R,0.05906X0.03937*%
%ADD24C,0.06496*%
%ADD25C,0.06890*%
%ADD26R,0.06890X0.06890*%
%ADD27R,0.07087X0.07087*%
%ADD28C,0.07087*%
G04:AMPARAMS|DCode=29|XSize=43.31mil|YSize=82.68mil|CornerRadius=21.65mil|HoleSize=0mil|Usage=FLASHONLY|Rotation=0.000|XOffset=0mil|YOffset=0mil|HoleType=Round|Shape=RoundedRectangle|*
%AMROUNDEDRECTD29*
21,1,0.04331,0.03937,0,0,0.0*
21,1,0.00000,0.08268,0,0,0.0*
1,1,0.04331,0.00000,-0.01968*
1,1,0.04331,0.00000,-0.01968*
1,1,0.04331,0.00000,0.01968*
1,1,0.04331,0.00000,0.01968*
%
%ADD29ROUNDEDRECTD29*%
G04:AMPARAMS|DCode=30|XSize=43.31mil|YSize=102.36mil|CornerRadius=21.65mil|HoleSize=0mil|Usage=FLASHONLY|Rotation=0.000|XOffset=0mil|YOffset=0mil|HoleType=Round|Shape=RoundedRectangle|*
%AMROUNDEDRECTD30*
21,1,0.04331,0.05906,0,0,0.0*
21,1,0.00000,0.10236,0,0,0.0*
1,1,0.04331,0.00000,-0.02953*
1,1,0.04331,0.00000,-0.02953*
1,1,0.04331,0.00000,0.02953*
1,1,0.04331,0.00000,0.02953*
%
%ADD30ROUNDEDRECTD30*%
%ADD31C,0.03740*%
%ADD32C,0.16339*%
%ADD33C,0.02953*%
%ADD34C,0.05591*%
%ADD35C,0.03347*%
%ADD36C,0.02559*%
D20*
X121854Y150701D02*
D03*
X141146D02*
D03*
Y163299D02*
D03*
X121854D02*
D03*
X438854Y153201D02*
D03*
X458146D02*
D03*
Y165799D02*
D03*
X438854D02*
D03*
X122354Y298201D02*
D03*
X141646D02*
D03*
Y310799D02*
D03*
X122354D02*
D03*
X442500Y304803D02*
D03*
X461791D02*
D03*
Y292205D02*
D03*
X442500D02*
D03*
D21*
X279000Y272102D02*
D03*
X284000D02*
D03*
X289000D02*
D03*
X294000D02*
D03*
X299000D02*
D03*
X304000D02*
D03*
X309000D02*
D03*
X314000D02*
D03*
X319000D02*
D03*
X324000D02*
D03*
Y234898D02*
D03*
X319000D02*
D03*
X314000D02*
D03*
X309000D02*
D03*
X304000D02*
D03*
X299000D02*
D03*
X294000D02*
D03*
X289000D02*
D03*
X284000D02*
D03*
X279000D02*
D03*
D22*
X149000Y299988D02*
D03*
Y305500D02*
D03*
X148000Y151488D02*
D03*
Y157000D02*
D03*
X430500Y154988D02*
D03*
Y160500D02*
D03*
X434000Y294488D02*
D03*
Y300000D02*
D03*
X262000Y218756D02*
D03*
Y213244D02*
D03*
X342500Y219012D02*
D03*
Y213500D02*
D03*
X331000Y219012D02*
D03*
Y213500D02*
D03*
X319000Y219012D02*
D03*
Y213500D02*
D03*
X308000Y219012D02*
D03*
Y213500D02*
D03*
X296500Y219012D02*
D03*
Y213500D02*
D03*
X285000Y219012D02*
D03*
Y213500D02*
D03*
X273500Y219012D02*
D03*
Y213500D02*
D03*
D23*
X274500Y176500D02*
D03*
Y182996D02*
D03*
X343000Y183000D02*
D03*
Y176504D02*
D03*
X331000Y182996D02*
D03*
Y176500D02*
D03*
X319500Y182996D02*
D03*
Y176500D02*
D03*
X308000Y182996D02*
D03*
Y176500D02*
D03*
X296500Y182996D02*
D03*
Y176500D02*
D03*
X286000Y182996D02*
D03*
Y176500D02*
D03*
X262500Y182996D02*
D03*
Y176500D02*
D03*
Y193000D02*
D03*
Y199496D02*
D03*
X274500Y193000D02*
D03*
Y199496D02*
D03*
X285500Y193000D02*
D03*
Y199496D02*
D03*
X296500Y193000D02*
D03*
Y199496D02*
D03*
X308000Y193000D02*
D03*
Y199496D02*
D03*
X319500Y193000D02*
D03*
Y199496D02*
D03*
X331000Y193000D02*
D03*
Y199496D02*
D03*
X343000Y193000D02*
D03*
Y199496D02*
D03*
D24*
X188795Y274142D02*
D03*
Y291858D02*
D03*
X163205D02*
D03*
Y274142D02*
D03*
X311000Y140283D02*
D03*
Y158000D02*
D03*
X336591D02*
D03*
Y140283D02*
D03*
X263705Y140142D02*
D03*
Y157858D02*
D03*
X289295D02*
D03*
Y140142D02*
D03*
X375705Y246642D02*
D03*
Y264358D02*
D03*
X401295D02*
D03*
Y246642D02*
D03*
X428205Y214142D02*
D03*
Y231858D02*
D03*
X453795D02*
D03*
Y214142D02*
D03*
X163500Y186283D02*
D03*
Y204000D02*
D03*
X189091D02*
D03*
Y186283D02*
D03*
X203500Y231283D02*
D03*
Y249000D02*
D03*
X229091D02*
D03*
Y231283D02*
D03*
X123500D02*
D03*
Y249000D02*
D03*
X149091D02*
D03*
Y231283D02*
D03*
D25*
X172000Y324500D02*
D03*
X162000D02*
D03*
X182000D02*
D03*
D26*
X192000D02*
D03*
D27*
X259000D02*
D03*
D28*
X249000D02*
D03*
X239000D02*
D03*
X229000D02*
D03*
X219000D02*
D03*
D29*
X283992Y302272D02*
D03*
X318008D02*
D03*
D30*
X283992Y323374D02*
D03*
X318008D02*
D03*
D31*
X452592Y316885D02*
D03*
X150500Y293500D02*
D03*
X162746Y160980D02*
D03*
X188500Y304000D02*
D03*
X383848Y307348D02*
D03*
X262246Y230980D02*
D03*
X239500Y228500D02*
D03*
X344246Y207480D02*
D03*
X334500Y207500D02*
D03*
X322246Y207480D02*
D03*
X311246D02*
D03*
X301000Y207500D02*
D03*
X286500D02*
D03*
X274246Y207480D02*
D03*
X265246D02*
D03*
X424000Y158000D02*
D03*
X458246Y174980D02*
D03*
X410246Y297480D02*
D03*
X258746Y273980D02*
D03*
X278246Y295480D02*
D03*
X454746Y280980D02*
D03*
X380826Y209314D02*
D03*
D32*
X406000Y185500D02*
D03*
X177000Y242500D02*
D03*
D33*
X281500Y171000D02*
D03*
X226500Y276000D02*
D03*
X149000Y305500D02*
D03*
X150500Y318000D02*
D03*
X218000Y307000D02*
D03*
X253500Y262000D02*
D03*
X245500Y299000D02*
D03*
X253500Y220576D02*
D03*
X248500Y220500D02*
D03*
X208500Y305500D02*
D03*
X204000D02*
D03*
X255326Y160315D02*
D03*
X337000Y172000D02*
D03*
X328500D02*
D03*
X298500Y169500D02*
D03*
X291000D02*
D03*
D34*
X229500Y161000D02*
D03*
X354500Y205000D02*
D03*
D35*
X302500Y243500D02*
D03*
X295239Y243739D02*
D03*
X280500Y260000D02*
D03*
X288500Y260500D02*
D03*
X330000Y244000D02*
D03*
X322000Y260500D02*
D03*
X314000Y244000D02*
D03*
X280000D02*
D03*
X314000Y260500D02*
D03*
X270500Y244000D02*
D03*
X330000Y260500D02*
D03*
X288500Y244000D02*
D03*
X322000D02*
D03*
X305000Y260500D02*
D03*
X297000D02*
D03*
X271500D02*
D03*
D36*
X232331Y295331D02*
D03*
X228000D02*
D03*
X223669D02*
D03*
X232331Y291000D02*
D03*
X228000D02*
D03*
X223669D02*
D03*
X232331Y286669D02*
D03*
X228000D02*
D03*
X223669D02*
D03*
M02*
