G04*
G04 #@! TF.GenerationSoftware,Altium Limited,Altium Designer,21.2.2 (38)*
G04*
G04 Layer_Physical_Order=1*
G04 Layer_Color=255*
%FSLAX25Y25*%
%MOIN*%
G70*
G04*
G04 #@! TF.SameCoordinates,98E345A6-E5E3-4E7C-82CD-A9440516B19A*
G04*
G04*
G04 #@! TF.FilePolarity,Positive*
G04*
G01*
G75*
%ADD16R,0.05906X0.04724*%
%ADD17R,0.02756X0.07677*%
%ADD18R,0.05315X0.04331*%
%ADD19R,0.05315X0.03347*%
G04:AMPARAMS|DCode=29|XSize=43.31mil|YSize=82.68mil|CornerRadius=21.65mil|HoleSize=0mil|Usage=FLASHONLY|Rotation=0.000|XOffset=0mil|YOffset=0mil|HoleType=Round|Shape=RoundedRectangle|*
%AMROUNDEDRECTD29*
21,1,0.04331,0.03937,0,0,0.0*
21,1,0.00000,0.08268,0,0,0.0*
1,1,0.04331,0.00000,-0.01968*
1,1,0.04331,0.00000,-0.01968*
1,1,0.04331,0.00000,0.01968*
1,1,0.04331,0.00000,0.01968*
%
%ADD29ROUNDEDRECTD29*%
G04:AMPARAMS|DCode=30|XSize=43.31mil|YSize=102.36mil|CornerRadius=21.65mil|HoleSize=0mil|Usage=FLASHONLY|Rotation=0.000|XOffset=0mil|YOffset=0mil|HoleType=Round|Shape=RoundedRectangle|*
%AMROUNDEDRECTD30*
21,1,0.04331,0.05906,0,0,0.0*
21,1,0.00000,0.10236,0,0,0.0*
1,1,0.04331,0.00000,-0.02953*
1,1,0.04331,0.00000,-0.02953*
1,1,0.04331,0.00000,0.02953*
1,1,0.04331,0.00000,0.02953*
%
%ADD30ROUNDEDRECTD30*%
%ADD37C,0.00500*%
%ADD38C,0.05906*%
%ADD39C,0.06299*%
%ADD40R,0.06299X0.06299*%
%ADD41R,0.06496X0.06496*%
%ADD42C,0.06496*%
%ADD43C,0.03150*%
%ADD44C,0.15748*%
%ADD45C,0.02362*%
%ADD46C,0.05000*%
%ADD47C,0.02756*%
%ADD48C,0.01968*%
G36*
X443796Y332826D02*
X447512Y332086D01*
X451138Y330986D01*
X454639Y329536D01*
X457981Y327750D01*
X461132Y325645D01*
X464061Y323241D01*
X466741Y320561D01*
X469145Y317632D01*
X471250Y314481D01*
X473036Y311139D01*
X474486Y307639D01*
X475587Y304012D01*
X476326Y300296D01*
X476697Y296525D01*
Y294630D01*
Y168870D01*
Y166975D01*
X476326Y163204D01*
X475587Y159488D01*
X474486Y155861D01*
X473036Y152360D01*
X471250Y149019D01*
X469145Y145868D01*
X466741Y142939D01*
X464061Y140259D01*
X461132Y137855D01*
X457981Y135750D01*
X454639Y133964D01*
X451138Y132513D01*
X447512Y131413D01*
X443796Y130674D01*
X440025Y130303D01*
X137975D01*
X134204Y130674D01*
X130488Y131413D01*
X126862Y132513D01*
X123361Y133964D01*
X120019Y135750D01*
X116868Y137855D01*
X113939Y140259D01*
X111259Y142939D01*
X108855Y145868D01*
X106750Y149019D01*
X104964Y152360D01*
X103514Y155861D01*
X102413Y159488D01*
X101674Y163204D01*
X101303Y166975D01*
Y168870D01*
Y294630D01*
Y296525D01*
X101674Y300296D01*
X102413Y304012D01*
X103514Y307639D01*
X104964Y311139D01*
X106750Y314481D01*
X108855Y317632D01*
X111259Y320561D01*
X113939Y323241D01*
X116868Y325645D01*
X120019Y327750D01*
X123361Y329536D01*
X126862Y330986D01*
X130488Y332086D01*
X134204Y332826D01*
X137975Y333197D01*
X440025D01*
X443796Y332826D01*
D02*
G37*
%LPC*%
G36*
X314780Y330884D02*
X287220D01*
X286838Y330725D01*
X286679Y330343D01*
Y328025D01*
X286179Y327855D01*
X285893Y328228D01*
X285336Y328655D01*
X284688Y328924D01*
X283992Y329015D01*
X283296Y328924D01*
X282648Y328655D01*
X282091Y328228D01*
X281664Y327671D01*
X281395Y327023D01*
X281304Y326327D01*
Y320421D01*
X281395Y319725D01*
X281664Y319077D01*
X282091Y318520D01*
X282648Y318093D01*
X283296Y317825D01*
X283992Y317733D01*
X284688Y317825D01*
X285336Y318093D01*
X285893Y318520D01*
X286179Y318893D01*
X286679Y318723D01*
Y308113D01*
X282978D01*
X282919Y308102D01*
X282860Y308104D01*
X281390Y307874D01*
X281110Y307772D01*
X280890Y307570D01*
X280632Y307216D01*
X280620Y307202D01*
X277183Y303765D01*
X234175D01*
X233830Y304110D01*
X233582Y304275D01*
X233289Y304334D01*
X210534D01*
X210235Y304818D01*
X210326Y305023D01*
X210374Y305095D01*
X210649Y305150D01*
X210897Y305316D01*
X226939Y321357D01*
X227110Y321226D01*
X228022Y320848D01*
X229000Y320720D01*
X229978Y320848D01*
X230890Y321226D01*
X231673Y321827D01*
X232274Y322610D01*
X232652Y323522D01*
X232780Y324500D01*
X232652Y325478D01*
X232274Y326390D01*
X231673Y327173D01*
X231560Y327260D01*
X231721Y327733D01*
X236279D01*
X236440Y327260D01*
X236327Y327173D01*
X235726Y326390D01*
X235348Y325478D01*
X235252Y324750D01*
X242747D01*
X242652Y325478D01*
X242274Y326390D01*
X241673Y327173D01*
X241560Y327260D01*
X241721Y327733D01*
X244685D01*
X245857Y326561D01*
X245726Y326390D01*
X245348Y325478D01*
X245220Y324500D01*
X245348Y323522D01*
X245726Y322610D01*
X246327Y321827D01*
X247110Y321226D01*
X248022Y320848D01*
X249000Y320720D01*
X249978Y320848D01*
X250890Y321226D01*
X251673Y321827D01*
X252274Y322610D01*
X252652Y323522D01*
X252780Y324500D01*
X252652Y325478D01*
X252274Y326390D01*
X251673Y327173D01*
X250890Y327774D01*
X249978Y328152D01*
X249000Y328280D01*
X248022Y328152D01*
X247110Y327774D01*
X246939Y327643D01*
X245543Y329039D01*
X245295Y329205D01*
X245002Y329263D01*
X217344D01*
X217051Y329205D01*
X216803Y329039D01*
X213029Y325265D01*
X195650D01*
Y328150D01*
X188350D01*
Y321932D01*
X178183Y311765D01*
X157817D01*
X152109Y317472D01*
X152214Y318000D01*
X152084Y318656D01*
X151712Y319212D01*
X151156Y319584D01*
X150500Y319714D01*
X149844Y319584D01*
X149288Y319212D01*
X148989Y318765D01*
X130146D01*
X129853Y318706D01*
X129605Y318541D01*
X129605Y318541D01*
X124726Y313661D01*
X118902D01*
Y307937D01*
X125807D01*
Y310034D01*
X133816D01*
X136976Y306875D01*
X137224Y306709D01*
X137517Y306651D01*
X137517Y306651D01*
X145843D01*
Y303154D01*
X145843Y302835D01*
X145843Y302335D01*
Y300238D01*
X149000D01*
X152157D01*
Y302335D01*
X152157Y302654D01*
X152157Y303154D01*
Y307922D01*
X154912D01*
X154959Y307875D01*
X155207Y307709D01*
X155500Y307651D01*
X155500Y307651D01*
X163674D01*
X171014Y300311D01*
X171263Y300145D01*
X171555Y300087D01*
X236351D01*
X236644Y300145D01*
X236892Y300311D01*
X237317Y300735D01*
X244171D01*
X244323Y300235D01*
X244288Y300212D01*
X243916Y299656D01*
X243786Y299000D01*
X243916Y298344D01*
X244288Y297788D01*
X244844Y297416D01*
X245500Y297286D01*
X246028Y297391D01*
X247735Y295683D01*
Y222011D01*
X247288Y221712D01*
X246916Y221156D01*
X246786Y220500D01*
X246916Y219844D01*
X247288Y219288D01*
X247844Y218916D01*
X248500Y218786D01*
X249156Y218916D01*
X249712Y219288D01*
X250084Y219844D01*
X250214Y220500D01*
X250084Y221156D01*
X249712Y221712D01*
X249265Y222011D01*
Y296000D01*
X249206Y296293D01*
X249041Y296541D01*
X247109Y298472D01*
X247214Y299000D01*
X247084Y299656D01*
X246712Y300212D01*
X246677Y300235D01*
X246829Y300735D01*
X278356D01*
X288059Y291032D01*
X288307Y290866D01*
X288600Y290808D01*
X288600Y290808D01*
X439047D01*
Y289342D01*
X445953D01*
Y295067D01*
X439047D01*
Y292337D01*
X437157D01*
Y294238D01*
X434000D01*
X430842D01*
Y292337D01*
X288916D01*
X284126Y297128D01*
X284305Y297656D01*
X284688Y297706D01*
X285336Y297975D01*
X285893Y298402D01*
X286320Y298959D01*
X286589Y299607D01*
X286681Y300303D01*
Y304240D01*
X286589Y304936D01*
X286320Y305584D01*
X285937Y306084D01*
X285990Y306316D01*
X286138Y306584D01*
X315862D01*
X316010Y306316D01*
X316063Y306084D01*
X315680Y305584D01*
X315411Y304936D01*
X315319Y304240D01*
Y300303D01*
X315411Y299607D01*
X315680Y298959D01*
X316107Y298402D01*
X316664Y297975D01*
X317312Y297706D01*
X318008Y297615D01*
X318704Y297706D01*
X319352Y297975D01*
X319909Y298402D01*
X320336Y298959D01*
X320605Y299607D01*
X320696Y300303D01*
Y304240D01*
X320605Y304936D01*
X320336Y305584D01*
X319953Y306084D01*
X320005Y306316D01*
X320153Y306584D01*
X381885D01*
X381894Y306539D01*
X382353Y305853D01*
X383039Y305394D01*
X383848Y305233D01*
X384658Y305394D01*
X385344Y305853D01*
X385803Y306539D01*
X385964Y307348D01*
X385803Y308158D01*
X385344Y308844D01*
X384658Y309303D01*
X383848Y309464D01*
X383039Y309303D01*
X382353Y308844D01*
X381894Y308158D01*
X381885Y308113D01*
X315321D01*
Y318723D01*
X315821Y318893D01*
X316107Y318520D01*
X316664Y318093D01*
X317312Y317825D01*
X318008Y317733D01*
X318704Y317825D01*
X319352Y318093D01*
X319909Y318520D01*
X320336Y319077D01*
X320605Y319725D01*
X320696Y320421D01*
Y326327D01*
X320605Y327023D01*
X320336Y327671D01*
X319909Y328228D01*
X319352Y328655D01*
X318704Y328924D01*
X318008Y329015D01*
X317312Y328924D01*
X316664Y328655D01*
X316107Y328228D01*
X315821Y327855D01*
X315321Y328025D01*
Y330343D01*
X315162Y330725D01*
X314780Y330884D01*
D02*
G37*
G36*
X162250Y328148D02*
Y324750D01*
X165648D01*
X165556Y325453D01*
X165188Y326341D01*
X164603Y327103D01*
X163840Y327688D01*
X162953Y328056D01*
X162250Y328148D01*
D02*
G37*
G36*
X161750D02*
X161047Y328056D01*
X160160Y327688D01*
X159397Y327103D01*
X158812Y326341D01*
X158444Y325453D01*
X158352Y324750D01*
X161750D01*
Y328148D01*
D02*
G37*
G36*
X165648Y324250D02*
X162250D01*
Y320852D01*
X162953Y320944D01*
X163840Y321312D01*
X164603Y321897D01*
X165188Y322659D01*
X165556Y323547D01*
X165648Y324250D01*
D02*
G37*
G36*
X161750D02*
X158352D01*
X158444Y323547D01*
X158812Y322659D01*
X159397Y321897D01*
X160160Y321312D01*
X161047Y320944D01*
X161750Y320852D01*
Y324250D01*
D02*
G37*
G36*
X182000Y328181D02*
X181047Y328056D01*
X180159Y327688D01*
X179397Y327103D01*
X178812Y326341D01*
X178444Y325453D01*
X178319Y324500D01*
X178444Y323547D01*
X178812Y322659D01*
X179397Y321897D01*
X180159Y321312D01*
X181047Y320944D01*
X182000Y320819D01*
X182953Y320944D01*
X183841Y321312D01*
X184603Y321897D01*
X185188Y322659D01*
X185556Y323547D01*
X185681Y324500D01*
X185556Y325453D01*
X185188Y326341D01*
X184603Y327103D01*
X183841Y327688D01*
X182953Y328056D01*
X182000Y328181D01*
D02*
G37*
G36*
X172000D02*
X171047Y328056D01*
X170159Y327688D01*
X169397Y327103D01*
X168812Y326341D01*
X168444Y325453D01*
X168319Y324500D01*
X168444Y323547D01*
X168812Y322659D01*
X169397Y321897D01*
X170159Y321312D01*
X171047Y320944D01*
X172000Y320819D01*
X172953Y320944D01*
X173840Y321312D01*
X174603Y321897D01*
X175188Y322659D01*
X175556Y323547D01*
X175681Y324500D01*
X175556Y325453D01*
X175188Y326341D01*
X174603Y327103D01*
X173840Y327688D01*
X172953Y328056D01*
X172000Y328181D01*
D02*
G37*
G36*
X242747Y324250D02*
X239250D01*
Y320753D01*
X239978Y320848D01*
X240890Y321226D01*
X241673Y321827D01*
X242274Y322610D01*
X242652Y323522D01*
X242747Y324250D01*
D02*
G37*
G36*
X238750D02*
X235252D01*
X235348Y323522D01*
X235726Y322610D01*
X236327Y321827D01*
X237110Y321226D01*
X238022Y320848D01*
X238750Y320753D01*
Y324250D01*
D02*
G37*
G36*
X262748Y328248D02*
X255252D01*
Y323051D01*
X255002Y323001D01*
X254754Y322836D01*
X254754Y322836D01*
X241683Y309765D01*
X220000D01*
X219707Y309706D01*
X219459Y309541D01*
X218528Y308609D01*
X218000Y308714D01*
X217344Y308584D01*
X216788Y308212D01*
X216416Y307656D01*
X216286Y307000D01*
X216416Y306344D01*
X216788Y305788D01*
X217344Y305416D01*
X218000Y305286D01*
X218656Y305416D01*
X219212Y305788D01*
X219584Y306344D01*
X219714Y307000D01*
X219609Y307528D01*
X220317Y308235D01*
X242000D01*
X242293Y308294D01*
X242541Y308459D01*
X254956Y320875D01*
X255252Y320752D01*
Y320752D01*
X262748D01*
Y328248D01*
D02*
G37*
G36*
X452592Y319001D02*
X451782Y318840D01*
X451096Y318381D01*
X450637Y317695D01*
X450629Y317650D01*
X449385D01*
X449385Y317650D01*
X449092Y317592D01*
X448844Y317426D01*
X448844Y317426D01*
X444662Y313244D01*
X444496Y312995D01*
X444438Y312703D01*
Y307665D01*
X439047D01*
Y305960D01*
X438803Y305568D01*
X438510Y305509D01*
X438262Y305344D01*
X438262Y305344D01*
X435867Y302948D01*
X435701Y302700D01*
X435694Y302665D01*
X430842D01*
Y298849D01*
X421833D01*
X421541Y298791D01*
X421293Y298625D01*
X420912Y298245D01*
X412210D01*
X412201Y298290D01*
X411742Y298976D01*
X411056Y299435D01*
X410246Y299596D01*
X409437Y299435D01*
X408750Y298976D01*
X408292Y298290D01*
X408131Y297480D01*
X408292Y296671D01*
X408750Y295985D01*
X409437Y295526D01*
X410246Y295365D01*
X411056Y295526D01*
X411742Y295985D01*
X412201Y296671D01*
X412210Y296716D01*
X421229D01*
X421522Y296774D01*
X421770Y296940D01*
X422150Y297320D01*
X430411D01*
X430842Y297153D01*
X430842Y296820D01*
Y294738D01*
X434000D01*
X437157D01*
Y296835D01*
X437157Y297153D01*
X437157Y297653D01*
Y301841D01*
X437172Y301915D01*
Y302091D01*
X438585Y303504D01*
X439047Y303312D01*
Y301941D01*
X445953D01*
Y306841D01*
X445967Y306915D01*
X445967Y306915D01*
Y312386D01*
X449702Y316120D01*
X450629D01*
X450637Y316076D01*
X451096Y315389D01*
X451782Y314931D01*
X452592Y314770D01*
X453402Y314931D01*
X454088Y315389D01*
X454546Y316076D01*
X454707Y316885D01*
X454546Y317695D01*
X454088Y318381D01*
X453402Y318840D01*
X452592Y319001D01*
D02*
G37*
G36*
X145098Y301063D02*
X141896D01*
Y298451D01*
X145098D01*
Y301063D01*
D02*
G37*
G36*
X141396D02*
X138193D01*
Y298451D01*
X141396D01*
Y301063D01*
D02*
G37*
G36*
X152157Y299738D02*
X149250D01*
Y297323D01*
X152157D01*
Y299738D01*
D02*
G37*
G36*
X148750D02*
X145843D01*
Y297323D01*
X148750D01*
Y299738D01*
D02*
G37*
G36*
X145098Y297951D02*
X141896D01*
Y295339D01*
X145098D01*
Y297951D01*
D02*
G37*
G36*
X141396D02*
X138193D01*
Y295339D01*
X141396D01*
Y297951D01*
D02*
G37*
G36*
X462041Y295067D02*
Y292455D01*
X465244D01*
Y295067D01*
X462041D01*
D02*
G37*
G36*
X465244Y307665D02*
X458339D01*
Y302765D01*
X458324Y302691D01*
Y297608D01*
X454205Y293490D01*
X454040Y293242D01*
X453981Y292949D01*
Y282944D01*
X453937Y282935D01*
X453250Y282476D01*
X452792Y281790D01*
X452631Y280980D01*
X452792Y280171D01*
X453250Y279485D01*
X453937Y279026D01*
X454746Y278865D01*
X455556Y279026D01*
X456242Y279485D01*
X456701Y280171D01*
X456862Y280980D01*
X456701Y281790D01*
X456242Y282476D01*
X455556Y282935D01*
X455511Y282944D01*
Y292633D01*
X457839Y294960D01*
X458339Y294753D01*
X458339Y294727D01*
X458339Y294727D01*
X458339Y294697D01*
Y292455D01*
X461541D01*
Y295067D01*
X458709Y295067D01*
X458678D01*
D01*
X458652Y295067D01*
X458624Y295135D01*
X458445Y295567D01*
X459629Y296751D01*
X459795Y296999D01*
X459853Y297292D01*
Y301941D01*
X465244D01*
Y307665D01*
D02*
G37*
G36*
Y291955D02*
X462041D01*
Y289342D01*
X465244D01*
Y291955D01*
D02*
G37*
G36*
X461541D02*
X458339D01*
Y289342D01*
X461541D01*
Y291955D01*
D02*
G37*
G36*
X125807Y301063D02*
X118902D01*
Y295339D01*
X119033D01*
Y245703D01*
X119091Y245410D01*
X119256Y245162D01*
X130735Y233683D01*
Y172945D01*
X130793Y172652D01*
X130959Y172404D01*
X137693Y165671D01*
Y160437D01*
X144598D01*
Y166161D01*
X139188D01*
X139164Y166280D01*
X138999Y166528D01*
X132265Y173262D01*
Y234000D01*
X132206Y234293D01*
X132041Y234541D01*
X120672Y245909D01*
X120713Y246199D01*
X121240Y246382D01*
X121759Y245984D01*
X122599Y245636D01*
X123500Y245517D01*
X124401Y245636D01*
X125241Y245984D01*
X125484Y246171D01*
X163725Y207930D01*
X163572Y207621D01*
X163469Y207478D01*
X162599Y207364D01*
X161759Y207016D01*
X161038Y206463D01*
X160484Y205741D01*
X160136Y204901D01*
X160018Y204000D01*
X160136Y203099D01*
X160484Y202259D01*
X161038Y201537D01*
X161759Y200984D01*
X162599Y200636D01*
X163500Y200518D01*
X164401Y200636D01*
X165241Y200984D01*
X165351Y201068D01*
X187387Y179032D01*
X187635Y178866D01*
X187927Y178808D01*
X258898D01*
X259343Y178673D01*
X259343Y178308D01*
Y175408D01*
X245699Y161765D01*
X232425D01*
X232423Y161783D01*
X232120Y162513D01*
X231640Y163140D01*
X231013Y163620D01*
X230283Y163923D01*
X229500Y164026D01*
X228717Y163923D01*
X227987Y163620D01*
X227360Y163140D01*
X226880Y162513D01*
X226577Y161783D01*
X226575Y161765D01*
X164706D01*
X164700Y161790D01*
X164242Y162476D01*
X163556Y162935D01*
X162746Y163096D01*
X161937Y162935D01*
X161250Y162476D01*
X160792Y161790D01*
X160787Y161765D01*
X152492D01*
X152199Y161706D01*
X151951Y161541D01*
X151951Y161541D01*
X150076Y159665D01*
X144843D01*
Y157765D01*
X129061D01*
X125307Y161519D01*
Y166161D01*
X118402D01*
Y160437D01*
X124226D01*
X128203Y156459D01*
X128452Y156293D01*
X128744Y156235D01*
X144843D01*
Y154654D01*
X144843Y154335D01*
Y153962D01*
X144598Y153563D01*
X144343Y153563D01*
X141396D01*
Y150701D01*
Y147839D01*
X144598D01*
Y148424D01*
X144843Y148823D01*
X145098Y148823D01*
X147750D01*
Y151488D01*
X148000D01*
Y151738D01*
X151157D01*
Y153835D01*
X151157Y154154D01*
X151157Y154654D01*
Y158584D01*
X152809Y160235D01*
X160779D01*
X160792Y160171D01*
X161250Y159485D01*
X161937Y159026D01*
X162746Y158865D01*
X163556Y159026D01*
X164242Y159485D01*
X164700Y160171D01*
X164713Y160235D01*
X226575D01*
X226577Y160217D01*
X226880Y159487D01*
X227360Y158860D01*
X227987Y158379D01*
X228717Y158077D01*
X229500Y157974D01*
X230283Y158077D01*
X231013Y158379D01*
X231640Y158860D01*
X232120Y159487D01*
X232423Y160217D01*
X232425Y160235D01*
X246016D01*
X246308Y160293D01*
X246556Y160459D01*
X260424Y174327D01*
X265657D01*
Y175735D01*
X271342D01*
Y174327D01*
X277658D01*
Y175735D01*
X282842D01*
Y174327D01*
X289158D01*
Y175735D01*
X293342D01*
Y175151D01*
X293328Y175077D01*
Y172909D01*
X291528Y171109D01*
X291000Y171214D01*
X290344Y171084D01*
X289788Y170712D01*
X289416Y170156D01*
X289286Y169500D01*
X289416Y168844D01*
X289788Y168288D01*
X290344Y167916D01*
X291000Y167786D01*
X291621Y167910D01*
X291651Y167887D01*
X291799Y167380D01*
X283041Y158623D01*
X267087D01*
X267069Y158759D01*
X266721Y159599D01*
X266167Y160321D01*
X265446Y160874D01*
X264606Y161222D01*
X263705Y161341D01*
X262804Y161222D01*
X261964Y160874D01*
X261242Y160321D01*
X260689Y159599D01*
X260341Y158759D01*
X260222Y157858D01*
X260321Y157108D01*
X259865Y156857D01*
X256935Y159787D01*
X257040Y160315D01*
X256910Y160970D01*
X256538Y161527D01*
X255982Y161898D01*
X255326Y162029D01*
X254670Y161898D01*
X254114Y161527D01*
X253743Y160970D01*
X253612Y160315D01*
X253743Y159659D01*
X254114Y159102D01*
X254670Y158731D01*
X255326Y158600D01*
X255854Y158705D01*
X260944Y153615D01*
X260944Y153615D01*
X261192Y153449D01*
X261485Y153391D01*
X261485Y153391D01*
X326155D01*
X326448Y153449D01*
X326696Y153615D01*
X333346Y160264D01*
X333722Y159934D01*
X333575Y159741D01*
X333227Y158901D01*
X333108Y158000D01*
X333227Y157099D01*
X333575Y156259D01*
X334128Y155537D01*
X334849Y154984D01*
X335689Y154636D01*
X336591Y154517D01*
X337492Y154636D01*
X338332Y154984D01*
X339053Y155537D01*
X339607Y156259D01*
X339954Y157099D01*
X340073Y158000D01*
X339954Y158901D01*
X339607Y159741D01*
X339053Y160462D01*
X338332Y161016D01*
X337492Y161364D01*
X336591Y161483D01*
X335689Y161364D01*
X334849Y161016D01*
X334657Y160868D01*
X334326Y161245D01*
X380371Y207290D01*
X380826Y207199D01*
X381636Y207360D01*
X382322Y207819D01*
X382781Y208505D01*
X382942Y209314D01*
X382781Y210124D01*
X382322Y210810D01*
X381636Y211269D01*
X380826Y211430D01*
X380016Y211269D01*
X379330Y210810D01*
X378872Y210124D01*
X378711Y209314D01*
X378872Y208505D01*
X379093Y208174D01*
X346619Y175701D01*
X346158Y175892D01*
Y178677D01*
X341412D01*
X341221Y179139D01*
X341302Y179220D01*
X341467Y179468D01*
X341526Y179761D01*
X341526Y179761D01*
Y180827D01*
X346158D01*
Y185173D01*
X343765D01*
Y190827D01*
X346158D01*
Y194659D01*
X354923D01*
X355216Y194717D01*
X355464Y194883D01*
X379948Y219367D01*
X380114Y219615D01*
X380172Y219908D01*
Y260655D01*
X380114Y260948D01*
X379948Y261196D01*
X378637Y262508D01*
X378721Y262617D01*
X379069Y263457D01*
X379087Y263594D01*
X397913D01*
X397931Y263457D01*
X398279Y262617D01*
X398833Y261896D01*
X399554Y261342D01*
X400394Y260994D01*
X401295Y260876D01*
X402197Y260994D01*
X403036Y261342D01*
X403758Y261896D01*
X404311Y262617D01*
X404659Y263457D01*
X404778Y264358D01*
X404659Y265260D01*
X404311Y266100D01*
X403758Y266821D01*
X403036Y267374D01*
X402197Y267722D01*
X401295Y267841D01*
X400394Y267722D01*
X399554Y267374D01*
X398833Y266821D01*
X398279Y266100D01*
X397931Y265260D01*
X397913Y265123D01*
X379087D01*
X379069Y265260D01*
X378721Y266100D01*
X378167Y266821D01*
X377446Y267374D01*
X376606Y267722D01*
X375705Y267841D01*
X374803Y267722D01*
X373963Y267374D01*
X373242Y266821D01*
X372689Y266100D01*
X372341Y265260D01*
X372222Y264358D01*
X372341Y263457D01*
X372689Y262617D01*
X373242Y261896D01*
X373963Y261342D01*
X374803Y260994D01*
X375705Y260876D01*
X376606Y260994D01*
X377446Y261342D01*
X377555Y261426D01*
X378643Y260339D01*
Y249262D01*
X378315Y249151D01*
X378143Y249123D01*
X377446Y249658D01*
X376606Y250006D01*
X375955Y250091D01*
Y246642D01*
Y243192D01*
X376606Y243278D01*
X377446Y243626D01*
X378143Y244161D01*
X378315Y244132D01*
X378643Y244021D01*
Y220224D01*
X354607Y196188D01*
X346976D01*
X346769Y196688D01*
X352689Y202608D01*
X352987Y202379D01*
X353717Y202077D01*
X354500Y201974D01*
X355283Y202077D01*
X356013Y202379D01*
X356640Y202860D01*
X357120Y203487D01*
X357423Y204217D01*
X357526Y205000D01*
X357423Y205783D01*
X357120Y206513D01*
X356640Y207140D01*
X356013Y207621D01*
X355283Y207923D01*
X354500Y208026D01*
X353717Y207923D01*
X352987Y207621D01*
X352360Y207140D01*
X351880Y206513D01*
X351577Y205783D01*
X351474Y205000D01*
X351577Y204217D01*
X351741Y203822D01*
X346619Y198701D01*
X346158Y198892D01*
Y201669D01*
X340924D01*
X339857Y202736D01*
Y210835D01*
X342250D01*
Y213500D01*
X342500D01*
Y213750D01*
X345657D01*
Y216165D01*
X345657Y216165D01*
Y216347D01*
X345657D01*
X345657Y216665D01*
Y221677D01*
X339342D01*
Y219777D01*
X337200D01*
X334509Y222468D01*
X334261Y222634D01*
X333968Y222692D01*
X331010D01*
X323605Y230097D01*
X323750Y230448D01*
Y234898D01*
Y239348D01*
X323605Y239698D01*
X327067Y243160D01*
X328303D01*
X328646Y242646D01*
X329267Y242231D01*
X330000Y242085D01*
X330733Y242231D01*
X331354Y242646D01*
X331769Y243267D01*
X331915Y244000D01*
X331769Y244733D01*
X331354Y245354D01*
X330733Y245769D01*
X330000Y245915D01*
X329267Y245769D01*
X328646Y245354D01*
X328231Y244733D01*
X328222Y244689D01*
X326750D01*
X326457Y244631D01*
X326209Y244465D01*
X320995Y239251D01*
X320128D01*
X320128Y239251D01*
X320054Y239236D01*
X319260D01*
X318797Y239736D01*
X318801Y239802D01*
X319049Y239967D01*
X321305Y242224D01*
X322000Y242085D01*
X322733Y242231D01*
X323354Y242646D01*
X323769Y243267D01*
X323915Y244000D01*
X323769Y244733D01*
X323354Y245354D01*
X322733Y245769D01*
X322000Y245915D01*
X321267Y245769D01*
X320646Y245354D01*
X320231Y244733D01*
X320085Y244000D01*
X320223Y243305D01*
X318156Y241238D01*
X318041Y241215D01*
X317793Y241049D01*
X315995Y239251D01*
X315128D01*
X315128Y239251D01*
X315054Y239236D01*
X312122D01*
Y230559D01*
X315054D01*
X315128Y230544D01*
X315128Y230544D01*
X315995D01*
X326152Y220386D01*
X326401Y220221D01*
X326693Y220163D01*
X327842D01*
Y217428D01*
X327052Y216637D01*
X326886Y216389D01*
X326828Y216096D01*
Y210212D01*
X326886Y209919D01*
X327052Y209671D01*
X330235Y206487D01*
Y201669D01*
X327842D01*
Y197837D01*
X322657D01*
Y201669D01*
X317424D01*
X316357Y202736D01*
Y210835D01*
X318750D01*
Y213500D01*
X319000D01*
Y213750D01*
X322158D01*
Y216165D01*
X322158Y216165D01*
Y216347D01*
X322158D01*
X322158Y216665D01*
Y221677D01*
X316924D01*
X309765Y228836D01*
Y230559D01*
X310878D01*
Y235952D01*
X310893Y236026D01*
X310893Y236026D01*
Y239811D01*
X313305Y242224D01*
X314000Y242085D01*
X314733Y242231D01*
X315354Y242646D01*
X315769Y243267D01*
X315915Y244000D01*
X315769Y244733D01*
X315354Y245354D01*
X314733Y245769D01*
X314000Y245915D01*
X313267Y245769D01*
X312646Y245354D01*
X312231Y244733D01*
X312085Y244000D01*
X312224Y243305D01*
X309587Y240669D01*
X309421Y240421D01*
X309363Y240128D01*
Y239236D01*
X307122D01*
Y230559D01*
X308235D01*
Y228520D01*
X308294Y228227D01*
X308459Y227979D01*
X315843Y220596D01*
Y217428D01*
X315052Y216637D01*
X314886Y216389D01*
X314828Y216096D01*
Y202419D01*
X314886Y202127D01*
X315052Y201878D01*
X316342Y200588D01*
Y197323D01*
X316697D01*
X316888Y196861D01*
X313792Y193765D01*
X311157D01*
Y195173D01*
X304842D01*
Y190827D01*
X307235D01*
Y185169D01*
X304842D01*
Y180823D01*
X311157D01*
Y185169D01*
X308765D01*
Y190827D01*
X311157D01*
Y192235D01*
X314109D01*
X314401Y192294D01*
X314649Y192459D01*
X315881Y193691D01*
X316342Y193499D01*
Y190827D01*
X318735D01*
Y185169D01*
X316342D01*
Y180823D01*
X320983D01*
X321175Y180361D01*
X320502Y179688D01*
X304423D01*
X304131Y179630D01*
X303883Y179464D01*
X300119Y175701D01*
X299658Y175892D01*
Y178673D01*
X293342D01*
Y177265D01*
X289158D01*
Y178673D01*
X288850D01*
X288650Y179173D01*
X291708Y182231D01*
X293342D01*
Y180823D01*
X299658D01*
Y185169D01*
X297265D01*
Y190827D01*
X299658D01*
Y195173D01*
X293342D01*
Y190827D01*
X295735D01*
Y185169D01*
X293342D01*
Y183761D01*
X291391D01*
X291099Y183703D01*
X290851Y183537D01*
X289619Y182306D01*
X289158Y182497D01*
Y185169D01*
X286265D01*
Y190827D01*
X288657D01*
Y195173D01*
X282343D01*
Y190827D01*
X284735D01*
Y185662D01*
X284577Y185184D01*
X282900D01*
X280795Y187289D01*
Y192861D01*
X280795Y192861D01*
X280737Y193154D01*
X280571Y193402D01*
X280571Y193402D01*
X277112Y196861D01*
X277303Y197323D01*
X277658D01*
Y201669D01*
X272424D01*
X270857Y203236D01*
Y210835D01*
X273250D01*
Y213500D01*
X273500D01*
Y213750D01*
X276658D01*
Y216165D01*
X276658Y216165D01*
Y216347D01*
X276658D01*
X276658Y216665D01*
Y220196D01*
X276783Y220221D01*
X277031Y220386D01*
X287189Y230544D01*
X287872D01*
X287946Y230559D01*
X290878D01*
Y239236D01*
X287946D01*
X287872Y239251D01*
X287005D01*
X285207Y241049D01*
X284959Y241215D01*
X284667Y241273D01*
X283809D01*
X281776Y243305D01*
X281915Y244000D01*
X281769Y244733D01*
X281354Y245354D01*
X280733Y245769D01*
X280000Y245915D01*
X279267Y245769D01*
X278646Y245354D01*
X278231Y244733D01*
X278085Y244000D01*
X278231Y243267D01*
X278646Y242646D01*
X279267Y242231D01*
X280000Y242085D01*
X280695Y242224D01*
X282951Y239967D01*
X283199Y239802D01*
X283492Y239743D01*
X283873D01*
X283878Y239736D01*
X283610Y239236D01*
X282946D01*
X282872Y239251D01*
X282005D01*
X279965Y241291D01*
X279717Y241457D01*
X279425Y241515D01*
X274067D01*
X272276Y243305D01*
X272415Y244000D01*
X272269Y244733D01*
X271854Y245354D01*
X271233Y245769D01*
X270500Y245915D01*
X269767Y245769D01*
X269146Y245354D01*
X268731Y244733D01*
X268585Y244000D01*
X268731Y243267D01*
X269146Y242646D01*
X269767Y242231D01*
X270500Y242085D01*
X271195Y242224D01*
X273209Y240209D01*
X273209Y240209D01*
X273457Y240043D01*
X273750Y239985D01*
X279029D01*
X279239Y239721D01*
X279024Y239236D01*
X277122D01*
Y235148D01*
X279000D01*
Y234898D01*
X279250D01*
Y230448D01*
X279395Y230097D01*
X275849Y226551D01*
X269522D01*
X269522Y226551D01*
X269230Y226493D01*
X268981Y226327D01*
X264076Y221421D01*
X258842D01*
Y217172D01*
X258052Y216381D01*
X257886Y216133D01*
X257828Y215841D01*
Y202419D01*
X257886Y202127D01*
X258052Y201878D01*
X259343Y200588D01*
Y197837D01*
X255744D01*
X206432Y247149D01*
X206516Y247259D01*
X206864Y248099D01*
X206882Y248235D01*
X225709D01*
X225727Y248099D01*
X226075Y247259D01*
X226628Y246537D01*
X227349Y245984D01*
X228189Y245636D01*
X229091Y245517D01*
X229992Y245636D01*
X230832Y245984D01*
X231553Y246537D01*
X232107Y247259D01*
X232454Y248099D01*
X232573Y249000D01*
X232454Y249901D01*
X232107Y250741D01*
X231553Y251463D01*
X230832Y252016D01*
X229992Y252364D01*
X229091Y252483D01*
X228189Y252364D01*
X227349Y252016D01*
X226628Y251463D01*
X226075Y250741D01*
X225727Y249901D01*
X225709Y249765D01*
X206882D01*
X206864Y249901D01*
X206516Y250741D01*
X205962Y251463D01*
X205241Y252016D01*
X204401Y252364D01*
X203500Y252483D01*
X202599Y252364D01*
X201759Y252016D01*
X201038Y251463D01*
X200484Y250741D01*
X200136Y249901D01*
X200022Y249031D01*
X199880Y248928D01*
X199569Y248776D01*
X163970Y284376D01*
Y288476D01*
X164106Y288494D01*
X164946Y288842D01*
X165667Y289396D01*
X166221Y290117D01*
X166569Y290957D01*
X166587Y291093D01*
X185413D01*
X185431Y290957D01*
X185779Y290117D01*
X186333Y289396D01*
X187054Y288842D01*
X187894Y288494D01*
X188795Y288376D01*
X189697Y288494D01*
X190536Y288842D01*
X191258Y289396D01*
X191811Y290117D01*
X192159Y290957D01*
X192278Y291858D01*
X192159Y292759D01*
X191811Y293600D01*
X191258Y294321D01*
X190536Y294874D01*
X189697Y295222D01*
X188795Y295341D01*
X187894Y295222D01*
X187054Y294874D01*
X186333Y294321D01*
X185779Y293600D01*
X185431Y292759D01*
X185413Y292623D01*
X166587D01*
X166569Y292759D01*
X166221Y293600D01*
X165667Y294321D01*
X164946Y294874D01*
X164106Y295222D01*
X163205Y295341D01*
X162303Y295222D01*
X161463Y294874D01*
X160742Y294321D01*
X160189Y293600D01*
X159841Y292759D01*
X159722Y291858D01*
X159841Y290957D01*
X160189Y290117D01*
X160742Y289396D01*
X161463Y288842D01*
X162303Y288494D01*
X162440Y288476D01*
Y284059D01*
X162498Y283766D01*
X162664Y283518D01*
X259328Y186854D01*
Y184419D01*
X259343Y184345D01*
Y181337D01*
X189882D01*
X188866Y182353D01*
X189019Y182663D01*
X189121Y182805D01*
X189992Y182920D01*
X190832Y183267D01*
X191553Y183821D01*
X192107Y184542D01*
X192455Y185382D01*
X192540Y186033D01*
X189091D01*
Y186283D01*
X188841D01*
Y189733D01*
X188189Y189647D01*
X187349Y189299D01*
X186628Y188746D01*
X186075Y188025D01*
X185727Y187185D01*
X185612Y186314D01*
X185470Y186212D01*
X185160Y186059D01*
X167967Y203252D01*
Y205534D01*
X167909Y205826D01*
X167744Y206074D01*
X126529Y247289D01*
X126864Y248099D01*
X126882Y248235D01*
X145709D01*
X145727Y248099D01*
X146075Y247259D01*
X146628Y246537D01*
X147349Y245984D01*
X148189Y245636D01*
X149091Y245517D01*
X149992Y245636D01*
X150832Y245984D01*
X151553Y246537D01*
X152107Y247259D01*
X152454Y248099D01*
X152573Y249000D01*
X152454Y249901D01*
X152107Y250741D01*
X151553Y251463D01*
X150832Y252016D01*
X149992Y252364D01*
X149091Y252483D01*
X148189Y252364D01*
X147349Y252016D01*
X146628Y251463D01*
X146075Y250741D01*
X145727Y249901D01*
X145709Y249765D01*
X126882D01*
X126864Y249901D01*
X126516Y250741D01*
X125962Y251463D01*
X125241Y252016D01*
X124401Y252364D01*
X123500Y252483D01*
X122599Y252364D01*
X121759Y252016D01*
X121062Y251481D01*
X120889Y251509D01*
X120562Y251621D01*
Y295339D01*
X125807D01*
Y301063D01*
D02*
G37*
G36*
X189045Y277591D02*
Y274392D01*
X192245D01*
X192159Y275043D01*
X191811Y275883D01*
X191258Y276604D01*
X190536Y277158D01*
X189697Y277506D01*
X189045Y277591D01*
D02*
G37*
G36*
X163455D02*
Y274392D01*
X166654D01*
X166569Y275043D01*
X166221Y275883D01*
X165667Y276604D01*
X164946Y277158D01*
X164106Y277506D01*
X163455Y277591D01*
D02*
G37*
G36*
X188545D02*
X187894Y277506D01*
X187054Y277158D01*
X186333Y276604D01*
X185779Y275883D01*
X185431Y275043D01*
X185346Y274392D01*
X188545D01*
Y277591D01*
D02*
G37*
G36*
X162955D02*
X162303Y277506D01*
X161463Y277158D01*
X160742Y276604D01*
X160189Y275883D01*
X159841Y275043D01*
X159755Y274392D01*
X162955D01*
Y277591D01*
D02*
G37*
G36*
X278246Y297596D02*
X277437Y297435D01*
X276750Y296976D01*
X276292Y296290D01*
X276131Y295480D01*
X276292Y294671D01*
X276750Y293985D01*
X277437Y293526D01*
X277481Y293517D01*
Y276441D01*
X277122D01*
Y272867D01*
X261099D01*
X260979Y272958D01*
X260721Y273276D01*
X260862Y273980D01*
X260701Y274790D01*
X260242Y275476D01*
X259556Y275935D01*
X258746Y276096D01*
X257937Y275935D01*
X257250Y275476D01*
X256792Y274790D01*
X256631Y273980D01*
X256792Y273171D01*
X257250Y272484D01*
X257937Y272026D01*
X258746Y271865D01*
X259556Y272026D01*
X259594Y272051D01*
X260083Y271562D01*
X260083Y271562D01*
X260331Y271396D01*
X260624Y271338D01*
X277122D01*
Y267764D01*
X280878D01*
Y276441D01*
X279011D01*
Y293517D01*
X279056Y293526D01*
X279742Y293985D01*
X280201Y294671D01*
X280362Y295480D01*
X280201Y296290D01*
X279742Y296976D01*
X279056Y297435D01*
X278246Y297596D01*
D02*
G37*
G36*
X283750Y276441D02*
X282122D01*
Y272352D01*
X283750D01*
Y276441D01*
D02*
G37*
G36*
X192245Y273892D02*
X189045D01*
Y270692D01*
X189697Y270778D01*
X190536Y271126D01*
X191258Y271679D01*
X191811Y272400D01*
X192159Y273240D01*
X192245Y273892D01*
D02*
G37*
G36*
X166654D02*
X163455D01*
Y270692D01*
X164106Y270778D01*
X164946Y271126D01*
X165667Y271679D01*
X166221Y272400D01*
X166569Y273240D01*
X166654Y273892D01*
D02*
G37*
G36*
X188545D02*
X185346D01*
X185431Y273240D01*
X185779Y272400D01*
X186333Y271679D01*
X187054Y271126D01*
X187894Y270778D01*
X188545Y270692D01*
Y273892D01*
D02*
G37*
G36*
X162955D02*
X159755D01*
X159841Y273240D01*
X160189Y272400D01*
X160742Y271679D01*
X161463Y271126D01*
X162303Y270778D01*
X162955Y270692D01*
Y273892D01*
D02*
G37*
G36*
X325878Y276441D02*
X322122D01*
Y268308D01*
X321622Y268101D01*
X320878Y268845D01*
Y276441D01*
X317122D01*
Y267764D01*
X319796D01*
X321235Y266325D01*
Y262248D01*
X320646Y261854D01*
X320231Y261233D01*
X320085Y260500D01*
X320231Y259767D01*
X320646Y259146D01*
X321267Y258731D01*
X322000Y258585D01*
X322733Y258731D01*
X323354Y259146D01*
X323769Y259767D01*
X323915Y260500D01*
X323769Y261233D01*
X323354Y261854D01*
X322765Y262248D01*
Y266298D01*
X322765Y266303D01*
X323265Y266352D01*
X323267Y266339D01*
X323293Y266207D01*
X323459Y265959D01*
X328223Y261195D01*
X328085Y260500D01*
X328231Y259767D01*
X328646Y259146D01*
X329267Y258731D01*
X330000Y258585D01*
X330733Y258731D01*
X331354Y259146D01*
X331769Y259767D01*
X331915Y260500D01*
X331769Y261233D01*
X331354Y261854D01*
X330733Y262269D01*
X330000Y262415D01*
X329305Y262277D01*
X324765Y266817D01*
Y267764D01*
X325878D01*
Y276441D01*
D02*
G37*
G36*
X310878D02*
X307122D01*
Y268845D01*
X306378Y268101D01*
X305878Y268308D01*
Y276441D01*
X302122D01*
Y268845D01*
X301378Y268101D01*
X300878Y268308D01*
Y276441D01*
X297122D01*
Y269279D01*
X296689D01*
X296396Y269220D01*
X296378Y269208D01*
X295878Y269476D01*
Y276441D01*
X292122D01*
Y269279D01*
X291689D01*
X291396Y269220D01*
X291378Y269208D01*
X290878Y269476D01*
Y276441D01*
X287122D01*
Y272867D01*
X286872D01*
X286579Y272809D01*
X286378Y272674D01*
X286082Y272746D01*
X285878Y272831D01*
Y276441D01*
X284250D01*
Y272102D01*
Y267653D01*
X284395Y267302D01*
X282591Y265498D01*
X275733D01*
X275733Y265498D01*
X275441Y265440D01*
X275192Y265274D01*
X272195Y262277D01*
X271500Y262415D01*
X270767Y262269D01*
X270146Y261854D01*
X269731Y261233D01*
X269585Y260500D01*
X269731Y259767D01*
X270146Y259146D01*
X270767Y258731D01*
X271500Y258585D01*
X272233Y258731D01*
X272854Y259146D01*
X273269Y259767D01*
X273415Y260500D01*
X273276Y261195D01*
X276050Y263969D01*
X282908D01*
X283201Y264027D01*
X283449Y264193D01*
X286739Y267482D01*
X287122Y267764D01*
X289204D01*
X289395Y267302D01*
X283433Y261340D01*
X281863D01*
X281854Y261354D01*
X281233Y261769D01*
X280500Y261915D01*
X279767Y261769D01*
X279146Y261354D01*
X278731Y260733D01*
X278585Y260000D01*
X278731Y259267D01*
X279146Y258646D01*
X279767Y258231D01*
X280500Y258085D01*
X281233Y258231D01*
X281854Y258646D01*
X282269Y259267D01*
X282377Y259810D01*
X283750D01*
X284043Y259869D01*
X284291Y260034D01*
X292005Y267749D01*
X292872D01*
X292946Y267764D01*
X294204D01*
X294395Y267302D01*
X293065Y265971D01*
X292949Y265948D01*
X292701Y265782D01*
X289195Y262277D01*
X288500Y262415D01*
X287767Y262269D01*
X287146Y261854D01*
X286731Y261233D01*
X286585Y260500D01*
X286731Y259767D01*
X287146Y259146D01*
X287767Y258731D01*
X288500Y258585D01*
X289233Y258731D01*
X289854Y259146D01*
X290269Y259767D01*
X290415Y260500D01*
X290277Y261195D01*
X293594Y264512D01*
X293709Y264535D01*
X293957Y264701D01*
X297005Y267749D01*
X297872D01*
X297946Y267764D01*
X300333D01*
X300541Y267264D01*
X297320Y264043D01*
X297155Y263795D01*
X297096Y263503D01*
Y262494D01*
X297000Y262415D01*
X296267Y262269D01*
X295646Y261854D01*
X295231Y261233D01*
X295085Y260500D01*
X295231Y259767D01*
X295646Y259146D01*
X296267Y258731D01*
X297000Y258585D01*
X297733Y258731D01*
X298354Y259146D01*
X298769Y259767D01*
X298915Y260500D01*
X298769Y261233D01*
X298626Y261447D01*
Y263186D01*
X303204Y267764D01*
X305333D01*
X305541Y267264D01*
X304459Y266182D01*
X304293Y265934D01*
X304235Y265642D01*
Y262248D01*
X303646Y261854D01*
X303231Y261233D01*
X303085Y260500D01*
X303231Y259767D01*
X303646Y259146D01*
X304267Y258731D01*
X305000Y258585D01*
X305733Y258731D01*
X306354Y259146D01*
X306769Y259767D01*
X306915Y260500D01*
X306769Y261233D01*
X306354Y261854D01*
X305765Y262248D01*
Y265325D01*
X308204Y267764D01*
X310878D01*
Y276441D01*
D02*
G37*
G36*
X283750Y271852D02*
X282122D01*
Y267764D01*
X283750D01*
Y271852D01*
D02*
G37*
G36*
X315878Y276441D02*
X312122D01*
Y267764D01*
X313235D01*
Y262248D01*
X312646Y261854D01*
X312231Y261233D01*
X312085Y260500D01*
X312231Y259767D01*
X312646Y259146D01*
X313267Y258731D01*
X314000Y258585D01*
X314733Y258731D01*
X315354Y259146D01*
X315769Y259767D01*
X315915Y260500D01*
X315769Y261233D01*
X315354Y261854D01*
X314765Y262248D01*
Y267764D01*
X315878D01*
Y276441D01*
D02*
G37*
G36*
X401545Y250091D02*
Y246892D01*
X404745D01*
X404659Y247543D01*
X404311Y248383D01*
X403758Y249104D01*
X403036Y249658D01*
X402197Y250006D01*
X401545Y250091D01*
D02*
G37*
G36*
X401045D02*
X400394Y250006D01*
X399554Y249658D01*
X398833Y249104D01*
X398279Y248383D01*
X397931Y247543D01*
X397846Y246892D01*
X401045D01*
Y250091D01*
D02*
G37*
G36*
X375455D02*
X374803Y250006D01*
X373963Y249658D01*
X373242Y249104D01*
X372689Y248383D01*
X372341Y247543D01*
X372255Y246892D01*
X375455D01*
Y250091D01*
D02*
G37*
G36*
X404745Y246392D02*
X401545D01*
Y243192D01*
X402197Y243278D01*
X403036Y243626D01*
X403758Y244179D01*
X404311Y244900D01*
X404659Y245741D01*
X404745Y246392D01*
D02*
G37*
G36*
X401045D02*
X397846D01*
X397931Y245741D01*
X398279Y244900D01*
X398833Y244179D01*
X399554Y243626D01*
X400394Y243278D01*
X401045Y243192D01*
Y246392D01*
D02*
G37*
G36*
X375455D02*
X372255D01*
X372341Y245741D01*
X372689Y244900D01*
X373242Y244179D01*
X373963Y243626D01*
X374803Y243278D01*
X375455Y243192D01*
Y246392D01*
D02*
G37*
G36*
X325878Y239236D02*
X324250D01*
Y235148D01*
X325878D01*
Y239236D01*
D02*
G37*
G36*
X453795Y235341D02*
X452894Y235222D01*
X452054Y234874D01*
X451333Y234321D01*
X450779Y233599D01*
X450431Y232759D01*
X450413Y232623D01*
X431587D01*
X431569Y232759D01*
X431221Y233599D01*
X430667Y234321D01*
X429946Y234874D01*
X429106Y235222D01*
X428205Y235341D01*
X427303Y235222D01*
X426464Y234874D01*
X425742Y234321D01*
X425189Y233599D01*
X424841Y232759D01*
X424722Y231858D01*
X424841Y230957D01*
X425189Y230117D01*
X425742Y229396D01*
X426464Y228842D01*
X427303Y228494D01*
X428205Y228376D01*
X429106Y228494D01*
X429946Y228842D01*
X430667Y229396D01*
X431221Y230117D01*
X431569Y230957D01*
X431587Y231094D01*
X450413D01*
X450431Y230957D01*
X450779Y230117D01*
X451333Y229396D01*
X452054Y228842D01*
X452894Y228494D01*
X453795Y228376D01*
X454697Y228494D01*
X455537Y228842D01*
X456258Y229396D01*
X456811Y230117D01*
X457159Y230957D01*
X457278Y231858D01*
X457159Y232759D01*
X456811Y233599D01*
X456258Y234321D01*
X455537Y234874D01*
X454697Y235222D01*
X453795Y235341D01*
D02*
G37*
G36*
X149341Y234733D02*
Y231533D01*
X152540D01*
X152454Y232185D01*
X152107Y233025D01*
X151553Y233746D01*
X150832Y234299D01*
X149992Y234647D01*
X149341Y234733D01*
D02*
G37*
G36*
X123750D02*
Y231533D01*
X126950D01*
X126864Y232185D01*
X126516Y233025D01*
X125962Y233746D01*
X125241Y234299D01*
X124401Y234647D01*
X123750Y234733D01*
D02*
G37*
G36*
X229341D02*
Y231533D01*
X232540D01*
X232454Y232185D01*
X232107Y233025D01*
X231553Y233746D01*
X230832Y234299D01*
X229992Y234647D01*
X229341Y234733D01*
D02*
G37*
G36*
X203750D02*
Y231533D01*
X206950D01*
X206864Y232185D01*
X206516Y233025D01*
X205962Y233746D01*
X205241Y234299D01*
X204401Y234647D01*
X203750Y234733D01*
D02*
G37*
G36*
X148841D02*
X148189Y234647D01*
X147349Y234299D01*
X146628Y233746D01*
X146075Y233025D01*
X145727Y232185D01*
X145641Y231533D01*
X148841D01*
Y234733D01*
D02*
G37*
G36*
X228841D02*
X228189Y234647D01*
X227349Y234299D01*
X226628Y233746D01*
X226075Y233025D01*
X225727Y232185D01*
X225641Y231533D01*
X228841D01*
Y234733D01*
D02*
G37*
G36*
X123250D02*
X122599Y234647D01*
X121759Y234299D01*
X121037Y233746D01*
X120484Y233025D01*
X120136Y232185D01*
X120050Y231533D01*
X123250D01*
Y234733D01*
D02*
G37*
G36*
X203250D02*
X202599Y234647D01*
X201759Y234299D01*
X201038Y233746D01*
X200484Y233025D01*
X200136Y232185D01*
X200050Y231533D01*
X203250D01*
Y234733D01*
D02*
G37*
G36*
X325878Y234648D02*
X324250D01*
Y230559D01*
X325878D01*
Y234648D01*
D02*
G37*
G36*
X278750D02*
X277122D01*
Y230559D01*
X278750D01*
Y234648D01*
D02*
G37*
G36*
X232540Y231033D02*
X229341D01*
Y227834D01*
X229992Y227920D01*
X230832Y228267D01*
X231553Y228821D01*
X232107Y229542D01*
X232454Y230382D01*
X232540Y231033D01*
D02*
G37*
G36*
X206950D02*
X203750D01*
Y227834D01*
X204401Y227920D01*
X205241Y228267D01*
X205962Y228821D01*
X206516Y229542D01*
X206864Y230382D01*
X206950Y231033D01*
D02*
G37*
G36*
X152540D02*
X149341D01*
Y227834D01*
X149992Y227920D01*
X150832Y228267D01*
X151553Y228821D01*
X152107Y229542D01*
X152454Y230382D01*
X152540Y231033D01*
D02*
G37*
G36*
X126950D02*
X123750D01*
Y227834D01*
X124401Y227920D01*
X125241Y228267D01*
X125962Y228821D01*
X126516Y229542D01*
X126864Y230382D01*
X126950Y231033D01*
D02*
G37*
G36*
X228841D02*
X225641D01*
X225727Y230382D01*
X226075Y229542D01*
X226628Y228821D01*
X227349Y228267D01*
X228189Y227920D01*
X228841Y227834D01*
Y231033D01*
D02*
G37*
G36*
X203250D02*
X200050D01*
X200136Y230382D01*
X200484Y229542D01*
X201038Y228821D01*
X201759Y228267D01*
X202599Y227920D01*
X203250Y227834D01*
Y231033D01*
D02*
G37*
G36*
X148841D02*
X145641D01*
X145727Y230382D01*
X146075Y229542D01*
X146628Y228821D01*
X147349Y228267D01*
X148189Y227920D01*
X148841Y227834D01*
Y231033D01*
D02*
G37*
G36*
X123250D02*
X120050D01*
X120136Y230382D01*
X120484Y229542D01*
X121037Y228821D01*
X121759Y228267D01*
X122599Y227920D01*
X123250Y227834D01*
Y231033D01*
D02*
G37*
G36*
X253500Y263714D02*
X252844Y263584D01*
X252288Y263212D01*
X251917Y262656D01*
X251786Y262000D01*
X251917Y261344D01*
X252288Y260788D01*
X252735Y260490D01*
Y222087D01*
X252288Y221788D01*
X251916Y221232D01*
X251786Y220576D01*
X251916Y219920D01*
X252288Y219364D01*
X252844Y218993D01*
X253500Y218862D01*
X254156Y218993D01*
X254712Y219364D01*
X255084Y219920D01*
X255214Y220576D01*
X255084Y221232D01*
X254712Y221788D01*
X254265Y222087D01*
Y260489D01*
X254712Y260788D01*
X255084Y261344D01*
X255214Y262000D01*
X255084Y262656D01*
X254712Y263212D01*
X254156Y263584D01*
X253500Y263714D01*
D02*
G37*
G36*
X454045Y217591D02*
Y214392D01*
X457245D01*
X457159Y215043D01*
X456811Y215883D01*
X456258Y216604D01*
X455537Y217158D01*
X454697Y217506D01*
X454045Y217591D01*
D02*
G37*
G36*
X428455D02*
Y214392D01*
X431654D01*
X431569Y215043D01*
X431221Y215883D01*
X430667Y216604D01*
X429946Y217158D01*
X429106Y217506D01*
X428455Y217591D01*
D02*
G37*
G36*
X453545D02*
X452894Y217506D01*
X452054Y217158D01*
X451333Y216604D01*
X450779Y215883D01*
X450431Y215043D01*
X450346Y214392D01*
X453545D01*
Y217591D01*
D02*
G37*
G36*
X427955D02*
X427303Y217506D01*
X426464Y217158D01*
X425742Y216604D01*
X425189Y215883D01*
X424841Y215043D01*
X424755Y214392D01*
X427955D01*
Y217591D01*
D02*
G37*
G36*
X345657Y213250D02*
X342750D01*
Y210835D01*
X345657D01*
Y213250D01*
D02*
G37*
G36*
X322158D02*
X319250D01*
Y210835D01*
X322158D01*
Y213250D01*
D02*
G37*
G36*
X311157D02*
X308250D01*
Y210835D01*
X311157D01*
Y213250D01*
D02*
G37*
G36*
X299658D02*
X296750D01*
Y210835D01*
X299658D01*
Y213250D01*
D02*
G37*
G36*
X288158D02*
X285250D01*
Y210835D01*
X288158D01*
Y213250D01*
D02*
G37*
G36*
X276658D02*
X273750D01*
Y210835D01*
X276658D01*
Y213250D01*
D02*
G37*
G36*
X457245Y213892D02*
X454045D01*
Y210692D01*
X454697Y210778D01*
X455537Y211126D01*
X456258Y211679D01*
X456811Y212401D01*
X457159Y213241D01*
X457245Y213892D01*
D02*
G37*
G36*
X431654D02*
X428455D01*
Y210692D01*
X429106Y210778D01*
X429946Y211126D01*
X430667Y211679D01*
X431221Y212401D01*
X431569Y213241D01*
X431654Y213892D01*
D02*
G37*
G36*
X453545D02*
X450346D01*
X450431Y213241D01*
X450779Y212401D01*
X451333Y211679D01*
X452054Y211126D01*
X452894Y210778D01*
X453545Y210692D01*
Y213892D01*
D02*
G37*
G36*
X427955D02*
X424755D01*
X424841Y213241D01*
X425189Y212401D01*
X425742Y211679D01*
X426464Y211126D01*
X427303Y210778D01*
X427955Y210692D01*
Y213892D01*
D02*
G37*
G36*
X189091Y207483D02*
X188189Y207364D01*
X187349Y207016D01*
X186628Y206463D01*
X186075Y205741D01*
X185727Y204901D01*
X185608Y204000D01*
X185727Y203099D01*
X186075Y202259D01*
X186628Y201537D01*
X187349Y200984D01*
X188189Y200636D01*
X189091Y200518D01*
X189992Y200636D01*
X190832Y200984D01*
X191553Y201537D01*
X192107Y202259D01*
X192455Y203099D01*
X192573Y204000D01*
X192455Y204901D01*
X192107Y205741D01*
X191553Y206463D01*
X190832Y207016D01*
X189992Y207364D01*
X189091Y207483D01*
D02*
G37*
G36*
X302500Y245415D02*
X301767Y245269D01*
X301146Y244854D01*
X300731Y244233D01*
X300585Y243500D01*
X300731Y242767D01*
X301146Y242146D01*
X301767Y241731D01*
X302500Y241585D01*
X302735Y241632D01*
X303235Y241222D01*
Y239236D01*
X302122D01*
Y230559D01*
X303235D01*
Y222520D01*
X303293Y222227D01*
X303459Y221979D01*
X304842Y220596D01*
Y217428D01*
X304052Y216637D01*
X303886Y216389D01*
X303828Y216096D01*
Y210212D01*
X303886Y209919D01*
X304052Y209671D01*
X307235Y206487D01*
Y201669D01*
X304842D01*
Y197323D01*
X311157D01*
Y201669D01*
X308765D01*
Y206804D01*
X308706Y207097D01*
X308541Y207345D01*
X308541Y207345D01*
X305551Y210335D01*
X305758Y210835D01*
X307750D01*
Y213500D01*
X308000D01*
Y213750D01*
X311157D01*
Y216165D01*
X311157Y216165D01*
Y216347D01*
X311157D01*
X311157Y216665D01*
Y221677D01*
X305924D01*
X304765Y222836D01*
Y230559D01*
X305878D01*
Y239236D01*
X304765D01*
Y241991D01*
X304707Y242283D01*
X304541Y242531D01*
X304275Y242797D01*
X304415Y243500D01*
X304269Y244233D01*
X303854Y244854D01*
X303233Y245269D01*
X302500Y245415D01*
D02*
G37*
G36*
X295239Y245654D02*
X294506Y245508D01*
X293885Y245093D01*
X293470Y244472D01*
X293324Y243739D01*
X293470Y243006D01*
X293885Y242385D01*
X294506Y241970D01*
X295239Y241824D01*
X295972Y241970D01*
X296593Y242385D01*
X296717Y242397D01*
X297575Y241540D01*
X297823Y241374D01*
X297828Y241373D01*
X298235Y240966D01*
Y239236D01*
X297122D01*
Y230559D01*
X298235D01*
Y221677D01*
X293342D01*
Y217428D01*
X292552Y216637D01*
X292386Y216389D01*
X292328Y216096D01*
Y210212D01*
X292386Y209919D01*
X292552Y209671D01*
X295735Y206487D01*
Y201669D01*
X293342D01*
Y197323D01*
X299658D01*
Y201669D01*
X297265D01*
Y206804D01*
X297206Y207097D01*
X297041Y207345D01*
X297041Y207345D01*
X294051Y210335D01*
X294258Y210835D01*
X296250D01*
Y213500D01*
X296500D01*
Y213750D01*
X299658D01*
Y216165D01*
X299658Y216165D01*
Y216347D01*
X299658D01*
X299658Y216665D01*
Y220654D01*
X299707Y220727D01*
X299765Y221020D01*
Y230559D01*
X300878D01*
Y239236D01*
X299765D01*
Y241282D01*
X299765Y241282D01*
X299707Y241575D01*
X299541Y241823D01*
X299541Y241823D01*
X298743Y242621D01*
X298495Y242787D01*
X298490Y242788D01*
X297059Y244219D01*
X297008Y244472D01*
X296593Y245093D01*
X295972Y245508D01*
X295239Y245654D01*
D02*
G37*
G36*
X288500Y245915D02*
X287767Y245769D01*
X287146Y245354D01*
X286731Y244733D01*
X286585Y244000D01*
X286731Y243267D01*
X287146Y242646D01*
X287767Y242231D01*
X288500Y242085D01*
X289195Y242224D01*
X292107Y239311D01*
Y236026D01*
X292122Y235952D01*
Y230559D01*
X293235D01*
Y227836D01*
X287076Y221677D01*
X281842D01*
Y217428D01*
X281052Y216637D01*
X280886Y216389D01*
X280828Y216096D01*
Y202419D01*
X280886Y202127D01*
X281052Y201878D01*
X282343Y200588D01*
Y197323D01*
X288657D01*
Y201669D01*
X283424D01*
X282357Y202736D01*
Y210835D01*
X284750D01*
Y213500D01*
X285000D01*
Y213750D01*
X288158D01*
Y216165D01*
X288158Y216165D01*
Y216347D01*
X288158D01*
X288158Y216665D01*
Y220596D01*
X294541Y226979D01*
X294707Y227227D01*
X294765Y227520D01*
Y230559D01*
X295878D01*
Y239236D01*
X293637D01*
Y239628D01*
X293579Y239921D01*
X293413Y240169D01*
X290277Y243305D01*
X290415Y244000D01*
X290269Y244733D01*
X289854Y245354D01*
X289233Y245769D01*
X288500Y245915D01*
D02*
G37*
G36*
X163750Y189733D02*
Y186533D01*
X166950D01*
X166864Y187185D01*
X166516Y188025D01*
X165963Y188746D01*
X165241Y189299D01*
X164401Y189647D01*
X163750Y189733D01*
D02*
G37*
G36*
X189341D02*
Y186533D01*
X192540D01*
X192455Y187185D01*
X192107Y188025D01*
X191553Y188746D01*
X190832Y189299D01*
X189992Y189647D01*
X189341Y189733D01*
D02*
G37*
G36*
X163250D02*
X162599Y189647D01*
X161759Y189299D01*
X161038Y188746D01*
X160484Y188025D01*
X160136Y187185D01*
X160050Y186533D01*
X163250D01*
Y189733D01*
D02*
G37*
G36*
X166950Y186033D02*
X163750D01*
Y182834D01*
X164401Y182920D01*
X165241Y183267D01*
X165963Y183821D01*
X166516Y184542D01*
X166864Y185382D01*
X166950Y186033D01*
D02*
G37*
G36*
X163250D02*
X160050D01*
X160136Y185382D01*
X160484Y184542D01*
X161038Y183821D01*
X161759Y183267D01*
X162599Y182920D01*
X163250Y182834D01*
Y186033D01*
D02*
G37*
G36*
X458246Y177096D02*
X457437Y176935D01*
X456750Y176476D01*
X456292Y175790D01*
X456283Y175745D01*
X448626D01*
X448333Y175687D01*
X448085Y175521D01*
X448085Y175521D01*
X441226Y168661D01*
X435402D01*
Y164452D01*
X434179D01*
X433886Y164393D01*
X433638Y164228D01*
X432576Y163165D01*
X427343D01*
Y161265D01*
X426500D01*
X426207Y161206D01*
X425959Y161041D01*
X425959Y161041D01*
X424848Y159929D01*
X424810Y159954D01*
X424000Y160116D01*
X423190Y159954D01*
X422504Y159496D01*
X422046Y158809D01*
X421885Y158000D01*
X422046Y157191D01*
X422504Y156504D01*
X423190Y156046D01*
X424000Y155885D01*
X424810Y156046D01*
X425496Y156504D01*
X425954Y157191D01*
X426115Y158000D01*
X425954Y158809D01*
X425929Y158848D01*
X426817Y159735D01*
X427343D01*
Y158154D01*
X427343Y157835D01*
X427343Y157335D01*
Y155238D01*
X430500D01*
X433658D01*
Y157335D01*
X433658Y157653D01*
X433658Y158154D01*
Y162084D01*
X434496Y162922D01*
X436742D01*
X436816Y162937D01*
X442307D01*
Y167580D01*
X448943Y174216D01*
X456283D01*
X456292Y174171D01*
X456750Y173485D01*
X457437Y173026D01*
X458246Y172865D01*
X459056Y173026D01*
X459742Y173485D01*
X460201Y174171D01*
X460362Y174980D01*
X460201Y175790D01*
X459742Y176476D01*
X459056Y176935D01*
X458246Y177096D01*
D02*
G37*
G36*
X461598Y156063D02*
X458396D01*
Y153451D01*
X461598D01*
Y156063D01*
D02*
G37*
G36*
X457896D02*
X454693D01*
Y153451D01*
X457896D01*
Y156063D01*
D02*
G37*
G36*
X433658Y154738D02*
X430750D01*
Y152323D01*
X433658D01*
Y154738D01*
D02*
G37*
G36*
X430250D02*
X427343D01*
Y152323D01*
X430250D01*
Y154738D01*
D02*
G37*
G36*
X461598Y168661D02*
X454693D01*
Y163774D01*
X446195Y155277D01*
X446137Y155189D01*
X442769Y151821D01*
X442307Y152013D01*
Y156063D01*
X435402D01*
Y150339D01*
X440633D01*
X440824Y149877D01*
X437712Y146765D01*
X127462D01*
X125307Y148920D01*
Y153563D01*
X118402D01*
Y147839D01*
X124226D01*
X126605Y145459D01*
X126853Y145293D01*
X127146Y145235D01*
X438029D01*
X438322Y145293D01*
X438570Y145459D01*
X447277Y154166D01*
X447335Y154254D01*
X455984Y162902D01*
X456007Y162937D01*
X461598D01*
Y168661D01*
D02*
G37*
G36*
X140896Y153563D02*
X137693D01*
Y150951D01*
X140896D01*
Y153563D01*
D02*
G37*
G36*
X461598Y152951D02*
X458396D01*
Y150339D01*
X461598D01*
Y152951D01*
D02*
G37*
G36*
X457896D02*
X454693D01*
Y150339D01*
X457896D01*
Y152951D01*
D02*
G37*
G36*
X151157Y151238D02*
X148250D01*
Y148823D01*
X151157D01*
Y151238D01*
D02*
G37*
G36*
X140896Y150451D02*
X137693D01*
Y147839D01*
X140896D01*
Y150451D01*
D02*
G37*
G36*
X311250Y143733D02*
Y140533D01*
X314450D01*
X314364Y141185D01*
X314016Y142025D01*
X313462Y142746D01*
X312741Y143299D01*
X311901Y143647D01*
X311250Y143733D01*
D02*
G37*
G36*
X336841D02*
Y140533D01*
X340040D01*
X339954Y141185D01*
X339607Y142025D01*
X339053Y142746D01*
X338332Y143299D01*
X337492Y143647D01*
X336841Y143733D01*
D02*
G37*
G36*
X336341D02*
X335689Y143647D01*
X334849Y143299D01*
X334128Y142746D01*
X333575Y142025D01*
X333227Y141185D01*
X333141Y140533D01*
X336341D01*
Y143733D01*
D02*
G37*
G36*
X310750D02*
X310099Y143647D01*
X309259Y143299D01*
X308538Y142746D01*
X307984Y142025D01*
X307636Y141185D01*
X307550Y140533D01*
X310750D01*
Y143733D01*
D02*
G37*
G36*
X289545Y143591D02*
Y140392D01*
X292745D01*
X292659Y141043D01*
X292311Y141883D01*
X291758Y142604D01*
X291037Y143158D01*
X290196Y143506D01*
X289545Y143591D01*
D02*
G37*
G36*
X263955D02*
Y140392D01*
X267154D01*
X267069Y141043D01*
X266721Y141883D01*
X266167Y142604D01*
X265446Y143158D01*
X264606Y143506D01*
X263955Y143591D01*
D02*
G37*
G36*
X289045D02*
X288394Y143506D01*
X287554Y143158D01*
X286833Y142604D01*
X286279Y141883D01*
X285931Y141043D01*
X285846Y140392D01*
X289045D01*
Y143591D01*
D02*
G37*
G36*
X263455D02*
X262804Y143506D01*
X261964Y143158D01*
X261242Y142604D01*
X260689Y141883D01*
X260341Y141043D01*
X260255Y140392D01*
X263455D01*
Y143591D01*
D02*
G37*
G36*
X340040Y140033D02*
X336841D01*
Y136834D01*
X337492Y136919D01*
X338332Y137267D01*
X339053Y137821D01*
X339607Y138542D01*
X339954Y139382D01*
X340040Y140033D01*
D02*
G37*
G36*
X314450D02*
X311250D01*
Y136834D01*
X311901Y136919D01*
X312741Y137267D01*
X313462Y137821D01*
X314016Y138542D01*
X314364Y139382D01*
X314450Y140033D01*
D02*
G37*
G36*
X336341D02*
X333141D01*
X333227Y139382D01*
X333575Y138542D01*
X334128Y137821D01*
X334849Y137267D01*
X335689Y136919D01*
X336341Y136834D01*
Y140033D01*
D02*
G37*
G36*
X310750D02*
X307550D01*
X307636Y139382D01*
X307984Y138542D01*
X308538Y137821D01*
X309259Y137267D01*
X310099Y136919D01*
X310750Y136834D01*
Y140033D01*
D02*
G37*
G36*
X292745Y139892D02*
X289545D01*
Y136692D01*
X290196Y136778D01*
X291037Y137126D01*
X291758Y137679D01*
X292311Y138400D01*
X292659Y139241D01*
X292745Y139892D01*
D02*
G37*
G36*
X267154D02*
X263955D01*
Y136692D01*
X264606Y136778D01*
X265446Y137126D01*
X266167Y137679D01*
X266721Y138400D01*
X267069Y139241D01*
X267154Y139892D01*
D02*
G37*
G36*
X289045D02*
X285846D01*
X285931Y139241D01*
X286279Y138400D01*
X286833Y137679D01*
X287554Y137126D01*
X288394Y136778D01*
X289045Y136692D01*
Y139892D01*
D02*
G37*
G36*
X263455D02*
X260255D01*
X260341Y139241D01*
X260689Y138400D01*
X261242Y137679D01*
X261964Y137126D01*
X262804Y136778D01*
X263455Y136692D01*
Y139892D01*
D02*
G37*
%LPD*%
G36*
X215238Y324641D02*
X215220Y324500D01*
X215348Y323522D01*
X215726Y322610D01*
X216327Y321827D01*
X217110Y321226D01*
X217733Y320968D01*
Y320315D01*
X204528Y307109D01*
X204000Y307214D01*
X203344Y307084D01*
X202788Y306712D01*
X202416Y306156D01*
X202286Y305500D01*
X202416Y304844D01*
X202463Y304775D01*
X202227Y304334D01*
X190549D01*
X190454Y304809D01*
X189996Y305496D01*
X189310Y305954D01*
X188500Y306116D01*
X187690Y305954D01*
X187004Y305496D01*
X186546Y304809D01*
X186384Y304000D01*
X186546Y303190D01*
X187004Y302504D01*
X187585Y302116D01*
X187482Y301616D01*
X171872D01*
X164532Y308956D01*
X164284Y309122D01*
X163991Y309180D01*
X155817D01*
X155769Y309228D01*
X155521Y309394D01*
X155228Y309452D01*
X145098D01*
Y313661D01*
X138193D01*
Y308519D01*
X137693Y308321D01*
X134674Y311340D01*
X134425Y311506D01*
X134133Y311564D01*
X125807D01*
Y312580D01*
X130462Y317235D01*
X148989D01*
X149288Y316788D01*
X149844Y316416D01*
X150500Y316286D01*
X151028Y316391D01*
X156959Y310459D01*
X156959Y310459D01*
X157207Y310294D01*
X157500Y310235D01*
X178500D01*
X178793Y310294D01*
X179041Y310459D01*
X189432Y320850D01*
X195650D01*
Y323735D01*
X213346D01*
X213639Y323794D01*
X213887Y323959D01*
X214790Y324862D01*
X215238Y324641D01*
D02*
G37*
G36*
X226440Y327260D02*
X226327Y327173D01*
X225726Y326390D01*
X225348Y325478D01*
X225220Y324500D01*
X225348Y323522D01*
X225726Y322610D01*
X225857Y322439D01*
X210210Y306791D01*
X209712Y306712D01*
X209156Y307084D01*
X208500Y307214D01*
X207844Y307084D01*
X207288Y306712D01*
X206916Y306156D01*
X206786Y305500D01*
X206916Y304844D01*
X206963Y304775D01*
X206727Y304334D01*
X205773D01*
X205537Y304775D01*
X205584Y304844D01*
X205714Y305500D01*
X205609Y306028D01*
X219039Y319457D01*
X219204Y319705D01*
X219263Y319998D01*
Y320754D01*
X219978Y320848D01*
X220890Y321226D01*
X221673Y321827D01*
X222274Y322610D01*
X222652Y323522D01*
X222780Y324500D01*
X222652Y325478D01*
X222274Y326390D01*
X221673Y327173D01*
X221560Y327260D01*
X221721Y327733D01*
X226279D01*
X226440Y327260D01*
D02*
G37*
G36*
X233317Y302459D02*
X233565Y302293D01*
X233858Y302235D01*
X235474D01*
X235742Y301735D01*
X235662Y301616D01*
X189518D01*
X189415Y302116D01*
X189996Y302504D01*
X190196Y302804D01*
X232972D01*
X233317Y302459D01*
D02*
G37*
G36*
X336343Y218471D02*
X336591Y218305D01*
X336883Y218247D01*
X339342D01*
Y217428D01*
X338552Y216637D01*
X338386Y216389D01*
X338328Y216096D01*
Y202419D01*
X338386Y202127D01*
X338552Y201878D01*
X339843Y200588D01*
Y197837D01*
X334157D01*
Y201669D01*
X331765D01*
Y206804D01*
X331707Y207097D01*
X331541Y207345D01*
X331541Y207345D01*
X328551Y210335D01*
X328758Y210835D01*
X330750D01*
Y213500D01*
X331000D01*
Y213750D01*
X334157D01*
Y216165D01*
X334157Y216165D01*
Y216347D01*
X334157D01*
X334157Y216665D01*
Y220003D01*
X334619Y220194D01*
X336343Y218471D01*
D02*
G37*
G36*
X284579Y230097D02*
X276173Y221692D01*
X275415D01*
X275342Y221677D01*
X270342D01*
Y217428D01*
X269552Y216637D01*
X269386Y216389D01*
X269328Y216096D01*
Y202919D01*
X269386Y202627D01*
X269552Y202379D01*
X271342Y200588D01*
Y197837D01*
X265657D01*
Y201669D01*
X260424D01*
X259357Y202736D01*
Y210579D01*
X261750D01*
Y213244D01*
X262000D01*
Y213494D01*
X265158D01*
Y215909D01*
X265158Y215909D01*
Y216091D01*
X265158D01*
X265158Y216409D01*
Y220340D01*
X269839Y225021D01*
X276166D01*
X276458Y225080D01*
X276706Y225245D01*
X281739Y230278D01*
X282122Y230559D01*
X284387D01*
X284579Y230097D01*
D02*
G37*
G36*
X327842Y193499D02*
Y190827D01*
X330235D01*
Y185169D01*
X327842D01*
Y183761D01*
X324891D01*
X324891Y183761D01*
X324599Y183703D01*
X324351Y183537D01*
X323119Y182306D01*
X322657Y182497D01*
Y184345D01*
X322672Y184419D01*
Y188982D01*
X327381Y193691D01*
X327842Y193499D01*
D02*
G37*
G36*
X254887Y196532D02*
X255135Y196366D01*
X255427Y196308D01*
X275502D01*
X276175Y195635D01*
X275983Y195173D01*
X271342D01*
Y190827D01*
X273735D01*
Y185169D01*
X271342D01*
Y181904D01*
X270776Y181337D01*
X265657D01*
Y185169D01*
X263265D01*
Y190827D01*
X265657D01*
Y195173D01*
X259343D01*
Y190827D01*
X261735D01*
Y185169D01*
X260857D01*
Y187171D01*
X260857Y187171D01*
X260799Y187464D01*
X260633Y187712D01*
X203275Y245070D01*
X203428Y245379D01*
X203531Y245521D01*
X204401Y245636D01*
X205241Y245984D01*
X205351Y246068D01*
X254887Y196532D01*
D02*
G37*
G36*
X279266Y192544D02*
Y186972D01*
X279324Y186680D01*
X279490Y186432D01*
X282043Y183879D01*
X282291Y183713D01*
X282583Y183654D01*
X282842Y183272D01*
Y180823D01*
X282842D01*
X282807Y180338D01*
X277693D01*
X277658Y180823D01*
X277658D01*
Y185169D01*
X275265D01*
Y190827D01*
X277658D01*
Y193499D01*
X278119Y193691D01*
X279266Y192544D01*
D02*
G37*
G36*
X339843Y190827D02*
X342235D01*
Y185173D01*
X339843D01*
Y180827D01*
X339996D01*
Y180078D01*
X334658Y174739D01*
X334157Y174946D01*
Y178673D01*
X327842D01*
Y177265D01*
X322657D01*
Y178673D01*
X322303D01*
X322112Y179135D01*
X325208Y182231D01*
X327842D01*
Y180823D01*
X334157D01*
Y185169D01*
X331765D01*
Y190827D01*
X334157D01*
Y194659D01*
X339843D01*
Y190827D01*
D02*
G37*
G36*
X327842Y174327D02*
X328584D01*
X328630Y174198D01*
X328604Y174101D01*
X328287Y173672D01*
X327844Y173584D01*
X327288Y173212D01*
X326916Y172656D01*
X326786Y172000D01*
X326916Y171344D01*
X327288Y170788D01*
X327844Y170416D01*
X328500Y170286D01*
X329156Y170416D01*
X329712Y170788D01*
X330084Y171344D01*
X330214Y172000D01*
X330109Y172528D01*
X330406Y172825D01*
X330406Y172825D01*
X330572Y173073D01*
X330630Y173365D01*
Y174327D01*
X333538D01*
X333745Y173827D01*
X318683Y158765D01*
X314382D01*
X314364Y158901D01*
X314016Y159741D01*
X313462Y160462D01*
X312741Y161016D01*
X311901Y161364D01*
X311000Y161483D01*
X310099Y161364D01*
X309259Y161016D01*
X308538Y160462D01*
X307984Y159741D01*
X307636Y158901D01*
X307518Y158000D01*
X307636Y157099D01*
X307984Y156259D01*
X308538Y155537D01*
X308690Y155420D01*
X308521Y154920D01*
X291916D01*
X291805Y155247D01*
X291776Y155420D01*
X292311Y156117D01*
X292659Y156957D01*
X292778Y157858D01*
X292659Y158759D01*
X292311Y159599D01*
X291758Y160321D01*
X291037Y160874D01*
X290196Y161222D01*
X289295Y161341D01*
X288528Y161240D01*
X288274Y161654D01*
X288265Y161684D01*
X296324Y169743D01*
X296786Y169500D01*
X296916Y168844D01*
X297288Y168288D01*
X297844Y167916D01*
X298500Y167786D01*
X299156Y167916D01*
X299712Y168288D01*
X300084Y168844D01*
X300133Y169092D01*
X300372D01*
X300665Y169150D01*
X300913Y169316D01*
X305924Y174327D01*
X311157D01*
Y175735D01*
X316342D01*
Y174327D01*
X322657D01*
Y175735D01*
X327842D01*
Y174327D01*
D02*
G37*
G36*
X344787Y173869D02*
X325839Y154920D01*
X313479D01*
X313310Y155420D01*
X313462Y155537D01*
X314016Y156259D01*
X314364Y157099D01*
X314382Y157235D01*
X319000D01*
X319293Y157293D01*
X319541Y157459D01*
X334880Y172799D01*
X335387Y172651D01*
X335409Y172621D01*
X335286Y172000D01*
X335416Y171344D01*
X335788Y170788D01*
X336344Y170416D01*
X337000Y170286D01*
X337656Y170416D01*
X338212Y170788D01*
X338584Y171344D01*
X338714Y172000D01*
X338694Y172101D01*
X340924Y174331D01*
X344596D01*
X344787Y173869D01*
D02*
G37*
G36*
X285931Y156957D02*
X286279Y156117D01*
X286814Y155420D01*
X286786Y155247D01*
X286675Y154920D01*
X266325D01*
X266214Y155247D01*
X266186Y155420D01*
X266721Y156117D01*
X267069Y156957D01*
X267087Y157094D01*
X285913D01*
X285931Y156957D01*
D02*
G37*
%LPC*%
G36*
X334157Y213250D02*
X331250D01*
Y210835D01*
X334157D01*
Y213250D01*
D02*
G37*
G36*
X265158Y212994D02*
X262250D01*
Y210579D01*
X265158D01*
Y212994D01*
D02*
G37*
%LPD*%
D16*
X121854Y150701D02*
D03*
X141146D02*
D03*
Y163299D02*
D03*
X121854D02*
D03*
X438854Y153201D02*
D03*
X458146D02*
D03*
Y165799D02*
D03*
X438854D02*
D03*
X122354Y298201D02*
D03*
X141646D02*
D03*
Y310799D02*
D03*
X122354D02*
D03*
X442500Y304803D02*
D03*
X461791D02*
D03*
Y292205D02*
D03*
X442500D02*
D03*
D17*
X279000Y272102D02*
D03*
X284000D02*
D03*
X289000D02*
D03*
X294000D02*
D03*
X299000D02*
D03*
X304000D02*
D03*
X309000D02*
D03*
X314000D02*
D03*
X319000D02*
D03*
X324000D02*
D03*
Y234898D02*
D03*
X319000D02*
D03*
X314000D02*
D03*
X309000D02*
D03*
X304000D02*
D03*
X299000D02*
D03*
X294000D02*
D03*
X289000D02*
D03*
X284000D02*
D03*
X279000D02*
D03*
D18*
X149000Y299988D02*
D03*
Y305500D02*
D03*
X148000Y151488D02*
D03*
Y157000D02*
D03*
X430500Y154988D02*
D03*
Y160500D02*
D03*
X434000Y294488D02*
D03*
Y300000D02*
D03*
X262000Y218756D02*
D03*
Y213244D02*
D03*
X342500Y219012D02*
D03*
Y213500D02*
D03*
X331000Y219012D02*
D03*
Y213500D02*
D03*
X319000Y219012D02*
D03*
Y213500D02*
D03*
X308000Y219012D02*
D03*
Y213500D02*
D03*
X296500Y219012D02*
D03*
Y213500D02*
D03*
X285000Y219012D02*
D03*
Y213500D02*
D03*
X273500Y219012D02*
D03*
Y213500D02*
D03*
D19*
X274500Y176500D02*
D03*
Y182996D02*
D03*
X343000Y183000D02*
D03*
Y176504D02*
D03*
X331000Y182996D02*
D03*
Y176500D02*
D03*
X319500Y182996D02*
D03*
Y176500D02*
D03*
X308000Y182996D02*
D03*
Y176500D02*
D03*
X296500Y182996D02*
D03*
Y176500D02*
D03*
X286000Y182996D02*
D03*
Y176500D02*
D03*
X262500Y182996D02*
D03*
Y176500D02*
D03*
Y193000D02*
D03*
Y199496D02*
D03*
X274500Y193000D02*
D03*
Y199496D02*
D03*
X285500Y193000D02*
D03*
Y199496D02*
D03*
X296500Y193000D02*
D03*
Y199496D02*
D03*
X308000Y193000D02*
D03*
Y199496D02*
D03*
X319500Y193000D02*
D03*
Y199496D02*
D03*
X331000Y193000D02*
D03*
Y199496D02*
D03*
X343000Y193000D02*
D03*
Y199496D02*
D03*
D29*
X283992Y302272D02*
D03*
X318008D02*
D03*
D30*
X283992Y323374D02*
D03*
X318008D02*
D03*
D37*
X283358Y157858D02*
X289295D01*
X428205Y231858D02*
X453795D01*
X375705Y264358D02*
X401295D01*
X203500Y249000D02*
X229091D01*
X163205Y291858D02*
X188795D01*
X123737Y249000D02*
X149091D01*
X123500D02*
X123737D01*
X122445Y163299D02*
X128744Y157000D01*
X148000D01*
X122445Y150701D02*
X127146Y146000D01*
X121854Y150701D02*
X122445D01*
X131500Y172945D02*
X138458Y165987D01*
X131500Y172945D02*
Y234000D01*
X138458Y165411D02*
X140570Y163299D01*
X141146D01*
X138458Y165411D02*
Y165987D01*
X446736Y154707D02*
Y154736D01*
X455443Y163687D02*
X457555Y165799D01*
X458146D01*
X455443Y163443D02*
Y163687D01*
X446736Y154736D02*
X455443Y163443D01*
X438029Y146000D02*
X446736Y154707D01*
X127146Y146000D02*
X438029D01*
X445203Y312703D02*
X449385Y316885D01*
X452592D01*
X445203Y306915D02*
Y312703D01*
X443090Y304803D02*
X445203Y306915D01*
X442500Y304803D02*
X443090D01*
X454746Y292949D02*
X459089Y297292D01*
X454746Y280980D02*
Y292949D01*
X461201Y304803D02*
X461791D01*
X459089Y302691D02*
X461201Y304803D01*
X459089Y297292D02*
Y302691D01*
X441868Y291573D02*
X442500Y292205D01*
X122945Y310799D02*
X134133D01*
X122354D02*
X122945D01*
X143758Y308687D02*
X155228D01*
X147085Y307415D02*
X149000Y305500D01*
X134133Y310799D02*
X137517Y307415D01*
X147085D01*
X155228Y308687D02*
X155500Y308415D01*
X119797Y296089D02*
X121909Y298201D01*
X119797Y245703D02*
Y296089D01*
X438803Y304803D02*
X442500D01*
X436408Y302408D02*
X438803Y304803D01*
X436408Y301915D02*
Y302408D01*
X434492Y300000D02*
X436408Y301915D01*
X434000Y300000D02*
X434492D01*
X426500Y160500D02*
X430500D01*
X434179Y163687D02*
X436742D01*
X438854Y165799D01*
X430992Y160500D02*
X434179Y163687D01*
X430500Y160500D02*
X430992D01*
X439445Y165799D02*
X448626Y174980D01*
X438854Y165799D02*
X439445D01*
X448626Y174980D02*
X458246D01*
X155500Y308415D02*
X163991D01*
X171555Y300851D01*
X278672Y301500D02*
X288600Y291573D01*
X236351Y300851D02*
X237000Y301500D01*
X171555Y300851D02*
X236351D01*
X237000Y301500D02*
X278672D01*
X122945Y310799D02*
X130146Y318000D01*
X150500D01*
X157500Y311000D01*
X178500D01*
X288600Y291573D02*
X441868D01*
X152492Y161000D02*
X229500D01*
X119797Y245703D02*
X131500Y234000D01*
X123737Y249000D02*
X167203Y205534D01*
X454315Y280980D02*
X454746D01*
X188500Y304000D02*
X188931Y303569D01*
X233858Y303000D02*
X277499D01*
X188931Y303569D02*
X233289D01*
X233858Y303000D01*
X281182Y306682D02*
X281232Y306741D01*
X277499Y303000D02*
X281182Y306682D01*
X281232Y306741D02*
X281508Y307119D01*
X282978Y307348D01*
X383848D01*
X424000Y158000D02*
X426500Y160500D01*
X421833Y298085D02*
X432085D01*
X410246Y297480D02*
X421229D01*
X421833Y298085D01*
X278246Y272856D02*
Y295480D01*
Y272856D02*
X279000Y272102D01*
X258746Y273980D02*
X260624Y272102D01*
X279000D01*
X218000Y307000D02*
X220000Y309000D01*
X242000D01*
X218000Y307000D02*
Y307000D01*
X242000Y309000D02*
X255295Y322295D01*
X245002Y328498D02*
X249000Y324500D01*
X213346D02*
X217344Y328498D01*
X192000Y324500D02*
X213346D01*
X217344Y328498D02*
X245002D01*
X178500Y311000D02*
X192000Y324500D01*
X148492Y157000D02*
X152492Y161000D01*
X148000Y157000D02*
X148492D01*
X167203Y202935D02*
Y205534D01*
X253500Y220577D02*
Y262000D01*
X253500Y262000D01*
X253500Y220576D02*
X253500Y220577D01*
X245500Y299000D02*
X248500Y296000D01*
Y220500D02*
Y296000D01*
X229500Y161000D02*
X246016D01*
X261516Y176500D01*
X302500Y243491D02*
X304000Y241991D01*
X302500Y243491D02*
Y243500D01*
X304000Y222520D02*
Y241991D01*
X295239Y243739D02*
X296457D01*
X298116Y242080D01*
X298202D01*
X299000Y241282D01*
X210356Y305856D02*
X229000Y324500D01*
X208856Y305856D02*
X210356D01*
X208500Y305500D02*
X208856Y305856D01*
X256795Y322295D02*
X259000Y324500D01*
X255295Y322295D02*
X256795D01*
X218498Y323998D02*
X219000Y324500D01*
X218498Y319998D02*
Y323998D01*
X204000Y305500D02*
X218498Y319998D01*
X326155Y154155D02*
X381000Y209000D01*
X261485Y154155D02*
X326155D01*
X255326Y160315D02*
X261485Y154155D01*
X283358Y157858D02*
X304423Y178923D01*
X263705Y157858D02*
X283358D01*
X342016Y176504D02*
X343000D01*
X337868Y172356D02*
X342016Y176504D01*
X328500Y172000D02*
X329866Y173365D01*
Y175365D02*
X331000Y176500D01*
X329866Y173365D02*
Y175365D01*
X319500Y176500D02*
X331000D01*
X308000D02*
X319500D01*
X300372Y169856D02*
X307016Y176500D01*
X308000D01*
X298856Y169856D02*
X300372D01*
X298500Y169500D02*
X298856Y169856D01*
X286000Y176500D02*
X295516D01*
X294092Y172592D02*
Y175077D01*
X295516Y176500D02*
X296500D01*
X294092Y175077D02*
X295516Y176500D01*
X291000Y169500D02*
X294092Y172592D01*
X304423Y178923D02*
X320819D01*
X274500Y176500D02*
X286000D01*
X262500D02*
X274500D01*
X261516D02*
X262500D01*
X273516Y182996D02*
X274500D01*
X271093Y180573D02*
X273516Y182996D01*
X167203Y202935D02*
X189565Y180573D01*
X271093D01*
X187927Y179573D02*
X287968D01*
X163500Y204000D02*
X187927Y179573D01*
X287968D02*
X291391Y182996D01*
X280500Y260000D02*
X281075Y260575D01*
X283750D01*
X291689Y268514D01*
X292872D01*
X286280Y268106D02*
Y271511D01*
X275733Y264733D02*
X282908D01*
X286280Y268106D01*
X319000Y269642D02*
X322000Y266642D01*
X315128Y238486D02*
X316311D01*
X318508Y240508D02*
X322000Y244000D01*
X299000Y269642D02*
Y272102D01*
X284000Y234898D02*
Y237358D01*
X321311Y238486D02*
X326750Y243925D01*
X281689Y238486D02*
X282872D01*
X318333Y240508D02*
X318508D01*
X273750Y240750D02*
X279425D01*
X319000Y269642D02*
Y272102D01*
Y237358D02*
X320128Y238486D01*
X287872D02*
X289000Y237358D01*
X282872Y238486D02*
X284000Y237358D01*
X293417Y265242D02*
X296689Y268514D01*
X319000Y234898D02*
Y237358D01*
X279425Y240750D02*
X281689Y238486D01*
X292872Y236026D02*
Y239628D01*
X310128Y240128D02*
X314000Y244000D01*
X292872Y236026D02*
X294000Y234898D01*
X270500Y244000D02*
X273750Y240750D01*
X316311Y238486D02*
X318333Y240508D01*
X314000Y260500D02*
Y272102D01*
X299000Y234898D02*
Y241282D01*
X322000Y260500D02*
Y266642D01*
X314000Y234898D02*
Y237358D01*
X296689Y268514D02*
X297872D01*
X280000Y244000D02*
X283492Y240508D01*
X326750Y243925D02*
X329925D01*
X297000Y260500D02*
X297861Y261361D01*
X283492Y240508D02*
X284667D01*
X324000Y266500D02*
Y272102D01*
X305000Y260500D02*
Y265642D01*
X284667Y240508D02*
X286689Y238486D01*
X310128Y236026D02*
Y240128D01*
X286689Y238486D02*
X287872D01*
X324000Y266500D02*
X330000Y260500D01*
X297861Y261361D02*
Y263503D01*
X309000Y234898D02*
X310128Y236026D01*
X289000Y234898D02*
Y237358D01*
X320128Y238486D02*
X321311D01*
X292872Y268514D02*
X294000Y269642D01*
X329925Y243925D02*
X330000Y244000D01*
X288500D02*
X292872Y239628D01*
X314000Y237358D02*
X315128Y238486D01*
X305000Y265642D02*
X309000Y269642D01*
Y272102D01*
X297861Y263503D02*
X304000Y269642D01*
Y272102D01*
X288500Y260500D02*
X293242Y265242D01*
X293417D01*
X297872Y268514D02*
X299000Y269642D01*
X294000D02*
Y272102D01*
X271500Y260500D02*
X275733Y264733D01*
X286280Y271511D02*
X286872Y272102D01*
X289000D01*
X340761Y179761D02*
Y181577D01*
X311000Y158000D02*
X319000D01*
X340761Y179761D01*
Y181577D02*
X342184Y183000D01*
X343000D01*
X320819Y178923D02*
X324891Y182996D01*
X331000D01*
X291391D02*
X296500D01*
X346073Y197073D02*
X354250Y205250D01*
X321907Y189299D02*
X328032Y195423D01*
X354923D01*
X318181Y197073D02*
X346073D01*
X314109Y193000D02*
X318181Y197073D01*
X308000Y193000D02*
X314109D01*
X321907Y184419D02*
Y189299D01*
X379408Y219908D02*
Y260655D01*
X354923Y195423D02*
X379408Y219908D01*
X375705Y264358D02*
X379408Y260655D01*
X320484Y182996D02*
X321907Y184419D01*
X308000Y182996D02*
Y193000D01*
X319500Y182996D02*
X320484D01*
X321311Y231309D02*
X330693Y221927D01*
X333968D02*
X336883Y219012D01*
X316311Y231309D02*
X326693Y220927D01*
X327592Y210212D02*
Y216096D01*
X314000Y232437D02*
X315128Y231309D01*
X327592Y216096D02*
X330508Y219012D01*
X330693Y221927D02*
X333968D01*
X326693Y220927D02*
X329085D01*
X314000Y232437D02*
Y234898D01*
X315128Y231309D02*
X316311D01*
X336883Y219012D02*
X342008D01*
X319000Y232437D02*
Y234898D01*
Y232437D02*
X320128Y231309D01*
X321311D01*
X329085Y220927D02*
X331000Y219012D01*
X343000Y183000D02*
Y193000D01*
X331000Y182996D02*
Y193000D01*
X319500Y182996D02*
Y193000D01*
X280030Y186972D02*
Y192861D01*
Y186972D02*
X282583Y184419D01*
X284577D01*
X286000Y182996D01*
X275819Y197073D02*
X280030Y192861D01*
X262500Y182996D02*
Y193000D01*
X203500Y249000D02*
X255427Y197073D01*
X275819D01*
X274500Y182996D02*
Y193000D01*
X163205Y284059D02*
X260092Y187171D01*
X261516Y182996D02*
X262500D01*
X260092Y184419D02*
Y187171D01*
Y184419D02*
X261516Y182996D01*
X163205Y284059D02*
Y291858D01*
X296500Y182996D02*
Y193000D01*
X285500Y183496D02*
Y193000D01*
Y183496D02*
X286000Y182996D01*
X339092Y216096D02*
X342008Y219012D01*
X339092Y202419D02*
Y216096D01*
Y202419D02*
X342016Y199496D01*
X343000D01*
X342008Y219012D02*
X342500D01*
X331000Y199496D02*
Y206804D01*
X330508Y219012D02*
X331000D01*
X327592Y210212D02*
X331000Y206804D01*
X315593Y202419D02*
Y216096D01*
Y202419D02*
X318516Y199496D01*
X318508Y219012D02*
X319000D01*
X315593Y216096D02*
X318508Y219012D01*
X318516Y199496D02*
X319500D01*
X304592Y216096D02*
X307508Y219012D01*
X308000D01*
X304592Y210212D02*
Y216096D01*
Y210212D02*
X308000Y206804D01*
Y199496D02*
Y206804D01*
X293092Y210212D02*
Y216096D01*
Y210212D02*
X296500Y206804D01*
X296008Y219012D02*
X296500D01*
X293092Y216096D02*
X296008Y219012D01*
X296500Y199496D02*
Y206804D01*
X281592Y202419D02*
Y216096D01*
Y202419D02*
X284516Y199496D01*
X284508Y219012D02*
X285000D01*
X281592Y216096D02*
X284508Y219012D01*
X284516Y199496D02*
X285500D01*
X270093Y202919D02*
X273516Y199496D01*
X274500D01*
X273008Y219012D02*
X273500D01*
X270093Y216096D02*
X273008Y219012D01*
X270093Y202919D02*
Y216096D01*
X258593Y215841D02*
X261508Y218756D01*
X258593Y202419D02*
Y215841D01*
Y202419D02*
X261516Y199496D01*
X261508Y218756D02*
X262000D01*
X261516Y199496D02*
X262500D01*
X262000Y218756D02*
X262492D01*
X309000Y228520D02*
Y234898D01*
Y228520D02*
X318508Y219012D01*
X304000Y222520D02*
X307508Y219012D01*
X296992D02*
X299000Y221020D01*
Y234898D01*
X296500Y219012D02*
X296992D01*
X285000D02*
X285492D01*
X294000Y227520D02*
Y234898D01*
X285492Y219012D02*
X294000Y227520D01*
X287872Y231309D02*
X289000Y232437D01*
X286872Y231309D02*
X287872D01*
X289000Y232437D02*
Y234898D01*
X276490Y220927D02*
X286872Y231309D01*
X275415Y220927D02*
X276490D01*
X273500Y219012D02*
X275415Y220927D01*
X281280Y234306D02*
X281872Y234898D01*
X281280Y230901D02*
Y234306D01*
X262492Y218756D02*
X269522Y225786D01*
X281872Y234898D02*
X284000D01*
X276166Y225786D02*
X281280Y230901D01*
X269522Y225786D02*
X276166D01*
D38*
X188795Y274142D02*
D03*
Y291858D02*
D03*
X163205D02*
D03*
Y274142D02*
D03*
X311000Y140283D02*
D03*
Y158000D02*
D03*
X336591D02*
D03*
Y140283D02*
D03*
X263705Y140142D02*
D03*
Y157858D02*
D03*
X289295D02*
D03*
Y140142D02*
D03*
X375705Y246642D02*
D03*
Y264358D02*
D03*
X401295D02*
D03*
Y246642D02*
D03*
X428205Y214142D02*
D03*
Y231858D02*
D03*
X453795D02*
D03*
Y214142D02*
D03*
X163500Y186283D02*
D03*
Y204000D02*
D03*
X189091D02*
D03*
Y186283D02*
D03*
X203500Y231283D02*
D03*
Y249000D02*
D03*
X229091D02*
D03*
Y231283D02*
D03*
X123500D02*
D03*
Y249000D02*
D03*
X149091D02*
D03*
Y231283D02*
D03*
D39*
X172000Y324500D02*
D03*
X162000D02*
D03*
X182000D02*
D03*
D40*
X192000D02*
D03*
D41*
X259000D02*
D03*
D42*
X249000D02*
D03*
X239000D02*
D03*
X229000D02*
D03*
X219000D02*
D03*
D43*
X452592Y316885D02*
D03*
X150500Y293500D02*
D03*
X162746Y160980D02*
D03*
X188500Y304000D02*
D03*
X383848Y307348D02*
D03*
X262246Y230980D02*
D03*
X239500Y228500D02*
D03*
X344246Y207480D02*
D03*
X334500Y207500D02*
D03*
X322246Y207480D02*
D03*
X311246D02*
D03*
X301000Y207500D02*
D03*
X286500D02*
D03*
X274246Y207480D02*
D03*
X265246D02*
D03*
X424000Y158000D02*
D03*
X458246Y174980D02*
D03*
X410246Y297480D02*
D03*
X258746Y273980D02*
D03*
X278246Y295480D02*
D03*
X454746Y280980D02*
D03*
X380826Y209314D02*
D03*
D44*
X406000Y185500D02*
D03*
X177000Y242500D02*
D03*
D45*
X281500Y171000D02*
D03*
X226500Y276000D02*
D03*
X149000Y305500D02*
D03*
X150500Y318000D02*
D03*
X218000Y307000D02*
D03*
X253500Y262000D02*
D03*
X245500Y299000D02*
D03*
X253500Y220576D02*
D03*
X248500Y220500D02*
D03*
X208500Y305500D02*
D03*
X204000D02*
D03*
X255326Y160315D02*
D03*
X337000Y172000D02*
D03*
X328500D02*
D03*
X298500Y169500D02*
D03*
X291000D02*
D03*
D46*
X229500Y161000D02*
D03*
X354500Y205000D02*
D03*
D47*
X302500Y243500D02*
D03*
X295239Y243739D02*
D03*
X280500Y260000D02*
D03*
X288500Y260500D02*
D03*
X330000Y244000D02*
D03*
X322000Y260500D02*
D03*
X314000Y244000D02*
D03*
X280000D02*
D03*
X314000Y260500D02*
D03*
X270500Y244000D02*
D03*
X330000Y260500D02*
D03*
X288500Y244000D02*
D03*
X322000D02*
D03*
X305000Y260500D02*
D03*
X297000D02*
D03*
X271500D02*
D03*
D48*
X232331Y295331D02*
D03*
X228000D02*
D03*
X223669D02*
D03*
X232331Y291000D02*
D03*
X228000D02*
D03*
X223669D02*
D03*
X232331Y286669D02*
D03*
X228000D02*
D03*
X223669D02*
D03*
M02*
