G04*
G04 #@! TF.GenerationSoftware,Altium Limited,Altium Designer,21.2.2 (38)*
G04*
G04 Layer_Color=255*
%FSLAX25Y25*%
%MOIN*%
G70*
G04*
G04 #@! TF.SameCoordinates,98E345A6-E5E3-4E7C-82CD-A9440516B19A*
G04*
G04*
G04 #@! TF.FilePolarity,Positive*
G04*
G01*
G75*
%ADD16R,0.05906X0.04724*%
%ADD18R,0.05315X0.04331*%
G04:AMPARAMS|DCode=29|XSize=43.31mil|YSize=82.68mil|CornerRadius=21.65mil|HoleSize=0mil|Usage=FLASHONLY|Rotation=0.000|XOffset=0mil|YOffset=0mil|HoleType=Round|Shape=RoundedRectangle|*
%AMROUNDEDRECTD29*
21,1,0.04331,0.03937,0,0,0.0*
21,1,0.00000,0.08268,0,0,0.0*
1,1,0.04331,0.00000,-0.01968*
1,1,0.04331,0.00000,-0.01968*
1,1,0.04331,0.00000,0.01968*
1,1,0.04331,0.00000,0.01968*
%
%ADD29ROUNDEDRECTD29*%
G04:AMPARAMS|DCode=30|XSize=43.31mil|YSize=102.36mil|CornerRadius=21.65mil|HoleSize=0mil|Usage=FLASHONLY|Rotation=0.000|XOffset=0mil|YOffset=0mil|HoleType=Round|Shape=RoundedRectangle|*
%AMROUNDEDRECTD30*
21,1,0.04331,0.05906,0,0,0.0*
21,1,0.00000,0.10236,0,0,0.0*
1,1,0.04331,0.00000,-0.02953*
1,1,0.04331,0.00000,-0.02953*
1,1,0.04331,0.00000,0.02953*
1,1,0.04331,0.00000,0.02953*
%
%ADD30ROUNDEDRECTD30*%
%ADD38C,0.05906*%
%ADD39C,0.06299*%
%ADD40R,0.06299X0.06299*%
%ADD41R,0.06496X0.06496*%
%ADD42C,0.06496*%
%ADD49O,0.02362X0.08071*%
%ADD50O,0.08071X0.02362*%
%ADD51R,0.03347X0.05315*%
%ADD52R,0.04331X0.05315*%
%ADD53O,0.03740X0.00787*%
%ADD54O,0.00787X0.03740*%
%ADD55R,0.12323X0.12323*%
%ADD56R,0.01181X0.02756*%
%ADD57R,0.03937X0.02756*%
%ADD58R,0.03543X0.02559*%
D16*
X140646Y150701D02*
D03*
X121354D02*
D03*
Y163299D02*
D03*
X140646D02*
D03*
X458146Y153201D02*
D03*
X438854D02*
D03*
Y165799D02*
D03*
X458146D02*
D03*
X142000Y311000D02*
D03*
X122709D02*
D03*
Y298402D02*
D03*
X142000D02*
D03*
X461146Y305299D02*
D03*
X441854D02*
D03*
Y292701D02*
D03*
X461146D02*
D03*
D18*
X430500Y154988D02*
D03*
Y160500D02*
D03*
X434000Y300000D02*
D03*
Y294488D02*
D03*
X149000Y305500D02*
D03*
Y299988D02*
D03*
X148000Y157000D02*
D03*
Y151488D02*
D03*
X240000Y268988D02*
D03*
Y274500D02*
D03*
X233000Y268988D02*
D03*
Y274500D02*
D03*
D29*
X283992Y302272D02*
D03*
X318008D02*
D03*
D30*
X283992Y323374D02*
D03*
X318008D02*
D03*
D38*
X188795Y274142D02*
D03*
Y291858D02*
D03*
X163205D02*
D03*
Y274142D02*
D03*
X311000Y140283D02*
D03*
Y158000D02*
D03*
X336591D02*
D03*
Y140283D02*
D03*
X263705Y140142D02*
D03*
Y157858D02*
D03*
X289295D02*
D03*
Y140142D02*
D03*
X375705Y246642D02*
D03*
Y264358D02*
D03*
X401295D02*
D03*
Y246642D02*
D03*
X428205Y214142D02*
D03*
Y231858D02*
D03*
X453795D02*
D03*
Y214142D02*
D03*
X163500Y186283D02*
D03*
Y204000D02*
D03*
X189091D02*
D03*
Y186283D02*
D03*
X203500Y231283D02*
D03*
Y249000D02*
D03*
X229091D02*
D03*
Y231283D02*
D03*
X123500D02*
D03*
Y249000D02*
D03*
X149091D02*
D03*
Y231283D02*
D03*
D39*
X172000Y324500D02*
D03*
X162000D02*
D03*
X182000D02*
D03*
D40*
X192000D02*
D03*
D41*
X259000D02*
D03*
D42*
X249000D02*
D03*
X239000D02*
D03*
X229000D02*
D03*
X219000D02*
D03*
D49*
X240748Y170500D02*
D03*
X237598D02*
D03*
X234449D02*
D03*
X231299D02*
D03*
X228150D02*
D03*
X225000D02*
D03*
X221850D02*
D03*
X218701D02*
D03*
X215551D02*
D03*
X212402D02*
D03*
X209252D02*
D03*
Y215382D02*
D03*
X212402D02*
D03*
X215551D02*
D03*
X218701D02*
D03*
X221850D02*
D03*
X225000D02*
D03*
X228150D02*
D03*
X231299D02*
D03*
X234449D02*
D03*
X237598D02*
D03*
X240748D02*
D03*
D50*
X202559Y177193D02*
D03*
Y180343D02*
D03*
Y183492D02*
D03*
Y186642D02*
D03*
Y189791D02*
D03*
Y192941D02*
D03*
Y196091D02*
D03*
Y199240D02*
D03*
Y202390D02*
D03*
Y205539D02*
D03*
Y208689D02*
D03*
X247441D02*
D03*
Y205539D02*
D03*
Y202390D02*
D03*
Y199240D02*
D03*
Y196091D02*
D03*
Y192941D02*
D03*
Y189791D02*
D03*
Y186642D02*
D03*
Y183492D02*
D03*
Y180343D02*
D03*
Y177193D02*
D03*
D51*
X266500Y184500D02*
D03*
X260004D02*
D03*
D52*
X244744Y285500D02*
D03*
X250256D02*
D03*
D53*
X237744Y296906D02*
D03*
Y294937D02*
D03*
Y292969D02*
D03*
Y291000D02*
D03*
Y289031D02*
D03*
Y287063D02*
D03*
Y285094D02*
D03*
X218256D02*
D03*
Y287063D02*
D03*
Y289031D02*
D03*
Y291000D02*
D03*
Y292969D02*
D03*
Y294937D02*
D03*
Y296906D02*
D03*
D54*
X233906Y281256D02*
D03*
X231937D02*
D03*
X229968D02*
D03*
X228000D02*
D03*
X226031D02*
D03*
X224063D02*
D03*
X222094D02*
D03*
Y300744D02*
D03*
X224063D02*
D03*
X226031D02*
D03*
X228000D02*
D03*
X229968D02*
D03*
X231937D02*
D03*
X233906D02*
D03*
D55*
X228000Y291000D02*
D03*
D56*
X289189Y300657D02*
D03*
X291157D02*
D03*
X293126D02*
D03*
X295094D02*
D03*
X297063D02*
D03*
X299032D02*
D03*
X302969D02*
D03*
X304937D02*
D03*
X306906D02*
D03*
X308874D02*
D03*
X310843D02*
D03*
X312811D02*
D03*
X309858Y305776D02*
D03*
X307890D02*
D03*
X305921D02*
D03*
X303953D02*
D03*
X301984D02*
D03*
X300016D02*
D03*
X298047D02*
D03*
X296079D02*
D03*
X294110D02*
D03*
X292142D02*
D03*
D57*
X288795D02*
D03*
X313205D02*
D03*
D58*
X271000Y249146D02*
D03*
Y254854D02*
D03*
X280000Y249291D02*
D03*
Y255000D02*
D03*
X288500Y249146D02*
D03*
Y254854D02*
D03*
X297000Y249291D02*
D03*
Y255000D02*
D03*
X305500Y249146D02*
D03*
Y254854D02*
D03*
X314000Y249146D02*
D03*
Y254854D02*
D03*
X322000Y249146D02*
D03*
Y254854D02*
D03*
X330000Y249146D02*
D03*
Y254854D02*
D03*
M02*
