G04*
G04 #@! TF.GenerationSoftware,Altium Limited,Altium Designer,21.2.2 (38)*
G04*
G04 Layer_Color=16711935*
%FSLAX25Y25*%
%MOIN*%
G70*
G04*
G04 #@! TF.SameCoordinates,98E345A6-E5E3-4E7C-82CD-A9440516B19A*
G04*
G04*
G04 #@! TF.FilePolarity,Positive*
G04*
G01*
G75*
%ADD12C,0.00787*%
D12*
X281433Y297744D02*
X320567D01*
Y331839D01*
X281433D02*
X320567D01*
X281433Y297744D02*
Y331839D01*
X268736Y256528D02*
X273264D01*
Y247472D02*
Y256528D01*
X268736Y247472D02*
X273264D01*
X268736D02*
Y256528D01*
X277736Y256673D02*
X282264D01*
Y247618D02*
Y256673D01*
X277736Y247618D02*
X282264D01*
X277736D02*
Y256673D01*
X286236Y256528D02*
X290764D01*
Y247472D02*
Y256528D01*
X286236Y247472D02*
X290764D01*
X286236D02*
Y256528D01*
X294736Y256673D02*
X299264D01*
Y247618D02*
Y256673D01*
X294736Y247618D02*
X299264D01*
X294736D02*
Y256673D01*
X303236Y256528D02*
X307764D01*
Y247472D02*
Y256528D01*
X303236Y247472D02*
X307764D01*
X303236D02*
Y256528D01*
X311736D02*
X316264D01*
Y247472D02*
Y256528D01*
X311736Y247472D02*
X316264D01*
X311736D02*
Y256528D01*
X319736D02*
X324264D01*
Y247472D02*
Y256528D01*
X319736Y247472D02*
X324264D01*
X319736D02*
Y256528D01*
X327736D02*
X332264D01*
Y247472D02*
Y256528D01*
X327736Y247472D02*
X332264D01*
X327736D02*
Y256528D01*
M02*
