G04*
G04 #@! TF.GenerationSoftware,Altium Limited,Altium Designer,21.2.2 (38)*
G04*
G04 Layer_Color=255*
%FSLAX25Y25*%
%MOIN*%
G70*
G04*
G04 #@! TF.SameCoordinates,98E345A6-E5E3-4E7C-82CD-A9440516B19A*
G04*
G04*
G04 #@! TF.FilePolarity,Positive*
G04*
G01*
G75*
%ADD16R,0.05906X0.04724*%
%ADD17R,0.02756X0.07677*%
%ADD18R,0.05315X0.04331*%
%ADD19R,0.05315X0.03347*%
G04:AMPARAMS|DCode=29|XSize=43.31mil|YSize=82.68mil|CornerRadius=21.65mil|HoleSize=0mil|Usage=FLASHONLY|Rotation=0.000|XOffset=0mil|YOffset=0mil|HoleType=Round|Shape=RoundedRectangle|*
%AMROUNDEDRECTD29*
21,1,0.04331,0.03937,0,0,0.0*
21,1,0.00000,0.08268,0,0,0.0*
1,1,0.04331,0.00000,-0.01968*
1,1,0.04331,0.00000,-0.01968*
1,1,0.04331,0.00000,0.01968*
1,1,0.04331,0.00000,0.01968*
%
%ADD29ROUNDEDRECTD29*%
G04:AMPARAMS|DCode=30|XSize=43.31mil|YSize=102.36mil|CornerRadius=21.65mil|HoleSize=0mil|Usage=FLASHONLY|Rotation=0.000|XOffset=0mil|YOffset=0mil|HoleType=Round|Shape=RoundedRectangle|*
%AMROUNDEDRECTD30*
21,1,0.04331,0.05906,0,0,0.0*
21,1,0.00000,0.10236,0,0,0.0*
1,1,0.04331,0.00000,-0.02953*
1,1,0.04331,0.00000,-0.02953*
1,1,0.04331,0.00000,0.02953*
1,1,0.04331,0.00000,0.02953*
%
%ADD30ROUNDEDRECTD30*%
%ADD38C,0.05906*%
%ADD39C,0.06299*%
%ADD40R,0.06299X0.06299*%
%ADD41R,0.06496X0.06496*%
%ADD42C,0.06496*%
D16*
X121854Y150701D02*
D03*
X141146D02*
D03*
Y163299D02*
D03*
X121854D02*
D03*
X438854Y153201D02*
D03*
X458146D02*
D03*
Y165799D02*
D03*
X438854D02*
D03*
X122354Y298201D02*
D03*
X141646D02*
D03*
Y310799D02*
D03*
X122354D02*
D03*
X442500Y304803D02*
D03*
X461791D02*
D03*
Y292205D02*
D03*
X442500D02*
D03*
D17*
X279000Y272102D02*
D03*
X284000D02*
D03*
X289000D02*
D03*
X294000D02*
D03*
X299000D02*
D03*
X304000D02*
D03*
X309000D02*
D03*
X314000D02*
D03*
X319000D02*
D03*
X324000D02*
D03*
Y234898D02*
D03*
X319000D02*
D03*
X314000D02*
D03*
X309000D02*
D03*
X304000D02*
D03*
X299000D02*
D03*
X294000D02*
D03*
X289000D02*
D03*
X284000D02*
D03*
X279000D02*
D03*
D18*
X149000Y299988D02*
D03*
Y305500D02*
D03*
X148000Y151488D02*
D03*
Y157000D02*
D03*
X430500Y154988D02*
D03*
Y160500D02*
D03*
X434000Y294488D02*
D03*
Y300000D02*
D03*
X262000Y218756D02*
D03*
Y213244D02*
D03*
X342500Y219012D02*
D03*
Y213500D02*
D03*
X331000Y219012D02*
D03*
Y213500D02*
D03*
X319000Y219012D02*
D03*
Y213500D02*
D03*
X308000Y219012D02*
D03*
Y213500D02*
D03*
X296500Y219012D02*
D03*
Y213500D02*
D03*
X285000Y219012D02*
D03*
Y213500D02*
D03*
X273500Y219012D02*
D03*
Y213500D02*
D03*
D19*
X274500Y176500D02*
D03*
Y182996D02*
D03*
X343000Y183000D02*
D03*
Y176504D02*
D03*
X331000Y182996D02*
D03*
Y176500D02*
D03*
X319500Y182996D02*
D03*
Y176500D02*
D03*
X308000Y182996D02*
D03*
Y176500D02*
D03*
X296500Y182996D02*
D03*
Y176500D02*
D03*
X286000Y182996D02*
D03*
Y176500D02*
D03*
X262500Y182996D02*
D03*
Y176500D02*
D03*
Y193000D02*
D03*
Y199496D02*
D03*
X274500Y193000D02*
D03*
Y199496D02*
D03*
X285500Y193000D02*
D03*
Y199496D02*
D03*
X296500Y193000D02*
D03*
Y199496D02*
D03*
X308000Y193000D02*
D03*
Y199496D02*
D03*
X319500Y193000D02*
D03*
Y199496D02*
D03*
X331000Y193000D02*
D03*
Y199496D02*
D03*
X343000Y193000D02*
D03*
Y199496D02*
D03*
D29*
X283992Y302272D02*
D03*
X318008D02*
D03*
D30*
X283992Y323374D02*
D03*
X318008D02*
D03*
D38*
X188795Y274142D02*
D03*
Y291858D02*
D03*
X163205D02*
D03*
Y274142D02*
D03*
X311000Y140283D02*
D03*
Y158000D02*
D03*
X336591D02*
D03*
Y140283D02*
D03*
X263705Y140142D02*
D03*
Y157858D02*
D03*
X289295D02*
D03*
Y140142D02*
D03*
X375705Y246642D02*
D03*
Y264358D02*
D03*
X401295D02*
D03*
Y246642D02*
D03*
X428205Y214142D02*
D03*
Y231858D02*
D03*
X453795D02*
D03*
Y214142D02*
D03*
X163500Y186283D02*
D03*
Y204000D02*
D03*
X189091D02*
D03*
Y186283D02*
D03*
X203500Y231283D02*
D03*
Y249000D02*
D03*
X229091D02*
D03*
Y231283D02*
D03*
X123500D02*
D03*
Y249000D02*
D03*
X149091D02*
D03*
Y231283D02*
D03*
D39*
X172000Y324500D02*
D03*
X162000D02*
D03*
X182000D02*
D03*
D40*
X192000D02*
D03*
D41*
X259000D02*
D03*
D42*
X249000D02*
D03*
X239000D02*
D03*
X229000D02*
D03*
X219000D02*
D03*
M02*
