G04*
G04 #@! TF.GenerationSoftware,Altium Limited,Altium Designer,21.2.2 (38)*
G04*
G04 Layer_Color=65535*
%FSLAX25Y25*%
%MOIN*%
G70*
G04*
G04 #@! TF.SameCoordinates,98E345A6-E5E3-4E7C-82CD-A9440516B19A*
G04*
G04*
G04 #@! TF.FilePolarity,Positive*
G04*
G01*
G75*
%ADD10C,0.01000*%
%ADD11C,0.00984*%
%ADD12C,0.00787*%
%ADD13C,0.00394*%
%ADD14C,0.00709*%
%ADD15C,0.00591*%
D10*
X477500Y294630D02*
X477487Y295627D01*
X477450Y296624D01*
X477386Y297619D01*
X477298Y298613D01*
X477184Y299604D01*
X477046Y300592D01*
X476883Y301576D01*
X476694Y302555D01*
X476481Y303529D01*
X476243Y304498D01*
X475981Y305461D01*
X475695Y306416D01*
X475384Y307364D01*
X475049Y308303D01*
X474691Y309234D01*
X474309Y310156D01*
X473904Y311067D01*
X473477Y311968D01*
X473026Y312858D01*
X472553Y313736D01*
X472058Y314602D01*
X471541Y315455D01*
X471003Y316295D01*
X470443Y317121D01*
X469863Y317932D01*
X469263Y318729D01*
X468642Y319510D01*
X468002Y320274D01*
X467343Y321023D01*
X466665Y321755D01*
X465969Y322469D01*
X465255Y323165D01*
X464523Y323843D01*
X463774Y324502D01*
X463010Y325142D01*
X462229Y325763D01*
X461432Y326363D01*
X460621Y326943D01*
X459795Y327503D01*
X458955Y328041D01*
X458102Y328558D01*
X457236Y329053D01*
X456358Y329526D01*
X455468Y329977D01*
X454567Y330404D01*
X453656Y330809D01*
X452734Y331191D01*
X451803Y331549D01*
X450864Y331884D01*
X449916Y332194D01*
X448960Y332481D01*
X447998Y332743D01*
X447029Y332981D01*
X446055Y333194D01*
X445076Y333383D01*
X444092Y333546D01*
X443104Y333684D01*
X442113Y333798D01*
X441119Y333886D01*
X440124Y333949D01*
X439127Y333987D01*
X438130Y334000D01*
Y129500D02*
X439127Y129513D01*
X440124Y129551D01*
X441119Y129614D01*
X442113Y129702D01*
X443104Y129815D01*
X444092Y129954D01*
X445076Y130117D01*
X446055Y130306D01*
X447029Y130519D01*
X447998Y130757D01*
X448960Y131019D01*
X449916Y131306D01*
X450864Y131616D01*
X451803Y131951D01*
X452734Y132309D01*
X453656Y132691D01*
X454567Y133096D01*
X455468Y133523D01*
X456358Y133974D01*
X457236Y134447D01*
X458102Y134942D01*
X458955Y135459D01*
X459795Y135997D01*
X460621Y136556D01*
X461432Y137136D01*
X462228Y137737D01*
X463009Y138357D01*
X463774Y138997D01*
X464523Y139657D01*
X465254Y140335D01*
X465969Y141031D01*
X466665Y141745D01*
X467343Y142477D01*
X468002Y143225D01*
X468642Y143990D01*
X469263Y144771D01*
X469863Y145568D01*
X470443Y146379D01*
X471003Y147205D01*
X471541Y148044D01*
X472058Y148898D01*
X472553Y149763D01*
X473026Y150642D01*
X473476Y151531D01*
X473904Y152432D01*
X474309Y153344D01*
X474691Y154265D01*
X475049Y155196D01*
X475384Y156136D01*
X475694Y157084D01*
X475981Y158039D01*
X476243Y159001D01*
X476481Y159970D01*
X476694Y160944D01*
X476882Y161924D01*
X477046Y162908D01*
X477184Y163896D01*
X477298Y164886D01*
X477386Y165880D01*
X477449Y166876D01*
X477487Y167872D01*
X477500Y168869D01*
X139870Y334000D02*
X138873Y333987D01*
X137876Y333949D01*
X136881Y333886D01*
X135887Y333798D01*
X134896Y333684D01*
X133908Y333546D01*
X132924Y333383D01*
X131945Y333194D01*
X130971Y332981D01*
X130002Y332743D01*
X129040Y332481D01*
X128084Y332194D01*
X127136Y331884D01*
X126197Y331549D01*
X125266Y331191D01*
X124344Y330809D01*
X123433Y330404D01*
X122532Y329977D01*
X121642Y329526D01*
X120764Y329053D01*
X119898Y328558D01*
X119045Y328041D01*
X118205Y327503D01*
X117379Y326943D01*
X116568Y326363D01*
X115771Y325763D01*
X114990Y325142D01*
X114225Y324502D01*
X113477Y323843D01*
X112745Y323165D01*
X112031Y322469D01*
X111335Y321755D01*
X110657Y321023D01*
X109998Y320274D01*
X109358Y319510D01*
X108737Y318728D01*
X108137Y317932D01*
X107556Y317121D01*
X106997Y316295D01*
X106459Y315455D01*
X105942Y314602D01*
X105447Y313736D01*
X104974Y312858D01*
X104523Y311968D01*
X104095Y311067D01*
X103691Y310156D01*
X103309Y309234D01*
X102951Y308303D01*
X102616Y307364D01*
X102305Y306416D01*
X102019Y305460D01*
X101757Y304498D01*
X101519Y303529D01*
X101306Y302555D01*
X101118Y301575D01*
X100954Y300592D01*
X100815Y299604D01*
X100702Y298613D01*
X100614Y297619D01*
X100550Y296624D01*
X100513Y295627D01*
X100500Y294630D01*
Y168870D02*
X100513Y167873D01*
X100550Y166876D01*
X100614Y165881D01*
X100702Y164887D01*
X100815Y163896D01*
X100954Y162908D01*
X101118Y161924D01*
X101306Y160945D01*
X101519Y159970D01*
X101757Y159002D01*
X102019Y158039D01*
X102305Y157084D01*
X102616Y156136D01*
X102951Y155197D01*
X103309Y154266D01*
X103691Y153344D01*
X104096Y152433D01*
X104524Y151532D01*
X104974Y150642D01*
X105447Y149764D01*
X105942Y148898D01*
X106459Y148045D01*
X106997Y147205D01*
X107557Y146379D01*
X108137Y145568D01*
X108737Y144771D01*
X109358Y143991D01*
X109998Y143226D01*
X110657Y142477D01*
X111335Y141745D01*
X112031Y141031D01*
X112745Y140335D01*
X113477Y139657D01*
X114225Y138998D01*
X114990Y138358D01*
X115771Y137737D01*
X116568Y137137D01*
X117379Y136556D01*
X118205Y135997D01*
X119045Y135459D01*
X119898Y134942D01*
X120764Y134447D01*
X121642Y133974D01*
X122532Y133523D01*
X123433Y133096D01*
X124344Y132691D01*
X125266Y132309D01*
X126197Y131951D01*
X127136Y131616D01*
X128084Y131306D01*
X129040Y131019D01*
X130002Y130757D01*
X130971Y130519D01*
X131945Y130306D01*
X132924Y130117D01*
X133908Y129954D01*
X134896Y129815D01*
X135887Y129702D01*
X136881Y129614D01*
X137876Y129551D01*
X138873Y129513D01*
X139870Y129500D01*
X139870D02*
X438130D01*
X139870Y334000D02*
X438130D01*
X477500Y168870D02*
Y294630D01*
X100500Y168870D02*
Y294630D01*
X324500Y298597D02*
Y304595D01*
X327499D01*
X328499Y303595D01*
Y301596D01*
X327499Y300596D01*
X324500D01*
X326499D02*
X328499Y298597D01*
X331498Y302596D02*
X333497D01*
X334497Y301596D01*
Y298597D01*
X331498D01*
X330498Y299597D01*
X331498Y300596D01*
X334497D01*
X337496Y303595D02*
Y302596D01*
X336496D01*
X338495D01*
X337496D01*
Y299597D01*
X338495Y298597D01*
X341494D02*
X343494D01*
X342494D01*
Y302596D01*
X341494D01*
X346493Y298597D02*
Y304595D01*
Y300596D02*
X349492Y302596D01*
X346493Y300596D02*
X349492Y298597D01*
X358489Y304595D02*
Y298597D01*
Y300596D01*
X362488Y304595D01*
X359489Y301596D01*
X362488Y298597D01*
X365487Y302596D02*
X367486D01*
X368486Y301596D01*
Y298597D01*
X365487D01*
X364487Y299597D01*
X365487Y300596D01*
X368486D01*
X370485Y296598D02*
Y302596D01*
X373484D01*
X374484Y301596D01*
Y299597D01*
X373484Y298597D01*
X370485D01*
X377483D02*
X379482D01*
X380482Y299597D01*
Y301596D01*
X379482Y302596D01*
X377483D01*
X376483Y301596D01*
Y299597D01*
X377483Y298597D01*
X383481D02*
X385480D01*
X386480Y299597D01*
Y301596D01*
X385480Y302596D01*
X383481D01*
X382481Y301596D01*
Y299597D01*
X383481Y298597D01*
X388479Y302596D02*
Y298597D01*
Y300596D01*
X389479Y301596D01*
X390479Y302596D01*
X391478D01*
X324500Y287000D02*
Y290999D01*
X326499Y292998D01*
X328499Y290999D01*
Y287000D01*
Y289999D01*
X324500D01*
X334497Y292998D02*
Y287000D01*
X331498D01*
X330498Y288000D01*
Y289999D01*
X331498Y290999D01*
X334497D01*
X337496D02*
X339495D01*
X340495Y289999D01*
Y287000D01*
X337496D01*
X336496Y288000D01*
X337496Y288999D01*
X340495D01*
X342494Y287000D02*
Y290999D01*
X343494D01*
X344494Y289999D01*
Y287000D01*
Y289999D01*
X345493Y290999D01*
X346493Y289999D01*
Y287000D01*
X354490D02*
Y292998D01*
X357489D01*
X358489Y291998D01*
Y289999D01*
X357489Y288999D01*
X354490D01*
X363487Y287000D02*
X361488D01*
X360488Y288000D01*
Y289999D01*
X361488Y290999D01*
X363487D01*
X364487Y289999D01*
Y288999D01*
X360488D01*
X366486Y290999D02*
X370485D01*
X366486Y287000D01*
X370485D01*
X373484D02*
X375483D01*
X376483Y288000D01*
Y289999D01*
X375483Y290999D01*
X373484D01*
X372484Y289999D01*
Y288000D01*
X373484Y287000D01*
X378483Y290999D02*
Y288000D01*
X379482Y287000D01*
X382481D01*
Y290999D01*
X384481Y287000D02*
X386480D01*
X385480D01*
Y292998D01*
X384481D01*
X390479Y290999D02*
X392478D01*
X393478Y289999D01*
Y287000D01*
X390479D01*
X389479Y288000D01*
X390479Y288999D01*
X393478D01*
X395477Y287000D02*
X398476D01*
X399476Y288000D01*
X398476Y288999D01*
X396477D01*
X395477Y289999D01*
X396477Y290999D01*
X399476D01*
X325000Y326096D02*
Y322097D01*
X326999Y320098D01*
X328999Y322097D01*
Y326096D01*
X331998Y324096D02*
X333997D01*
X334997Y323097D01*
Y320098D01*
X331998D01*
X330998Y321097D01*
X331998Y322097D01*
X334997D01*
X336996Y324096D02*
X340995D01*
X336996Y320098D01*
X340995D01*
X342994D02*
X344993D01*
X343994D01*
Y324096D01*
X342994D01*
X353991Y320098D02*
Y326096D01*
X356990D01*
X357989Y325096D01*
Y323097D01*
X356990Y322097D01*
X353991D01*
X355990D02*
X357989Y320098D01*
X363987Y325096D02*
X362988Y326096D01*
X360988D01*
X359989Y325096D01*
Y321097D01*
X360988Y320098D01*
X362988D01*
X363987Y321097D01*
Y323097D01*
X361988D01*
X365987Y326096D02*
Y320098D01*
X368986D01*
X369985Y321097D01*
Y322097D01*
X368986Y323097D01*
X365987D01*
X368986D01*
X369985Y324096D01*
Y325096D01*
X368986Y326096D01*
X365987D01*
X381982Y325096D02*
X380982Y326096D01*
X378982D01*
X377983Y325096D01*
Y321097D01*
X378982Y320098D01*
X380982D01*
X381982Y321097D01*
X384981Y320098D02*
X386980D01*
X387980Y321097D01*
Y323097D01*
X386980Y324096D01*
X384981D01*
X383981Y323097D01*
Y321097D01*
X384981Y320098D01*
X389979D02*
Y324096D01*
X392978D01*
X393978Y323097D01*
Y320098D01*
X396977Y325096D02*
Y324096D01*
X395977D01*
X397976D01*
X396977D01*
Y321097D01*
X397976Y320098D01*
X400975Y324096D02*
Y320098D01*
Y322097D01*
X401975Y323097D01*
X402975Y324096D01*
X403974D01*
X407973Y320098D02*
X409972D01*
X410972Y321097D01*
Y323097D01*
X409972Y324096D01*
X407973D01*
X406974Y323097D01*
Y321097D01*
X407973Y320098D01*
X412971D02*
X414971D01*
X413971D01*
Y326096D01*
X412971D01*
X417970Y320098D02*
X419969D01*
X418970D01*
Y326096D01*
X417970D01*
X425967Y320098D02*
X423968D01*
X422968Y321097D01*
Y323097D01*
X423968Y324096D01*
X425967D01*
X426967Y323097D01*
Y322097D01*
X422968D01*
X428966Y324096D02*
Y320098D01*
Y322097D01*
X429966Y323097D01*
X430966Y324096D01*
X431965D01*
X325000Y314499D02*
X326999Y310500D01*
X328999Y314499D01*
X330998Y310500D02*
X332997D01*
X331998D01*
Y316498D01*
X330998Y315498D01*
X335996Y310500D02*
Y311500D01*
X336996D01*
Y310500D01*
X335996D01*
X340995Y315498D02*
X341995Y316498D01*
X343994D01*
X344993Y315498D01*
Y311500D01*
X343994Y310500D01*
X341995D01*
X340995Y311500D01*
Y315498D01*
X346993Y310500D02*
Y311500D01*
X347993D01*
Y310500D01*
X346993D01*
X351991Y315498D02*
X352991Y316498D01*
X354990D01*
X355990Y315498D01*
Y311500D01*
X354990Y310500D01*
X352991D01*
X351991Y311500D01*
Y315498D01*
D11*
X194405Y291858D02*
X193667Y292284D01*
Y291432D01*
X194405Y291858D01*
X342201Y158000D02*
X341463Y158426D01*
Y157574D01*
X342201Y158000D01*
X294905Y157858D02*
X294167Y158284D01*
Y157432D01*
X294905Y157858D01*
X406906Y264358D02*
X406167Y264785D01*
Y263932D01*
X406906Y264358D01*
X459406Y231858D02*
X458667Y232284D01*
Y231432D01*
X459406Y231858D01*
X194701Y204000D02*
X193963Y204426D01*
Y203574D01*
X194701Y204000D01*
X234701Y249000D02*
X233963Y249426D01*
Y248574D01*
X234701Y249000D01*
X154701D02*
X153963Y249426D01*
Y248574D01*
X154701Y249000D01*
D12*
X116539Y162906D02*
X115752D01*
X116539D01*
X433539Y165405D02*
X432752D01*
X433539D01*
X117039Y310405D02*
X116252D01*
X117039D01*
X436398Y304409D02*
X437185D01*
X436398D01*
X166638Y294811D02*
X184268D01*
X187811Y278563D02*
Y287331D01*
X166638Y271189D02*
X185362D01*
X164189Y278563D02*
Y287437D01*
X276244Y231059D02*
Y238736D01*
X276303Y240114D02*
X326697D01*
Y266886D01*
X276303D02*
X326697D01*
X276303Y240114D02*
Y266886D01*
X156409Y329795D02*
X197591D01*
X156409Y319205D02*
Y329795D01*
X197591Y319205D02*
Y329795D01*
X156409Y319205D02*
X197591D01*
X214000Y319618D02*
X259000D01*
X214000D02*
Y329382D01*
X264000D01*
Y324500D02*
Y329382D01*
X272236Y179354D02*
Y180142D01*
X276764Y179354D02*
Y180142D01*
X345264Y179358D02*
Y180146D01*
X340736Y179358D02*
Y180146D01*
X333264Y179354D02*
Y180142D01*
X328736Y179354D02*
Y180142D01*
X321764Y179354D02*
Y180142D01*
X317236Y179354D02*
Y180142D01*
X310264Y179354D02*
Y180142D01*
X305736Y179354D02*
Y180142D01*
X298764Y179354D02*
Y180142D01*
X294236Y179354D02*
Y180142D01*
X288264Y179354D02*
Y180142D01*
X283736Y179354D02*
Y180142D01*
X264764Y179354D02*
Y180142D01*
X260236Y179354D02*
Y180142D01*
Y195854D02*
Y196642D01*
X264764Y195854D02*
Y196642D01*
X272236Y195854D02*
Y196642D01*
X276764Y195854D02*
Y196642D01*
X283236Y195854D02*
Y196642D01*
X287764Y195854D02*
Y196642D01*
X294236Y195854D02*
Y196642D01*
X298764Y195854D02*
Y196642D01*
X305736Y195854D02*
Y196642D01*
X310264Y195854D02*
Y196642D01*
X317236Y195854D02*
Y196642D01*
X321764Y195854D02*
Y196642D01*
X328736Y195854D02*
Y196642D01*
X333264Y195854D02*
Y196642D01*
X340736Y195854D02*
Y196642D01*
X345264Y195854D02*
Y196642D01*
X311984Y144705D02*
Y153579D01*
X314433Y137331D02*
X333157D01*
X335606Y144705D02*
Y153472D01*
X314433Y160953D02*
X332063D01*
X264689Y144563D02*
Y153437D01*
X267138Y137189D02*
X285862D01*
X288311Y144563D02*
Y153331D01*
X267138Y160811D02*
X284768D01*
X376689Y251063D02*
Y259937D01*
X379138Y243689D02*
X397862D01*
X400311Y251063D02*
Y259831D01*
X379138Y267311D02*
X396768D01*
X429189Y218563D02*
Y227437D01*
X431638Y211189D02*
X450362D01*
X452811Y218563D02*
Y227331D01*
X431638Y234811D02*
X449268D01*
X164484Y190705D02*
Y199579D01*
X166933Y183331D02*
X185657D01*
X188106Y190705D02*
Y199472D01*
X166933Y206953D02*
X184563D01*
X204484Y235705D02*
Y244579D01*
X206933Y228331D02*
X225657D01*
X228106Y235705D02*
Y244472D01*
X206933Y251953D02*
X224563D01*
X124484Y235705D02*
Y244579D01*
X126933Y228331D02*
X145657D01*
X148106Y235705D02*
Y244472D01*
X126933Y251953D02*
X144563D01*
D13*
X141342Y155032D02*
Y158968D01*
X121658Y155032D02*
Y158968D01*
X127563Y147158D02*
X135437D01*
X127563Y166842D02*
X135437D01*
X458343Y157531D02*
Y161469D01*
X438658Y157531D02*
Y161469D01*
X444563Y149657D02*
X452437D01*
X444563Y169343D02*
X452437D01*
X141842Y302532D02*
Y306469D01*
X122158Y302532D02*
Y306469D01*
X128063Y294657D02*
X135937D01*
X128063Y314342D02*
X135937D01*
X448209Y308346D02*
X456083D01*
X448209Y288661D02*
X456083D01*
X442303Y296535D02*
Y300472D01*
X461988Y296535D02*
Y300472D01*
D14*
X164408Y300312D02*
X163752Y300968D01*
X162440D01*
X161785Y300312D01*
Y299656D01*
X162440Y299000D01*
X163752D01*
X164408Y298344D01*
Y297688D01*
X163752Y297032D01*
X162440D01*
X161785Y297688D01*
X165720Y300968D02*
Y297032D01*
X167032Y298344D01*
X168344Y297032D01*
Y300968D01*
X169656D02*
Y297688D01*
X170312Y297032D01*
X171624D01*
X172280Y297688D01*
Y300968D01*
X173592Y297032D02*
Y300968D01*
X175560D01*
X176216Y300312D01*
Y299000D01*
X175560Y298344D01*
X173592D01*
X348709Y178209D02*
Y182144D01*
X350676D01*
X351332Y181488D01*
Y180176D01*
X350676Y179521D01*
X348709D01*
X352644Y178209D02*
Y182144D01*
X354612D01*
X355268Y181488D01*
Y180176D01*
X354612Y179521D01*
X352644D01*
X353956D02*
X355268Y178209D01*
X356580D02*
X357892D01*
X357236D01*
Y182144D01*
X356580Y181488D01*
X359860Y180176D02*
X362484D01*
X363796Y178209D02*
Y182144D01*
X365763D01*
X366420Y181488D01*
Y180176D01*
X365763Y179521D01*
X363796D01*
X367731Y178209D02*
Y182144D01*
X369699D01*
X370355Y181488D01*
Y180176D01*
X369699Y179521D01*
X367731D01*
X369043D02*
X370355Y178209D01*
X371667Y181488D02*
X372323Y182144D01*
X373635D01*
X374291Y181488D01*
Y180833D01*
X373635Y180176D01*
X374291Y179521D01*
Y178865D01*
X373635Y178209D01*
X372323D01*
X371667Y178865D01*
Y179521D01*
X372323Y180176D01*
X371667Y180833D01*
Y181488D01*
X372323Y180176D02*
X373635D01*
X350209Y194209D02*
Y198144D01*
X352176D01*
X352833Y197488D01*
Y196177D01*
X352176Y195521D01*
X350209D01*
X351521D02*
X352833Y194209D01*
X354144D02*
X355456D01*
X354800D01*
Y198144D01*
X354144Y197488D01*
X357424Y196177D02*
X360048D01*
X361360Y194209D02*
Y198144D01*
X363328D01*
X363984Y197488D01*
Y196177D01*
X363328Y195521D01*
X361360D01*
X362672D02*
X363984Y194209D01*
X365296Y197488D02*
X365952Y198144D01*
X367264D01*
X367919Y197488D01*
Y196833D01*
X367264Y196177D01*
X367919Y195521D01*
Y194865D01*
X367264Y194209D01*
X365952D01*
X365296Y194865D01*
Y195521D01*
X365952Y196177D01*
X365296Y196833D01*
Y197488D01*
X365952Y196177D02*
X367264D01*
X351332Y217488D02*
X350676Y218144D01*
X349365D01*
X348709Y217488D01*
Y214865D01*
X349365Y214209D01*
X350676D01*
X351332Y214865D01*
X352644Y214209D02*
X353956D01*
X353300D01*
Y218144D01*
X352644Y217488D01*
X355924Y216177D02*
X358548D01*
X362484Y217488D02*
X361828Y218144D01*
X360516D01*
X359860Y217488D01*
Y214865D01*
X360516Y214209D01*
X361828D01*
X362484Y214865D01*
X363796Y217488D02*
X364452Y218144D01*
X365763D01*
X366420Y217488D01*
Y216832D01*
X365763Y216177D01*
X366420Y215521D01*
Y214865D01*
X365763Y214209D01*
X364452D01*
X363796Y214865D01*
Y215521D01*
X364452Y216177D01*
X363796Y216832D01*
Y217488D01*
X364452Y216177D02*
X365763D01*
X269081Y328075D02*
X273017D01*
Y326107D01*
X272361Y325451D01*
X271049D01*
X270393Y326107D01*
Y328075D01*
X269081Y324139D02*
Y322828D01*
Y323483D01*
X273017D01*
X272361Y324139D01*
X201532Y327280D02*
X205468D01*
Y325312D01*
X204812Y324656D01*
X203500D01*
X202844Y325312D01*
Y327280D01*
X201532Y320720D02*
Y323344D01*
X204156Y320720D01*
X204812D01*
X205468Y321376D01*
Y322688D01*
X204812Y323344D01*
X416204Y166312D02*
X415548Y166968D01*
X414236D01*
X413580Y166312D01*
Y163688D01*
X414236Y163032D01*
X415548D01*
X416204Y163688D01*
X417516Y163032D02*
X418828D01*
X418172D01*
Y166968D01*
X417516Y166312D01*
X420796Y163688D02*
X421452Y163032D01*
X422764D01*
X423420Y163688D01*
Y166312D01*
X422764Y166968D01*
X421452D01*
X420796Y166312D01*
Y165656D01*
X421452Y165000D01*
X423420D01*
X158704Y155800D02*
X158048Y156456D01*
X156736D01*
X156080Y155800D01*
Y153176D01*
X156736Y152520D01*
X158048D01*
X158704Y153176D01*
X160016Y152520D02*
X161328D01*
X160672D01*
Y156456D01*
X160016Y155800D01*
X163296D02*
X163952Y156456D01*
X165264D01*
X165920Y155800D01*
Y155144D01*
X165264Y154488D01*
X165920Y153832D01*
Y153176D01*
X165264Y152520D01*
X163952D01*
X163296Y153176D01*
Y153832D01*
X163952Y154488D01*
X163296Y155144D01*
Y155800D01*
X163952Y154488D02*
X165264D01*
X418704Y298556D02*
X418048Y299212D01*
X416736D01*
X416080Y298556D01*
Y295932D01*
X416736Y295276D01*
X418048D01*
X418704Y295932D01*
X420016Y295276D02*
X421328D01*
X420672D01*
Y299212D01*
X420016Y298556D01*
X423296Y299212D02*
X425920D01*
Y298556D01*
X423296Y295932D01*
Y295276D01*
X310924Y167480D02*
X310268Y168136D01*
X308956D01*
X308300Y167480D01*
Y166824D01*
X308956Y166168D01*
X310268D01*
X310924Y165512D01*
Y164856D01*
X310268Y164200D01*
X308956D01*
X308300Y164856D01*
X312236Y168136D02*
Y164200D01*
X313548Y165512D01*
X314860Y164200D01*
Y168136D01*
X318795Y167480D02*
X318139Y168136D01*
X316827D01*
X316172Y167480D01*
Y166824D01*
X316827Y166168D01*
X318139D01*
X318795Y165512D01*
Y164856D01*
X318139Y164200D01*
X316827D01*
X316172Y164856D01*
X320107Y168136D02*
X322731D01*
X321419D01*
Y164200D01*
X324043D02*
Y168136D01*
X326011D01*
X326667Y167480D01*
Y166168D01*
X326011Y165512D01*
X324043D01*
X325355D02*
X326667Y164200D01*
X327979Y168136D02*
X330603D01*
X329291D01*
Y164200D01*
X263624Y167280D02*
X262968Y167936D01*
X261656D01*
X261000Y167280D01*
Y166624D01*
X261656Y165968D01*
X262968D01*
X263624Y165312D01*
Y164656D01*
X262968Y164000D01*
X261656D01*
X261000Y164656D01*
X264936Y167936D02*
Y164000D01*
X266248Y165312D01*
X267560Y164000D01*
Y167936D01*
X271495Y167280D02*
X270839Y167936D01*
X269527D01*
X268871Y167280D01*
Y166624D01*
X269527Y165968D01*
X270839D01*
X271495Y165312D01*
Y164656D01*
X270839Y164000D01*
X269527D01*
X268871Y164656D01*
X275431Y167936D02*
X272807D01*
Y164000D01*
X275431D01*
X272807Y165968D02*
X274119D01*
X276743Y167936D02*
Y164000D01*
X279367D01*
X203424Y258480D02*
X202768Y259136D01*
X201456D01*
X200800Y258480D01*
Y257824D01*
X201456Y257168D01*
X202768D01*
X203424Y256512D01*
Y255856D01*
X202768Y255200D01*
X201456D01*
X200800Y255856D01*
X204736Y259136D02*
Y255200D01*
X206048Y256512D01*
X207360Y255200D01*
Y259136D01*
X208671Y255200D02*
Y259136D01*
X210639D01*
X211295Y258480D01*
Y257168D01*
X210639Y256512D01*
X208671D01*
X209983D02*
X211295Y255200D01*
X212607Y259136D02*
X213919D01*
X213263D01*
Y255200D01*
X212607D01*
X213919D01*
X218511Y258480D02*
X217855Y259136D01*
X216543D01*
X215887Y258480D01*
Y255856D01*
X216543Y255200D01*
X217855D01*
X218511Y255856D01*
Y257168D01*
X217199D01*
X219823Y259136D02*
Y255200D01*
Y257168D01*
X222447D01*
Y259136D01*
Y255200D01*
X223759Y259136D02*
X226382D01*
X225070D01*
Y255200D01*
X123424Y258480D02*
X122768Y259136D01*
X121456D01*
X120800Y258480D01*
Y257824D01*
X121456Y257168D01*
X122768D01*
X123424Y256512D01*
Y255856D01*
X122768Y255200D01*
X121456D01*
X120800Y255856D01*
X124736Y259136D02*
Y255200D01*
X126048Y256512D01*
X127360Y255200D01*
Y259136D01*
X128672D02*
Y255200D01*
X131295D01*
X135231Y259136D02*
X132607D01*
Y255200D01*
X135231D01*
X132607Y257168D02*
X133919D01*
X139167Y259136D02*
X136543D01*
Y257168D01*
X137855D01*
X136543D01*
Y255200D01*
X140479Y259136D02*
X143103D01*
X141791D01*
Y255200D01*
X163424Y213480D02*
X162768Y214136D01*
X161456D01*
X160800Y213480D01*
Y212824D01*
X161456Y212168D01*
X162768D01*
X163424Y211512D01*
Y210856D01*
X162768Y210200D01*
X161456D01*
X160800Y210856D01*
X164736Y214136D02*
Y210200D01*
X166048Y211512D01*
X167360Y210200D01*
Y214136D01*
X168672D02*
Y210200D01*
X170639D01*
X171295Y210856D01*
Y213480D01*
X170639Y214136D01*
X168672D01*
X174575D02*
X173263D01*
X172607Y213480D01*
Y210856D01*
X173263Y210200D01*
X174575D01*
X175231Y210856D01*
Y213480D01*
X174575Y214136D01*
X176543D02*
Y210200D01*
X177855Y211512D01*
X179167Y210200D01*
Y214136D01*
X180479Y210200D02*
Y214136D01*
X183103Y210200D01*
Y214136D01*
X375624Y273780D02*
X374968Y274436D01*
X373656D01*
X373000Y273780D01*
Y273124D01*
X373656Y272468D01*
X374968D01*
X375624Y271812D01*
Y271156D01*
X374968Y270500D01*
X373656D01*
X373000Y271156D01*
X376936Y274436D02*
Y270500D01*
X378248Y271812D01*
X379560Y270500D01*
Y274436D01*
X380872D02*
Y270500D01*
X382839D01*
X383495Y271156D01*
Y271812D01*
X382839Y272468D01*
X380872D01*
X382839D01*
X383495Y273124D01*
Y273780D01*
X382839Y274436D01*
X380872D01*
X428124Y241280D02*
X427468Y241936D01*
X426156D01*
X425500Y241280D01*
Y240624D01*
X426156Y239968D01*
X427468D01*
X428124Y239312D01*
Y238656D01*
X427468Y238000D01*
X426156D01*
X425500Y238656D01*
X429436Y241936D02*
Y238000D01*
X430748Y239312D01*
X432060Y238000D01*
Y241936D01*
X433371Y238000D02*
Y240624D01*
X434683Y241936D01*
X435995Y240624D01*
Y238000D01*
Y239968D01*
X433371D01*
X430285Y175968D02*
Y172032D01*
X432908D01*
X436844Y175968D02*
X434220D01*
Y172032D01*
X436844D01*
X434220Y174000D02*
X435532D01*
X438156Y175968D02*
Y172032D01*
X440124D01*
X440780Y172688D01*
Y175312D01*
X440124Y175968D01*
X438156D01*
X442092Y175312D02*
X442748Y175968D01*
X444060D01*
X444715Y175312D01*
Y174656D01*
X444060Y174000D01*
X444715Y173344D01*
Y172688D01*
X444060Y172032D01*
X442748D01*
X442092Y172688D01*
Y173344D01*
X442748Y174000D01*
X442092Y174656D01*
Y175312D01*
X442748Y174000D02*
X444060D01*
X118284Y173468D02*
Y169532D01*
X120908D01*
X124844Y173468D02*
X122220D01*
Y169532D01*
X124844D01*
X122220Y171500D02*
X123532D01*
X126156Y173468D02*
Y169532D01*
X128124D01*
X128780Y170188D01*
Y172812D01*
X128124Y173468D01*
X126156D01*
X130092D02*
X132715D01*
Y172812D01*
X130092Y170188D01*
Y169532D01*
X119784Y320468D02*
Y316532D01*
X122408D01*
X126344Y320468D02*
X123720D01*
Y316532D01*
X126344D01*
X123720Y318500D02*
X125032D01*
X127656Y320468D02*
Y316532D01*
X129624D01*
X130280Y317188D01*
Y319812D01*
X129624Y320468D01*
X127656D01*
X134215D02*
X132904Y319812D01*
X131592Y318500D01*
Y317188D01*
X132248Y316532D01*
X133560D01*
X134215Y317188D01*
Y317844D01*
X133560Y318500D01*
X131592D01*
X439285Y313968D02*
Y310032D01*
X441908D01*
X445844Y313968D02*
X443220D01*
Y310032D01*
X445844D01*
X443220Y312000D02*
X444532D01*
X447156Y313968D02*
Y310032D01*
X449124D01*
X449780Y310688D01*
Y313312D01*
X449124Y313968D01*
X447156D01*
X453716D02*
X451092D01*
Y312000D01*
X452404Y312656D01*
X453060D01*
X453716Y312000D01*
Y310688D01*
X453060Y310032D01*
X451748D01*
X451092Y310688D01*
X275500Y283636D02*
X276812D01*
X276156D01*
Y279700D01*
X275500D01*
X276812D01*
X281404Y282980D02*
X280748Y283636D01*
X279436D01*
X278780Y282980D01*
Y280356D01*
X279436Y279700D01*
X280748D01*
X281404Y280356D01*
X282716Y279700D02*
X284027D01*
X283371D01*
Y283636D01*
X282716Y282980D01*
X156204Y306312D02*
X155548Y306968D01*
X154236D01*
X153580Y306312D01*
Y303688D01*
X154236Y303032D01*
X155548D01*
X156204Y303688D01*
X157516Y303032D02*
X158828D01*
X158172D01*
Y306968D01*
X157516Y306312D01*
X160796D02*
X161452Y306968D01*
X162764D01*
X163420Y306312D01*
Y305656D01*
X162764Y305000D01*
X162108D01*
X162764D01*
X163420Y304344D01*
Y303688D01*
X162764Y303032D01*
X161452D01*
X160796Y303688D01*
D15*
X163050Y314942D02*
X163542Y315434D01*
Y316418D01*
X163050Y316910D01*
X161082D01*
X160591Y316418D01*
Y315434D01*
X161082Y314942D01*
X162066D01*
Y315926D01*
X160591Y313958D02*
X163542D01*
X160591Y311990D01*
X163542D01*
Y311006D02*
X160591D01*
Y309530D01*
X161082Y309038D01*
X163050D01*
X163542Y309530D01*
Y311006D01*
X174042Y316910D02*
Y314942D01*
Y315926D01*
X171090D01*
X174042Y313958D02*
X171090Y311990D01*
X174042D02*
X171090Y313958D01*
X180590Y316910D02*
X183542D01*
Y315434D01*
X183050Y314942D01*
X182066D01*
X181574Y315434D01*
Y316910D01*
Y315926D02*
X180590Y314942D01*
X183542Y313958D02*
X180590Y311990D01*
X183542D02*
X180590Y313958D01*
X193542Y316910D02*
X191575D01*
X190591Y315926D01*
X191575Y314942D01*
X193542D01*
Y313958D02*
X190591D01*
Y312482D01*
X191083Y311990D01*
X193050D01*
X193542Y312482D01*
Y313958D01*
Y311006D02*
X190591D01*
Y309530D01*
X191083Y309038D01*
X193050D01*
X193542Y309530D01*
Y311006D01*
X218091Y317409D02*
X221042D01*
Y315934D01*
X220550Y315442D01*
X219566D01*
X219075Y315934D01*
Y317409D01*
X220550Y312490D02*
X221042Y312982D01*
Y313966D01*
X220550Y314458D01*
X218583D01*
X218091Y313966D01*
Y312982D01*
X218583Y312490D01*
X219566D01*
Y313474D01*
X220550Y309538D02*
X221042Y310030D01*
Y311014D01*
X220550Y311506D01*
X218583D01*
X218091Y311014D01*
Y310030D01*
X218583Y309538D01*
X228590Y317409D02*
X231542D01*
Y315934D01*
X231050Y315442D01*
X230066D01*
X229574Y315934D01*
Y317409D01*
X231050Y312490D02*
X231542Y312982D01*
Y313966D01*
X231050Y314458D01*
X229082D01*
X228590Y313966D01*
Y312982D01*
X229082Y312490D01*
X230066D01*
Y313474D01*
X231542Y311506D02*
X228590D01*
Y310030D01*
X229082Y309538D01*
X231050D01*
X231542Y310030D01*
Y311506D01*
X241050Y315442D02*
X241542Y315934D01*
Y316917D01*
X241050Y317409D01*
X239083D01*
X238591Y316917D01*
Y315934D01*
X239083Y315442D01*
X240066D01*
Y316425D01*
X238591Y314458D02*
X241542D01*
X238591Y312490D01*
X241542D01*
Y311506D02*
X238591D01*
Y310030D01*
X239083Y309538D01*
X241050D01*
X241542Y310030D01*
Y311506D01*
X251042Y317409D02*
X249075D01*
X248091Y316425D01*
X249075Y315442D01*
X251042D01*
Y314458D02*
X248091D01*
Y312982D01*
X248583Y312490D01*
X250550D01*
X251042Y312982D01*
Y314458D01*
Y311506D02*
X248091D01*
Y310030D01*
X248583Y309538D01*
X250550D01*
X251042Y310030D01*
Y311506D01*
X257591Y317409D02*
X260542D01*
X259558Y316425D01*
X260542Y315442D01*
X257591D01*
X260050Y312490D02*
X260542Y312982D01*
Y313966D01*
X260050Y314458D01*
X258083D01*
X257591Y313966D01*
Y312982D01*
X258083Y312490D01*
X260542Y311506D02*
X257591D01*
Y309538D01*
Y308554D02*
X260542D01*
Y307078D01*
X260050Y306586D01*
X259066D01*
X258575Y307078D01*
Y308554D01*
Y307570D02*
X257591Y306586D01*
M02*
